<svg xmlns="http://www.w3.org/2000/svg" width="200" height="71.791" xmlns:v="https://vecta.io/nano"><g transform="scale(1.127)"><path d="M120.44 46.071c-.01.01-.02.01-.02.02-7.56 5.35-16.51 10.97-26.14 16.87l-.38.22c-.13.09-.16.27-.07.4s.27.16.4.07l.32-.17 26.99-14.51c.05-.03.1-.06.15-.08-.52-.86-.95-1.8-1.25-2.82zm49.6-40.15c-11.91-13.14-88.56-1.32-121.15 5.8l-.76.16c-.16.03-.26.18-.23.33.03.16.18.26.33.23l.75-.15c27-4.81 83.16-11.47 95.24.51 3.69 3.66 2.81 8.36-1.47 13.92 2.3 1.48 3.94 3.81 4.68 6.72 16.7-11.08 27.91-21.67 22.61-27.52z" fill="#d03027"/><g fill="#004977"><path d="M125.26 42.621c.15 4.62 3.08 8.41 6.89 8.41 7.39 0 10.54-9.08 10.32-15.14-.16-4.63-3.16-8.41-6.97-8.41-6.35-.01-10.46 9.03-10.24 15.14zm-3.9-.25c-.27-7.89 5.91-15.96 14.89-15.96 6 0 9.93 4 10.15 10.13.29 8.32-5.49 15.96-14.88 15.96-6.02 0-9.95-3.99-10.16-10.13zm-85.047-2.08c-.32.12-.73.24-1.25.35-.51.12-1.45.28-2.81.5-.94.15-1.59.34-1.96.61-.35.26-.56.57-.62.96a.94.94 0 0 0 .41.99c.36.25.96.38 1.81.38.64 0 1.26-.1 1.86-.3.61-.2 1.13-.47 1.52-.81.29-.25.5-.57.66-.96.1-.26.23-.83.38-1.72zm7.8-4.85c-.03.72-.16 1.36-.35 2.47l-1.32 7.41c-.11.66.13 1.17.74 1.53l-.04.29-7.56-.01-.07-1.88c-1.1.66-2.43 1.22-3.63 1.55-1.2.31-2.17.44-3.62.44-2.44 0-3.84-.25-4.81-1.1-.98-.87-1.46-1.45-1.41-2.65.04-.69.4-1.58.91-2.2.52-.63 1.24-1.04 2.01-1.41.78-.37 1.7-.64 3.03-.85 1.34-.22 3.2-.43 5.69-.64 1.31-.11 2.11-.41 2.48-.56.52-.2.73-.43.8-.85.14-.76-.1-1.2-1.12-1.4-2.72-.54-7.83.35-10.46 1l1.43-3.86c3.47-.51 6.72-.83 10.15-.83 5.47 0 7.21 1.55 7.15 3.55zm21.92 11.69l2.62-14.81h7.24l-2.62 14.81zm3.02-18.24c.22-1.22 2.14-2.2 4.28-2.2 2.15 0 3.72.99 3.51 2.2-.23 1.22-2.14 2.21-4.3 2.21-2.14 0-3.7-.99-3.49-2.21zm32.547 11.43c-.33.11-.75.23-1.26.35s-1.45.27-2.81.49c-.93.15-1.59.34-1.95.61-.35.25-.55.57-.63.95-.08.41.07.74.41.99.37.25.97.37 1.82.37.63 0 1.25-.09 1.86-.28.62-.21 1.13-.47 1.53-.81.28-.25.49-.58.64-.96.1-.25.23-.82.39-1.71zm7.8-4.86c-.03.73-.16 1.37-.36 2.47l-1.31 7.42c-.11.65.13 1.17.74 1.53l-.04.26-7.56.01-.06-1.89c-1.1.67-2.44 1.23-3.63 1.55-1.2.32-2.17.45-3.64.45-2.44 0-3.83-.24-4.8-1.1-.99-.88-1.46-1.45-1.41-2.65.03-.7.39-1.59.91-2.2.52-.64 1.24-1.04 2.02-1.41s1.7-.64 3.02-.86l5.7-.64c1.3-.11 2.1-.4 2.47-.55.53-.2.73-.43.81-.86.13-.75-.1-1.19-1.11-1.4-2.74-.54-7.83.35-10.46 1l1.42-3.86c3.48-.51 6.72-.83 10.15-.83 5.45.01 7.19 1.57 7.14 3.56zm-88.337 6.35c-2.36.47-3.68.65-6.01.65-3.46 0-6.21-1.72-6.06-4.87.11-2.1 2.59-6.52 8.9-6.52 1.99 0 3.54.35 5.63 1.54l.92-5.14c-2.84-1.07-4.72-1.23-7.16-1.21-8.28.09-16.22 3.85-17.21 11.5-1 7.77 8.49 9.72 12.7 9.7 2.43-.01 4.96-.11 7.32-.35zm58.82-9.57l.52-3.02 7.57-1.65-.81 4.66h3.71l-.7 2.98-3.6-.01-2.19 11.91s-7.29-.05-7.32 0l2.18-11.88h-2.74l.56-3h2.82zm40.39-5.57l-3.52 20.45-7.37.01 3.71-20.66zm-63.82 9.12c-.95 0-1.81.29-2.57.86-.76.58-1.24 1.42-1.43 2.53-.23 1.29-.09 2.22.42 2.79.52.57 1.26.86 2.24.86.66 0 1.34-.12 1.84-.37.62-.33 1.05-.67 1.42-1.22.4-.57.66-1.21.8-1.95.21-1.17.03-2.04-.51-2.62-.53-.58-1.26-.88-2.21-.88zm-13.18 16.45l3.53-19.84h6.36l-.49 2.53c.55-.76 1.43-1.38 2.65-1.88 1.23-.5 2.61-.87 4.11-.87 1.66 0 2.68.09 3.92.73 1.23.65 2.1 1.59 2.56 2.81.48 1.2.58 2.56.32 4.03-.43 2.45-1.62 4.37-3.58 5.79-1.94 1.42-3.69 1.79-6.18 1.8-.88 0-1.62-.09-2.23-.24-.6-.16-1.08-.35-1.44-.58-.35-.23-.72-.56-1.19-1.08l-1.18 6.8zm131.417-14.63c-.04-1.19-.64-2-1.87-2-2.97 0-6.13 5.82-6.67 8.16 4.87.01 8.66-2.89 8.54-6.16zm.64 9.12l.57.39c-1.45 2.95-4.4 5.32-7.86 5.32-2.83 0-5.16-1.89-5.28-5.43-.23-6.35 5.72-12.24 10.59-12.24 2.09 0 4.03.91 4.11 3.16.18 5.05-6.91 6.59-11.58 6.7-.15.53-.21 1.06-.18 1.86.08 2.09 1.34 3.85 3.96 3.85 2.26 0 4.52-1.82 5.67-3.61z"/><path d="M146.29 37.451l1.66-.16c.53 0 1.03.1 1.06.63.01.31-.55 2.56-.67 3.08l-1.13 4.98-1.39 5.86h2.9l1.63-7.89c4.97-5.18 6.89-6.87 8.06-6.87.53 0 .89.28.92.91.03.91-.54 2.98-.73 3.58l-1.66 5.75c-.38 1.29-.66 2.46-.63 3.29.05 1.26.81 1.82 1.95 1.82 2.12 0 3.66-2.21 5-4.38l-.39-.71c-.54.87-1.8 2.78-2.79 2.78-.31 0-.61-.21-.62-.73-.03-.67.25-1.68.45-2.35l1.85-6.74c.5-1.86.73-3.05.72-3.69-.05-1.26-.78-1.85-1.91-1.85-1.91 0-4.44 1.4-9.81 7.57h-.08l.68-3.01c.37-1.65.73-3.37 1.07-4.56-1.86.67-4.52 1.42-6.16 1.74z"/></g></g></svg>