<svg xmlns="http://www.w3.org/2000/svg" width="748.344" height="179.365" overflow="visible" fill-rule="evenodd" xmlns:v="https://vecta.io/nano"><path fill="#00529f" d="M0 0h748.344v179.365H0V0z"/><path d="M340.334 122.232h45.92v13.414h-45.92v-13.414zm58.627 0h45.922v13.414h-45.922v-13.414zm59.242 0h45.926v13.414h-45.926v-13.414zm59.012 0h45.922v13.414h-45.922v-13.414zm58.621 0h42.758v13.414h-42.758v-13.414zM191.469 83.531c-.324 6.143-2.34 7.91-5.326 7.91-5.809 0-6.293-6.621-6.293-15.492 0-9.361.561-15.496 6.529-15.496 2.832 0 5.244 1.291 5.574 7.912h21.139c-.086-17.111-12.508-23.076-27.189-23.076-19.689 0-30.5 12.266-29.943 30.412 0 18.484 9.453 30.906 29.859 30.906 14.449 0 27.273-7.016 27.273-23.076h-21.623 0zm89.263 20.858h22.361V83.883h2.629c3.676 0 5.117 1.115 5.59 3.98.805 4.955-.049 3.611 2.029 16.525h22.369c-1.102-10.5-1.639-16.846-2.908-21.795-1.121-4.395-4.162-6.869-9.748-7.35v-.153c8.627-2.08 11.422-7.107 11.422-13.738 0-10.859-7.273-14.613-19.648-14.613h-34.096v57.65h0zm-70.259.687h22.115l2.336-9.359h16.707l2.254 9.359h23.888l-18.724-58.258h-29.928l-18.648 58.258z" fill="#ffd520"/><path d="M238.693 81.816l5.09-21.937h.168l4.596 21.937h-9.854zm63.178-11.953V58.916h2.086c4.465 0 7.418.889 7.418 5.117 0 4.316-3.189 5.83-7.582 5.83h-1.922 0z" fill="#00529f"/><g fill="#fff"><path d="M341.086 105.311h23.529V69.07c0-4.637 2.039-6.486 4.266-6.486 2.24 0 4.09 2.203 4.09 6.254v36.473h23.518V69.07c0-4.637 2.039-6.486 4.281-6.486 2.234 0 4.074 2.203 4.074 6.254v36.473h23.531V66.645c0-15.406-7.102-21.188-16.914-21.188-5.547 0-11.383 2.186-15.367 10.529-3-7.184-8.445-10.529-15.934-10.529-5.541 0-11.373 2.186-15.355 10.529h-.189l-.588-8.799h-22.941v58.124h-.001zm194.086.085h23.531l-16.129-30.945 13.133-26.592h-24.512l-6.511 18.305-7.856-18.305h-24.512l14.278 26.592-15.731 30.945h23.797l10.024-21.121 10.488 21.121z"/><path d="M466.879 69.639h-3.227c-20.961 0-32.113 5.844-32.113 20.059 0 11.348 8.027 17.535 19.402 17.535 6.129 0 12.035-1.945 15.938-7.227l.672 5.508h23.633V66.652c0-13.406-6.922-20.402-28.426-20.402-14.164 0-27.977 3.322-28.871 18.801h22.289c.34-4.813 2.125-5.957 5.473-5.957 3.781 0 5.23 1.721 5.23 4.58v5.965h0z"/></g><path fill="#00529f" d="M465.059 85.525c0 4.701-1.449 7.801-6.133 7.801-4.121 0-6.25-2.301-6.25-5.967 0-3.203 1.57-6.646 8.699-6.646h3.684v4.812h0z"/><path fill="#d4de28" d="M562.699 56.291h.898v-2.955h1.125c1.066 0 1.313.256 1.41 1.25.125 1.023.191 1.289.32 1.705h.93c-.227-.648-.289-1.258-.379-2.059-.098-.809-.328-1.088-.996-1.25 1.215-.359 1.215-1.385 1.215-1.576 0-1.633-1.734-1.633-2.215-1.633h-2.309v6.518h.001zm.899-5.75h1.41c.48 0 1.285 0 1.285 1.025 0 1.002-.832 1.002-1.285 1.002h-1.41v-2.027h0zm1.312-3.523c-3.238 0-6.059 2.658-6.059 6.063s2.793 6.1 6.059 6.1c3.309 0 6.07-2.697 6.07-6.1a6.06 6.06 0 0 0-6.07-6.063v.713c3.02 0 5.344 2.475 5.344 5.35 0 2.986-2.387 5.389-5.344 5.389-2.922 0-5.344-2.369-5.344-5.389 0-2.947 2.422-5.35 5.344-5.35v-.713h0z"/></svg>