<svg xmlns="http://www.w3.org/2000/svg" height="159.976" width="738.961" xmlns:v="https://vecta.io/nano"><path d="M300.537 135.62l-.025-.07-.289-.787c.135.272.235.561.315.857" fill="#19304e"/><path d="M300.674 137.583H.7c-1.513-2.64-.573-6.604 2.808-7.109.415-.267.959-.406 1.404-.524l14.09-3.579c2.116-.515 3.974-1.158 4.855-3.451.682-1.791 2.274-2.294 4.103-2.333 2.709-.08 5.063-.741 5.369-4.094.03-.375.237-.949.524-1.078 5.142-2.452 6.704-9.216 12.706-10.619 7.891-1.83 13.201-7.634 19.281-12.281.88-.672 1.522-1.128 2.531-1.533.514-.217 1.058-.395 1.394-.188.366.218 1.029 1.137 1.039 1.839.069 6.486 3.955 11.875 9.68 13.369 3.569.93 6.417-1.374 8.592-3.451 2.235-2.135 3.431-1.76 5.043.168 1.532 1.799 3.114 2.363 5.507 1.266 1.849-.84 4.054-.979 6.12-1.285 2.106-.287 3.797-.702 3.837-3.421.049-1.977 1.364-2.867 3.164-1.68 2.58 1.71 4.479.256 6.536-.979 1.948-1.167 3.816-3.244 6.259-.633.652.711 1.532-.109 2.264-.465 2.857-1.375 4.617-5.933 4.559-9.315-.08-3.915 2.175-7.296 4.844-9.897 4.065-3.965 7.772-7.861 9.127-13.705.703-3.016 4.005-4.578 5.448-7.633 1.325-2.818 3.007-5.459 3.837-8.554.345-1.285.029-3.549 2.244-3.469 1.84.059 3.5.979 4.548 2.659.456.703.723 1.533 1.216 2.187 2.888 3.816 7.229 3.371 9.265-.94l6.081-12.913c1.057-2.077 2.383-4.54 5.251-1.592 1.413 1.453 2.481.652 3.233-.851 1.295-2.551 3.48-4.004 5.715-5.745 4.331-3.381 8.157-7.405 9.601-13.328.484-1.988 1.355-5.073 2.076-7.505.515-1.78 2.68-2.452 4.123-1.276l8.307 6.804c.909.732 1.8 1.492 2.699 2.253.535.436 1.048.891 1.563 1.325 2.353 2.008 3.441 1.523 4.4-1.216.692-2.008.831-4.835 3.817-4.875 3.401-.029 6.071 1.839 8.413 4.143.723.692.515 1.623-.019 2.315-2.552 3.341.019 4.963 2.461 5.211 4.727.504 7.445 4.064 10.689 6.476 7.159 5.309 3.619 11.807-1.909 15.475-3.332 2.204-4.232 5.18-4.716 8.276-.425 2.699.603 4.172 2.501 4.212.643.02 1.385-.139 2.205-.455.247-.098.484-.208.741-.327 3.135-1.532 5.211-2.709 6.209 2.551.663 3.619 3.58 7.011 8.495 6.526 3.995-.385 6.98 1.276 9.156 4.618 1.819 2.828 4.667 4.261 7.643 5.596 4.163 1.879 4.756 3.49 2.136 6.981-1.652 2.165-1.099 4.756-.683 6.357.831 3.036-.307 3.303-2.877 3.471 2.709.692 3.411 2.818 4.301 4.687 1.236 2.6 2.273 5.606.257 7.969-2.037 2.373-3.056-2.284-5.409-1.394.475 1.987 2.888 3.649.9 6.239-.82 1.088.949 2.304 2.176 3.105 2.045 1.334 2.857 3.055 2.235 5.715-.683 2.927-3.472 2.452-5.103 3.768-.86.71-1.711-.544-2.175-1.415-1.128-2.105-3.401-2.857-5.092-4.281-.524-.464-1.276-.84-1.751.02-.425.77.099 1.375.831 1.612 1.671.533 3.124 1.581 4.044 2.916 2.145 3.155 4.272 4.144 7.316 1.108 1.009-.99 2.375-.455 3.56.079 1.8.81 3.847 1.829 5.647 1.217 3.451-1.197 4.36.641 4.795 3.272.623 3.778 2.176 7.248 3.481 10.787.088.248.188.485.287.743l.009.039.02.069c.159.633.208 1.305.139 1.968m21.487-67.714c-2.227 2.709-2.787 6.314-7.333 7.723-3.416 1.059-4.292 6.395-4.808 10.236-.555 4.129-2.211 7.708-3.783 11.416-1.235 2.908-3.219 5.411-3.635 8.807-.271 2.211-2.047 4.314-4.857 4.559-3.108.272-2.859-2.588-3.781-4.238-.907-1.624-.851-3.556-.565-5.363 1.256-7.913 3.617-15.478 7.235-22.648.515-1.023 1.345-1.31 2.259-1.674.832-.332 1.392-.995 1.419-1.916.131-4.434 1.773-6.63 6.212-7.38 3.839-.648 7.673-1.659 11.639-1.205v1.684" fill="#273474"/><g fill="#fff"><path d="M215.6 55.89a4.42 4.42 0 0 1 4.416-4.415 4.42 4.42 0 0 1 4.416 4.415 4.42 4.42 0 0 1-4.416 4.414 4.42 4.42 0 0 1-4.416-4.414zm-2.207 0c0 3.651 2.971 6.622 6.623 6.622 3.276 0 5.995-2.392 6.523-5.519h4.516a4.42 4.42 0 0 1 4.416 4.411v22.161h2.207V61.406a6.63 6.63 0 0 0-6.623-6.62h-4.516a6.63 6.63 0 0 0-6.523-5.52c-3.652 0-6.623 2.972-6.623 6.625m-93.59 51.97c0-2.435 1.981-4.416 4.416-4.416s4.416 1.981 4.416 4.416a4.42 4.42 0 0 1-4.416 4.414 4.42 4.42 0 0 1-4.416-4.414zm-2.207 0c0 3.651 2.971 6.623 6.623 6.623 3.276 0 5.995-2.392 6.523-5.52h4.516a4.42 4.42 0 0 1 4.416 4.41v17.155h2.207v-17.155a6.63 6.63 0 0 0-6.623-6.62h-4.516a6.63 6.63 0 0 0-6.523-5.519c-3.652 0-6.623 2.971-6.623 6.625m65.207 7.951a4.42 4.42 0 0 1-4.411-4.42c0-2.433 1.979-4.41 4.411-4.41s4.409 1.977 4.409 4.41c0 2.441-1.977 4.42-4.409 4.42zm11.035-4.42h-4.409c0-3.649-2.967-6.625-6.625-6.625a6.64 6.64 0 0 0-6.625 6.625 6.64 6.64 0 0 0 6.625 6.624c2.877 0 5.329-1.848 6.239-4.409h4.796a4.42 4.42 0 0 1 4.42 4.42v19.557h2.204v-19.557c0-3.659-2.965-6.635-6.624-6.635m60.601 4.42c-2.433 0-4.42-1.979-4.42-4.42 0-2.433 1.987-4.41 4.42-4.41s4.409 1.977 4.409 4.41c0 2.441-1.977 4.42-4.409 4.42zm0-11.045a6.64 6.64 0 0 0-6.625 6.625h-4.42c-3.648 0-6.615 2.976-6.615 6.635v19.557h2.205v-19.557c0-2.443 1.987-4.42 4.409-4.42h4.805c.911 2.561 3.361 4.409 6.24 4.409 3.657 0 6.624-2.976 6.624-6.624s-2.967-6.625-6.624-6.625m-146.902 18.331c-2.432 0-4.42-1.988-4.42-4.42s1.987-4.409 4.42-4.409 4.421 1.978 4.421 4.409-1.988 4.42-4.421 4.42zm11.035-5.518h-4.509c-.533-3.134-3.253-5.527-6.526-5.527-3.658 0-6.624 2.976-6.624 6.624 0 3.659 2.966 6.625 6.624 6.625a6.64 6.64 0 0 0 6.526-5.517h4.509c2.432 0 4.42 1.987 4.42 4.42v13.378h2.204v-13.378a6.64 6.64 0 0 0-6.624-6.626m118.719-82.626c-2.437 0-4.413-2.063-4.413-4.599s1.976-4.593 4.413-4.593 4.417 2.061 4.417 4.593-1.981 4.599-4.417 4.599zm0-11.488c-3.277 0-5.995 2.487-6.525 5.744h-3.557c-1.741 0-3.152-1.477-3.152-3.283V13.272c-.551-.129-1.2-.531-1.987-1.205l-.22-.185v14.044c0 3.072 2.401 5.579 5.359 5.579h3.557c.531 3.252 3.248 5.744 6.525 5.744 3.652 0 6.624-3.092 6.624-6.895s-2.972-6.889-6.624-6.889m25.33 76.064c-2.432 0-4.413-2.061-4.413-4.598s1.981-4.593 4.413-4.593 4.419 2.061 4.419 4.593-1.983 4.598-4.419 4.598zm0-11.487c-3.277 0-5.993 2.486-6.524 5.744h-3.557c-1.741 0-3.152-1.471-3.152-3.282V52.838c-.865.18-1.611.145-2.207-.1v37.765c0 3.077 2.401 5.579 5.359 5.579h3.557c.531 3.251 3.247 5.743 6.524 5.743 3.653 0 6.624-3.092 6.624-6.894s-2.971-6.89-6.624-6.89"/><path d="M208.897 71.44c2.435 0 4.416 1.981 4.416 4.416a4.42 4.42 0 0 1-4.416 4.415 4.42 4.42 0 0 1-4.416-4.415c0-2.435 1.981-4.416 4.416-4.416zm-10.083 5.52h3.56c.528 3.127 3.247 5.519 6.523 5.519a6.63 6.63 0 0 0 6.623-6.622 6.63 6.63 0 0 0-6.623-6.623c-3.276 0-5.995 2.392-6.523 5.519h-3.56c-1.739 0-3.152-1.415-3.152-3.153V59.89h-2.208v11.709a5.37 5.37 0 0 0 5.36 5.36m-12.167-26.897c-2.432 0-4.413-1.981-4.413-4.419a4.42 4.42 0 0 1 4.413-4.412 4.42 4.42 0 0 1 4.417 4.412c0 2.437-1.98 4.419-4.417 4.419zm13.239-32.927v24.256a3.16 3.16 0 0 1-3.152 3.152h-3.563c-.525-3.127-3.247-5.519-6.524-5.519a6.63 6.63 0 0 0-6.619 6.619c0 3.653 2.972 6.625 6.619 6.625 3.277 0 5.999-2.392 6.524-5.518h3.563a5.37 5.37 0 0 0 5.359-5.359V12.982c-.585 1.507-1.336 2.883-2.207 4.153m-60.219 113.558h18.678v-2.208h-18.678zm85.578-46.786h12.432V81.7h-12.432z"/><path d="M195.683 59.888v2.211H145.14l.095-.385c.155-.671.435-1.266.795-1.827h49.653m-39.488 77.696h2.205v-9.097h-2.205zm69.056 0h2.205V81.698h-2.205z"/></g><g fill="#273474"><path d="M359.726 159.976h4V0h-4zm52.954-85.221h-3.705L398.654 43.35h4.94l7.235 22.848 7.232-22.848h5.029l-10.41 31.405m20.017 0h4.764V43.351h-4.764zm30.078-27.125h-7.057v9.836h7.057c3.175 0 5.336-1.809 5.336-4.896s-2.161-4.94-5.336-4.94zm5.512 27.126l-6.616-13.232h-5.953v13.232h-4.765V43.351h12.175c5.955 0 9.748 3.837 9.748 9.174 0 4.498-2.735 7.366-6.264 8.336l7.233 13.894h-5.557m35.631-3.308c-2.381 2.514-5.337 3.573-8.644 3.573-3.265 0-6.088-1.19-8.249-3.352-3.087-3.087-3.043-6.573-3.043-12.616s-.044-9.525 3.043-12.615c2.161-2.161 4.896-3.352 8.249-3.352 6.66 0 10.541 4.367 11.423 9.748h-4.808c-.793-3.44-3.087-5.468-6.615-5.468-1.853 0-3.529.749-4.632 1.94-1.544 1.676-1.897 3.439-1.897 9.747s.353 8.118 1.897 9.793c1.103 1.19 2.779 1.896 4.632 1.896 2.072 0 3.881-.793 5.115-2.204 1.148-1.325 1.589-2.911 1.589-4.941v-1.764h-6.704v-4.059h11.467v4.808c0 4.058-.749 6.661-2.823 8.866m15.122 3.308h4.764V43.351h-4.764zm37.53 0l-14.512-22.097v22.097h-4.764V43.351h4.368l14.511 22.053V43.351h4.764v31.405h-4.367m17.855-.001h4.764V43.351h-4.764zm28.049-24.303l-4.896 13.938h9.659zm8.247 24.303l-2.161-6.307h-12.393l-2.161 6.307h-5.072l11.511-31.405h3.837l11.513 31.405h-5.073M412.68 124.738c-3.264 0-6.087-1.191-8.248-3.352-3.088-3.088-3.043-6.572-3.043-12.615s-.045-9.528 3.043-12.616c2.161-2.161 4.984-3.352 8.248-3.352 5.777 0 10.1 3.396 11.204 9.659h-4.852c-.751-3.175-2.867-5.38-6.352-5.38-1.852 0-3.528.706-4.631 1.896-1.545 1.676-1.897 3.484-1.897 9.793s.352 8.115 1.897 9.792c1.103 1.191 2.779 1.896 4.631 1.896 3.485 0 5.647-2.204 6.395-5.38h4.809c-1.059 6.263-5.515 9.659-11.204 9.659"/><path d="M445.354 111.55v12.924h-4.763V111.55l-9.396-18.482h5.205l6.572 13.806 6.572-13.806h5.205l-9.396 18.482m31.268-.928h-7.499v9.572h7.499c3.308 0 5.16-2.03 5.16-4.808s-1.852-4.764-5.16-4.764zm-.441-13.276h-7.057v8.997h7.057c3.043 0 5.116-1.587 5.116-4.499s-2.073-4.499-5.116-4.499zm.881 27.127h-12.703V93.068h12.219c5.821 0 9.483 3.309 9.483 8.602 0 3.395-2.116 5.821-4.233 6.66 2.425.97 4.72 3.308 4.72 7.277 0 5.779-3.927 8.867-9.485 8.867m21.825-.001V93.068h20.069v4.279h-15.305v9.175h13.056v4.235h-13.056v9.439h15.305v4.279h-20.069m43.704-27.129h-7.057v9.836h7.057c3.176 0 5.337-1.808 5.337-4.895s-2.161-4.941-5.337-4.941zm5.513 27.127l-6.616-13.233h-5.955v13.233h-4.764V93.068h12.175c5.953 0 9.747 3.838 9.747 9.175 0 4.498-2.735 7.365-6.263 8.336l7.235 13.895h-5.559m44.538-27.128h-7.057v9.836h7.057c3.176 0 5.337-1.808 5.337-4.895s-2.161-4.941-5.337-4.941zm5.513 27.127l-6.616-13.233h-5.955v13.233h-4.764V93.068h12.175c5.953 0 9.747 3.838 9.747 9.175 0 4.498-2.735 7.365-6.263 8.336l7.233 13.895h-5.557m26.633-24.304l-4.897 13.937h9.661zm8.248 24.304l-2.161-6.308H618.48l-2.16 6.308h-5.073l11.512-31.406h3.839l11.512 31.406h-5.073m34.087-.001l-14.512-22.098v22.098h-4.764V93.068h4.368l14.511 22.055V93.068h4.764v31.406h-4.367m36.645-3.31c-2.381 2.515-5.337 3.573-8.645 3.573-3.264 0-6.087-1.191-8.248-3.352-3.088-3.088-3.044-6.572-3.044-12.615s-.044-9.528 3.044-12.616c2.161-2.161 4.896-3.352 8.248-3.352 6.66 0 10.541 4.366 11.424 9.747h-4.808c-.795-3.44-3.087-5.469-6.616-5.469-1.852 0-3.528.749-4.631 1.94-1.545 1.676-1.897 3.44-1.897 9.749s.352 8.115 1.897 9.792c1.103 1.191 2.779 1.896 4.631 1.896 2.073 0 3.881-.794 5.116-2.204 1.148-1.326 1.589-2.912 1.589-4.94v-1.765h-6.705v-4.058h11.468v4.809c0 4.057-.751 6.66-2.823 8.864m15.12 3.31V93.068h20.069v4.279h-15.304v9.175h13.056v4.235h-13.056v9.439h15.304v4.279h-20.069"/></g></svg>