<?xml version="1.0" encoding="UTF-8" standalone="no"?>
<svg
   xmlns:dc="http://purl.org/dc/elements/1.1/"
   xmlns:cc="http://creativecommons.org/ns#"
   xmlns:rdf="http://www.w3.org/1999/02/22-rdf-syntax-ns#"
   xmlns:svg="http://www.w3.org/2000/svg"
   xmlns="http://www.w3.org/2000/svg"
   xmlns:sodipodi="http://sodipodi.sourceforge.net/DTD/sodipodi-0.dtd"
   xmlns:inkscape="http://www.inkscape.org/namespaces/inkscape"
   viewBox="0 0 738.96063 159.976"
   height="159.976"
   width="738.96063"
   xml:space="preserve"
   id="svg2"
   version="1.1"
   inkscape:version="0.91 r13725"
   sodipodi:docname="logo.svg"><sodipodi:namedview
     pagecolor="#ffffff"
     bordercolor="#666666"
     borderopacity="1"
     objecttolerance="10"
     gridtolerance="10"
     guidetolerance="10"
     inkscape:pageopacity="0"
     inkscape:pageshadow="2"
     inkscape:window-width="1852"
     inkscape:window-height="920"
     id="namedview3458"
     showgrid="false"
     fit-margin-top="0"
     fit-margin-left="0"
     fit-margin-right="0"
     fit-margin-bottom="0"
     inkscape:zoom="1.821898"
     inkscape:cx="373.33665"
     inkscape:cy="79.986801"
     inkscape:window-x="0"
     inkscape:window-y="0"
     inkscape:window-maximized="0"
     inkscape:current-layer="svg2" /><metadata
     id="metadata8"><rdf:RDF><cc:Work
         rdf:about=""><dc:format>image/svg+xml</dc:format><dc:type
           rdf:resource="http://purl.org/dc/dcmitype/StillImage" /><dc:title></dc:title></cc:Work></rdf:RDF></metadata><defs
     id="defs6" /><g
     transform="matrix(1.3333333,0,0,-1.3333333,-23.776695,184.93586)"
     id="g10"><g
       transform="scale(0.1,0.1)"
       id="g12"><path
         id="path14"
         style="fill:#19304e;fill-opacity:1;fill-rule:nonzero;stroke:none"
         d="m 2432.36,369.871 -0.19,0.527 c -0.71,1.993 -1.42,3.942 -2.17,5.903 1.01,-2.039 1.76,-4.211 2.36,-6.43"
         inkscape:connector-curvature="0" /><path
         id="path16"
         style="fill:#273474;fill-opacity:1;fill-rule:nonzero;stroke:none"
         d="m 2433.39,355.148 -2249.812,0 c -11.348,19.801 -4.301,49.532 21.063,53.321 3.109,2 7.191,3.043 10.527,3.929 35.074,9.422 70.305,18.243 105.676,26.84 15.871,3.864 29.808,8.684 36.414,25.883 5.113,13.43 17.055,17.207 30.773,17.5 20.321,0.598 37.969,5.559 40.266,30.707 0.223,2.813 1.781,7.121 3.933,8.082 38.563,18.391 50.282,69.117 95.293,79.645 59.18,13.722 99.004,57.254 144.61,92.105 6.597,5.043 11.418,8.457 18.984,11.496 3.856,1.629 7.934,2.965 10.453,1.41 2.746,-1.632 7.715,-8.531 7.789,-13.793 0.52,-48.648 29.664,-89.062 72.602,-100.265 26.769,-6.973 48.129,10.308 64.441,25.883 16.762,16.015 25.735,13.199 37.825,-1.262 11.492,-13.496 23.355,-17.723 41.304,-9.492 13.867,6.301 30.403,7.343 45.903,9.64 15.796,2.149 28.476,5.266 28.776,25.661 0.37,14.828 10.23,21.503 23.73,12.601 19.35,-12.824 33.59,-1.922 49.02,7.344 14.61,8.75 28.62,24.328 46.94,4.746 4.89,-5.336 11.49,0.816 16.98,3.488 21.43,10.309 34.63,44.496 34.19,69.86 -0.6,29.363 16.31,54.722 36.33,74.23 30.49,29.738 58.29,58.957 68.45,102.785 5.27,22.617 30.04,34.332 40.86,57.246 9.94,21.137 22.55,40.942 28.78,64.152 2.59,9.64 0.22,26.62 16.83,26.02 13.8,-0.44 26.25,-7.34 34.11,-19.94 3.42,-5.27 5.42,-11.5 9.12,-16.4 21.66,-28.617 54.22,-25.28 69.49,7.05 15.28,32.26 29.44,65.04 45.61,96.85 7.93,15.58 17.87,34.05 39.38,11.94 10.6,-10.9 18.61,-4.89 24.25,6.38 9.71,19.13 26.1,30.03 42.86,43.09 32.48,25.36 61.18,55.54 72.01,99.96 3.63,14.91 10.16,38.05 15.57,56.29 3.86,13.35 20.1,18.39 30.92,9.57 20.77,-16.99 41.61,-33.82 62.3,-51.03 6.82,-5.49 13.5,-11.19 20.24,-16.9 4.01,-3.27 7.86,-6.68 11.72,-9.94 17.65,-15.06 25.81,-11.42 33,9.12 5.19,15.06 6.23,36.26 28.63,36.56 25.51,0.22 45.53,-13.79 63.1,-31.07 5.42,-5.19 3.86,-12.17 -0.14,-17.36 -19.14,-25.06 0.14,-37.22 18.46,-39.08 35.45,-3.78 55.84,-30.48 80.17,-48.57 53.69,-39.82 27.14,-88.55 -14.32,-116.06 -24.99,-16.53 -31.74,-38.85 -35.37,-62.07 -3.19,-20.241 4.52,-31.292 18.76,-31.589 4.82,-0.148 10.39,1.039 16.54,3.41 1.85,0.738 3.63,1.559 5.56,2.449 23.51,11.493 39.08,20.32 46.57,-19.132 4.97,-27.141 26.85,-52.583 63.71,-48.946 29.96,2.891 52.35,-9.57 68.67,-34.633 13.64,-21.211 35,-31.961 57.32,-41.972 31.22,-14.09 35.67,-26.176 16.02,-52.36 -12.39,-16.238 -8.24,-35.668 -5.12,-47.679 6.23,-22.77 -2.3,-24.77 -21.58,-26.032 20.32,-5.187 25.58,-21.132 32.26,-35.152 9.27,-19.5 17.05,-42.043 1.93,-59.769 -15.28,-17.797 -22.92,17.128 -40.57,10.457 3.56,-14.903 21.66,-27.364 6.75,-46.793 -6.15,-8.161 7.12,-17.278 16.32,-23.289 15.34,-10.008 21.43,-22.911 16.76,-42.86 -5.12,-21.949 -26.04,-18.39 -38.27,-28.262 -6.45,-5.328 -12.83,4.082 -16.31,10.614 -8.46,15.789 -25.51,21.429 -38.19,32.109 -3.93,3.481 -9.57,6.301 -13.13,-0.152 -3.19,-5.778 0.74,-10.309 6.23,-12.09 12.53,-4 23.43,-11.859 30.33,-21.867 16.09,-23.66 32.04,-31.082 54.87,-8.313 7.57,7.422 17.81,3.41 26.7,-0.59 13.5,-6.078 28.85,-13.718 42.35,-9.129 25.88,8.981 32.7,-4.808 35.96,-24.539 4.67,-28.332 16.32,-54.363 26.11,-80.902 0.66,-1.859 1.41,-3.641 2.15,-5.57 l 0.07,-0.289 0.15,-0.52 c 1.19,-4.75 1.56,-9.789 1.04,-14.762"
         inkscape:connector-curvature="0" /><path
         id="path18"
         style="fill:#273474;fill-opacity:1;fill-rule:nonzero;stroke:none"
         d="m 2594.53,862.992 c -16.7,-20.316 -20.9,-47.355 -55,-57.922 -25.62,-7.941 -32.19,-47.961 -36.06,-76.769 -4.16,-30.965 -16.58,-57.809 -28.37,-85.617 -9.26,-21.809 -24.14,-40.579 -27.26,-66.051 -2.03,-16.582 -15.35,-32.352 -36.43,-34.192 -23.31,-2.043 -21.44,19.411 -28.36,31.786 -6.8,12.179 -6.38,26.671 -4.24,40.226 9.42,59.344 27.13,116.086 54.26,169.863 3.86,7.676 10.09,9.825 16.94,12.555 6.24,2.492 10.44,7.461 10.64,14.367 0.98,33.254 13.3,49.727 46.59,55.352 28.79,4.859 57.55,12.445 87.29,9.035 0,-4.215 0,-8.422 0,-12.633"
         inkscape:connector-curvature="0" /><path
         id="path20"
         style="fill:#ffffff;fill-opacity:1;fill-rule:nonzero;stroke:none"
         d="m 1795.33,967.844 c 0,18.265 14.86,33.116 33.12,33.116 18.26,0 33.12,-14.851 33.12,-33.116 0,-18.246 -14.86,-33.106 -33.12,-33.106 -18.26,0 -33.12,14.86 -33.12,33.106 z m -16.55,0 c 0,-27.383 22.28,-49.668 49.67,-49.668 24.57,0 44.96,17.937 48.92,41.39 l 33.87,0 c 18.26,0 33.12,-14.843 33.12,-33.086 l 0,-166.207 16.55,0 0,166.207 c 0,27.379 -22.28,49.653 -49.67,49.653 l -33.87,0 c -3.96,23.441 -24.35,41.397 -48.92,41.397 -27.39,0 -49.67,-22.288 -49.67,-49.686"
         inkscape:connector-curvature="0" /><path
         id="path22"
         style="fill:#ffffff;fill-opacity:1;fill-rule:nonzero;stroke:none"
         d="m 1076.85,578.066 c 0,18.262 14.86,33.118 33.12,33.118 18.26,0 33.12,-14.856 33.12,-33.118 0,-18.246 -14.86,-33.105 -33.12,-33.105 -18.26,0 -33.12,14.859 -33.12,33.105 z m -16.55,0 c 0,-27.386 22.28,-49.675 49.67,-49.675 24.57,0 44.96,17.937 48.92,41.398 l 33.87,0 c 18.26,0 33.12,-14.84 33.12,-33.078 l 0,-128.66 16.55,0 0,128.66 c 0,27.367 -22.28,49.648 -49.67,49.648 l -33.87,0 c -3.96,23.442 -24.35,41.391 -48.92,41.391 -27.39,0 -49.67,-22.285 -49.67,-49.684"
         inkscape:connector-curvature="0" /><path
         id="path24"
         style="fill:#ffffff;fill-opacity:1;fill-rule:nonzero;stroke:none"
         d="m 1549.35,518.441 c -18.24,0 -33.08,14.84 -33.08,33.149 0,18.25 14.84,33.078 33.08,33.078 18.24,0 33.07,-14.828 33.07,-33.078 0,-18.309 -14.83,-33.149 -33.07,-33.149 z m 82.76,33.149 -33.07,0 c 0,27.367 -22.25,49.687 -49.69,49.687 -27.37,0 -49.69,-22.32 -49.69,-49.687 0,-27.36 22.32,-49.68 49.69,-49.68 21.58,0 39.97,13.86 46.79,33.07 l 35.97,0 c 18.31,0 33.15,-14.832 33.15,-33.152 l 0,-146.68 16.53,0 0,146.68 c 0,27.442 -22.24,49.762 -49.68,49.762"
         inkscape:connector-curvature="0" /><path
         id="path26"
         style="fill:#ffffff;fill-opacity:1;fill-rule:nonzero;stroke:none"
         d="m 2086.63,518.441 c -18.25,0 -33.15,14.84 -33.15,33.149 0,18.25 14.9,33.078 33.15,33.078 18.24,0 33.07,-14.828 33.07,-33.078 0,-18.309 -14.83,-33.149 -33.07,-33.149 z m 0,82.836 c -27.37,0 -49.69,-22.32 -49.69,-49.687 l -33.15,0 c -27.36,0 -49.61,-22.32 -49.61,-49.762 l 0,-146.68 16.54,0 0,146.68 c 0,18.32 14.9,33.152 33.07,33.152 l 36.04,0 c 6.83,-19.21 25.21,-33.07 46.8,-33.07 27.43,0 49.68,22.32 49.68,49.68 0,27.367 -22.25,49.687 -49.68,49.687"
         inkscape:connector-curvature="0" /><path
         id="path28"
         style="fill:#ffffff;fill-opacity:1;fill-rule:nonzero;stroke:none"
         d="m 984.855,463.789 c -18.242,0 -33.148,14.91 -33.148,33.152 0,18.239 14.906,33.071 33.148,33.071 18.245,0 33.155,-14.832 33.155,-33.071 0,-18.242 -14.91,-33.152 -33.155,-33.152 z m 82.765,41.383 -33.82,0 c -4,23.508 -24.4,41.449 -48.945,41.449 -27.437,0 -49.683,-22.32 -49.683,-49.68 0,-27.441 22.246,-49.691 49.683,-49.691 24.545,0 44.945,17.949 48.945,41.379 l 33.82,0 c 18.24,0 33.15,-14.899 33.15,-33.149 l 0,-100.332 16.53,0 0,100.332 c 0,27.372 -22.32,49.692 -49.68,49.692"
         inkscape:connector-curvature="0" /><path
         id="path30"
         style="fill:#ffffff;fill-opacity:1;fill-rule:nonzero;stroke:none"
         d="m 1958.01,1124.88 c -18.28,0 -33.1,15.47 -33.1,34.49 0,18.99 14.82,34.45 33.1,34.45 18.27,0 33.13,-15.46 33.13,-34.45 0,-19.02 -14.86,-34.49 -33.13,-34.49 z m 0,86.16 c -24.58,0 -44.96,-18.65 -48.94,-43.08 l -26.68,0 c -13.06,0 -23.64,11.08 -23.64,24.62 l 0,94.9 c -4.13,0.97 -9,3.98 -14.9,9.04 l -1.65,1.39 0,-105.33 c 0,-23.04 18.01,-41.84 40.19,-41.84 l 26.68,0 c 3.98,-24.39 24.36,-43.08 48.94,-43.08 27.39,0 49.68,23.19 49.68,51.71 0,28.52 -22.29,51.67 -49.68,51.67"
         inkscape:connector-curvature="0" /><path
         id="path32"
         style="fill:#ffffff;fill-opacity:1;fill-rule:nonzero;stroke:none"
         d="m 2147.99,640.555 c -18.24,0 -33.1,15.461 -33.1,34.484 0,18.992 14.86,34.449 33.1,34.449 18.27,0 33.14,-15.457 33.14,-34.449 0,-19.023 -14.87,-34.484 -33.14,-34.484 z m 0,86.156 c -24.58,0 -44.95,-18.648 -48.93,-43.078 l -26.68,0 c -13.06,0 -23.64,11.031 -23.64,24.613 l 0,282.488 c -6.49,-1.347 -12.08,-1.089 -16.55,0.75 l 0,-283.238 c 0,-23.074 18.01,-41.84 40.19,-41.84 l 26.68,0 c 3.98,-24.386 24.35,-43.074 48.93,-43.074 27.4,0 49.68,23.188 49.68,51.707 0,28.484 -22.28,51.672 -49.68,51.672"
         inkscape:connector-curvature="0" /><path
         id="path34"
         style="fill:#ffffff;fill-opacity:1;fill-rule:nonzero;stroke:none"
         d="m 1745.06,851.223 c 18.26,0 33.12,-14.86 33.12,-33.121 0,-18.262 -14.86,-33.114 -33.12,-33.114 -18.26,0 -33.12,14.852 -33.12,33.114 0,18.261 14.86,33.121 33.12,33.121 z m -75.62,-41.399 26.7,0 c 3.96,-23.453 24.35,-41.39 48.92,-41.39 27.39,0 49.67,22.281 49.67,49.668 0,27.398 -22.28,49.671 -49.67,49.671 -24.57,0 -44.96,-17.937 -48.92,-41.394 l -26.7,0 c -13.04,0 -23.64,10.609 -23.64,23.648 l 0,87.821 -16.56,0 0,-87.821 c 0,-22.16 18.03,-40.203 40.2,-40.203"
         inkscape:connector-curvature="0" /><path
         id="path36"
         style="fill:#ffffff;fill-opacity:1;fill-rule:nonzero;stroke:none"
         d="m 1578.18,1011.56 c -18.24,0 -33.1,14.86 -33.1,33.14 0,18.23 14.86,33.09 33.1,33.09 18.28,0 33.13,-14.86 33.13,-33.09 0,-18.28 -14.85,-33.14 -33.13,-33.14 z m 99.29,246.95 0,-181.92 c 0,-13.02 -10.62,-23.64 -23.64,-23.64 l -26.72,0 c -3.94,23.45 -24.35,41.39 -48.93,41.39 -27.35,0 -49.64,-22.25 -49.64,-49.64 0,-27.4 22.29,-49.688 49.64,-49.688 24.58,0 44.99,17.938 48.93,41.388 l 26.72,0 c 22.14,0 40.19,18.05 40.19,40.19 l 0,213.07 c -4.39,-11.3 -10.02,-21.62 -16.55,-31.15"
         inkscape:connector-curvature="0" /><path
         id="path38"
         style="fill:#ffffff;fill-opacity:1;fill-rule:nonzero;stroke:none"
         d="m 1225.83,406.82 140.082,0 0,16.5586 -140.082,0 z"
         inkscape:connector-curvature="0" /><path
         id="path40"
         style="fill:#ffffff;fill-opacity:1;fill-rule:nonzero;stroke:none"
         d="m 1867.67,757.715 93.2383,0 0,16.5547 -93.2383,0 z"
         inkscape:connector-curvature="0" /><path
         id="path42"
         style="fill:#ffffff;fill-opacity:1;fill-rule:nonzero;stroke:none"
         d="m 1645.95,937.863 0,-16.586 -379.07,0 c 0.26,0.938 0.48,1.914 0.71,2.887 1.16,5.031 3.26,9.492 5.96,13.699 l 372.4,0"
         inkscape:connector-curvature="0" /><path
         id="path44"
         style="fill:#ffffff;fill-opacity:1;fill-rule:nonzero;stroke:none"
         d="m 1349.79,355.148 16.5391,0 0,68.2305 -16.5391,0 z"
         inkscape:connector-curvature="0" /><path
         id="path46"
         style="fill:#ffffff;fill-opacity:1;fill-rule:nonzero;stroke:none"
         d="m 1867.71,355.148 16.5391,0 0,419.141 -16.5391,0 z"
         inkscape:connector-curvature="0" /><path
         id="path48"
         style="fill:#273474;fill-opacity:1;fill-rule:nonzero;stroke:none"
         d="m 2876.28,187.199 30,0 0,1199.82 -30,0 z"
         inkscape:connector-curvature="0" /><path
         id="path50"
         style="fill:#273474;fill-opacity:1;fill-rule:nonzero;stroke:none"
         d="m 3273.43,826.355 -27.79,0 -77.41,235.535 37.05,0 54.26,-171.359 54.24,171.359 37.72,0 -78.07,-235.535"
         inkscape:connector-curvature="0" /><path
         id="path52"
         style="fill:#273474;fill-opacity:1;fill-rule:nonzero;stroke:none"
         d="m 3423.56,826.355 35.7305,0 0,235.535 -35.7305,0 z"
         inkscape:connector-curvature="0" /><path
         id="path54"
         style="fill:#273474;fill-opacity:1;fill-rule:nonzero;stroke:none"
         d="m 3649.15,1029.8 -52.93,0 0,-73.769 52.93,0 c 23.81,0 40.02,13.567 40.02,36.719 0,23.16 -16.21,37.05 -40.02,37.05 z m 41.34,-203.445 -49.62,99.239 -44.65,0 0,-99.239 -35.74,0 0,235.535 91.31,0 c 44.66,0 73.11,-28.78 73.11,-68.808 0,-33.738 -20.51,-55.242 -46.98,-62.519 l 54.25,-104.208 -41.68,0"
         inkscape:connector-curvature="0" /><path
         id="path56"
         style="fill:#273474;fill-opacity:1;fill-rule:nonzero;stroke:none"
         d="m 3957.73,851.168 c -17.86,-18.855 -40.03,-26.797 -64.83,-26.797 -24.49,0 -45.66,8.926 -61.87,25.137 -23.15,23.152 -22.82,49.297 -22.82,94.621 0,45.312 -0.33,71.441 22.82,94.611 16.21,16.21 36.72,25.14 61.87,25.14 49.95,0 79.06,-32.75 85.67,-73.11 l -36.06,0 c -5.95,25.8 -23.15,41.01 -49.61,41.01 -13.9,0 -26.47,-5.62 -34.74,-14.55 -11.58,-12.57 -14.23,-25.796 -14.23,-73.101 0,-47.316 2.65,-60.883 14.23,-73.449 8.27,-8.926 20.84,-14.219 34.74,-14.219 15.54,0 29.11,5.945 38.36,16.531 8.61,9.934 11.92,21.836 11.92,37.055 l 0,13.23 -50.28,0 0,30.442 86,0 0,-36.059 c 0,-30.437 -5.62,-49.961 -21.17,-66.492"
         inkscape:connector-curvature="0" /><path
         id="path58"
         style="fill:#273474;fill-opacity:1;fill-rule:nonzero;stroke:none"
         d="m 4071.14,826.355 35.7305,0 0,235.535 -35.7305,0 z"
         inkscape:connector-curvature="0" /><path
         id="path60"
         style="fill:#273474;fill-opacity:1;fill-rule:nonzero;stroke:none"
         d="m 4352.62,826.355 -108.84,165.731 0,-165.731 -35.73,0 0,235.535 32.76,0 108.83,-165.398 0,165.398 35.73,0 0,-235.535 -32.75,0"
         inkscape:connector-curvature="0" /><path
         id="path62"
         style="fill:#273474;fill-opacity:1;fill-rule:nonzero;stroke:none"
         d="m 4486.53,826.355 35.7305,0 0,235.535 -35.7305,0 z"
         inkscape:connector-curvature="0" /><path
         id="path64"
         style="fill:#273474;fill-opacity:1;fill-rule:nonzero;stroke:none"
         d="m 4696.9,1008.63 -36.72,-104.532 72.44,0 z m 61.85,-182.275 -16.21,47.301 -92.95,0 -16.21,-47.301 -38.04,0 86.33,235.535 28.78,0 86.35,-235.535 -38.05,0"
         inkscape:connector-curvature="0" /><path
         id="path66"
         style="fill:#273474;fill-opacity:1;fill-rule:nonzero;stroke:none"
         d="m 3273.43,451.488 c -24.48,0 -45.65,8.934 -61.86,25.141 -23.16,23.16 -22.82,49.293 -22.82,94.609 0,45.321 -0.34,71.461 22.82,94.617 16.21,16.211 37.38,25.137 61.86,25.137 43.33,0 75.75,-25.469 84.03,-72.441 l -36.39,0 c -5.63,23.816 -21.5,40.351 -47.64,40.351 -13.89,0 -26.46,-5.293 -34.73,-14.218 -11.59,-12.567 -14.23,-26.133 -14.23,-73.446 0,-47.308 2.64,-60.859 14.23,-73.437 8.27,-8.93 20.84,-14.223 34.73,-14.223 26.14,0 42.35,16.531 47.96,40.352 l 36.07,0 c -7.94,-46.969 -41.36,-72.442 -84.03,-72.442"
         inkscape:connector-curvature="0" /><path
         id="path68"
         style="fill:#273474;fill-opacity:1;fill-rule:nonzero;stroke:none"
         d="m 3518.49,550.398 0,-96.929 -35.72,0 0,96.929 -70.47,138.614 39.04,0 49.29,-103.547 49.29,103.547 39.04,0 -70.47,-138.614"
         inkscape:connector-curvature="0" /><path
         id="path70"
         style="fill:#273474;fill-opacity:1;fill-rule:nonzero;stroke:none"
         d="m 3752.99,557.352 -56.24,0 0,-71.793 56.24,0 c 24.81,0 38.7,15.222 38.7,36.062 0,20.84 -13.89,35.731 -38.7,35.731 z m -3.31,99.57 -52.93,0 0,-67.481 52.93,0 c 22.82,0 38.37,11.903 38.37,33.739 0,21.836 -15.55,33.742 -38.37,33.742 z m 6.61,-203.453 -95.27,0 0,235.543 91.64,0 c 43.66,0 71.12,-24.817 71.12,-64.516 0,-25.465 -15.87,-43.66 -31.75,-49.949 18.19,-7.277 35.4,-24.809 35.4,-54.578 0,-43.34 -29.45,-66.5 -71.14,-66.5"
         inkscape:connector-curvature="0" /><path
         id="path72"
         style="fill:#273474;fill-opacity:1;fill-rule:nonzero;stroke:none"
         d="m 3919.99,453.469 0,235.543 150.52,0 0,-32.09 -114.79,0 0,-68.809 97.92,0 0,-31.761 -97.92,0 0,-70.793 114.79,0 0,-32.09 -150.52,0"
         inkscape:connector-curvature="0" /><path
         id="path74"
         style="fill:#273474;fill-opacity:1;fill-rule:nonzero;stroke:none"
         d="m 4247.77,656.922 -52.93,0 0,-73.77 52.93,0 c 23.82,0 40.03,13.563 40.03,36.715 0,23.156 -16.21,37.055 -40.03,37.055 z m 41.35,-203.453 -49.62,99.25 -44.66,0 0,-99.25 -35.73,0 0,235.543 91.31,0 c 44.65,0 73.1,-28.782 73.1,-68.813 0,-33.738 -20.51,-55.238 -46.97,-62.519 l 54.26,-104.211 -41.69,0"
         inkscape:connector-curvature="0" /><path
         id="path76"
         style="fill:#273474;fill-opacity:1;fill-rule:nonzero;stroke:none"
         d="m 4623.15,656.922 -52.93,0 0,-73.77 52.93,0 c 23.82,0 40.03,13.563 40.03,36.715 0,23.156 -16.21,37.055 -40.03,37.055 z m 41.35,-203.453 -49.62,99.25 -44.66,0 0,-99.25 -35.73,0 0,235.543 91.31,0 c 44.65,0 73.1,-28.782 73.1,-68.813 0,-33.738 -20.51,-55.238 -46.97,-62.519 l 54.25,-104.211 -41.68,0"
         inkscape:connector-curvature="0" /><path
         id="path78"
         style="fill:#273474;fill-opacity:1;fill-rule:nonzero;stroke:none"
         d="m 4864.25,635.746 -36.73,-104.527 72.46,0 z m 61.86,-182.277 -16.21,47.312 -92.96,0 -16.2,-47.312 -38.05,0 86.34,235.543 28.79,0 86.34,-235.543 -38.05,0"
         inkscape:connector-curvature="0" /><path
         id="path80"
         style="fill:#273474;fill-opacity:1;fill-rule:nonzero;stroke:none"
         d="m 5181.77,453.469 -108.84,165.734 0,-165.734 -35.73,0 0,235.543 32.76,0 108.83,-165.41 0,165.41 35.73,0 0,-235.543 -32.75,0"
         inkscape:connector-curvature="0" /><path
         id="path82"
         style="fill:#273474;fill-opacity:1;fill-rule:nonzero;stroke:none"
         d="m 5456.61,478.289 c -17.86,-18.859 -40.03,-26.801 -64.84,-26.801 -24.48,0 -45.65,8.934 -61.86,25.141 -23.16,23.16 -22.83,49.293 -22.83,94.609 0,45.321 -0.33,71.461 22.83,94.617 16.21,16.211 36.72,25.137 61.86,25.137 49.95,0 79.06,-32.746 85.68,-73.105 l -36.06,0 c -5.96,25.801 -23.15,41.015 -49.62,41.015 -13.89,0 -26.46,-5.617 -34.73,-14.55 -11.59,-12.571 -14.23,-25.801 -14.23,-73.114 0,-47.308 2.64,-60.859 14.23,-73.437 8.27,-8.93 20.84,-14.223 34.73,-14.223 15.55,0 29.11,5.953 38.37,16.531 8.61,9.942 11.92,21.84 11.92,37.051 l 0,13.238 -50.29,0 0,30.438 86.01,0 0,-36.066 c 0,-30.43 -5.63,-49.95 -21.17,-66.481"
         inkscape:connector-curvature="0" /><path
         id="path84"
         style="fill:#273474;fill-opacity:1;fill-rule:nonzero;stroke:none"
         d="m 5570.01,453.469 0,235.543 150.52,0 0,-32.09 -114.78,0 0,-68.809 97.92,0 0,-31.761 -97.92,0 0,-70.793 114.78,0 0,-32.09 -150.52,0"
         inkscape:connector-curvature="0" /></g></g></svg>