<svg id="medalionlogo" xmlns="http://www.w3.org/2000/svg" viewBox="-8 -8 304 304" preserveAspectRatio="xMidYMid"> <defs><style>.cls-1{fill:#009bde;}</style><filter id="Shadow_1"> <feGaussianBlur in="SourceAlpha" stdDeviation="4"></feGaussianBlur> <feOffset result="offsetblur"></feOffset> <feFlood flood-color="#000"></feFlood> <feComposite in2="offsetblur" operator="in"></feComposite> </filter> </defs> <g id="backing"> <circle cx="144" cy="144" r="144" filter="url(#Shadow_1)"></circle> <circle cx="144" cy="144" r="140" fill="#fff"></circle> </g> <g id="logo"> <path class="cls-1" d="M144 0a144 144 0 1 0 144 144A144 144 0 0 0 144 0zm0 279a135 135 0 1 1 135-135 135 135 0 0 1-135 135z"></path> <path class="cls-1" d="M99.6 145.43h-9.2a1.47 1.47 0 0 0-1.35 1.6v44.72a1.16 1.16 0 0 0 1.2 1.28h9.36c1.7 0 2.5-.88 2.5-2.56V147.9c0-1.83-.65-2.47-2.5-2.47zM231 145.43h-9.36c-1.2 0-1.68.56-1.68 1.76v44.07c0 1.2.48 1.76 1.68 1.76H231a1.6 1.6 0 0 0 1.52-1.68V147.1a1.6 1.6 0 0 0-1.52-1.67z"></path> <path class="cls-1" d="M144 18a126 126 0 1 0 126 126A126 126 0 0 0 144 18zm20.18 105.36c.34-.62.9-1.5 1.5-2.65s1.32-2.54 2-4.2 1.4-3.55 2.12-5.6 1.3-4.37 1.88-6.8c.27-1.22.57-2.46.77-3.76s.47-2.6.67-4c.4-2.7.72-5.5.94-8.34s.36-5.7.36-8.66.12-6 .12-8.84-.1-5.68-.28-8.4-.45-5.3-.88-7.76-.9-4.75-1.48-6.85a57.8 57.8 0 0 0-1.9-5.62c-.6-1.7-1.34-3-1.87-4.24S167 35.58 166.66 35l-.52-1 .8.75c.48.5 1.3 1.17 2.15 2.18a34.24 34.24 0 0 1 2.9 3.88 37.77 37.77 0 0 1 3.1 5.54 47.06 47.06 0 0 1 2.62 7 60.53 60.53 0 0 1 1.8 8.18 78.88 78.88 0 0 1 .83 8.87c.14 3 .07 6.06.07 9a85.13 85.13 0 0 1-.57 9.16 75.23 75.23 0 0 1-1.5 8.78 65.33 65.33 0 0 1-2.4 8 52.28 52.28 0 0 1-3 6.85 41.68 41.68 0 0 1-3.3 5.37 36.67 36.67 0 0 1-3 3.77c-.87 1-1.7 1.67-2.2 2.17l-.8.74zm-19.3 22.07h-9.43c-.72 0-1.12.4-1.12 1.28v24.17l10.16-6.16a4.23 4.23 0 0 1 1.67-.8c.48 0 .72.5.72 1v6.4c0 1-.57 1.37-1.7 2.1l-10.87 6.6v11.76a1.16 1.16 0 0 0 1.2 1.28h9.2a1.6 1.6 0 0 0 1.52-1.68v-5.28c0-1.36.24-1.92.8-2.32 0 0 5.36-3.44 6.16-3.44s1 .4 1 1.12v15.76c0 1.44-.7 2.24-2.4 2.24h-28.03c-.56 0-.88-.24-.88-.8 0-1 3.43-3.28 3.43-5.6v-47.6c0-2.32-3.44-4.56-3.44-5.6 0-.56.3-.8.87-.8h28c1.76 0 2.48.8 2.48 1.92v9c0 1.36-.24 1.92-.8 2.32 0 0-5.36 3.84-6.16 3.84s-1-.4-1-1.12v-8a1.47 1.47 0 0 0-1.4-1.57zM130 42.45c.63-.92 1.18-1.82 1.77-2.6l1.84-2c.62-.6 1.27-1 1.8-1.5a16.18 16.18 0 0 1 2.6-1.78l1-.57-.88.7a15.88 15.88 0 0 0-2.37 2.1c-.45.5-1 1-1.48 1.64l-1.5 2.14c-.46.8-.87 1.7-1.34 2.62s-.7 2-1.08 3.05c-.2 1.1-.5 2.24-.66 3.44l-.15 1.83-.07.93v1q0 1 .08 1.94v.42l.07.52.15 1a32.05 32.05 0 0 0 1 3.93 74.47 74.47 0 0 0 3.24 8.16C135.4 72.18 136.78 75 138 78a51.82 51.82 0 0 1 3.16 9.32 28.86 28.86 0 0 1 .68 9.82c-.13 1.4-.4 3-.66 4.5s-.72 2.9-1.13 4.27l-1.54 3.93-1.9 3.44a30 30 0 0 1-2.1 2.9l-1 1.3c-.36.4-.75.75-1.1 1.1a26.9 26.9 0 0 1-3.9 3.36c-2.35 1.6-3.72 2.38-3.72 2.38s.88-1.38 2.48-3.57a12.1 12.1 0 0 0 1.22-1.87l1.32-2.24c.22-.4.5-.8.72-1.22l.62-1.37c.4-.94.9-1.87 1.3-2.9l1.1-3.23.9-3.52.64-3.8c.1-1.33.37-2.56.47-4.08a33 33 0 0 0 0-8.2 41 41 0 0 0-2.07-8.57c-1-2.86-2.17-5.75-3.3-8.65a63.13 63.13 0 0 1-2.78-8.9 35.74 35.74 0 0 1-.74-4.53l-.06-1.05v-1.12l.13-2.16c0-.35 0-.7.07-1l.18-1 .36-2c.3-1.3.75-2.5 1.1-3.66.56-1.17 1-2.24 1.56-3.2zM66 198.63c0 .56-.32.8-.88.8H52c-.56 0-.88-.24-.88-.8 0-1 3.44-3.28 3.44-5.6v-47.6c0-2.32-3.44-4.56-3.44-5.6 0-.56.32-.8.88-.8h13.13c.56 0 .88.24.88.8 0 1-3.43 3.28-3.43 5.6V193c0 2.35 3.43 4.6 3.43 5.63zm42.1 19.86c0 .67-.13 1-.4 1.15a20.7 20.7 0 0 1-3.1 1.92c-.35 0-.5-.2-.5-.56v-5.15a.8.8 0 0 0-.77-.84h-4.66c-.6 0-.84.3-.84.9v22c0 .6.24.87.84.87h4.68a.8.8 0 0 0 .76-.84v-3.84c0-.7.13-1 .4-1.17a20.7 20.7 0 0 1 3.1-1.92c.35 0 .5.2.5.57v7.64a3 3 0 0 1-3.27 2.77h-7.88c-1.88 0-3.12-.92-3.12-2.56v-25.03c0-1.64 1.24-2.56 3.12-2.56h7.88a3 3 0 0 1 3.28 2.77zm2-24.2c0 3.3-2.5 5.13-6.25 5.13H78.5c-.57 0-.9-.24-.9-.8 0-1 3.45-3.28 3.45-5.6v-47.6c0-2.32-3.44-4.56-3.44-5.6 0-.56.33-.8.9-.8h24.23c4.8 0 7.36 2 7.36 6.64zM108.44 96a88 88 0 0 1-.82-9c-.15-3.1-.08-6.15-.1-9.2a77.24 77.24 0 0 1 2.1-18.37l.55-2.15.67-2.08c.42-1.37 1-2.67 1.5-3.95s1.14-2.46 1.72-3.6 1.33-2.2 1.94-3.2a31.3 31.3 0 0 1 4.15-5 14 14 0 0 1 2-1.85l1.85-1.47c1.1-.78 2.08-1.22 2.7-1.6l1-.53-.76.8c-.5.54-1.28 1.27-2.16 2.27l-1.33 1.7c-.23.32-.5.62-.74 1l-.7 1.12a41.84 41.84 0 0 0-3 5.2 57.23 57.23 0 0 0-2.44 6.65c-.32 1.22-.7 2.44-.95 3.75l-.4 2-.35 2c-.26 1.35-.4 2.75-.6 4.15s-.3 2.84-.4 4.3c-.2 2.9-.3 5.85-.3 8.86s-.05 6.07-.08 9 .1 5.82.3 8.6.44 5.44.88 7.93c.17 1.26.44 2.46.7 3.63s.5 2.3.78 3.37.63 2.08.93 3.05a23.88 23.88 0 0 0 1 2.73c.63 1.73 1.36 3.14 1.93 4.35s1.15 2.07 1.5 2.7l.53 1-.8-.75a30.1 30.1 0 0 1-2.24-2.25 32.15 32.15 0 0 1-3-3.95 25.8 25.8 0 0 1-1.6-2.62 31.66 31.66 0 0 1-1.52-3 45.34 45.34 0 0 1-2.62-7.2 64.14 64.14 0 0 1-1.8-8.38zm17.14 143.26a3 3 0 0 1-3.3 2.76h-7.87c-1.88 0-3.12-.92-3.12-2.56v-25.1c0-1.63 1.25-2.55 3.13-2.55h7.88a3 3 0 0 1 3.3 2.77zm18.47-22c0 .68-.12 1-.4 1.16a20.68 20.68 0 0 1-3.08 1.92c-.37 0-.53-.2-.53-.56v-4.16c0-.44-.2-.64-.56-.64h-4.7a.73.73 0 0 0-.7.8v11.92l5.1-3.08a1.9 1.9 0 0 1 .83-.4c.24 0 .36.24.36.52V228c0 .48-.3.68-.85 1l-5.44 3.28v6.52c0 1.16 1.73 2.28 1.73 2.8 0 .28-.16.4-.44.4h-6.57c-.28 0-.44-.12-.44-.4 0-.52 1.7-1.64 1.7-2.8V215c0-1.16-1.7-2.28-1.7-2.8 0-.28.15-.4.43-.4h14c.88 0 1.24.4 1.24 1zm17.28 0c0 .68-.12 1-.4 1.16a20.66 20.66 0 0 1-3.08 1.92c-.36 0-.52-.2-.52-.56v-4.16c0-.44-.2-.64-.56-.64h-4.73a.73.73 0 0 0-.68.8v11.92l5.07-3.08a1.9 1.9 0 0 1 .84-.4c.25 0 .37.24.37.52V228c0 .48-.28.68-.84 1l-5.44 3.28v6.52c0 1.16 1.7 2.28 1.7 2.8 0 .28-.15.4-.43.4h-6.56c-.27 0-.43-.12-.43-.4 0-.52 1.72-1.64 1.72-2.8V215c0-1.16-1.73-2.28-1.73-2.8 0-.28.16-.4.44-.4h14c.9 0 1.25.4 1.25 1zM149.17 55.72l.3 2.1.47 1.94A61.7 61.7 0 0 0 153 68l1.93 4.2c.66 1.4 1.3 2.88 1.9 4.4a78.13 78.13 0 0 1 3.26 9.15 36.9 36.9 0 0 1 1.6 9.54v2.55c-.07.72-.17 1.43-.26 2.13-.17 1.38-.5 2.9-.78 4.3s-.7 2.72-1.12 4-.9 2.48-1.45 3.6-1.1 2.2-1.67 3.2-1.22 1.85-1.8 2.66a39.87 39.87 0 0 1-3.46 3.86c-2.22 1.83-3.52 2.72-3.52 2.72s.76-1.47 2.16-3.77c.32-.6.6-1.3.95-2a18.2 18.2 0 0 0 1.06-2.36c.3-.9.67-1.8 1-2.74s.54-2 .86-3.08a68.4 68.4 0 0 0 1.24-7.05l.15-1.92c.07-.63.14-1.28.18-2s.1-1.35.16-2v-2a51.06 51.06 0 0 0-.8-8.38 60.77 60.77 0 0 0-2.24-8.73l-.74-2.16-.83-2.2-1.8-4.37a54.3 54.3 0 0 1-2.57-9l-.35-2.36L146 56a23.2 23.2 0 0 1 .1-2.36 17.86 17.86 0 0 1 .4-2.18 22.2 22.2 0 0 1 3.28-7.3 28.17 28.17 0 0 1 4.36-5 29.24 29.24 0 0 1 4-3.08 30.55 30.55 0 0 1 2.76-1.64l1-.52-.92.66a30.44 30.44 0 0 0-2.47 2 31.56 31.56 0 0 0-7 8.6 19.86 19.86 0 0 0-2.26 6.82 17.6 17.6 0 0 0-.07 3.72zm29.46 161.57c0 .67-.12 1-.4 1.15a20.7 20.7 0 0 1-3.08 1.92c-.36 0-.52-.2-.52-.56v-4a.73.73 0 0 0-.68-.8h-4.72c-.36 0-.56.2-.56.65v12.08l5.08-3.08a2.13 2.13 0 0 1 .84-.4c.23 0 .35.24.35.52V228c0 .48-.28.68-.84 1l-5.43 3.28v5.88a.58.58 0 0 0 .6.64h4.6a.8.8 0 0 0 .76-.84v-2.64c0-.68.12-1 .4-1.16a21.2 21.2 0 0 1 3.08-1.72c.37 0 .53.2.53.56v7.88c0 .72-.36 1.12-1.2 1.12h-14c-.28 0-.44-.12-.44-.4 0-.52 1.7-1.64 1.7-2.8V215c0-1.16-1.7-2.28-1.7-2.8 0-.28.15-.4.43-.4h14c.88 0 1.24.4 1.24 1zm17.68 0c0 .67-.1 1-.4 1.15a20.7 20.7 0 0 1-3.07 1.92c-.36 0-.52-.2-.52-.56v-4a.73.73 0 0 0-.67-.8h-4.73c-.36 0-.56.2-.56.65v12.08l5.08-3.08a2.13 2.13 0 0 1 .84-.4c.24 0 .36.24.36.52V228c0 .48-.28.68-.84 1l-5.44 3.28v5.88a.58.58 0 0 0 .6.64h4.6a.8.8 0 0 0 .76-.84v-2.64c0-.68.12-1 .4-1.16a21.2 21.2 0 0 1 3.08-1.72c.36 0 .52.2.52.56v7.88c0 .72-.36 1.12-1.2 1.12h-14c-.28 0-.44-.12-.44-.4 0-.52 1.72-1.64 1.72-2.8V215c0-1.16-1.72-2.28-1.72-2.8 0-.28.16-.4.44-.4h14c.88 0 1.24.4 1.24 1zm.92-64.9c0 1.35-.24 1.9-.8 2.3 0 0-5.36 3.85-6.16 3.85s-1-.4-1-1.12V147.1a1.6 1.6 0 0 0-1.52-1.67h-9.36c-1.2 0-1.68.56-1.68 1.76v44.07c0 1.2.48 1.76 1.68 1.76h9.36a1.6 1.6 0 0 0 1.52-1.68v-9.92c0-.56-.16-.88-.64-.88s-2.32 1.2-3 1.2c-.48 0-.72-.48-.72-1v-6.4c0-1 .56-1.36 1.68-2.08 0 0 8.8-4.16 9.68-4.16.72 0 1 .4 1 1.13v24.72c0 2.56-2.4 5.52-6.56 5.52h-15.8c-3.77 0-6.25-1.84-6.25-5.12v-50.2c0-3.28 2.48-5.12 6.24-5.12h15.75c4.16 0 6.56 3 6.56 5.52zm36.8 47h-15.77c-3.76 0-6.24-1.85-6.24-5.13v-50.12c0-3.28 2.5-5.12 6.25-5.12H234c4.16 0 6.56 3 6.56 5.52v49.36c0 2.57-2.4 5.53-6.56 5.53z"></path> <path class="cls-1" d="M120.83 215h-4.68c-.6 0-.84.28-.84.88v22c0 .6.25.88.85.88h4.68a.8.8 0 0 0 .76-.84v-22.07a.8.8 0 0 0-.77-.85z"></path> </g> </svg>
