<svg xmlns="http://www.w3.org/2000/svg" viewBox="0 0 410.1 88.8" fill="#1bd9c4" xmlns:v="https://vecta.io/nano"><path d="M85 26.2C77.8 10.3 61.9 0 44.4 0 39.8 0 35.3.7 31 2.1l3.7 7.8c3.2-.9 6.4-1.4 9.7-1.4 6.7 0 13.1 1.9 18.6 5.2l-9.9 35.1-10.7-22.4L33 49l-6.9-16.1-4.2 9 10.6 24.9 10-22.1L55 71.6l16.8-50.3c2.1 2.5 3.9 5.4 5.3 8.5 3.9 8.7 4.2 18.5.8 27.5-2.6 6.9-7.2 12.6-13.1 16.7l3.7 7.8c7.9-5.1 13.9-12.5 17.3-21.5 4.4-11.2 4-23.3-.8-34.1M57.9 77.7c-17.8 7.2-38.3-.9-46.2-18.5-3.9-8.7-4.2-18.5-.8-27.5 3.1-8.2 9-14.8 16.6-18.9L23.9 5c-9.7 5-17.1 13.3-21 23.6-4.2 11.1-3.9 23.2 1 34 7.4 16.5 23.6 26.2 40.6 26.2 5.7 0 11.5-1.1 17-3.4l-3.6-7.7zm74.3-29.5l-4.9-15.6h-2.4L120 48.2l-4.9-15.6h-3.5l7.1 22.7h2.4l5-15.6 4.9 15.6h2.4l7.3-22.7h-3.5zM154 32.6h3.4v22.7H154zm21.8 0h-3.4v22.7h13.2v-3.1h-9.8zm26.6 0H199v22.7h13.2v-3.1h-9.8zm41.2 3a12.07 12.07 0 0 0-3.7-2.5c-1.4-.6-3-.9-4.7-.9-1.6 0-3.2.3-4.6.9s-2.7 1.4-3.7 2.5a12.07 12.07 0 0 0-2.5 3.7c-.6 1.4-.9 3-.9 4.6 0 1.7.3 3.2.9 4.6s1.4 2.7 2.5 3.7 2.3 1.9 3.7 2.5 3 .9 4.6.9 3.1-.3 4.6-.9c1.4-.6 2.7-1.4 3.7-2.5 1.1-1 1.9-2.3 2.5-3.7s.9-3 .9-4.6-.3-3.2-.9-4.6c-.5-1.4-1.3-2.6-2.4-3.7zm0 8.3c0 1.3-.2 2.4-.7 3.5-.4 1-1 2-1.8 2.7-.7.8-1.6 1.4-2.6 1.8-2 .8-4.5.8-6.5 0-1-.4-1.9-1-2.7-1.8-.7-.8-1.3-1.7-1.8-2.7-.4-1-.7-2.2-.7-3.4s.2-2.3.6-3.4c.4-1 1-1.9 1.7-2.7s1.6-1.4 2.6-1.8 2.1-.6 3.3-.6 2.3.2 3.4.6c1 .4 1.9 1 2.6 1.8s1.3 1.7 1.7 2.7c.7.9.9 2.1.9 3.3zm39.7-11.3H282l-5 15.6-4.9-15.6h-2.3l-5 15.6-4.9-15.6h-3.5l7.1 22.7h2.4l5-15.6 4.9 15.6h2.4l6.3-19.6h14.7v19.6h3.5V35.7h6.7l1.4-3.1h-25.3zm47.3 13a7.68 7.68 0 0 0 2.5-1.4c.7-.6 1.3-1.3 1.7-2.1s.7-1.8.7-2.8a6.71 6.71 0 0 0-.6-2.8c-.4-.8-1-1.5-1.7-2.1s-1.6-1-2.5-1.4a10.07 10.07 0 0 0-3.1-.5h-7.1v22.7h3.4V46l8.9 9.3h4.5l-8.9-9.2c.8-.1 1.5-.3 2.2-.5zm1.1-7.7c.2.4.3.9.3 1.4 0 .7-.1 1.2-.4 1.7-.2.5-.6.9-1 1.2s-1 .6-1.6.8-1.3.3-2 .3h-3.2v-7.5h3.5c.7 0 1.4.1 1.9.3.6.2 1.1.4 1.5.8.4.1.7.5 1 1zm21.7 7.4h9.5v-3.1h-9.5v-6.5h10.1v-3.1H350v22.7h14.1v-3.1h-10.7zm28.3 0h9.5v-3.1h-9.5v-6.5h10.1v-3.1h-13.5v22.7h14.1v-3.1h-10.7zm28.1-10.2c-.2-.5-.5-1-.9-1.4s-.9-.7-1.4-.9a4.04 4.04 0 0 0-3.4 0c-.5.2-1 .5-1.4.9s-.7.8-.9 1.4c-.2.5-.3 1.1-.3 1.7s.1 1.2.3 1.7.5 1 .9 1.4.9.7 1.4.9 1.1.3 1.7.3 1.2-.1 1.7-.3 1-.5 1.4-.9.7-.9.9-1.4.3-1.1.3-1.7-.1-1.2-.3-1.7zm-.9 3c-.2.4-.4.8-.7 1.1l-1.8-2.1c.1 0 .2 0 .3-.1.2-.1.3-.2.5-.3.1-.1.3-.3.3-.5.1-.2.1-.4.1-.6s0-.4-.1-.6-.2-.4-.3-.5-.3-.3-.5-.3c-.2-.1-.4-.1-.7-.1h-1.8v5.2h1v-2l1.6 1.9v.1h1.3c-.3.3-.6.5-1 .7-.8.4-1.8.4-2.7 0-.4-.2-.8-.4-1.1-.7s-.6-.7-.7-1.1a3.08 3.08 0 0 1-.3-1.3c0-.5.1-.9.3-1.3s.4-.8.7-1.1.7-.6 1.1-.7a3.08 3.08 0 0 1 1.3-.3c.5 0 .9.1 1.3.3s.8.4 1.1.7.6.7.7 1.1a3.08 3.08 0 0 1 .3 1.3c.1.4 0 .8-.2 1.2zm-2.6-1.9c-.1.1-.3.2-.5.2h-.6v-1.3h.7c.1 0 .2 0 .3.1.1 0 .2.1.2.1.1.1.1.1.1.2v.2c0 .2 0 .3-.2.5z"/></svg>