<svg xmlns="http://www.w3.org/2000/svg" width="579.3" height="147.6" viewBox="0 0 579.3 147.6">
  <style>
    .st0{fill:#FFDB00;}
  </style>
  <path d="M0 0h548.6v147.6H0z"/>
  <path class="st0" d="M13.1 13.1h522.3v121.3H13.1z"/>
  <path d="M575.5 124.3c1.6 1.7 2.4 3.7 2.4 6.1 0 2.4-.8 4.4-2.4 6.2-1.6 1.7-3.5 2.5-5.8 2.5s-4.2-.8-5.8-2.5c-1.6-1.7-2.4-3.8-2.4-6.2 0-2.4.8-4.5 2.4-6.1 1.6-1.7 3.5-2.5 5.8-2.5s4.3.8 5.8 2.5zm1-1c-1.9-2-4.1-2.9-6.8-2.9-2.6 0-4.9 1-6.7 2.9-1.9 2-2.8 4.3-2.8 7.1s.9 5.2 2.8 7.1c1.8 2 4.1 3 6.7 3 2.6 0 4.9-1 6.8-3 1.9-2 2.8-4.3 2.8-7.1 0-2.7-.9-5.1-2.8-7.1zm-5.3 6.7c-.4.2-1 .2-1.7.2h-1.7v-4h1.6c1 0 1.8.1 2.2.4.5.3.7.8.7 1.6-.1.9-.4 1.5-1.1 1.8zm-5.3 5.9h1.8v-4.4h1.5c1 0 1.7.1 2.1.4.7.4 1 1.2 1 2.5v.9l.1.3v.2h1.7v-.1c0-.1-.1-.3-.1-.6v-1.6c0-.6-.2-1.1-.6-1.7-.4-.6-1-1-1.8-1.1.6-.1 1.1-.3 1.5-.5.7-.5 1-1.2 1-2.2 0-1.4-.5-2.3-1.6-2.8-.6-.2-1.6-.4-2.9-.4h-3.7v11.1zM513.5 101.7c-.6-3.9-2.8-8.7-6.5-13.4-5.5-7-12-10.9-16.6-10.3v-.1h-33.8c-15.3-16.5-31.1-33.6-34.4-37.5-6-7.1-9.8-7.2-11.2-6.9H51.2c-8.2-.2-12.1 2.1-13.9 4.4-2.5 3.3-2.4 8.1.4 14.3h.1c1.8 4.1 5.2 8.5 9.6 12.6 8.3 7.4 17.3 10.7 22.2 8.4H92c15.6 16.8 31.9 34.5 35.3 38.5 6 7.1 10.3 6.4 10.8 6.4h354.5c1.7.3 13.5 2.4 19-3.8 2.4-3.1 3.1-7.3 1.9-12.6zM504 90.2l.2.2c1.1 1.4 2 2.8 2.7 4.1h-14.4c-.9-1.5-1.7-2.9-2.3-4.3H504zm-22.1 14.9c-.6-.6-1.2-1.3-1.8-2h14.8c.7.7 1.4 1.4 2.1 2h-15.1zm17.2 1.7c.5.4 1 .7 1.5 1h-16.1c-.3-.3-.6-.7-.9-1h15.5zm-20.7-5.5c-.6-.7-1.2-1.3-1.9-2h15.1c.2.2.3.4.5.6.4.5.8.9 1.2 1.4h-14.9zm-3.5-3.8c-.7-.7-1.4-1.5-2.1-2.3h16.1c.4.8.9 1.5 1.4 2.3h-15.4zm14.9-15.8c1.8-1.4 7.2.7 12.8 6.8h-12.9c-.7-2-.9-3.7-.8-4.9.1-.9.4-1.5.9-1.9zm-1.9 11.8h-16.8c-.8-.8-1.6-1.7-2.4-2.5h18c.4.8.8 1.7 1.2 2.5zm-20.7-4.2c-.5-.6-1.1-1.2-1.6-1.8h20.1c.1.6.3 1.2.5 1.8h-19zm18.7-8c-.2.6-.4 1.2-.5 1.9 0 .4-.1.8-.1 1.2 0 .4 0 .9.1 1.3h-21.5c-1.3-1.5-2.7-2.9-4.1-4.4h26.1zm-66.5-38.7c.4.5 1 1.2 1.8 2h-351c-1.7-1.8-3.1-3.3-4.2-4.5h351.1c.7.6 1.5 1.4 2.3 2.5zM67 46.3c1 1.1 2.2 2.4 3.5 3.8h-7c-.5-.5-1-1-1.5-1.4-.9-.8-1.9-1.6-2.8-2.3H67zm-10.2-1.7c-1.3-.9-2.5-1.6-3.8-2.2h10.2c.6.6 1.3 1.4 2.1 2.2h-8.5zm354.5-7.7l.3-.1s1.2-.1 3.4 1.5H64.3c-.4-.4-.6-.7-.7-.8l-.3-.3c-.1-.1-.2-.2-.3-.2l348.3-.1zM61.6 40.6H49c-.6-.2-1.2-.4-1.8-.5h13.9c.1 0 .3.2.5.5zm-5.1-3.2c1.2.2 2 .5 2.7.9H42.4c2.3-1.2 6.5-1.9 14.1-.9zm-16.4 2.7h.3c-.1 0-.3 0-.3.1v-.1zm-.3 6.5c-.1-1.1.2-2 .7-2.6.5-.6 1.4-.9 2.6-1 3.9-.2 9.8 2.6 15.2 7H40.6c-.5-1.2-.7-2.3-.8-3.4zm1.6 5.2h18.9c2.2 2.1 4.1 4.2 5.5 6.3h-20c-1.8-2.1-3.3-4.2-4.4-6.3zm8.4 10.4c-.8-.7-1.6-1.5-2.4-2.3H67c1.3 2 2 3.9 2.4 5.5H53.9c-1.4-1-2.8-2-4.1-3.2zm19.9 5c0 .9-.2 1.7-.7 2.2-1.7 1.9-6.6 1-12.3-2.3l13 .1zm-4.4-15.4h6.8c1.8 2 3.8 4.1 5.8 6.3h-7.8c-1.2-2.1-2.8-4.2-4.8-6.3zm14.3 8.1c1.7 1.8 3.4 3.6 5.1 5.5H73c-.2-1.7-.9-3.6-1.9-5.5h8.5zm6.8 7.2c.2.3.5.5.7.8h-14c0-.3.1-.5.1-.8h13.2zm-14.6 4.3c.4-.5.8-1.1 1-1.7h15.9c.5.6 1.1 1.2 1.6 1.7H71.8zm54.3 33.7c-1.1-1.2-2.4-2.7-3.9-4.3h4.3V99h-5.9c-1.1-1.2-2.2-2.4-3.4-3.8h9.3v-1.7h-10.9c-1.8-1.9-3.6-3.9-5.6-6h16.5v-1.7h-18.1c-1.4-1.6-2.9-3.2-4.4-4.8h22.5v-1.8h-24.1c-1.2-1.3-2.3-2.5-3.5-3.8h27.6v-1.7H97.3c-.8-.8-1.6-1.7-2.4-2.5h31.6v-1.8H93.3c-.7-.8-1.4-1.5-2.1-2.3h35.3v-1.7H89.6c-.5-.5-.9-1-1.4-1.5h38.3v-1.8h-40c-.7-.8-1.4-1.5-2.1-2.3h42V58H82.8c-.7-.8-1.4-1.5-2.1-2.3h45.8v-1.8H79.1c-.7-.8-1.4-1.5-2.1-2.3h49.5v-1.7H75.3c-1.2-1.3-2.4-2.6-3.5-3.8h350.9c1 1.1 2.1 2.4 3.4 3.8H422v1.7h5.8c.7.7 1.4 1.5 2.1 2.3H422v1.8h9.5c.7.7 1.4 1.5 2.1 2.3H422v1.8h13.2c.7.7 1.4 1.5 2.1 2.3H422v1.8h16.9c.5.5.9 1 1.4 1.5H422v1.7h19.9c.7.8 1.4 1.5 2.1 2.3h-22v1.8h23.6c.8.8 1.5 1.7 2.3 2.5H422v1.7h27.6c1.1 1.3 2.3 2.5 3.5 3.8h-31V81h32.7c1.5 1.6 3 3.2 4.4 4.8H422v1.7h38.8c.5.6 1.1 1.2 1.6 1.8H422V91h42c.8.8 1.6 1.7 2.3 2.5H422v1.7h46c.7.8 1.4 1.5 2.1 2.3H422v3.2h.1v-1.5h49.6c.6.7 1.3 1.4 1.9 2H422v1.8h53.2c.7.7 1.3 1.4 1.9 2h-351zm1.6 1.7h351.1c.7.8 1.5 1.6 2.1 2.3H129.7c-.5-.6-1.2-1.3-2-2.3zm10 7.8c-.3 0-2.6.2-6.4-3.7h351.2c2.1 2.2 3.4 3.6 3.4 3.6l-348.2.1zm355.4-.1c-1.5-.4-2.4-.7-3.1-1.2h17c-4.3 2.5-11.4 1.8-13.9 1.2zm15.9-2.9h-21c-.4-.4-1-1.1-1.9-2H504c1 .4 1.9.6 2.8.7 1.1.1 2.1 0 3.1-.3-.2.6-.5 1.1-.9 1.6zm.3-5.1c-.5.4-1.2.5-2.1.4-2.9-.3-7.8-3.3-12.4-9.1-.4-.5-.7-1-1.1-1.5H508c.2.4.4.8.6 1.3.7 1.9 1.3 3.7 1.6 5.3.1 1.7-.2 3-.9 3.6z"/>
  <path d="M189.4 98.6V52.8h17.2c8.1 0 14.5 2.4 14.5 11.5 0 4.7-2.4 8.1-4.7 10 3.9 1.3 6 5.5 6 10.5 0 10.3-6.1 13.8-15.5 13.8h-17.5zm11.8-19.1V88h5.2c2.9 0 5.1-.8 5.1-4.2 0-4-2.8-4.3-6.5-4.3h-3.8zm0-16v7.6h4.9c2.4 0 4.1-1.3 4.1-4 0-3.6-2.3-3.6-4.8-3.6h-4.2zM256.4 98.6V52.8h11.8v15.5h11.2V52.8h11.8v45.8h-11.8V80.9h-11.2v17.8h-11.8zM299.6 52.8h11.8v27.4c0 4.5.7 8.4 5.6 8.4 4.2 0 5.5-3.4 5.5-8.4V52.8h11.8v25.9c0 14.7-5.3 21.1-17.3 21.1-11.2 0-17.4-5.4-17.4-21.2V52.8zM365.1 77.8l-.4-10.4V52.8H376v45.8h-11.1l-12.8-24.9.4 10.4v14.5h-11.3V52.8h11.1l12.8 25zM381 52.8h33v12h-10.6v33.8h-11.8V64.8H381v-12zM171.3 87.3c-3.4 0-6.2 2.8-6.2 6.2 0 3.4 2.8 6.2 6.2 6.2 3.4 0 6.2-2.8 6.2-6.2 0-3.5-2.7-6.2-6.2-6.2zM231.7 87.3c-3.4 0-6.2 2.8-6.2 6.2 0 3.4 2.8 6.2 6.2 6.2 3.4 0 6.2-2.8 6.2-6.2 0-3.5-2.8-6.2-6.2-6.2zM140.1 85.4c3.6 4.4 7.1 4.4 9.1 3.8 2.3-.7 3-2.5 3-6.2V52.8H164v28.1c0 12.1-4.5 18.3-14 18.9-9.2.5-11.7-1.2-16.9-6.9l7-7.5z"/>
</svg>
