<?xml version="1.0" encoding="utf-8"?>
<!-- Generator: Adobe Illustrator 21.1.0, SVG Export Plug-In . SVG Version: 6.00 Build 0)  -->
<svg version="1.1" id="Logo" xmlns="http://www.w3.org/2000/svg" xmlns:xlink="http://www.w3.org/1999/xlink" x="0px" y="0px"
	 viewBox="0 0 410.1 88.8" style="enable-background:new 0 0 410.1 88.8;" xml:space="preserve">
<style type="text/css">
	.st0{fill:#1BD9C4;}
</style>
<g>
	<g>
		<path class="st0" d="M85,26.2C77.8,10.3,61.9,0,44.4,0C39.8,0,35.3,0.7,31,2.1l3.7,7.8c3.2-0.9,6.4-1.4,9.7-1.4
			c6.7,0,13.1,1.9,18.6,5.2l-9.9,35.1L42.4,26.4l-9.4,22.6l-6.9-16.1l-4.2,9l10.6,24.9l10-22.1L55,71.6l16.8-50.3
			c2.1,2.5,3.9,5.4,5.3,8.5c3.9,8.7,4.2,18.5,0.8,27.5c-2.6,6.9-7.2,12.6-13.1,16.7l3.7,7.8c7.9-5.1,13.9-12.5,17.3-21.5
			C90.2,49.1,89.8,37,85,26.2"/>
		<path class="st0" d="M57.9,77.7c-17.8,7.2-38.3-0.9-46.2-18.5c-3.9-8.7-4.2-18.5-0.8-27.5c3.1-8.2,9-14.8,16.6-18.9L23.9,5
			c-9.7,5-17.1,13.3-21,23.6c-4.2,11.1-3.9,23.2,1,34c7.4,16.5,23.6,26.2,40.6,26.2c5.7,0,11.5-1.1,17-3.4L57.9,77.7z"/>
	</g>
	<g>
		<polygon class="st0" points="132.2,48.2 127.3,32.6 124.9,32.6 120,48.2 115.1,32.6 111.6,32.6 118.7,55.3 121.1,55.3 126.1,39.7 
			131,55.3 133.4,55.3 140.7,32.6 137.2,32.6 		"/>
		<rect x="154" y="32.6" class="st0" width="3.4" height="22.7"/>
		<polygon class="st0" points="175.8,32.6 172.4,32.6 172.4,55.3 185.6,55.3 185.6,52.2 175.8,52.2 		"/>
		<polygon class="st0" points="202.4,32.6 199,32.6 199,55.3 212.2,55.3 212.2,52.2 202.4,52.2 		"/>
		<path class="st0" d="M243.6,35.6c-1-1-2.3-1.9-3.7-2.5c-1.4-0.6-3-0.9-4.7-0.9c-1.6,0-3.2,0.3-4.6,0.9c-1.4,0.6-2.7,1.4-3.7,2.5
			c-1,1-1.9,2.3-2.5,3.7c-0.6,1.4-0.9,3-0.9,4.6c0,1.7,0.3,3.2,0.9,4.6c0.6,1.4,1.4,2.7,2.5,3.7s2.3,1.9,3.7,2.5
			c1.4,0.6,3,0.9,4.6,0.9c1.6,0,3.1-0.3,4.6-0.9c1.4-0.6,2.7-1.4,3.7-2.5c1.1-1,1.9-2.3,2.5-3.7c0.6-1.4,0.9-3,0.9-4.6
			c0-1.6-0.3-3.2-0.9-4.6C245.5,37.9,244.7,36.7,243.6,35.6z M243.6,43.9c0,1.3-0.2,2.4-0.7,3.5c-0.4,1-1,2-1.8,2.7
			c-0.7,0.8-1.6,1.4-2.6,1.8c-2,0.8-4.5,0.8-6.5,0c-1-0.4-1.9-1-2.7-1.8c-0.7-0.8-1.3-1.7-1.8-2.7c-0.4-1-0.7-2.2-0.7-3.4
			c0-1.2,0.2-2.3,0.6-3.4c0.4-1,1-1.9,1.7-2.7c0.7-0.8,1.6-1.4,2.6-1.8c1-0.4,2.1-0.6,3.3-0.6c1.2,0,2.3,0.2,3.4,0.6
			c1,0.4,1.9,1,2.6,1.8c0.7,0.8,1.3,1.7,1.7,2.7C243.4,41.5,243.6,42.7,243.6,43.9z"/>
		<polygon class="st0" points="283.3,32.6 282,32.6 277,48.2 272.1,32.6 269.8,32.6 264.8,48.2 259.9,32.6 256.4,32.6 263.5,55.3 
			265.9,55.3 270.9,39.7 275.8,55.3 278.2,55.3 284.5,35.7 299.2,35.7 299.2,55.3 302.7,55.3 302.7,35.7 309.4,35.7 310.8,32.6 
			285.5,32.6 		"/>
		<path class="st0" d="M330.6,45.6c0.9-0.3,1.8-0.8,2.5-1.4c0.7-0.6,1.3-1.3,1.7-2.1c0.4-0.8,0.7-1.8,0.7-2.8c0-1-0.2-1.9-0.6-2.8
			c-0.4-0.8-1-1.5-1.7-2.1c-0.7-0.6-1.6-1-2.5-1.4c-0.9-0.3-2-0.5-3.1-0.5h-7.1v22.7h3.4V46l8.9,9.3h4.5l-8.9-9.2
			C329.2,46,329.9,45.8,330.6,45.6z M331.7,37.9c0.2,0.4,0.3,0.9,0.3,1.4c0,0.7-0.1,1.2-0.4,1.7c-0.2,0.5-0.6,0.9-1,1.2
			c-0.4,0.3-1,0.6-1.6,0.8c-0.6,0.2-1.3,0.3-2,0.3h-3.2v-7.5h3.5c0.7,0,1.4,0.1,1.9,0.3c0.6,0.2,1.1,0.4,1.5,0.8
			C331.1,37,331.4,37.4,331.7,37.9z"/>
		<polygon class="st0" points="353.4,45.3 362.9,45.3 362.9,42.2 353.4,42.2 353.4,35.7 363.5,35.7 363.5,32.6 350,32.6 350,55.3 
			364.1,55.3 364.1,52.2 353.4,52.2 		"/>
		<polygon class="st0" points="381.7,45.3 391.2,45.3 391.2,42.2 381.7,42.2 381.7,35.7 391.8,35.7 391.8,32.6 378.3,32.6 
			378.3,55.3 392.4,55.3 392.4,52.2 381.7,52.2 		"/>
		<path class="st0" d="M409.8,35.1c-0.2-0.5-0.5-1-0.9-1.4c-0.4-0.4-0.9-0.7-1.4-0.9c-1.1-0.5-2.3-0.5-3.4,0c-0.5,0.2-1,0.5-1.4,0.9
			c-0.4,0.4-0.7,0.8-0.9,1.4c-0.2,0.5-0.3,1.1-0.3,1.7c0,0.6,0.1,1.2,0.3,1.7c0.2,0.5,0.5,1,0.9,1.4c0.4,0.4,0.9,0.7,1.4,0.9
			c0.5,0.2,1.1,0.3,1.7,0.3c0.6,0,1.2-0.1,1.7-0.3c0.5-0.2,1-0.5,1.4-0.9c0.4-0.4,0.7-0.9,0.9-1.4c0.2-0.5,0.3-1.1,0.3-1.7
			C410.1,36.2,410,35.6,409.8,35.1z M408.9,38.1c-0.2,0.4-0.4,0.8-0.7,1.1c0,0,0,0,0,0l-1.8-2.1c0.1,0,0.2,0,0.3-0.1
			c0.2-0.1,0.3-0.2,0.5-0.3c0.1-0.1,0.3-0.3,0.3-0.5c0.1-0.2,0.1-0.4,0.1-0.6c0-0.2,0-0.4-0.1-0.6c-0.1-0.2-0.2-0.4-0.3-0.5
			c-0.1-0.1-0.3-0.3-0.5-0.3c-0.2-0.1-0.4-0.1-0.7-0.1h-1.8v5.2h1v-2l1.6,1.9l0,0.1h1.3c-0.3,0.3-0.6,0.5-1,0.7
			c-0.8,0.4-1.8,0.4-2.7,0c-0.4-0.2-0.8-0.4-1.1-0.7c-0.3-0.3-0.6-0.7-0.7-1.1c-0.2-0.4-0.3-0.9-0.3-1.3c0-0.5,0.1-0.9,0.3-1.3
			c0.2-0.4,0.4-0.8,0.7-1.1c0.3-0.3,0.7-0.6,1.1-0.7c0.4-0.2,0.9-0.3,1.3-0.3c0.5,0,0.9,0.1,1.3,0.3c0.4,0.2,0.8,0.4,1.1,0.7
			c0.3,0.3,0.6,0.7,0.7,1.1c0.2,0.4,0.3,0.9,0.3,1.3C409.2,37.3,409.1,37.7,408.9,38.1z M406.3,36.2c-0.1,0.1-0.3,0.2-0.5,0.2h-0.6
			v-1.3h0.7c0.1,0,0.2,0,0.3,0.1c0.1,0,0.2,0.1,0.2,0.1c0.1,0.1,0.1,0.1,0.1,0.2c0,0.1,0,0.1,0,0.2C406.5,35.9,406.5,36,406.3,36.2z
			"/>
	</g>
</g>
</svg>
