<svg xmlns="http://www.w3.org/2000/svg" viewBox="0 0 254.69 287.42"><defs><style>.cls-1{fill:#c05f00;}.cls-2{fill:#333436;}.cls-3{fill:#012539;}.cls-4{fill:#515150;}.cls-5{fill:#fca398;}.cls-6{fill:#6c3030;}.cls-7{fill:#8cc63f;}.cls-8{fill:#fe9b94;}.cls-9{fill:#c05e00;}.cls-10{fill:#515151;}.cls-11{fill:#fca399;}.cls-12{fill:#4d5363;}.cls-13{fill:#1a1a1a;}.cls-14{fill:#f0917b;}.cls-15{fill:#f3947d;}.cls-16{fill:#f5947e;}.cls-17{fill:#f79583;}.cls-18{fill:#f59687;}.cls-19{fill:#f99b90;}.cls-20{fill:#f8faf8;}.cls-21{fill:#082839;}.cls-22{fill:#fda399;}.cls-23{fill:none;stroke:#000;stroke-linecap:round;stroke-linejoin:round;stroke-width:0.9px;}</style></defs><g id="Layer_2" data-name="Layer 2"><g id="Layer_1-2" data-name="Layer 1"><path class="cls-1" d="M242.35,183.09a41.29,41.29,0,0,0-.95-14.75c-1.36-4.77-4.16-9.27-8.36-11.9-6.9-4.31-15.79-2.84-23.77-1.26-39.92,7.91-44.71,21.91-62.39,19.94-18.08-2-26-16-34.32-11.09s-5.54,22.58-5.4,23.38C110,203.63,125.25,218,135,217.09c1.9-.17,7.67-1.29,13.64,1.67.93.46,1.53,1,2.18,1.27,5.39,2.6,9.79,6.82,14.59,10.4,9,6.7,19.84,11.3,31,11.1S219,235.73,224.52,226a65.61,65.61,0,0,1,5.37-8.29c1.76-2.28.88-4.69,2.2-7,1.58-2.78,3.8-5.08,5.23-8a46.7,46.7,0,0,0,3.3-9.1A64.19,64.19,0,0,0,242.35,183.09Z"/><path class="cls-2" d="M110.89,228.28a4.84,4.84,0,0,0,2.58,4.63,61.33,61.33,0,0,0,11.39,6,64.22,64.22,0,0,0,12.74,4.59,65.4,65.4,0,0,0,8.94,1,11.89,11.89,0,0,0,4.76-.34,11.12,11.12,0,0,0,3.06-1.88,84.82,84.82,0,0,0,12.73-12.4,15.28,15.28,0,0,0,3-4.77.84.84,0,0,0,0-.58.85.85,0,0,0-.48-.37l-7.93-3.47a92.55,92.55,0,0,0-10.62-4.13,46.63,46.63,0,0,0-26.18-.08,67.11,67.11,0,0,1-7.46,2.08c-1.77.3-5.08.22-5.89,2.2C110.68,222.92,110.82,226,110.89,228.28Z"/><path class="cls-3" d="M178.49,281.45c1.95,1.83,3.43,4.16,6,5.35,2.31,1.08,3.86.93,4.72-1.92,2.06-6.88,4.23-13.72,6.56-20.51,1-2.94-.21-3.84-2.81-4a18.26,18.26,0,0,0-9.22,1.87C176.34,267.05,174.12,275.2,178.49,281.45Z"/><path class="cls-4" d="M133.51,272.92c9.19,1.93,18.41,3.77,27.57,5.86,2.25.51,3-.35,3.49-2.16,3.5-2.83,4.77-6.34,3.32-10.71-10.07,1.07-19.86,3.6-29.71,5.75C136.62,272,134.83,271.68,133.51,272.92Z"/><path class="cls-5" d="M167.89,265.91q-1.66,5.35-3.32,10.71l13.92,4.83a19.53,19.53,0,0,1,5.22-19.21C178.4,263.29,173,264.05,167.89,265.91Z"/><path class="cls-1" d="M127.93,154.94l2,.57,9.39,2.37c10-8.78,21.82-7.44,29.46,3.33L209.24,144c0-.37-.07-.74-.11-1.11q-6.23-1.76-12.64-3.44-8.37-2.21-16.48-4.16c-9.39,7.76-14.08,8.38-16.6,7-1.52-.82-1.78-2-3.63-4.54-10.45-14.45-26.62-8.72-33.94,1.44-2.88,4-4.12,8.56-5,13.29C122.92,154.11,125.71,153.7,127.93,154.94Z"/><path class="cls-6" d="M118.7,2.9c-4,5.29-8.48,10-14.29,13.34-3.5,2-5.27,5.35-6.2,9-1.59,6.23-2.68,12.53-1.59,19.05A13.29,13.29,0,0,1,94.3,54.89,35.17,35.17,0,0,0,80.18,96.57l36.56-10.4c3-5.17,2.24-17.48-1.52-22-1.79-2.15-3-3.87-.53-6.46,1.7-1.81.9-3.78-.87-5.49-5.41-5.22-6.36-8.31-4-12.2,2.22-3.64,5.81-4.43,12.35-2.51,3.59,1.05,6.81-.12,10-1.37A23,23,0,0,0,139,31.74c4.57-4,9.82-4.77,15.54-3.42,1.89.44,3.8,1.19,5.74.79,3.44-.72,4.49,1.16,5,4,3,15.69-4,29.92-18.48,37.25-6,3-7.54,9.07-3.85,14.85l20,1.89a18,18,0,0,1-3.3-10.56c.14-3.64,1.75-6,4.87-11.24,5.23-8.81,7.84-13.22,8.26-14.75,2.41-8.81.07-18.19-3.35-23A38.64,38.64,0,0,1,165.61,20c-3.84-9.09-10-15.51-20.21-17.11C140.49,1.78,135.7.16,130.58,0A20.08,20.08,0,0,0,118.7,2.9Z"/><path class="cls-7" d="M238.88,165.25a32.51,32.51,0,0,1,5.28-1c5.44-.15,8.5-3,9.91-8.06,1.54-5.48.21-9.48-4.32-13-3.17-2.48-6.31-5-9.46-7.51-13.39-10.07-27.24-19.58-40-30.35a95.88,95.88,0,0,0-25.44-15.56,89.71,89.71,0,0,0-22.05-6,82.06,82.06,0,0,0-10.52-.69c.09,1.68.08,5.83-2.7,9-5,5.7-16.27,5.11-20.51-.8a11.66,11.66,0,0,1-1.78-8c-5.28,0-35.73.13-50.75,13.64a100.46,100.46,0,0,0-8.8,9.23c-3,3.64-5,6.69-12.84,19.29l-6.06,9.77,5.36-2.43c4.72,2.64,10.14,3,15.17,4.59a9.17,9.17,0,0,0,2,.48c5,1.34,9.93,3.09,15.06,4a4.23,4.23,0,0,0,1.32.3,115.37,115.37,0,0,0,14.21,4.24c1.32.26,2.61.61,3.91,1,4.31,1.19,8.52,2.8,12.92,3.68,1.38.18,2.55,1,3.94,1.18,2.71.86,5.41,2,8.31.74,1.88-1.55,2.08-3.89,2.78-6a23.25,23.25,0,0,1,11.45-13.79c8.58-4.53,16.15-3,22.38,4.51,1,1.15,1.87,2.34,2.84,3.47a12.76,12.76,0,0,0,21-2.25c1-1.92,2.69-1.33,4.27-1a79.45,79.45,0,0,1,10.17,2.73c2.94,1,6,1.63,9.68,2.85-12.77,6.27-25.5,11-37.68,17a4.09,4.09,0,0,0-1.75,2.83,43.93,43.93,0,0,0,3.27,11.89,2.31,2.31,0,0,0,1.73,1.08,172.78,172.78,0,0,1,19.84-3,6.87,6.87,0,0,0,7.91-1.64Z"/><path d="M73.48,165.18c-.45,1.24-.13,2.63-1,3.82-5.16,7-9.62,14.52-15.26,21.19-2.7,3.83-2.7,6.92,0,10.72,4.71-6.72,9.44-13.42,14.12-20.15,1-1.47,1.88-3,3.51-4Q74.17,171,73.48,165.18Z"/><path class="cls-7" d="M170.16,222c-5.07-4.08-8.89-9.25-12.64-14.48-5.36-7.49-7.33-8.14-16.33-5.63-2,.56-4,1.16-6.06,1.59-14.56,3.12-26.68-9.56-22.84-23.93.13-.48.35-1.16.59-1.93,1.26-4,2.45-7.08,3.27-9.13a14.57,14.57,0,0,1-3.68.13,12.61,12.61,0,0,1-4.46-1,15.06,15.06,0,0,0-3.26-1.09A134.63,134.63,0,0,0,91.62,163c-1.41-.09-2.63-.92-4-1A74.23,74.23,0,0,0,77.8,159c-1.73-.42-3.52-.74-5,.69-1.14,1.64-1.08,3.47-.82,5.32,1.66,3.92-.06,8.25,1.44,12.18.84,8.44,2,16.84,3,25.25.18.68.46,1.79.73,3.15,1.5,7.46.24,9,1.25,11.5,3.26,8.17,22.71,7.79,25.09,7.49a7,7,0,0,0,2.92-.33,9.33,9.33,0,0,1,3.11-.26h52.41a5.32,5.32,0,0,1,2.2.3C166.56,224.69,168.35,223.36,170.16,222Z"/><path class="cls-8" d="M143,85.23c-.07-.45-.15-.89-.19-1.33-.5-6.07-.13-10.33,7.23-13.58,14.71-6.5,21.54-26.65,15.92-41.6-.65-1.74-1.25-3-3.39-1.63s-4.39.64-6.48-.13c-7.09-2.58-13.22-1-18.67,4a18.64,18.64,0,0,1-8.11,4.59c-2.9.72-5.46,1.22-8.51-.34-4.85-2.46-10.59,0-12.93,4.72a9.89,9.89,0,0,0,3.56,12.62c4.26,2.72,4.24,3.7-.14,6.62-.36.24-.73.45-1.12.69,8.72,7.2,6.8,17,6.61,26.34,2,7.87,6.79,12,13.54,11.81S141.56,93.1,143,85.23Z"/><path class="cls-9" d="M3.46,144.19s-5.14.85-2.89-6.75,5.6-19.08,5.6-19.08,1.41-2.49,5.33-.9,24,12.48,24,12.48l-4.63,16.61Z"/><path class="cls-10" d="M48.37,250.16a122.16,122.16,0,0,1-12.29-6.24,24,24,0,0,1-6-4.19c-4.84-5.14-4-13.9.41-19.38s11.58-8.12,18.58-9c7.94-1,16-.16,23.9,1.18a206.74,206.74,0,0,1,85.87,35.85,27.75,27.75,0,0,1-10,6.48c-8.93,3.72-18.71,4.79-28.15,6.94-6.46,1.47-12.85,3.48-19.47,3.91a31.08,31.08,0,0,1-10.43-1c-3-.87-5.59-2.68-8.56-3.65-7-2.31-14-4.72-21.15-6.7A105,105,0,0,1,48.37,250.16Z"/><path class="cls-2" d="M167.2,222.08c.65-.35,1.7-1,3.32-1.76a133.84,133.84,0,0,1,20.94-7.73c12.94-3.63,25.95-6.88,39.56-3.82,2.93,1,5.95,1.81,8.55,3.61a23.53,23.53,0,0,1,4.83,3.76c.23.26,5.31,6.14,4,13.22-.56,3-2.18,5.66-6.38,9.6a68.87,68.87,0,0,1-19.92,12.84,175.77,175.77,0,0,1-29.21,9.75c-3,.49-6,1.26-9,2-5.44,1.13-10.75,2.85-16.28,3.58q-5,1.19-10,2.14c-8.12,1.55-16.24,3.06-24.27,5.06-4.12.58-8.13,1.73-12.2,2.54-2.78.55-5.62,1-8-1.21-3.51-7-5.67-14.44-7.49-22a4.91,4.91,0,0,1,.26-1.32,6.31,6.31,0,0,1,2.22-2.74C112.07,246.81,154.36,229.06,167.2,222.08Z"/><path class="cls-11" d="M106.56,254.09a59.21,59.21,0,0,1-11.48,3.65c-.81,1.14-.31,2.27.1,3.35a103.06,103.06,0,0,1,4.51,14.29,3.11,3.11,0,0,0,1.66,2.45l12.21-3.23A156.36,156.36,0,0,0,106.56,254.09Z"/><path class="cls-3" d="M101.35,277.83c-.28-7.26-2.8-13.83-6.27-20.09a16.73,16.73,0,0,0-8.61-.78c-2.39.49-4.59,1.3-4.3,4.45,2.2,6.67,4.54,13.3,6.54,20,1,3.29,2.53,3.79,5.56,2.63C97.5,282.84,100.24,281.33,101.35,277.83Z"/><path class="cls-3" d="M133.59,176c-.09.59-.14,1.19-.28,1.77-2,8.39,1.48,13.69,10,15.08a33,33,0,0,0,7.13.6c5.43-.31,10,1,13.32,5.63a4.73,4.73,0,0,0,5.26,1.6c5.41-1.37,11.31-9.73,10.61-15.18-.63-4.9-5-6.34-8.24-8.81-2.21.44-2.87,2.47-4,4-8.28,11.31-22.61,10.64-29.9-1.41-.76-1.26-1.25-2.73-2.69-3.48A1.28,1.28,0,0,0,133.59,176Z"/><path class="cls-12" d="M198.9,171.57c-2.6.71-5.43.32-7.91,1.64-2.15,6.33-4.16,12.72-6.5,19-.94,2.5-.13,3.41,2.06,4.25,2.44.93,3.45.08,4.25-2.22C193.42,186.64,195.52,178.87,198.9,171.57Z"/><path class="cls-7" d="M56.91,164.93l3-4.46c-1.55-3.85-5.44-5.34-8.11-8.07-3.64-1.69-7.67-2.14-11.38-3.6-1.27-.31-2.53-.67-3.8-1-1.84-.17-3.91-1.64-5.27.92l-3.88,5.37c-1.26,2-2.57,4-3.75,6-3.34,5.78-.93,11.92,5.47,14.11a1.93,1.93,0,0,1,1,.73c3.49,6.14,9,5,14.42,4a3.78,3.78,0,0,0,3.92-1.55C51.85,173.58,55.43,170,56.91,164.93Z"/><path class="cls-13" d="M56.91,164.93c-4.47,4.33-7.16,10.23-12.28,14l.06,25.71a24.3,24.3,0,0,0,12.5,0c0-1.24,0-2.48.05-3.72,0-3.57,0-7.14,0-10.72Q57.07,177.56,56.91,164.93Z"/><path class="cls-14" d="M24.78,147.1c.06-1.1.13-2.19.19-3.28a.66.66,0,0,0-1.13-.24c-1.15,1.19-.44,3.18-1.84,4.26-.78.85-1.93,1.55-1.06,3a1.89,1.89,0,0,0,2.31.86c1.55-.37,1.46-1.61,1.38-2.85A10.55,10.55,0,0,1,24.78,147.1Z"/><path class="cls-15" d="M9.39,144.41l.24-2.61a1.1,1.1,0,0,0-1.3-.32c-.49,1-1,2-1.48,2.94,0,.15,0,.29,0,.44-.07,1.49-2.63,2.35-1.06,4.25a1.73,1.73,0,0,0,2,.53c2.5-.78.84-2.66,1.06-4.06A4,4,0,0,1,9.39,144.41Z"/><path class="cls-16" d="M22.33,125.69c.46-1.28.91-2.56,1.36-3.84s2.58-1.92,1.19-3.71a2,2,0,0,0-2.35-.63c-2.56.88,0,3.25-1.33,4.51-.11,1.12-.22,2.23-.34,3.35A1.14,1.14,0,0,0,22.33,125.69Z"/><path class="cls-17" d="M16.76,146.26l.84-3.37c-.38-.74-.94-.73-1.59-.38-.35,1-.71,1.92-1.07,2.87,0,.15,0,.3-.07.44-.17,1.53-2.76,2.29-1.41,4.26a1.85,1.85,0,0,0,2.42.52C18.19,149.59,16.06,147.63,16.76,146.26Z"/><path class="cls-18" d="M28.28,125.57c-.12.89-.23,1.78-.34,2.67.23.69.46,1.38,1.32.56l1-2.41a2.65,2.65,0,0,1,1-2.33c1.1-.85,1.49-1.85.45-3a1.62,1.62,0,0,0-2-.48,2,2,0,0,0-1.06,2.93A2.12,2.12,0,0,1,28.28,125.57Z"/><path class="cls-19" d="M14.89,122.66c.6-1.42.46-3.13,1.68-4.31.89-1.13,2.43-2.4.44-3.63-1.7-1.06-2.78,0-3.07,1.82,1.56,2-.61,3.88-.22,5.85Q14.13,123.32,14.89,122.66Z"/><circle class="cls-10" cx="9.12" cy="140.64" r="1.8"/><circle class="cls-10" cx="17.22" cy="141.54" r="1.8"/><circle class="cls-10" cx="24.41" cy="142.44" r="1.8"/><circle class="cls-10" cx="28.01" cy="129.85" r="1.8"/><circle class="cls-10" cx="20.82" cy="126.25" r="1.8"/><circle class="cls-10" cx="13.62" cy="123.55" r="1.8"/><path class="cls-12" d="M136.84,176.62,30.71,146.94l4.5-17.09,107,28.78Z"/><circle class="cls-20" cx="153.03" cy="170.32" r="19.79"/><path class="cls-3" d="M164.44,179.4c-1.31-.55-2.25.44-3.35.79-5.11,1.6-9.12-.34-10.63-5.13s.58-8.85,5.6-10.48c2.64-.85,5.39-1.35,8.09-2-4.34-5.1-9.72-6.85-16.09-4.65a13,13,0,0,0-9.1,11.23c-.78,6,1.37,10.91,6.67,14.13C151.81,187,158.82,185.55,164.44,179.4Z"/><path class="cls-11" d="M166.86,162.9l-2.71-.33c-4.21-1.4-8,.09-11.42,2.19-4.53,2.75-5.52,8.34-2.57,12.86s7.56,5.59,12.3,2.76a5.65,5.65,0,0,1,2-1l5.85-4.31A47.38,47.38,0,0,0,166.86,162.9Z"/><path class="cls-21" d="M91,164.93l-3.6-.9c1.5-6,3-13.8,4.5-19.79l3.6.9C94,151.13,92.47,158.93,91,164.93Z"/><path class="cls-21" d="M108.06,169.42l-3.6-.9c1.5-6,3-13.79,4.5-19.78l3.6.89C111.06,155.63,109.56,163.43,108.06,169.42Z"/><path class="cls-21" d="M125.15,173.92l-3.6-.9c1.5-6,3-13.79,4.5-19.79l3.6.9C128.15,160.13,126.65,167.92,125.15,173.92Z"/><path class="cls-21" d="M73.88,160.43l-3.6-.9c1.5-6,3-13.79,4.5-19.79l3.6.9C76.88,146.64,75.38,154.43,73.88,160.43Z"/><path class="cls-21" d="M56.79,155.93l-3.6-.9c1.5-6,3-13.79,4.5-19.79l3.6.9C59.79,142.14,58.29,149.93,56.79,155.93Z"/><path class="cls-21" d="M39.7,151.43l-3.59-.9c1.49-6,3-13.79,4.49-19.78l3.6.9C42.7,137.64,41.2,145.44,39.7,151.43Z"/><path class="cls-22" d="M60.77,140.94l-3.58,2.65c-2.68,2.82-6.86,4.73-5.9,9.75a42.32,42.32,0,0,0,8.6,7.13,10.78,10.78,0,0,0,10.54-2.35c2.38-3.3,6.34-6.19,2.84-11-1.34-1.4-2.65-2.83-4-4.2C66.83,140.54,64.14,139.28,60.77,140.94Z"/><path class="cls-23" d="M157,40.59a7.34,7.34,0,0,0-5.39-3.6,7.46,7.46,0,0,0-6.3,2.7"/><path class="cls-23" d="M135.63,40.59a7.33,7.33,0,0,0-6.42-.92,7.46,7.46,0,0,0-4.52,5.15"/></g></g></svg>