<svg xmlns="http://www.w3.org/2000/svg" viewBox="0 0 371.79 339.32" xmlns:v="https://vecta.io/nano"><path d="M23.78 312.05a26.41 26.41 0 0 0-20 13.47c-1.07 2-1.87 4.43-.79 6.39s3.41 2.52 5.54 2.8c16.19 2.14 31.78-5.83 47.67-9.66 12.76-3.08 26-3.5 39.12-3.57a765.47 765.47 0 0 1 147.6 13.57c12 2.3 24.17 4.9 36.39 4.14 10.05-.63 19.82-3.52 29.48-6.39 6.21-1.8 13.51-4.8 14.55-11.29.8-4.93-2.84-9.72-7.31-11.88s-9.6-2.32-14.56-2.48c-75.12-2.44-149.72-15.75-224.88-15.4-14.51.07-29.14.66-43.21 4.25-7.76 2-15.84 5.29-20.06 12.15" fill="#1a1a1a"/><path d="M4.47,312.75c7.78,11.07,24.13,9.69,37.44,7.69,91.79-13.8,185.13,0,277.87,3.25,8.54.29,17.66.34,24.82-4.35,10.42-6.82,12.89-20.85,14.41-33.28,2-16.59,2.7-36.58-10.67-46.46-4.1-3-9.06-4.63-14-5.69-23-4.88-46.76,1.2-69.79,6.09-44.22,9.39-89.23,14.41-134.29,17.41-22.18,1.48-44.4,2.47-66.62,3.27-13.21.47-36.93-4.28-49.21,1.08C-.28,268.16-4,300.69,4.47,312.75Z" fill="#99583b"/><path d="M319.32 306.41c2.76 7.37 7.52 14.8 14.55 16.24a16.92 16.92 0 0 0 8.94-.95c13.21-4.6 22.48-18.4 26.74-33.09 2.14-7.37 3.23-15.47 1-22.82-2.62-8.82-9.42-15.14-15.91-21-5.13-4.59-12.86-12.64-20-10.72-7.59 2-12.39 13.23-15.09 20.46-6.1 16.4-6.38 35.47-.23 51.88z" fill="#dfb173"/><path d="M352 273.63a23.84 23.84 0 0 1-.79 13.7 3.42 3.42 0 0 0-.26 2c.55 1.89 3.46 1.32 5 .08 5.42-4.34 7.54-11.93 6.39-18.75s-5.18-12.9-10.16-17.75a15 15 0 0 0-6.05-4c-4.12-1.19-8.57.8-11.77 3.64-5.92 5.25-8.79 13.23-9.41 21.09s.77 15.71 2.17 23.47c.21 1.19.65 2.62 1.84 2.86s2-.73 2.65-1.64a16.65 16.65 0 0 0 2.73-10.84c-.19-1.91-.72-3.83-.37-5.71.56-3 3.14-4.62 4.35-7.22 1-2.1.88-7.58 2.26-8.92 4.87-4.64 10.42 4.09 11.42 7.99zm-9.4 18.97c-.18-.64-.66-1.41-1.28-1.2a1.22 1.22 0 0 0-.64.74c-3.15 6.49-6.37 13.32-6.09 20.54a1.61 1.61 0 0 0 .33 1.12 1.41 1.41 0 0 0 .78.34c1.73.3 3.44-.6 4.93-1.54a53.33 53.33 0 0 0 15.24-14.47c.27-.39.54-.93.26-1.32a1.09 1.09 0 0 0-.52-.33 7.76 7.76 0 0 0-5.08-.09c-1.35.44-5.84 4.3-7 3.64s-.53-5.88-.93-7.43z" fill="#c2905a"/><path d="M8.44 289.44c4.54-.61 8.52-3.28 12.82-4.89s9.76-1.9 12.87 1.5a32.85 32.85 0 0 0-12.36 20.11 22.83 22.83 0 0 0 14.46-1.84c3-1.47 5.67-3.59 8.71-5 7.23-3.31 15.57-2.17 23.49-1.75a120.4 120.4 0 0 0 55.46-10.37 33.64 33.64 0 0 0-21.74-4.6c-5.79.76-11.3 3-17.08 3.89s-12.36-.06-16.19-4.51a47.53 47.53 0 0 0 19.64-8.22c-16.43-3.93-32.95-1.57-49.38.93-5.9.89-12.14.33-17.93 1.88a19.08 19.08 0 0 0-9 4.79c-.53.64-4.59 8.19-3.77 8.08zM169.39 285c2.47.77 5.14.35 7.69-.07l34.41-5.66c8.59-1.42 18.77-2.33 24.68 4.12L202 290.56l17.61 3.06c2.89.51 6.69 2.71 5.29 5.3l-24.66 7.93 89.89-1.16c4.57-.06 9.36-.17 13.36-2.41 1.25-.69 2.51-1.82 2.46-3.26a4.26 4.26 0 0 0-1.91-2.88c-9.93-8-24.4-7.36-35.26-14a4.29 4.29 0 0 1-2-2.08c-.47-1.38.43-2.85 1.48-3.85 5.92-5.68 16-3.62 22.91-8a6.74 6.74 0 0 0 3.12-3.62c.72-2.55-1.06-5.28-3.4-6.48s-5.08-1.24-7.71-1.18c-24.55.53-48.49 6.67-72.78 9.59-10.46 1.25-22.24-.44-32.4 1.81-5.53 1.25-20.54 11.9-8.61 15.67z" fill="#794626"/><path d="M244.33,84.47s18.6,8.58,22.21,22,18,92.5,18,92.5l-24.85,9.09S242.66,95.27,238.42,93.18" fill="#1b1464"/><g fill="#ffbca4"><path d="M229.62 30.82c7.23 15.61-6.88 39.4-26.85 41.38-16.2 1.6-34.26-11.37-34.25-27.89 0-15 14.92-26 28.7-27.88 12.14-1.66 27.24 3.22 32.4 14.39z"/><path d="M206.29 99.18h-27v-10.8c.18-13.57.93-17.84-.9-24.28a36.75 36.75 0 0 0-4.5-9.89l32.38 8.09c2.05 6.42 1.68 8.42.9 9a2.54 2.54 0 0 0-.9.9 3.45 3.45 0 0 0 0 2.69c.51 1.42.73 7.66.02 24.29z"/></g><path d="M201.51 26.12c6.33-1.68 12.78-.44 19.17-.77 1.86 1.25 3.85 1.94 5.81.42s1.45-3.77 1-5.82C225.13 9.16 218.1 3 207.73.26l-4.24-.05c-11.08 1.09-16.58 8.41-19.82 18-.9 2.66-1.47 5.59 1.18 7.88 3.9 1.54 7.88 1.09 11.89.52 1.58-.18 3.08-1.18 4.77-.49z" fill="#e6e6e6"/><path d="M184.48 25.27a25 25 0 0 1 16.59-24c.83-.31 1.62-.72 2.42-1.09-5.74.19-11.55-1-17.21.86-11.64 3.89-17.17 12.31-18 24.23a3.17 3.17 0 0 0 1.31 1.09c5.05.78 10.15 2.13 14.89-1.09z" fill="#ef002f"/><path d="M184.48 25.27l-15.27.09c-4.24 6.06-4.14 12.71-2.75 19.56a6.92 6.92 0 0 0 2.63 4c1.39 3.6 2.44 7.38 5.56 10 .73-.51 1.51-1 2.19-1.54 3.94-3.25 3.85-3.9-.81-6.1a10.12 10.12 0 0 1-5.76-10.59c.88-4.72 4.72-8.9 9.15-8.1 7.33 1.33 12.82-2.43 18.83-5l3.26-1.43c-5.6-1.8-11.37-.22-17.03-.89z" fill="#f7931e"/><path d="M169.09 48.88c-2.74-7.85-1.73-15.69.12-23.52l-.92-.06-12.64 17.88c-2.07 3-.68 5.46 3.13 5.61 3.43.13 6.87.07 10.31.09z" fill="#c50037"/><path d="M243.81 199.25q3.34-28.62 6.7-57.22l1.19-9.28c2.9-3.31 2.44-7.53 2.84-11.41.74-7.17 2.85-14.23 1.91-21.55a5.28 5.28 0 0 0-3.52-3.8 3.85 3.85 0 0 0-3 .51 152 152 0 0 0-16.29 11.68 3.55 3.55 0 0 0-1.53 3.08c2 3.63 4.09 7.21 4.26 11.57.19 5-.24 5.6-5.07 6.6-4.21.86-8.62.69-12.71 2.25-1.66 3.16-4.32 5.06-7.44 6.74l-66.77 37.06c-1.19.63-2.41 1.27-2.64 2.82l1.8 45.94c2.65 1.39 4.57-.52 6.58-1.58 15.5-8.18 30.46-17.34 45.89-25.65 10.38-5.58 14.86-4.51 21.17 5.44 1.06 1.66 2 3.37 4.14 3.89 7-.44 13.49-2.92 20.18-4.63a3 3 0 0 0 2.31-2.46z" fill="#2e3192"/><path d="M124.71 99.21c-1.2 5.88-1.38 11.85-1.67 17.82h0c1 4.44-.12 9 .64 13.44.88 13.1 1.48 26.25 6.44 38.64 2.08 5.18 4.94 9.7 11.64 9.17 21.39-10.7 41.79-23.18 62.77-34.6l11.82-6.41c1.85-1 3.76-2.28 2-4.9.39-6.48-2.67-11.69-6.15-16.75-3-1.45-5.54.28-8 1.46l-45.85 21.51c-8.59 4.1-8.45 4-10.14-5.05-2.66-14.25-4.33-28.66-7.43-42.82-.35-1.62-.63-3.24-2-4.41-6.11-.65-14.17 6.76-14.07 12.9z" fill="#1b1464"/><path d="M197.52 337.44a2.93 2.93 0 0 0 2.94 1.6h23.28a5.79 5.79 0 0 0 2-.86c1.65-2.35 1.39-5 1-7.58-.83-3.21-2.52-5.71-5.75-7a18.33 18.33 0 0 0-7.79-1.22c-4.94 0-10-1.62-14.67 1.39-1.72 4.46-.21 9.15-1.01 13.67z" fill="#012638"/><path d="M198.51,323.77a92,92,0,0,0,15.21.12c2.27-2.67,2.39-5.33,0-8l-15-.23Z" fill="#ffbca4"/><path d="M269.57 323.88c-1.45 4.24-.49 8.6-.64 12.9-.08 2.12 1.55 2.25 3.12 2.25h21.54c2.42 0 3-1.06 3.06-3.26.31-7.66-3-11.17-11.71-12a15.4 15.4 0 0 0-15.37.11z" fill="#022638"/><path d="M269.57 323.88a108 108 0 0 0 15.37-.05l.07-3.6-.3-4.33c-3.29-.12-6.65.13-9.85-.47-4.2-.79-5.67.76-5.36 4.71l.07 3.74zM212.3 116.27c1.07 5.72 4.16 10.69 6 16.12a91.53 91.53 0 0 0 16.33-1.89c1.88-.34 3.75-1.11 3.6-3.24-.4-6 .28-12.39-5.9-16.28-.7-2.08-2.64-2.87-4.24-4a11.71 11.71 0 0 0-15.79 9.29z" fill="#ffbca4"/><path d="M138.3 85.71a.46.46 0 0 0-.18.46c3.14 13.65 4.79 27.56 7.32 41.32a91.71 91.71 0 0 1 1.87 12.36c.2 4.23 1.26 4.78 5.05 3q27.63-12.76 55.23-25.62a8.85 8.85 0 0 1 4.71-1c1.57-1.77 3.25-3.44 4.69-5.31 3.1-4 6.77-5.06 11.29-2.56l21.57-15.68c-1.54-2.35-1.9-4.64.41-6.76-.82-1.81-2.56-1.89-4.16-2.12-6.2-.92-12.41-1.81-18.66-2.29-6.39-1-12.73-2.73-19.29-1.42-1.93 1-2.22 3.06-3 4.78-2.05 4.25-5.36 6.81-10.09 7s-8.21-2.18-10.59-6.22c-1-1.78-1.67-3.88-3.82-4.8-3.89-1.32-7.75.06-11.57.32-8.79.59-17.6 1.26-26.33 2.53a6.85 6.85 0 0 0-4.45 2.01z" fill="#2e3192"/><path d="M221 205.44c-2-1.33-2.32-3.74-3.48-5.61-4.79-7.74-11.83-9.81-19.7-5.45l-52.21 29.07a14.73 14.73 0 0 1-2.07.79 55.2 55.2 0 0 0-.91 28.69c1.77 8.76 8.83 12.84 15.86 15.7a44.52 44.52 0 0 0 29.8 1.63c4-1.18 5.44 0 5.75 4.25l2.66 37.43a4.43 4.43 0 0 0 2 3.73c4.87 3 10.1 1.87 15.28 1.33 3.07-.64 2.79-3.55 3.81-5.6 1-8.36 1.91-16.74 3.34-25.06.52-9.27 2.27-18.4 3-27.65 2-15.79 2.27-31.56-.42-47.31-.4-2.23-.71-4.45-2.71-5.94z" fill="#4f5150"/><path d="M221 205.44c2.54 13 3.06 26.21 2.72 39.45-.12 4.76-1.49 9.41-.95 14.2 3.15 1.18 5.78-.56 8.43-1.69 2.45-1 4.78-2.38 7.24-3.43 6.57-3.76 13.91-6 20.33-10.08.92-.58 1.59-.69 2.06-.46.86.43.86 2 .87 2.44.05 2.78 1.81 32.66 4.28 74.13l3.52.14c1.79-2.62 4.35-3 7.29-2.75a25.12 25.12 0 0 0 8.72-.51c5.52-41.4 8.22-72.34 9.28-86.46 0 0 1.23-15.27-5.71-28.76-4.24-8.25-9.87-10.72-18.75-8.62s-17.47 5.05-26.52 6.2c-7.39 2.87-15.26 3.95-22.81 6.2z" fill="#3f3f3f"/><path d="M225.42 37.56A7.34 7.34 0 0 0 220 34a7.46 7.46 0 0 0-6.3 2.69m-9.65.87a7.4 7.4 0 0 0-6.42-.92 7.49 7.49 0 0 0-4.52 5.15" fill="none" stroke="#000" stroke-linecap="round" stroke-linejoin="round" stroke-width=".9"/><path d="M267.4,84.51,265,81c-.42-.15-.94-.37-1.3-.18a104.87,104.87,0,0,0-20.08,14.56c-.29.26-.22.84-.19,1.29a8.37,8.37,0,0,0,4.06,2.59Z" fill="#bc5e01"/><path d="M247.83 87.17l1.31-1.53c2.35-2 5.45-3.7 8.47-3s5 3.7 5.51 6.74a5.12 5.12 0 0 1-.1 2.46c-.52 1.52-2 2.42-3.46 3.18l-3.63 2a7.41 7.41 0 0 1-2.1.87 6.07 6.07 0 0 1-3.73-.63c-2.94-1.41-5.52-5-4.65-7.25.07-.16.84-1.01 2.38-2.84z" fill="#fff"/></svg>