<svg xmlns="http://www.w3.org/2000/svg" viewBox="0 0 503.6 348.89" xmlns:v="https://vecta.io/nano"><style><![CDATA[.d{fill:#ffbca4}.e{fill:#1a1a1a}.f{stroke-linecap:round}.g{stroke-linejoin:round}]]></style><path d="M165.49 108.74h27V97.95c-.19-13.57-.94-17.84.9-24.28a37.15 37.15 0 0 1 4.49-9.9l-32.38 8.1c-2 6.42-1.67 8.41-.9 9a2.64 2.64 0 0 1 .9.9 3.43 3.43 0 0 1 0 2.7c-.5 1.41-.66 7.64-.01 24.27z" class="d"/><path d="M127.46 94c-8.24-2.26-20.42 18.87-22.21 22a394 394 0 0 0-9 46.25q-1.14 8.5-1.87 16.62h26.09l12.92-76.16c-.99-3.61-2.72-7.8-5.93-8.71z" class="e"/><path d="M125.69 93.41a23.08 23.08 0 0 0-10.59 22.39c1.75 15.43 13.22 100.2 13.22 100.2l99.93 17.86 7.32-134.06-1.9-4a355.26 355.26 0 0 0-42.5-5.25c-23.95-1.55-50.35-.79-65.48 2.86z" fill="#fcee21"/><path d="M471.11,317.54c11.32,1,21.86,7,27.32,15.49,1.46,2.26,2.55,5.09,1.07,7.34s-4.66,2.9-7.56,3.22c-22.12,2.45-43.42-6.7-65.12-11.1-17.44-3.55-35.52-4-53.45-4.11A1238.09,1238.09,0,0,0,171.75,344c-16.43,2.64-33,5.63-49.7,4.75-13.74-.72-27.07-4-40.27-7.34-8.49-2.11-18.44-5.57-19.87-13-1.09-5.67,3.88-11.17,10-13.66S85,312.1,91.78,311.91c102.62-2.8,204.53-18.1,307.19-17.7,19.82.08,39.81.77,59,4.89,10.6,2.27,21.64,6.08,27.4,14" class="e"/><path d="M497.5 318.35c-10.63 12.72-33 11.14-51.16 8.84-125.38-15.86-252.88 0-379.57 3.73-11.65.34-24.12.39-33.9-5-14.24-7.84-17.61-24-19.68-38.25-2.77-19.08-3.7-42.05 14.58-53.41 5.59-3.47 12.37-5.32 19.16-6.53 31.46-5.62 63.87 1.38 95.34 7 60.4 10.79 121.89 16.55 183.43 20 30.31 1.7 60.65 2.84 91 3.75 18.05.54 50.45-4.91 67.22 1.24 20.08 7.38 25.15 44.76 13.58 58.63z" fill="#99583b"/><path d="M52.47 312.23c-2.77 8.21-7.52 16.48-14.56 18.09a15.45 15.45 0 0 1-8.91-1.06c-13.2-5.13-22.47-20.5-26.74-36.85C.09 284.2-1 275.18 1.2 267c2.62-9.83 9.42-16.86 15.91-23.34 5.13-5.11 12.86-14.07 20-11.93 7.59 2.26 12.38 14.73 15.09 22.79 6.14 18.19 6.41 39.48.27 57.71z" fill="#dfb173"/><path d="M19.76 275.72a29.43 29.43 0 0 0 .79 15.28 4.41 4.41 0 0 1 .26 2.26c-.55 2.1-3.46 1.47-5 .09-5.42-4.84-7.54-13.29-6.39-20.88s5.18-14.37 10.16-19.77a15.12 15.12 0 0 1 6-4.45c4.13-1.32 8.57.89 11.77 4.05 5.93 5.86 8.8 14.75 9.42 23.49s-.78 17.51-2.17 26.15c-.21 1.32-.65 2.91-1.84 3.18s-2-.81-2.65-1.82a20.15 20.15 0 0 1-2.73-12.08c.19-2.12.71-4.26.36-6.36-.55-3.36-3.13-5.14-4.35-8-1-2.34-.87-8.45-2.25-9.93-4.8-5.25-10.3 4.45-11.38 8.79zm9.43 21.13c.18-.71.66-1.58 1.28-1.34.32.12.49.49.64.82 3.14 7.23 6.36 14.84 6.09 22.88a1.93 1.93 0 0 1-.34 1.25 1.29 1.29 0 0 1-.77.38c-1.74.33-3.44-.67-4.93-1.71A56.33 56.33 0 0 1 15.92 303c-.27-.44-.55-1-.26-1.47a1.09 1.09 0 0 1 .52-.37 7 7 0 0 1 5.08-.1c1.35.49 5.84 4.79 7 4.05s.51-6.54.93-8.26z" fill="#c2905a"/><path d="M492.07 291.56c-6.2-.71-11.64-3.77-17.51-5.62s-13.33-2.18-17.58 1.72c8.75 5.57 14.91 14 16.88 23.12a36.55 36.55 0 0 1-19.75-2.12c-4.11-1.68-7.75-4.12-11.9-5.72-9.87-3.81-21.26-2.5-32.09-2A191.84 191.84 0 0 1 334.37 289a53.19 53.19 0 0 1 29.69-5.28c7.91.88 15.44 3.49 23.34 4.47s16.88-.07 22.11-5.18a72 72 0 0 1-26.82-9.45c22.44-4.52 45-1.8 67.44 1.06 8.07 1 16.59.38 24.49 2.17 4.54 1 8.94 2.6 12.27 5.5.75.71 6.31 9.4 5.18 9.27zm-289.67 2.96c-2.47.78-5.14.36-7.7-.06l-34.4-5.67c-8.6-1.41-18.77-2.32-24.68 4.13l34.12 7.21-17.6 3.06c-2.89.5-6.69 2.7-5.29 5.3l24.66 7.93-89.89-1.16c-4.58-.06-9.36-.17-13.37-2.41-1.25-.7-2.51-1.82-2.45-3.26a4.24 4.24 0 0 1 1.91-2.88c9.93-8 24.4-7.36 35.26-14a4.33 4.33 0 0 0 2-2.08c.47-1.38-.43-2.85-1.48-3.86-5.93-5.68-16-3.62-22.91-7.95a6.74 6.74 0 0 1-3.12-3.62c-.73-2.55 1-5.28 3.4-6.48s5.08-1.24 7.7-1.18c24.56.53 48.5 6.67 72.79 9.58 10.46 1.26 22.24-.43 32.4 1.82 5.56 1.21 20.58 11.86 8.65 15.58z" fill="#794626"/><path d="M142.16 40.39C134.94 56 149.05 79.79 169 81.76c16.21 1.61 34.26-11.36 34.26-27.88 0-15-14.93-26-28.7-27.88-12.13-1.66-27.23 3.22-32.4 14.39z" class="d"/><path d="M170.28 35.68c-6.33-1.67-12.78-.44-19.17-.76-1.86 1.25-3.85 1.94-5.81.42s-1.45-3.78-1-5.82c2.35-10.79 9.39-16.92 19.75-19.7h4.24c11.09 1.09 16.59 8.4 19.83 18 .9 2.66 1.47 5.59-1.18 7.87-3.9 1.55-7.89 1.1-11.89.53-1.58-.22-3.05-1.22-4.77-.54z" fill="#e6e6e6"/><path d="M187.3 34.84a25 25 0 0 0-16.59-24c-.82-.3-1.61-.72-2.41-1.08 5.74.19 11.55-1 17.21.86 11.64 3.89 17.17 12.31 18 24.22a3.18 3.18 0 0 1-1.31 1.1c-5.05.76-10.15 2.12-14.9-1.1z" fill="#ef002f"/><path d="M187.3 34.84l15.28.09c4.24 6 4.14 12.7 2.75 19.56a7 7 0 0 1-2.63 4c-1.39 3.59-2.44 7.38-5.56 10a26 26 0 0 1-2.14-1.56c-3.94-3.25-3.85-3.9.81-6.11a10.1 10.1 0 0 0 5.76-10.59c-.88-4.71-4.73-8.89-9.15-8.09-7.33 1.33-12.82-2.43-18.84-5l-3.25-1.44c5.55-1.77 11.32-.19 16.97-.86z" fill="#f7931e"/><path d="M202.7 58.45c2.74-7.86 1.73-15.69-.12-23.52l.92-.07 12.64 17.89c2.07 3 .67 5.46-3.13 5.6-3.43.14-6.87.07-10.31.1z" fill="#c50037"/><path d="M146.37 47.13a7.34 7.34 0 0 1 5.39-3.6 7.46 7.46 0 0 1 6.3 2.7m9.68.9a7.33 7.33 0 0 1 6.42-.92 7.47 7.47 0 0 1 4.52 5.15" fill="none" stroke="#000" stroke-width=".9" class="f g"/><path d="M65.58 136.63l54.26 27.3s4.34 17.78-2.92 22.67-17.16-1.4-34.25-14.9l-23.38-18z" class="e"/><path d="M35.21 112.2l1.85 2.93 13.63 17.71a11 11 0 0 0 4.82-.66l-14.32-19.52-2.57-2.93q-3.06-.63-3.41 2.47z" fill="#c15b00"/><path d="M14.26 84.27c-3.52 2-3.63 4.32-.83 7.14a17.75 17.75 0 0 1 3.15 4.26c2 3.9 4.45 4.56 7.67 1.4 2 .28 3-.68 3.4-2.56 3.55-2 3.88-4.26 1-7.18a21 21 0 0 1-3.45-4.69c-1.84-3.32-3.95-4.16-6.86-1.28-2.11-.02-3.56.8-4.08 2.91z" fill="#dfdede"/><path d="M35.21 112.2l3.41-2.47c4-2.27 3.77-4.85.74-7.86a17.59 17.59 0 0 1-3.17-4.3c-1.88-3.64-4.13-3.7-6.9-1.09a3.73 3.73 0 0 0-4.1 3c-3.54 1.88-3.4 4.12-.8 6.81a18.8 18.8 0 0 1 3.41 4.61c1.95 4.1 4.41 3.9 7.41 1.3z" fill="#dfdfde"/><path d="M14.26 84.27l4-2.91a1.54 1.54 0 0 0-.36-.27c-1.9-.61-1.9-5.53-5.2-2.73-2.91 2.48 1.39 3.82 1.56 5.91z" fill="#b65e04"/><path d="M25.19,99.47l4.1-3-1.64-2-3.4,2.56Z" fill="#af620f"/><path d="M45.21 130.63c-6 3.75-6.06 10-6.58 16a3.73 3.73 0 0 0 1.94 3.7c5.92 1.61 12.1 1.45 18.08 2.62 3.55-5.15 6.27-10.64 7-17l-4.7-5.3c-3.24-3.6-6.9-5-11.39-2.22-1.8.05-3.56.06-4.35 2.2z" fill="#dfa47b"/><path d="M233.67 95.74s15.39 3.11 15.39 19.3-27.74 115.28-27.74 115.28l-24.95-6.45s32.69-120.44 37.3-128.13z" class="e"/><path d="M174.27 347a3 3 0 0 1-3 1.6H148c-.65 0-1.31-.57-2-.87-1.65-2.34-1.39-4.95-1-7.57.84-3.21 2.53-5.72 5.75-7a18.24 18.24 0 0 1 7.8-1.22c4.94 0 10-1.62 14.66 1.39 1.79 4.47.26 9.16 1.06 13.67z" fill="#012638"/><path d="M173.27 333.34a92.94 92.94 0 0 1-15.2.12c-2.28-2.67-2.39-5.33 0-8l15-.24q.14 4.07.2 8.12z" class="d"/><path d="M102.22 333.45c1.44 4.23.49 8.59.64 12.9.08 2.12-1.55 2.25-3.12 2.25-7.19 0-14.37-.06-21.55 0-2.41 0-3-1.06-3-3.26-.31-7.66 3-11.18 11.71-12a15.4 15.4 0 0 1 15.32.11z" fill="#022638"/><path d="M102.22 333.45a109.5 109.5 0 0 1-15.37-.05l-.07-3.6.3-4.33c3.29-.12 6.65.13 9.85-.47 4.2-.79 5.66.76 5.35 4.71z" class="d"/><path d="M150.79 215c2-1.33 2.32-3.73 3.48-5.6 4.79-7.74 11.83-9.82 19.69-5.46q26.14 14.49 52.21 29.06a15.67 15.67 0 0 0 2.08.79 55.16 55.16 0 0 1 .9 28.68c-1.76 8.76-8.83 12.85-15.85 15.71a44.58 44.58 0 0 1-29.8 1.63c-4-1.18-5.44 0-5.75 4.25l-2.66 37.42a4.45 4.45 0 0 1-2 3.74c-4.87 3-10.1 1.87-15.28 1.33-3.07-.65-2.8-3.56-3.81-5.6-1-8.36-1.91-16.75-3.34-25.06-.52-9.27-2.28-18.4-3-27.65-2-15.79-2.27-31.56.42-47.31.4-2.22.72-4.44 2.71-5.93z" fill="#4f5150"/><path d="M150.79 215c-2.54 13-3.06 26.22-2.72 39.46.12 4.75 1.49 9.41.94 14.2-3.15 1.18-5.77-.56-8.42-1.69-2.46-1-4.78-2.39-7.24-3.43-6.58-3.77-13.91-6-20.34-10.08-.91-.59-1.58-.7-2.05-.46-.86.43-.86 2-.87 2.44 0 2.78-1.81 32.65-4.28 74.13l-3.53.14c-1.78-2.63-4.34-3-7.28-2.75a25.13 25.13 0 0 1-8.72-.52C80.75 285.05 78.05 254.11 77 240c0 0-1.22-15.27 5.72-28.76 4.24-8.25 9.86-10.73 18.74-8.62s17.48 5 26.53 6.2c7.38 2.86 15.25 3.94 22.8 6.18z" fill="#3f3f3f"/><g class="d"><path d="M401.92 102.66l26.93 1.7.68-10.77c.67-13.56.19-17.86 2.43-24.18a37.22 37.22 0 0 1 5.11-9.59l-32.83 6c-2.44 6.28-2.2 8.29-1.46 8.92a2.63 2.63 0 0 1 .84 1 3.42 3.42 0 0 1-.17 2.7c-.57 1.37-1.14 7.56-1.53 24.22z"/><path d="M382.94 33c-8.19 15.13 4.39 39.75 24.19 43 16.08 2.62 34.91-9.18 35.95-25.67.94-15-13.26-26.89-26.89-29.64-12.01-2.46-27.39 1.46-33.25 12.31z"/></g><path d="M386.71 40a7.36 7.36 0 0 1 5.62-3.25 7.46 7.46 0 0 1 6.11 3.08m9.61 1.48a7.32 7.32 0 0 1 6.46-.51 7.43 7.43 0 0 1 4.18 5.43" fill="none" stroke="#000" stroke-width=".9" class="f g"/><path d="M362.51,91.3s-18.6,8.58-22.21,22-18.05,92.51-18.05,92.51l24.86,9.09S364.18,102.1,368.42,100" fill="#008837"/><path d="M354.63,103,357,99.55c.43-.15.95-.37,1.3-.18a104.87,104.87,0,0,1,20.08,14.56c.3.26.23.84.19,1.29a8.3,8.3,0,0,1-4.05,2.59Z" fill="#bc5e01"/><path d="M363.16 84.85a23.07 23.07 0 0 0-12 21.67c.76 15.52 6.87 100.79 6.87 100.79l98.61 24.12L472.43 98.1l-1.65-4.1a355.84 355.84 0 0 0-42.08-7.92c-23.81-3.08-50.21-3.92-65.54-1.23z" fill="#22b573"/><path d="M482.12 106c1.2 5.87 1.39 11.85 1.68 17.81h0c-1 4.45.12 9-.65 13.45-.87 13.09-1.47 26.25-6.43 38.64-2.08 5.18-4.94 9.7-11.65 9.17-21.38-10.7-41.78-23.18-62.77-34.61l-11.81-6.41c-1.86-1.05-3.76-2.28-2-4.89-.4-6.48 2.66-11.69 6.15-16.75 3-1.45 5.53.27 8 1.46l45.86 21.51c8.59 4.1 8.45 4 10.14-5.06 2.66-14.24 4.33-28.65 7.43-42.81.35-1.62.62-3.24 2-4.41 6.09-.61 14.15 6.79 14.05 12.9z" fill="#008837"/><path d="M395.66 341a3 3 0 0 1-3 1.41l-23.22-1.51c-.66-.05-1.27-.64-1.91-1-1.49-2.44-1.07-5-.54-7.62 1-3.15 2.88-5.55 6.18-6.58a18.15 18.15 0 0 1 7.83-.7c4.93.29 10.11-1 14.55 2.31 1.45 4.55-.4 9.13.11 13.69z" fill="#012638"/><path d="M395.53 327.3a91.9 91.9 0 0 1-15.19-.84c-2.1-2.8-2-5.46.53-8l15 .71-.34 8.13z" class="d"/><path d="M324.61 322.93c1.18 4.32-.06 8.61-.17 12.92-.06 2.12-1.69 2.14-3.26 2l-21.51-1.32c-2.41-.13-2.89-1.24-2.84-3.45.18-7.66 3.75-11 12.45-11.21a15.41 15.41 0 0 1 15.33 1.06z" fill="#022638"/><path d="M324.61 322.93a109.15 109.15 0 0 1-15.33-1l.15-3.6.58-4.3c3.29.08 6.62.54 9.85.15 4.25-.53 5.61 1.11 5.05 5z" class="d"/><path d="M380.55 207.79c2.09-1.21 2.55-3.59 3.82-5.38 5.27-7.42 12.43-9 20-4.21q25.17 16.11 50.28 32.31a13.71 13.71 0 0 0 2 .92 55.2 55.2 0 0 1-.91 28.69c-2.31 8.63-9.62 12.26-16.81 14.67a44.51 44.51 0 0 1-29.84-.25c-4-1.43-5.43-.37-6 3.88l-5 37.18a4.44 4.44 0 0 1-2.19 3.61c-5 2.68-10.2 1.23-15.34.36-3-.84-2.56-3.72-3.45-5.83-.49-8.41-.85-16.83-1.75-25.22.06-9.28-1.11-18.51-1.27-27.78-1-15.88-.28-31.64 3.39-47.19.52-2.21.99-4.4 3.07-5.76z" fill="#2e3192"/><path d="M380.55 207.79c-3.36 12.85-4.7 26-5.2 39.2-.18 4.75.89 9.49 0 14.23-3.22 1-5.73-.92-8.31-2.22-2.38-1.19-4.62-2.68-7-3.88-6.32-4.17-13.5-6.85-19.66-11.34-.87-.64-1.54-.79-2-.59-.89.38-1 2-1 2.38-.22 2.78-3.86 32.48-8.95 73.72l-3.52-.09c-1.62-2.73-4.15-3.24-7.1-3.2a25 25 0 0 1-8.67-1.06c-2.9-41.66-3.65-72.71-3.82-86.87 0 0-.26-15.32 7.52-28.34 4.75-8 10.52-10.09 19.25-7.42s17.12 6.13 26.08 7.85c7.19 3.33 14.98 4.91 22.38 7.63z" fill="#0071bc"/><path d="M355.5 102.86l2.74 2.1 18.93 11.9a11 11 0 0 0 4.29-2.3q-10.09-6.68-20.2-13.34l-3.43-1.86c-2.06.31-2.83 1.48-2.33 3.5z" fill="#c15b00"/><path d="M394.54 123.09c-1.07 5.73-4.17 10.7-6 16.13a93.41 93.41 0 0 1-16.34-1.89c-1.87-.35-3.74-1.11-3.6-3.24.41-6-.27-12.39 5.91-16.28.7-2.09 2.63-2.88 4.24-4a11.72 11.72 0 0 1 15.79 9.28z" class="d"/><path d="M338.44 90.42l1.82-2.63c.33-.11.74-.28 1-.13a81.1 81.1 0 0 1 15.55 11c.23.19.17.63.15 1a6.5 6.5 0 0 1-3.14 2z" fill="#bc5e01"/><path d="M358 94l-1.32-1.52c-2.34-2-5.44-3.71-8.46-3s-5 3.7-5.51 6.73a5 5 0 0 0 .09 2.46c.52 1.52 2.05 2.42 3.47 3.19l3.62 2a7.47 7.47 0 0 0 2.11.87 6 6 0 0 0 3.72-.64c2.95-1.4 5.53-5 4.65-7.24A36 36 0 0 0 358 94z" fill="#fff"/><path d="M429.44,2.9c4,5.29,8.48,10,14.28,13.34,3.51,2,5.28,5.35,6.21,9,1.58,6.23,2.67,12.53,1.59,19.05a13.25,13.25,0,0,0,2.31,10.62A35.16,35.16,0,0,1,468,96.57L429.85,86.26c-.29-15.3,1.38-20.43,3.07-22.13.38-.38,1.95-2,1.89-3.73a4.23,4.23,0,0,0-1.37-2.73c-1.69-1.81-.9-3.78.88-5.49,5.41-5.22,6.36-8.31,4-12.2-2.22-3.64-5.81-4.43-12.36-2.51-3.59,1.05-6.8-.12-10-1.37a22.83,22.83,0,0,1-6.77-4.36c-4.57-4-9.82-4.77-15.55-3.42a16.85,16.85,0,0,1-3.46.54c-1.25.12-1.87.17-2.27.25a7.38,7.38,0,0,0-3,1.39,8,8,0,0,0-2,2.63c-.78,1.62-2.56,10.26,2.21,20.78a34.63,34.63,0,0,0,16.26,16.47c6,3,7.54,9.07,3.86,14.85l-20,1.89a18,18,0,0,0,3.3-10.56c-.14-3.64-1.74-6-4.87-11.24-5.22-8.81-7.83-13.22-8.25-14.75-2.41-8.81-.07-18.19,3.35-23A39.19,39.19,0,0,0,382.53,20c3.84-9.09,10-15.51,20.21-17.11,4.91-1.1,9.69-2.72,14.81-2.87A20.1,20.1,0,0,1,429.44,2.9Z" fill="#f15a24"/></svg>