<svg xmlns="http://www.w3.org/2000/svg" viewBox="0 0 246.27 297.41"><defs><style>.cls-1{fill:#f15a24;}.cls-2{fill:#f7931e;}.cls-3{fill:#dfa47b;}.cls-4{fill:#713c00;}.cls-5{fill:#5c3004;}.cls-6{fill:#492404;}.cls-7{fill:#012539;}.cls-8{fill:#012538;}.cls-9{fill:#c15b00;}.cls-10{fill:#dfdede;}.cls-11{fill:#dfdfde;}.cls-12{fill:#b65e04;}.cls-13{fill:#af620f;}.cls-14{fill:#001912;}.cls-15{fill:none;stroke:#000;stroke-linecap:round;stroke-linejoin:round;stroke-width:0.9px;}</style></defs><g id="Layer_2" data-name="Layer 2"><g id="Layer_1-2" data-name="Layer 1"><path class="cls-1" d="M85.69,91.2c-1.06,23.29-2.9,48-5.78,73.93-2.93,26.4-6.63,51.32-10.79,74.65l18,9c4.29-15.67,8.27-32.48,11.69-50.37a658.28,658.28,0,0,0,10.79-89Z"/><polygon class="cls-2" points="87.93 90.92 100.25 124.86 122.19 120.04 87.93 90.92"/><path class="cls-3" d="M115,27.52c-7.22,15.61,6.88,39.39,26.85,41.37,16.2,1.61,34.26-11.36,34.25-27.88,0-15-14.92-26-28.7-27.88C135.31,11.47,120.2,16.35,115,27.52Z"/><path class="cls-3" d="M138.37,95.87h27c0-2.31.06-6.1,0-10.79-.18-13.57-.93-17.84.9-24.28a36.92,36.92,0,0,1,4.5-9.9L138.37,59c-2.05,6.42-1.68,8.41-.9,9a2.73,2.73,0,0,1,.9.9,3.43,3.43,0,0,1,0,2.7C137.88,73,137.71,79.24,138.37,95.87Z"/><path class="cls-2" d="M206.67,222.68q-.76-20.94-1.54-41.9c-.1-2.52-.24-5.05-.36-7.57a1.84,1.84,0,0,0-2.06-1.38c-6.07.53-11-2.54-15.89-5.28-10.69-6-21.37-11.93-32.27-17.48-10.5-5.35-20.63-11.38-31.17-16.63a28.37,28.37,0,0,1-7.63-6c-5.83-1.64-11.69-2.9-17.79-1.76a2,2,0,0,0,.06,2.2c1.27,13.39,2.5,26.78,3.82,40.17q3.31,33.69,6.72,67.39c1.71,2.25,4.23,1.93,6.57,1.91,17-.16,34,.52,51-.46a11,11,0,0,0,6.12-1,206.69,206.69,0,0,1,29.91-9.61C203.84,224.79,205.7,224.49,206.67,222.68Z"/><path class="cls-4" d="M111.53,286.62c.89,2.72,3.1,2,4.82,1.53a22.06,22.06,0,0,1,13.07.05c2.27.7,4.47.66,5.29-2.28,4.72-.18,9.13-2,13.8-2.51,5.22-1.27,10.67-1.64,15.61-4,1.71-2.22,4.35-1.6,6.6-2.15,17.32-4.27,34.76-8.13,51.15-15.49a4.39,4.39,0,0,1,1.32-.17c5.7-3.21,11.7-5.88,16.8-10.15,10.26-8.57,6.83-17.78-2.21-24.39-8.23-6-17.93-5.72-27.56-4.8-1.19.11-2.36.28-3.54.42A180.92,180.92,0,0,0,172,233.14c-1.52.61-3.12,1-4.68,1.48-10.14,2.4-18.71,8.45-28.3,12.16-6.12,2.36-11.8,5.74-17.86,8.28-4.77,2.14-9.34,4.7-14.13,6.8-2.17.95-3.86,2.31-3.7,5,1.5,5.39,3.45,10.64,5.44,15.88C109.33,284.28,110,285.79,111.53,286.62Z"/><path class="cls-5" d="M104.41,266.87c-.19-2.32,1.43-2.91,3.18-3.67,4.8-2.06,9.62-4.09,13.91-7.15.56-1.66-.55-2.69-1.71-3.17-7.88-3.23-15-8.24-23.43-10.2-7.85-2.09-14.71-6.51-22.19-9.48-15.75-6.28-31.66-11.86-49-11.27-7.17.24-13.93,1.92-19.33,7.07-8.2,7.84-7.78,16.18,1.08,23.19,5.45,4.31,11.7,7.18,18,9.95,2.46,1.09,5,2,7.48,3,14,5,28.37,8.63,42.84,11.9a23.26,23.26,0,0,0,5.74.61,1.39,1.39,0,0,0,.57-.66c.65-2.56.16-5.58,4.14-6.3,2.91-.52,5.51-.84,8,.92a1.58,1.58,0,0,0,.88.1C97.83,270,102.26,270.72,104.41,266.87Z"/><path class="cls-1" d="M116.15,127.48c.26,2.4,1.49,3.63,3.76,4.89,8.59,4.76,17.32,9.28,25.92,14,6.46,3.57,13.06,7,19.75,10.27,9,4.34,17.37,9.73,26.27,14.24,4.28,2.16,8.43,2.53,12.92,2.29,9.79-12.37,10.56-27.36,11.79-42.06a232.1,232.1,0,0,0,.63-29.15c-.45-11-6.42-17.18-15.57-21.44-3.42,3.27-3.64,7.85-4.1,12-1.48,13.38-5.06,26.4-6.66,39.75-.55,4.59-1.66,5-5.92,3.1-18.81-8.39-37.67-16.69-56.45-25.17-1.74-.79-3.54-1.85-5.45-.33C120.48,115.64,117.45,121.22,116.15,127.48Z"/><path class="cls-2" d="M123.15,110.52c1.23-.76,2.15,0,3.28.46q27.65,12.38,55.35,24.65c1.49.66,2.89,1.5,4.37,2.17,3.88,1.76,5.72,1.12,6.11-3.15,1.26-14,5.51-27.44,6.69-41.43.36-4.27,1.75-8.44,2.66-12.66-4.54-1.16-9.14-.37-13.71-.33-7.44.06-14.89.16-22.33.24-1.67,1.15-1.6,3.1-2.16,4.75-1.89,5.53-6.37,8.91-11.65,8.73-4.86-.16-9.06-3.93-10.49-9.42-.44-1.7-.51-3.59-2.25-4.68a22.63,22.63,0,0,0-12.76-.23,11,11,0,0,1-5.67.1c-7,.21-14,.34-21,.08-6.18-.22-10.21,2.44-12.64,7.93a2.85,2.85,0,0,0,1,3.19c6.15,4.55,11.75,9.91,18.94,12.92,5.34-1.56,9.43.25,12.69,4.57C120.42,109.54,121.36,110.84,123.15,110.52Z"/><path class="cls-6" d="M96.36,242.68c6,4,12.65,6.81,19.21,9.75,2.14,1,4.56,1.43,5.93,3.62,5.8-1.09,10.49-4.7,15.79-7,10.22-4.36,20.4-8.84,30-14.48l-58.74-.23Z"/><path class="cls-3" d="M102.71,105.17c-6,3.74-6,10-6.58,16a3.76,3.76,0,0,0,2,3.71c5.91,1.61,12.09,1.44,18.07,2.62,3.55-5.15,6.27-10.65,7-17-1.56-1.77-3.12-3.55-4.7-5.31-3.23-3.6-6.9-5-11.39-2.21C105.26,103,103.46,103,102.71,105.17Z"/><path class="cls-7" d="M94.23,271.12c-2.34-3-11.64-3-13.67.09-1.39,2.13.76,4.27.44,6.47,2.73,5.15,3.77,10.88,5.57,16.34,1,3.11,2.35,4.13,5.44,2.67,3.37-1.59,8.5-1,8.21-6.92C100.68,282.77,99.08,276.42,94.23,271.12Z"/><path class="cls-3" d="M94.23,271.12q3,9.31,6,18.65c4.1.1,7.59-1.94,11.32-3.16-2.2-6.64-4.19-13.36-7.12-19.74C101.09,268.46,97.05,268.32,94.23,271.12Z"/><path class="cls-8" d="M164.12,279.41c-5.56-.86-10.59,1.49-15.83,2.6-2.42,2.42-4.15,5-1.63,8.35,1.39,4.55,5.28,5.75,9.22,6.89,2.21.64,2.84-.68,3.38-2.46C160.82,289.64,162.49,284.53,164.12,279.41Z"/><path class="cls-3" d="M146.66,290.36c-.4-3,1.2-5.54,1.63-8.35-4.61,1-9.78.07-13.58,3.9C138.15,288.85,142.59,289.11,146.66,290.36Z"/><path class="cls-9" d="M81.47,90.52l2.68,2.18,18.56,12.46a11,11,0,0,0,4.36-2.16l-19.79-14-3.37-2Q80.81,87.47,81.47,90.52Z"/><path class="cls-10" d="M52.72,70.7c-2.7,3-2.07,5.25,1.49,7a17.74,17.74,0,0,1,4.33,3c3.16,3,5.67,2.9,7.72-1.12,2-.36,2.67-1.62,2.41-3.51,2.73-3,2.32-5.27-1.39-7.11a20.89,20.89,0,0,1-4.75-3.34c-2.8-2.57-5.08-2.7-6.92,1C53.66,67.3,52.54,68.54,52.72,70.7Z"/><path class="cls-11" d="M81.47,90.52c.81-1.15,1.63-2.29,2.44-3.43,3-3.42,2-5.8-1.8-7.69a17.28,17.28,0,0,1-4.37-3.06c-2.94-2.86-5.1-2.19-6.89,1.16a3.72,3.72,0,0,0-2.93,4.13c-2.76,2.92-1.91,5,1.4,6.72A18.33,18.33,0,0,1,74,91.63C77.17,94.87,79.45,93.94,81.47,90.52Z"/><path class="cls-12" d="M52.72,70.7l2.9-4a1.54,1.54,0,0,0-.43-.14c-2,0-3.61-4.62-5.83-.92C47.39,68.88,51.89,68.77,52.72,70.7Z"/><path class="cls-13" d="M67.92,81.63q1.45-2.07,2.93-4.13l-2.18-1.35-2.41,3.51Z"/><path class="cls-14" d="M110.56,30.51a195.09,195.09,0,0,1,51.17.47,7.82,7.82,0,0,1,3.78-4.34c.29,1.53.59,3.07.88,4.6a2.69,2.69,0,0,0,.35,1c.93,1.35,3.33.41,5,1s2,2.48,2.2,4.06a20,20,0,0,1-.11,7.12,7.62,7.62,0,0,1-4.68,5.41l6.43,4.75a23,23,0,0,0,6.37-12,28.41,28.41,0,0,0-.7-13.57c-1.12-4.11-4.34-16-15.63-23.09C151.47-2.93,128-2.2,116.9,10.43,110.32,17.9,110.34,26.94,110.56,30.51Z"/><path class="cls-15" d="M120.91,38.75a7,7,0,0,1,11.69-.9"/><path class="cls-15" d="M142.28,38.75a7.34,7.34,0,0,1,6.42-.92A7.43,7.43,0,0,1,153.22,43"/></g></g></svg>