<svg xmlns="http://www.w3.org/2000/svg" viewBox="0 0 221.82 277.87" xmlns:v="https://vecta.io/nano"><g fill="#c47c52"><path d="M65.62,31c-7.22,15.62,6.89,39.4,26.85,41.38,16.21,1.6,34.26-11.36,34.26-27.88,0-15-14.93-26-28.7-27.89C85.89,15,70.79,19.88,65.62,31Z"/><path d="M89 99.4h27V88.61c-.19-13.58-.94-17.84.9-24.29a37 37 0 0 1 4.49-9.89L89 62.52c-2 6.43-1.67 8.42-.9 9a2.46 2.46 0 0 1 .9.9 3.44 3.44 0 0 1 0 2.7c-.53 1.42-.7 7.65 0 24.28z"/></g><path d="M31.61 143.92a18.28 18.28 0 0 0-.91 5.32c.07 4.28 2.62 8.07 5.16 11.51C42 169 49.14 177.27 58.9 180.5c4.77 1.57 9.86 1.84 14.89 1.81 6.85 0 13.68-.59 20.51-1.15 19-1.55 38.5-3.24 55.66-11.55a13.72 13.72 0 0 0 5.29-3.85 14.54 14.54 0 0 0 2.07-5.77q2.81-13.71 4.72-27.58c1.1-7.94 2-16.13.05-23.92-1.45-5.84-5-11.69-10.65-13.61a21.25 21.25 0 0 0-5-.9c-18.21-1.61-36.4 2.42-54.24 6.43-11.35 2.54-22.81 5.13-33.26 10.23-13.7 6.67-23.07 18.69-27.33 33.28z" fill="#ef002f"/><path d="M84.09 218.74a4.88 4.88 0 0 0 2.59 4.62 60.74 60.74 0 0 0 11.39 6 64.22 64.22 0 0 0 12.74 4.64 63.87 63.87 0 0 0 8.94 1 11.89 11.89 0 0 0 4.76-.34 11 11 0 0 0 3.06-1.88 85.23 85.23 0 0 0 12.73-12.39 15.32 15.32 0 0 0 3-4.78.84.84 0 0 0 0-.58.88.88 0 0 0-.49-.37l-7.93-3.47A92.4 92.4 0 0 0 124.3 207a46.72 46.72 0 0 0-26.18 0 70.05 70.05 0 0 1-7.46 2.09c-1.77.3-5.08.22-5.9 2.19-.87 2.09-.76 5.21-.67 7.46z" fill="#333436"/><path d="M151.69 271.91c1.95 1.82 3.44 4.16 6 5.34 2.31 1.08 3.86.93 4.71-1.92 2.07-6.87 4.24-13.72 6.56-20.51 1-2.94-.2-3.84-2.8-4a18.26 18.26 0 0 0-9.22 1.87c-7.39 4.81-9.61 12.96-5.25 19.22z"/><path d="M106.71 263.37l27.57 5.86c2.26.51 3-.34 3.5-2.16 3.5-2.82 4.77-6.34 3.32-10.7-10.07 1.06-19.86 3.6-29.72 5.74-1.55.34-3.38.02-4.67 1.26z" fill="#2e3192"/><path d="M141.1 256.37q-1.66 5.34-3.32 10.7l13.91 4.83c-1.74-7.35 0-13.76 5.23-19.2-5.32 1.04-10.7 1.8-15.82 3.67z" fill="#c47c52"/><path d="M21.57 240.61a124.33 124.33 0 0 1-12.29-6.24 24 24 0 0 1-6-4.19c-4.84-5.14-4-13.9.41-19.38s11.58-8.12 18.57-9c8-1 16-.17 23.91 1.17a206.74 206.74 0 0 1 85.87 35.85 27.92 27.92 0 0 1-10 6.48c-8.94 3.73-18.71 4.79-28.15 6.94-6.46 1.48-12.86 3.48-19.47 3.91a30.57 30.57 0 0 1-10.43-1c-3-.87-5.59-2.68-8.56-3.65-7.06-2.31-14-4.72-21.15-6.69a107.58 107.58 0 0 1-12.71-4.2z" fill="#2e3192"/><path d="M140.4 212.53l3.33-1.76a134.1 134.1 0 0 1 20.93-7.77c13-3.62 26-6.88 39.57-3.82 2.93 1 5.94 1.81 8.55 3.61a23.8 23.8 0 0 1 4.83 3.76c.23.27 5.3 6.14 4 13.22-.56 3-2.18 5.66-6.38 9.6a68.65 68.65 0 0 1-19.92 12.84 175.66 175.66 0 0 1-29.22 9.79c-3 .48-6 1.25-9 2-5.44 1.13-10.75 2.84-16.28 3.57q-5 1.19-10 2.14c-8.12 1.56-16.25 3.07-24.27 5.06-4.13.58-8.13 1.73-12.21 2.54-2.77.55-5.62 1-8-1.21-3.51-7-5.67-14.44-7.49-22a4.91 4.91 0 0 1 .26-1.32 6.31 6.31 0 0 1 2.22-2.74c3.96-2.77 46.24-20.53 59.08-27.51z" fill="#1b1464"/><path d="M79.77 244.54a59.43 59.43 0 0 1-11.48 3.65c-.81 1.14-.31 2.27.1 3.35a105.31 105.31 0 0 1 4.51 14.29 3.11 3.11 0 0 0 1.66 2.45l12.2-3.22a154.5 154.5 0 0 0-6.99-20.52z" fill="#c47c52"/><path d="M74.56 268.28c-.28-7.26-2.8-13.82-6.27-20.09a17 17 0 0 0-8.61-.78c-2.39.49-4.6 1.3-4.31 4.45l6.54 20c1 3.3 2.53 3.79 5.57 2.64 3.22-1.21 5.97-2.72 7.08-6.22z"/><g fill="#ef002f"><path d="M151.66 125c.82-8.3 1.89-16.58 2.38-24.9A90.57 90.57 0 0 1 156 86c-1.54-2-4.29-2-6.11-3.52-9.14-6.82-20-8.66-30.81-10.37a5 5 0 0 0-3.79 1c-1.66 1.85-1.44 4.16-1.48 6.37a22.26 22.26 0 0 1-1.48 8.31c-2.1 5.08-6.72 7.4-12.85 6.43-4.53-.73-8-4.7-8.33-9.72-.18-2.39 0-4.78-.19-7.16-.18-1.91-.21-4-2.54-4.77C71.78 73.91 56.14 79 40.82 85.3a11 11 0 0 0-1.65 7.7l3.75 34.15c-.93 4.51 1.7 8.73 1.1 13.22a4.18 4.18 0 0 0 .22 1.49 6.77 6.77 0 0 0 4.88 4.21c5.81 1.38 11.38 3.64 17.27 4.71a37.52 37.52 0 0 0 8.86.38 6.91 6.91 0 0 1 7 3.73c1.43 2.62.84 5.11-.56 7.6-.86 1.54-3.24 2.51-2 4.92 2 1.69 4.5 1.42 6.87 1.42h47.56c7.07 0 7.08 0 7.55 6.85a23.33 23.33 0 0 1 .27 3.13 18.42 18.42 0 0 0-.2 6.58c-.3 5.9-.27 11.8-.23 17.7 0 2.06-.1 4.17 1.34 5.92 3.15.57 3-2.12 3.43-3.81 1.06-4.77.56-9.71 1.16-14.55 1.37-6.28.66-12.74 1.75-19 .25-2.22.62-4.47-1.25-6.26.1-2.76-1.09-3.86-4-3.78s-5.89.74-8.63-.85c-3.26-1.56-6.1.54-9.1 1.12-2.79.54-5.39.74-7.22-2-1.5-2.24-2.2-4.6-.92-7.19s3.47-3.47 6.18-3.8c3.17-.39 6.67 1 9.45-1.64 4.3-.93 8.56-2 12.9-2.72 3.33-.53 2.53-3.51 3.71-5.31 2.42-1.88 2.12-4.67 2.44-7.25s.81-4.91-1.09-6.97zm-97.29 82.68c1.74-4.32.43-8.82.76-13.23.2-2.83.1-5.68.14-8.52 1.91-2 1.81-4.44 1.43-6.92 0-1.48.29-2.95.29-4.44 0-5.74 0-5.74 6-5.77 3 0 6 .09 8.93-.07 1.9-.1 4 0 5.08-2.08-3.23-3.79-7.85-4.25-12.3-5.09-4.59.17-9.18 0-13.77.11-2.49.07-4.09.92-3 3.83l3.39 41.12z"/><path d="M52.33 203.37c-.69 2.24-1.44 3.3-.95 4.8.9 2.8 5 3.71 6.95 4.11l31.81 6.65c6 1.73 11.82 4.14 18 4.53 6.53.42 13-1.46 19.18-3.69a64.22 64.22 0 0 0 12.36-5c3.11-1.67 5.24-3.16 6.15-5.67.75-2.08.29-3.83 0-5.62-1.24-7.51 1.54-8.74 1.42-20.19-.07-6.64-1.09-9.2-1.41-10.14a13.46 13.46 0 0 0-6.11-7.78c-2.92-1.53-6.35-1.48-9.61-1.31-10 .52-19.88 1.81-29.85 1.8a79.62 79.62 0 0 0-11.14.32c-2.41.34-4.82 1-7.26.78a49.83 49.83 0 0 1-6.3-1.44c-7.24-1.52-14.66 1.48-20.28 6.15-2.43 2-4.93 4.37-4.55 7.92.31 2.92 1.55 5.27 1.57 8.38.02 4.41 1.77 9.76.02 15.4z"/></g><path d="M28.15 122.49c-3.45 11.83-6.92 23.75-8.13 36a10.68 10.68 0 0 0 0 3.34 10.83 10.83 0 0 0 2.47 4.32 281.21 281.21 0 0 0 47.35 46.4 75 75 0 0 1 10.06-7.46 531.11 531.11 0 0 1-30.88-45.81 23.81 23.81 0 0 1-2.06-4 24.71 24.71 0 0 1-1.15-5.67c-1.71-14.61-2.68-29.32-3.11-44.07-.08-2.77 1.29-19.1-.68-20.28C38.14 83 35.5 97.27 35 99.12zm140.7.12c3.45 11.83 6.92 23.75 8.13 36.05a10.62 10.62 0 0 1 0 3.33 10.92 10.92 0 0 1-2.46 4.32 280.9 280.9 0 0 1-47.36 46.4 73.76 73.76 0 0 0-10.06-7.46 528.66 528.66 0 0 0 30.88-45.8 24.73 24.73 0 0 0 2.07-4 24.48 24.48 0 0 0 1.14-5.67c1.75-14.64 2.72-29.38 3.15-44.13.08-2.77-1.29-19.1.68-20.27 3.88-2.31 6.52 12 7.06 13.86z" fill="#c50037"/><path d="M70.29 215.82a6.53 6.53 0 0 0 2.71 3.81 14 14 0 0 0 8.1 2.74 9.61 9.61 0 0 0 3.45-.52 9.44 9.44 0 0 0 5.45-6.54 5.32 5.32 0 0 0 .08-3.06 6.75 6.75 0 0 0-2.25-2.79 14.45 14.45 0 0 0-5.6-3.46c-4.43-1.12-12.87 4.86-11.94 9.82zm56.81 0a6.57 6.57 0 0 1-2.75 3.81 14 14 0 0 1-8.1 2.74 9.58 9.58 0 0 1-3.45-.52 9.44 9.44 0 0 1-5.43-6.54 5.41 5.41 0 0 1-.09-3.06 6.85 6.85 0 0 1 2.26-2.79c1.68-1.44 3.45-2.92 5.59-3.46 4.45-1.12 12.87 4.86 11.97 9.82z" fill="#c47c52"/><path d="M65.49 15.42c-.85 1.67-.11 3.86-1.11 5.45a12.12 12.12 0 0 1-2 1.95 5.49 5.49 0 0 0-.2 7.34c1.78 2 4.85 2.3 7.35 1.45A16.49 16.49 0 0 0 75.86 27a42.24 42.24 0 0 1 5.65-5.54A6.2 6.2 0 0 1 85 20.09c2.17 0 3.92 1.79 5.06 3.64s2 4 3.7 5.33c2.15 1.78 5.24 1.94 8.04 1.48a5.41 5.41 0 0 1 2.3-.06c2.18.6 2.63 3.71 4.63 4.77s4.57-.44 6.8.12c2.07.52 3.26 2.63 4.22 4.54a5.71 5.71 0 0 1 .72 2.14c.14 2.51-2.79 3.85-4.61 5.58a7.77 7.77 0 0 0-.24 10.7 7.36 7.36 0 0 0 10.54-.53c1.44-1.83 1.87-4.25 3.11-6.22.85-1.38 2.08-2.49 3-3.82a10.57 10.57 0 0 0-1.27-13.1c-1.18-1.15-2.75-2.22-2.88-3.87a11.62 11.62 0 0 1 .44-2.58c.31-2-.69-4-1.86-5.63a26.41 26.41 0 0 0-10.55-8.79c-1.37-.62-2.88-1.2-3.7-2.46a9.58 9.58 0 0 1-1-2.64A12.63 12.63 0 0 0 98.36.07c-4.43.51-8.27 3.38-12.65 4.2-2.41.45-4.91.27-7.29.86A7 7 0 0 0 74.08 8c-.77 1.35-.1 2.53-1.46 3.56-2.13 1.63-5.77 1.18-7.13 3.86z" fill="#1f1500"/><path d="M73 39.14a7 7 0 0 1 11.7-.9m9.64.9a7.32 7.32 0 0 1 6.42-.92 7.43 7.43 0 0 1 4.51 5.15" fill="none" stroke="#00351f" stroke-linecap="round" stroke-linejoin="round" stroke-width=".9"/></svg>