<svg xmlns="http://www.w3.org/2000/svg" viewBox="0 0 220.81 276.08" xmlns:v="https://vecta.io/nano"><g fill="#754c24"><path d="M132,19.45c9.1,14.6-1.94,40-21.51,44.38-15.88,3.61-35.4-7-37.45-23.41C71.15,25.52,84.6,12.77,98,9.19,109.87,6,125.46,9,132,19.45Z"/><path d="M117.3 90.17l-26.77 3.35-1.34-10.71c-1.51-13.49-1.29-17.82-3.91-24a37.13 37.13 0 0 0-5.69-9.25l33.14 4c2.82 6.12 2.7 8.14 2 8.81a2.71 2.71 0 0 0-.78 1 3.44 3.44 0 0 0 .34 2.68c.65 1.38 1.6 7.54 3.01 24.12z"/></g><path d="M179.72 127.23a17.91 17.91 0 0 1 1.56 5.18c.47 4.24-1.59 8.32-3.69 12.05-5 9-11.12 18-20.41 22.45-4.53 2.16-9.56 3.06-14.54 3.65-6.81.82-13.66 1.11-20.5 1.4-19 .82-38.61 1.57-56.66-4.56a13.56 13.56 0 0 1-5.73-3.16 14.38 14.38 0 0 1-2.75-5.47q-4.5-13.25-8.13-26.77c-2.08-7.75-4-15.77-3-23.74.71-6 3.46-12.21 8.88-14.83a21.58 21.58 0 0 1 4.86-1.51c17.87-3.86 36.42-2.11 54.61-.35 11.58 1.12 23.27 2.27 34.28 6 14.4 4.95 25.19 15.71 31.22 29.66z" fill="gray"/><path d="M136.93 208a6.23 6.23 0 0 1-.1 2.28 6.3 6.3 0 0 1-1.89 2.63 61.18 61.18 0 0 1-10.56 7.39 63.85 63.85 0 0 1-12.08 6.14 63.55 63.55 0 0 1-8.74 2.1 11.85 11.85 0 0 1-4.77.26 11.18 11.18 0 0 1-3.26-1.49 84.91 84.91 0 0 1-14.18-10.72 15.33 15.33 0 0 1-3.55-4.36.78.78 0 0 1-.11-.57.82.82 0 0 1 .43-.43l7.44-4.43a91.26 91.26 0 0 1 10-5.41 46.63 46.63 0 0 1 26-3.33 66.44 66.44 0 0 0 7.66 1.14c1.79.08 5.07-.41 6.12 1.45s1.38 5.09 1.59 7.35z" fill="#333436"/><path d="M76.44 269.13c-1.7 2.05-2.89 4.55-5.26 6.05-2.16 1.35-3.72 1.4-4.92-1.33-2.9-6.56-5.9-13.09-9.05-19.54-1.36-2.79-.28-3.83 2.28-4.32a18.39 18.39 0 0 1 9.39.72c7.91 3.86 11.12 11.67 7.56 18.42z"/><path d="M120 255.08l-26.63 9.23c-2.18.79-3 0-3.74-1.71-3.82-2.36-5.52-5.7-4.62-10.21 10.12-.19 20.15 1.11 30.2 2 1.6.17 3.34-.39 4.79.69z" fill="#2e3192"/><path d="M85 252.39l4.62 10.21-13.21 6.53a19.53 19.53 0 0 0-7.56-18.42c5.43.38 10.86.47 16.15 1.68z" fill="#754c24"/><path d="M201.68 221.93a123.45 123.45 0 0 0 11.42-7.71 24.22 24.22 0 0 0 5.43-4.91c4.16-5.69 2.27-14.29-2.82-19.17s-12.49-6.62-19.55-6.66c-8 0-15.9 1.82-23.57 4.13a206.75 206.75 0 0 0-80.76 46.22A27.75 27.75 0 0 0 102.5 239c9.33 2.59 19.17 2.43 28.8 3.39 6.6.66 13.19 1.86 19.8 1.47a30.73 30.73 0 0 0 10.23-2.29c2.9-1.24 5.21-3.35 8-4.68 6.72-3.17 13.28-6.42 20.16-9.27a107.57 107.57 0 0 0 12.19-5.69z" fill="#2e3192"/><path d="M80.28 208.81l-3.52-1.33A133.89 133.89 0 0 0 55 202.4c-13.29-2-26.61-3.6-39.73 1.12-2.78 1.37-5.68 2.54-8 4.65a23.29 23.29 0 0 0-4.32 4.33c-.2.29-4.51 6.74-2.32 13.61.93 2.94 2.86 5.34 7.52 8.73a68.69 68.69 0 0 0 21.35 10.27 176 176 0 0 0 30.2 6.06c3.06.1 6.1.5 9.14.87 5.54.45 11 1.49 16.6 1.53a216.38 216.38 0 0 0 10.16.89c8.25.53 16.51 1 24.72 2 4.16.07 8.28.71 12.42 1 2.82.2 5.7.28 7.81-2.19 2.62-7.38 3.84-15 4.71-22.77a4.53 4.53 0 0 0-.43-1.27 6.27 6.27 0 0 0-2.54-2.45c-4.24-2.26-48.4-14.64-62.01-19.97z" fill="#1b1464"/><path d="M144.42 233.05a58.8 58.8 0 0 0 11.85 2.2c.94 1 .58 2.21.31 3.34a103.7 103.7 0 0 0-2.7 14.73 3.11 3.11 0 0 1-1.35 2.64L140 254.28a155.33 155.33 0 0 1 4.42-21.23z" fill="#754c24"/><path d="M152.53 256c-.62-7.24 1.07-14.06 3.74-20.71a16.73 16.73 0 0 1 8.44-1.84c2.43.19 4.72.72 4.82 3.88l-4 20.68c-.56 3.4-2 4.08-5.19 3.31-3.34-.86-6.27-2.02-7.81-5.32z"/><g fill="gray"><path d="M58.25 123.36c-1.84-8.13-3.93-16.22-5.44-24.41a92.5 92.5 0 0 0-3.7-13.79c1.28-2.21 4-2.5 5.62-4.26C63 73 73.47 69.84 84 66.79a4.86 4.86 0 0 1 3.88.53c1.88 1.62 1.95 3.94 2.26 6.13a22.21 22.21 0 0 0 2.5 8.06c2.72 4.78 7.59 6.51 13.54 4.78 4.41-1.27 7.31-5.64 7.07-10.67-.12-2.39-.61-4.74-.7-7.13-.07-1.92-.29-4 1.93-5 16.68-.7 32.83 2.42 48.81 6.76a10.92 10.92 0 0 1 2.59 7.42l.52 34.36c1.48 4.36-.6 8.87.55 13.25a4.51 4.51 0 0 1 0 1.51 6.79 6.79 0 0 1-4.33 4.78c-5.59 2.09-10.84 5-16.55 6.82a36.91 36.91 0 0 1-8.75 1.47 6.93 6.93 0 0 0-6.52 4.58c-1.09 2.77-.19 5.17 1.5 7.47 1 1.42 3.53 2.08 2.62 4.63-1.81 1.93-4.29 2-6.64 2.26q-23.59 3-47.19 5.92c-7 .88-7 .89-6.65 7.74a27.3 27.3 0 0 0 .12 3.13 18.23 18.23 0 0 1 1 6.51c1 5.81 1.73 11.67 2.43 17.53.24 2 .61 4.13-.6 6-3.05 1-3.29-1.72-3.87-3.35-1.65-4.6-1.77-9.57-3-14.3-2.13-6.06-2.23-12.56-4.09-18.68-.52-2.17-1.18-4.36.46-6.37-.44-2.73.61-4 3.47-4.25s5.93 0 8.45-1.9c3.05-2 6.13-.23 9.18 0 2.83.19 5.44.07 6.91-2.87 1.21-2.41 1.61-4.84 0-7.25s-3.87-3-6.6-3c-3.19 0-6.49 1.82-9.58-.45-4.38-.39-8.75-.95-13.14-1.1-3.36-.11-3-3.17-4.33-4.81-2.64-1.56-2.69-4.37-3.33-6.89s-1.3-4.77.33-7.05zm106.8 69.96c-2.26-4.07-1.52-8.69-2.39-13-.56-2.79-.81-5.63-1.2-8.45-2.15-1.76-2.35-4.18-2.28-6.68-.24-1.46-.65-2.89-.84-4.38-.71-5.69-.73-5.68-6.65-5-2.95.36-5.9.83-8.87 1-1.9.14-3.92.49-5.3-1.44 2.74-4.16 7.26-5.18 11.58-6.57 4.57-.4 9.11-1.14 13.68-1.59 2.48-.25 4.17.39 3.48 3.41q.87 20.63 1.73 41.23z"/><path d="M166.53 188.8c1 2.13 1.85 3.09 1.55 4.64-.55 2.89-4.51 4.3-6.39 4.95l-30.74 10.54c-5.7 2.45-11.21 5.57-17.29 6.73-6.43 1.22-13.07.15-19.48-1.29A63.8 63.8 0 0 1 81.29 211c-3.3-1.27-5.59-2.48-6.8-4.87-1-2-.77-3.76-.7-5.57.29-7.61-2.62-8.48-3.92-19.85-.75-6.61-.06-9.27.14-10.25a13.48 13.48 0 0 1 5.1-8.47c2.71-1.88 6.12-2.25 9.38-2.49 9.94-.72 20-.67 29.84-1.92a79.44 79.44 0 0 1 11.09-1.06c2.44 0 4.91.37 7.3-.12 2.11-.44 4-1.51 6.07-2.22 7-2.42 14.72-.35 20.88 3.58 2.66 1.69 5.43 3.72 5.5 7.29.05 2.94-.89 5.42-.52 8.51.52 4.33-.55 9.86 1.88 15.24z"/></g><path d="M180.5 105.54c4.89 11.31 9.81 22.71 12.54 34.76a8.31 8.31 0 0 1-1.54 7.9 280.74 280.74 0 0 1-41.23 51.92 75.18 75.18 0 0 0-10.91-6.12 529.19 529.19 0 0 0 25-49.28 23.84 23.84 0 0 0 1.55-4.21 24.63 24.63 0 0 0 .44-5.76c-.08-14.75-.95-29.5-2.35-44.18-.27-2.77-3.65-18.8-1.84-20.21 3.56-2.77 7.95 11.11 8.72 12.88zM40.9 123.12c-2 12.16-3.92 24.42-3.6 36.77a10.51 10.51 0 0 0 .46 3.31 10.73 10.73 0 0 0 3 4 280.75 280.75 0 0 0 52.74 40.17 74.78 74.78 0 0 1 9.06-8.65 527.29 527.29 0 0 1-36.32-41.62 23.6 23.6 0 0 1-2.55-3.7 24.54 24.54 0 0 1-1.84-5.48c-3.55-14.31-6.34-28.82-8.6-43.4-.42-2.74-1.09-19.11-3.19-20-4.13-1.81-5 12.72-5.28 14.63q-1.95 11.95-3.88 23.97z" fill="#333"/><path d="M150.26 203.38a6.57 6.57 0 0 1-2.26 4.12 14 14 0 0 1-7.7 3.73 9.52 9.52 0 0 1-3.49-.1 9.42 9.42 0 0 1-6.2-5.81 5.4 5.4 0 0 1-.46-3 6.77 6.77 0 0 1 1.89-3 14.42 14.42 0 0 1 5.12-4.12c4.29-1.74 13.41 3.14 13.1 8.18zm-56.37 7.05a6.56 6.56 0 0 0 3.2 3.43 14 14 0 0 0 8.38 1.72 9.59 9.59 0 0 0 3.36-1 9.44 9.44 0 0 0 4.58-7.16 5.36 5.36 0 0 0-.3-3.05 6.86 6.86 0 0 0-2.58-2.49c-1.85-1.22-3.79-2.47-6-2.73-4.53-.51-12.17 6.47-10.64 11.28z" fill="#754c24"/><path d="M125.69 28.39A7 7 0 0 0 114 29m-9.52 2a7.34 7.34 0 0 0-6.48-.07 7.43 7.43 0 0 0-3.84 5.67" fill="none" stroke="#00351f" stroke-linecap="round" stroke-linejoin="round" stroke-width=".9"/><path d="M69.6 39.83a26.16 26.16 0 0 0-1.64 5 13.59 13.59 0 0 0 1.13 6.06A14.42 14.42 0 0 1 70.32 57c-.19 2.06-1.56 4.18-3.61 4.5a7 7 0 0 0 7.73-4.69 10.34 10.34 0 0 1 .37 6.59 11.05 11.05 0 0 0 4.61-16.27 6 6 0 0 1-1.46-3c0-1.74 2.09-3 3.76-2.48a4.87 4.87 0 0 1 3.09 3.91c1.67-2.23 1.29-5.37.37-8s-2.34-5.13-2.54-7.91c-.31-4.16 2.28-8.14 5.69-10.56s7.54-3.55 11.62-4.49a28.38 28.38 0 0 1 9.06-1 50 50 0 0 1 7.75 1.88 40.49 40.49 0 0 0 11.85 1.29 17.37 17.37 0 0 0 8.4-2.11c2.5-1.51 4.41-4.25 4.26-7.17a9.82 9.82 0 0 1-7.27-.41c-2.31-.94-4.4-2.36-6.63-3.47-8.23-4.08-17.86-3.79-27-3.4-6.14.25-12.47.55-18 3.15-5.97 2.75-10.45 7.83-13.86 13.35a12.79 12.79 0 0 0-2.26 5.74c-.2 2.94 2.11 5 3.1 7.61a14.63 14.63 0 0 1 .25 9.77z"/></svg>