<svg xmlns="http://www.w3.org/2000/svg" viewBox="0 0 312.63 237.87"><defs><style>.cls-1{fill:#fff;}</style></defs><g id="Layer_2" data-name="Layer 2"><g id="Layer_1-2" data-name="Layer 1"><path class="cls-1" d="M282.77,234.77q-10.63-24.17-21.3-48.31c-1.87-4.26-1.47-5.8,2.28-8.7,8.52-6.56,17-13.12,24.58-20.83,10.35-10.58,18.53-22.5,22-37.09,5.87-24.47.23-46.26-15.93-65.41-11.59-13.75-26-23.87-41.89-32A201.53,201.53,0,0,0,176.66.84c-36.19-2.9-71.41,1.55-105.17,15.43-18.47,7.59-35.2,17.91-49,32.55C12.32,59.6,4.7,71.9,1.61,86.56c-4.08,19.38-.25,37.47,9.81,54.31,9.2,15.42,22.25,27,37.37,36.35,18.74,11.6,39.17,18.8,60.7,23,34.63,6.75,69.1,5.46,103.37-2.56a7.39,7.39,0,0,1,5.92,1q31.54,19.17,63.14,38.26a4.09,4.09,0,0,0,2.15,1C283.61,236.77,283.21,235.76,282.77,234.77Z"/></g></g></svg>