<svg xmlns="http://www.w3.org/2000/svg" viewBox="0 0 384.29 509.9"><defs><style>.cls-1{fill:#3c3f3c;}.cls-2{fill:#794626;}.cls-3{fill:#99583b;}.cls-4{fill:#dfb173;}.cls-5{fill:#c2905a;}.cls-6{fill:#ff4a01;}.cls-7{fill:#ff9000;}</style></defs><g id="Layer_2" data-name="Layer 2"><g id="Layer_1-2" data-name="Layer 1"><path class="cls-1" d="M86.73,464.42a13.46,13.46,0,0,1,5.8.16c3.3,1.14,4.13,4.47,3.94,7.26s-.86,5.81,1,8.2a5.14,5.14,0,0,0,4.28,2,6.84,6.84,0,0,0,2.68-.92c3.77-2.07,6.34-5.18,9.79-7.55s8.59-4,12.65-2.3a13,13,0,0,1,5,4.41l7,8.81c1.08,1.37,2.49,2.9,4.56,3a7,7,0,0,0,3.6-1.09c5.78-3.16,10.08-7.63,14.9-11.63s10.62-7.73,17.6-8.63c7.25-.93,14.66,1.4,20.45,4.89,2.7-1.78,3.55-5.15,6.87-6.13a8.41,8.41,0,0,1,7.11,1.72c1.85,1.43,3.09,3.27,4.76,4.83a20.42,20.42,0,0,0,12.44,5c3.91-3.14,10-4.31,15.58-3.71a36.1,36.1,0,0,1,15.09,5.55c2.13,1.33,4.44,2.9,7.18,2.76s4.82-2,6.52-3.68L286,467a11.07,11.07,0,0,0,2.73-3.54c.92-2.35-.22-4.87-1.56-7.1-8.73-14.58-25.57-25.21-37.19-38.53-2.6-3-5.06-6.19-9-8.14s-9.07-2.43-13.89-2.67a352.61,352.61,0,0,0-89.53,7c-7.78,1.64-15.68,3.62-21.92,7.57-5,3.15-8.62,7.37-12.85,11.13-7.28,6.5-16.37,11.72-23.06,18.63-2.55,2.63-7.47,7.68-6.93,11.2C73.59,467.53,82.48,464.92,86.73,464.42Z"/><path class="cls-2" d="M373.68,431.94c-13.81-6.15-28-12.59-38-23.34-5.94-6.38-10.18-14.08-16.72-19.93-5.2-4.65-11.72-8-16.43-13.07-11.26-12.12-9.71-31.06-20.12-43.82a396.32,396.32,0,0,0-49.55,39.47c-3.54,3.33-7.28,7.38-6.74,12,.48,4.12,4.18,7.2,7.63,9.85,22.25,17.12,45.33,34.66,73.06,42.27,7.15,2,14.81,3.35,20.6,7.72,6.71,5.05,11.75,13.61,20.61,7.66C356.5,445.05,365.63,438.4,373.68,431.94Z"/><path class="cls-2" d="M150,285.47c-8.35,5.66-4.41,17.74-8.5,36.52-4.48,20.57-15.78,36.22-26.32,47.29,9,2.4,18.43-1.74,26.77-5.76l35-16.9c5.86-2.83,11.81-5.72,16.6-9.94,1.23-1.08,8.77-10.58,6.62-22.76-1.62-9.18-7.9-14.56-11.92-18C178.61,287.68,160.05,278.63,150,285.47Z"/><path class="cls-3" d="M0,445.21s31.48,34.18,45.87,38.68c0,0,45.73-27.71,97.65-59.57,42.82-26.28,89.86-55.38,119-74.08,16-10.3,26.6-17.46,28-19.25,7.2-9,22.49-27,22.49-27s-6.3-45.87-14.39-50.36-31.48-11.7-36-9.9-91.74,79.15-114.23,85.45c0,0-21.58,19.79-27.88,19.79,0,0-3.6-3.6-1.8-18,0,0-10.79-3.6-14.39-.9s-9.89,33.28-10.79,37.77-3.6,11.7-7.2,12.6-9,0-11.69,2.69-36,44.08-44.07,48.57S0,445.21,0,445.21Z"/><path class="cls-2" d="M112.23,359.74a25.74,25.74,0,0,1,3.14,14c5.51,1.78,11.07-2.11,15.68-5.6s10.67-7,15.84-4.37l-23.14,29.85c-1.62,2.08-3.32,4.47-3,7.09a41,41,0,0,0,24.42-1.81,638.82,638.82,0,0,0-64,43.68c-3.44,2.67-6.92,5.41-11,6.95s-8.9,1.73-12.57-.6a117.25,117.25,0,0,0,32.93-25.4c-20.18,3.05-36.51,22-56.87,20.7,12.07-5.81,24.95-12.38,31.07-24.3,1.93-3.75,3.09-7.88,5.33-11.45,5.49-8.71,15.88-12.16,22.57-19.64C95.12,386,113.42,361.89,112.23,359.74Z"/><path class="cls-2" d="M285.14,302.87l-25.21,9.54c-2.95,1.12-6.59,2.14-9,.1,13.86-12,28.1-24.54,36-41.1,1.63-3.43,2-9-1.78-9.59-2.22-.36-4.08,1.55-5.54,3.24a122.74,122.74,0,0,1-43.14,32A146.63,146.63,0,0,0,256,268.82q-40.08,30.07-77.62,63.33a37.32,37.32,0,0,1,22.8-6.58,34.77,34.77,0,0,1,10,2.08c1.06.78,8.23,6.24,8.86,15.85A21.76,21.76,0,0,1,210,363c7.3,2.2,15.36-.3,21.55-4.75,9.25-6.66,16.32-16.61,25.23-24A146.84,146.84,0,0,0,285.14,302.87Z"/><path class="cls-2" d="M128.06,426.79c1,1.4,4.51,1.76,15.46-2.47,42.82-26.28,89.86-55.38,119-74.08.89-1.38,1.85-2.73,2.8-4.17,2.14-3.25,3.07-6.16,2.43-10.09-1.1-6.76-5.44-7.34-10.65-10.24-3.31-1.84-5.63-5.07-8.68-7.32a18.18,18.18,0,0,0-23.09,2c.54-3.42.79-7.6-2-9.63-2-1.43-4.64-1.15-7-.77a159.7,159.7,0,0,0-40.9,12.54c-3.83,1.77-7.68,3.76-10.51,6.88-4.63,5.1-5.85,12.42-6,19.31-.07,2.87-1.45,25.31-4.48,37.13C147.94,410.83,125.07,422.47,128.06,426.79Z"/><path class="cls-3" d="M378.66,453.31S296.81,396.65,286,386.75s-42.28-49.47-45.87-53.06S224,316.6,218.56,318.4s-18,22.48-18,28.78,12.59,42.27,22.49,58.46,18.88,36.88,25.18,42.27,44.07,27,47.67,29.68S378.66,453.31,378.66,453.31Z"/><path class="cls-4" d="M378.66,453.31s-49.47-1.8-59.36,1.8-27,13.49-23.39,22.48,32.38,21.59,37.78,21.59,28.78-8.1,33.27-10.79S394.85,468.6,378.66,453.31Z"/><path class="cls-5" d="M314.5,480.29c.22-3.09,2.77-5.51,5.45-7.07,7.92-4.6,17.61-4.33,26.72-5.3,2.79-.3,5.74-.7,8.31.44s4.36,4.52,2.77,6.84a7.21,7.21,0,0,1-3.05,2.16L346,481.47a19.69,19.69,0,0,1-6.09,2.07,6.57,6.57,0,0,1-5.84-2.05c-1-1.3-1.65-3.3-3.29-3.56a3.18,3.18,0,0,0-2.93,1.75c-2.22,3.52-.87,8.28,1.61,11.63a8.53,8.53,0,0,0,10.08,3.51c8.19-1.9,14.29-8.78,22.05-12,3.41-1.42,7.33-2.27,9.71-5.1,2-2.44,2.47-5.82,2.52-9a50.13,50.13,0,0,0-.32-6.25,2.69,2.69,0,0,0-.4-1.34,2.81,2.81,0,0,0-1.67-.9c-7.59-2-15.5-2.51-23.35-2.65-6.73-.11-13.54,0-20.05,1.75s-12.77,5.09-16.85,10.44a47.22,47.22,0,0,0-5.23,9.7,3.49,3.49,0,0,0-.43,1.77,3.11,3.11,0,0,0,.8,1.53c1.87,2.29,6,5.64,9.24,5.41,2-.15,1.59-.65.75-2.4S314.34,482.45,314.5,480.29Z"/><path class="cls-2" d="M284,442l15.5,8.64A16.6,16.6,0,0,1,318,445.76,54,54,0,0,1,305.55,432a30.42,30.42,0,0,1,28.26,8.41c.72-1.4-.45-3-1.56-4.12-9.08-9.16-19.53-16.88-30.42-23.81-11.78-7.5-24.41-14.38-33.14-25.28a25.4,25.4,0,0,0,16.55,22.34c1.8.63,4.11,1.64,3.92,3.55a3.4,3.4,0,0,1-1,1.88c-4.89,5.37-14.73,4.82-19-1.05-4.49-6.18-3-16-9.1-20.62-1.11-.83-2.41-1.41-3.46-2.31-2.33-2-3.13-5.39-2.63-8.43a19.16,19.16,0,0,1,4-8.23,35.74,35.74,0,0,0-21.45,6.84c-2.88-5.11-2.26-11.35-2.51-17.2s-2.14-12.54-7.52-14.84a2.47,2.47,0,0,0-2.1-.13,2.71,2.71,0,0,0-1.05,1.55c-6.3,17.37,1,38.67,16.64,48.52,4.14,2.61,8.76,4.47,12.61,7.49s7,7.65,6.39,12.51a2.47,2.47,0,0,1-1.05,2c-1,.5-2.12-.29-2.94-1l-18.07-16.36c-1.31,4.84,1.06,9.85,3.65,14.14a113.32,113.32,0,0,0,31.75,34.09c3.61,2.54,7.41,4.9,10.37,8.17,2.64,2.92,8,8.72,8.58,1.52C291.68,455.8,286.11,447.26,284,442Z"/><path class="cls-3" d="M242.84,456.91s-42.27-96.08-36-137.09c0,0-16.19-5.92-23.39,4S164.59,352.57,163.69,358s0,123.22,7.2,129.52,76.9,7.57,83-2.51C253.86,485,248.24,461.4,242.84,456.91Z"/><path class="cls-4" d="M253.38,484.92a23.82,23.82,0,0,0-11.61-10.51c-4.23-1.72-8.89-2.09-13.34-3.19-3.23-.8-6.36-2-9.61-2.77-8.55-2-17.56-1.11-26.26-2.44a47.09,47.09,0,0,0-7.08-.89c-1.63,0-3.24.26-4.87.42a43,43,0,0,0-7,.88,8.59,8.59,0,0,0-5.57,3.92c-1.7,3.24-.09,7.09.52,10.68a50.82,50.82,0,0,1,.3,8.64,76.09,76.09,0,0,0,.68,10.34,10.8,10.8,0,0,0,1,3.62c1.83,3.49,6.49,4.31,10.51,4.54,11,.63,22.06-.05,33.05.83,3.66.29,7.32.75,11,.88a59,59,0,0,0,26.12-5.17c3.84-1.74,5.84-3.3,5.54-7.41A29.59,29.59,0,0,0,253.38,484.92Z"/><path class="cls-5" d="M225.41,479.24c-4.19-.3-8.69-.14-11.37,1.1a5.29,5.29,0,0,0-3,3.49,2.72,2.72,0,0,0,.11,2.34c1.17,1.89,5.68,3.23,9.86,3.59.48,2-4.13,3.15-8.42,2.81a44.51,44.51,0,0,1-11.76-3,9.5,9.5,0,0,1-2.82-1.35,2,2,0,0,1-.62-1.84,5.8,5.8,0,0,1,2.21-4.68c1.09-.82,2.71-1.49,3.32-2.44.93-1.47-.77-3.26,0-4.75,1.12-2.12,6.7-2.81,11.7-2.66a52.27,52.27,0,0,1,14.73,2.36c3.31,1.11,7.51,3.22,8,5.08C237.94,481.5,228.8,479.49,225.41,479.24Z"/><path class="cls-5" d="M182.8,476c-1.83,2.6-1.54,5.54-2,8.35-.25,1.52-.71,3.07.36,4.62a14.58,14.58,0,0,0,4,3.26,36.23,36.23,0,0,0,5.7,3.09c6.91,2.85,16.46,3.34,24.93,3.24a30,30,0,0,0,6.49-.56,8.92,8.92,0,0,0,4.31-2.4c3.32-3.3,3.24-7.82-2.73-11,4.66-.31,10.23-.49,14,1.18a14.94,14.94,0,0,1,2.55,1.52c3.12,2.2,6.18,4.47,7.6,6.9s1,5.07-2.44,6.67-8.91,1.89-14.19,1.79c-7-.14-14-.83-21-.88-6.71,0-13.44.49-20.12-.55a47.22,47.22,0,0,1-9.44-2.51,22.45,22.45,0,0,1-6.3-3.28,7.25,7.25,0,0,1-2.56-4.78c-.86-5.34.86-10.55,5-15.18,2.58-2.9,6.93-5.8,14.08-6,1.59-.05,4,.2,3.79,1.15s-3.33.91-4.56,1.18C186.62,472.57,184.06,474.23,182.8,476Z"/><path class="cls-6" d="M280.9,323.49c5.61-6.91,9.89-14.52,11.82-23.26,1.61-7.28-.53-11.5-7.38-14.68-3.2-1.5-6.64-2.49-9.9-3.88-5.61-2.39-7.68-6.88-4.33-11.74,8.44-12.23,4.84-16-4.58-22.94a9.15,9.15,0,0,1-3.79-6.39c-1-8.34-2.79-16.66,2-24.68,2.23-3.71-1.1-6.39-3.41-8.67-5-4.9-7.7-10.48-7.48-17.6a16.7,16.7,0,0,1,5-11.45c-11.58,1.16-16.63,6.55-16.11,17.06.2,4.2,1.18,8.36,1.82,12.53,1.08,7.17-2.51,13-8.8,14.37-6.86,1.45-12.55-2.11-14.46-9.32a34.62,34.62,0,0,0-4.91-11c-8.21-11.86-7.23-25.71,2.42-36.62,6.6-7.46,13.65-14.59,18.37-23.51a52.4,52.4,0,0,0,3.69-8.33c1.91-5.85,1.37-11.22-3.42-15.83a98.4,98.4,0,0,1-8.7-9.87c-5.12-6.46-6.55-13.61-3.3-21.4A81.47,81.47,0,0,1,229.25,78c6.13-11,4.83-20.55-4.45-30.24-1.56,1.69-1,3.81-1.18,5.69-1,12.6-4.93,23.79-15.25,32a17.28,17.28,0,0,0-6.89,15.5A73.92,73.92,0,0,1,200,122.56c-1.85,7.72-5.85,14-12.71,18.21-3.2,1.95-6.88,3.06-9.66-.32s-.51-6.36,1.72-9c1.08-1.3,2.32-2.47,3.5-3.67,5.91-6.07,6.16-10,.91-16.85-2.06-2.67-4.26-5.24-6.5-7.77s-3.76-5.19-3.59-9.15c-5.33,4-6.65,9.43-4.55,14.44,4,9.56.41,14.8-7.26,20.51-19,14.1-26.48,53.57-2.44,74.15,10.56,9.05,12.89,19.51,8.25,32.25-2.92,8-6,15.84-11.85,22.2-2,2.2-4.3,4.59-7.84,2.36-4.16-2.61-6.71-7.4-4.5-10.62,7.64-11.11.39-20.12-3.48-29.78-.05,11.87-5.77,20.71-13.79,28.76-9,9-15.7,19.42-17.22,32.53a16.4,16.4,0,0,0,2.55,11.63,94.49,94.49,0,0,1,16.85,44c13.14-8.16,17.33-29.22,6.94-40.55-7.84-8.54-6.1-15.54,4.13-21,2.76-1.46,3.69-1,4.25,2.13a29.8,29.8,0,0,0,10.08,17.69c4.39,3.74,4.54,7.83,3.13,12.61-.28,1-1,1.89.13,2.69.78.58,1.57.12,2.38-.15,3.73-1.28,6.91-3.52,10.15-5.66,6.3-4.15,7.49-8.24,4.43-15-.82-1.84-2-3.54-2.77-5.39-4.43-10.09-1.91-16.38,8.23-20.64,10.82-4.56,15-18.15,8.45-27.66a92.63,92.63,0,0,1-5.46-9.06c-8.28-15.46-5.42-30.86,8-41.69,1-.84,2.1-2,3.58-1.37s.79,2,.89,3.13c.75,8.1,2.12,16.09,5.11,23.66,2.05,5.19,3.93,10.07,10.44,12.5,10,3.71,15.69,15.15,14.18,23.86-.89,5.17-5.16,6.83-8.48,9.43-12.66,9.89-7.14,21.53,2,28.56,1.18.9,3.4,2.39,4.21-.8,1.29-5,5-7.7,9.36-9.81,12.52-6,13.83-8.89,10.8-22.64-.87-4-1.56-8-2.41-12.41,6.5,4.27,10.84,9.9,15.57,15.08,4.93,5.39,6.06,11.44,1.79,17.92a76.79,76.79,0,0,0-5.57,9c-4.24,8.95-2.68,16.23,8.55,18.3A38.27,38.27,0,0,0,268,300c7.52-.12,13,5,14.16,12.49C282.71,316.31,281.38,319.83,280.9,323.49Z"/><path class="cls-7" d="M280.9,323.49c-.92,1.4-1.76,2.86-2.78,4.18-8.3,10.73-19.19,18.5-30.35,25.83A41.57,41.57,0,0,0,232,372.72c-.39.89,0,2.5-1.71,2.57l-.21-.5c-5-12-3-22.66,6.34-33.73,5.15-6.11,4.45-9.71-2.69-13.4a23,23,0,0,0-5.17-2c-4-.93-8.71-3.12-12,.12s-.13,7.32.64,11c0,.16.11.31.15.48,2.48,8.42.85,12.92-7.67,15-9.13,2.19-12.13,8.1-13.38,16.14-.21,1.36-.56,2.69-1.11,5.27-2.43-6.14-4.22-11.05-6.31-15.82-1.46-3.31-.57-5.83,1.75-8.23a93,93,0,0,0,7.2-7.82c5.61-7.31,3.86-14.11-4.43-18.12-2.83-1.37-5.05-2-5.18,2.62-.1,3-1.12,5.95-1.87,8.88-1,3.88-3.27,5.45-7.5,4.76a20.37,20.37,0,0,0-11.9,1.48c-5,2.25-5.83,6-2.13,10,2.41,2.59,5.2,4.82,7.73,7.3s4.42,5.67,3.77,9.51c-1.24,7.47-6.09,12.57-11.42,18.14l0,0s0-.06,0-.09c-.39-1.56-.73-3-1.06-4.23-3-11.44-4.41-11.58-18.53-13.44-5.83-.78-9.77-4.42-12.28-9.55a46,46,0,0,1-4.5-22.58c13.14-8.16,17.34-29.22,7-40.54-7.84-8.56-6.1-15.55,4.13-21,2.76-1.47,3.69-1.05,4.25,2.12a29.77,29.77,0,0,0,10.08,17.69c4.39,3.73,4.53,7.83,3.13,12.61-.28,1-.95,1.89.13,2.69.78.58,1.58.12,2.38-.15,3.72-1.28,6.91-3.52,10.15-5.66,6.3-4.15,7.5-8.24,4.43-15-.82-1.83-2-3.54-2.77-5.39-4.43-10.08-1.9-16.38,8.22-20.64,10.83-4.55,15-18.15,8.45-27.67a94.13,94.13,0,0,1-5.45-9.06c-8.28-15.45-5.42-30.85,8-41.68,1-.84,2.09-2,3.59-1.37s.78,2,.88,3.13A84.94,84.94,0,0,0,200,210.18c2.05,5.2,3.93,10.07,10.44,12.5,10,3.71,15.7,15.15,14.18,23.86-.89,5.17-5.15,6.84-8.49,9.44-12.65,9.89-7.12,21.52,2,28.55,1.19.91,3.42,2.39,4.22-.8,1.29-5,5-7.7,9.36-9.81,12.52-6,13.83-8.89,10.8-22.65-.88-4-1.56-8-2.41-12.41,6.5,4.28,10.84,9.92,15.57,15.09,4.93,5.4,6.06,11.44,1.79,17.93a77.3,77.3,0,0,0-5.57,9c-4.23,8.94-2.68,16.22,8.55,18.29A37.63,37.63,0,0,0,268,300c7.51-.12,13,5,14.15,12.49C282.71,316.32,281.38,319.83,280.9,323.49Z"/><path class="cls-6" d="M188,61.88C197.74,57.23,204.1,50,207.13,40a9.19,9.19,0,0,0-.78-7.83c-7-11-5.18-21.1,3.09-30.55.4-.45.72-1,1.2-1.65-13.85.86-24.19,9.71-26,19-1.12,5.8-.73,11.37,3.22,15.77,6.43,7.17,5.62,14.68,2.22,22.61C189.45,58.87,188.72,60.37,188,61.88Z"/><path class="cls-6" d="M260.51,119.52c1.14,10.17-3.44,17.63-9.61,24.82s-6,13.89-.56,21.58c2.06-7.67,6.15-13.2,13.87-15.36,1-.28,1.85-1.43,2.53-2.36C272.53,140.32,269.51,125.36,260.51,119.52Z"/><path class="cls-6" d="M132.12,205.29c.93-8.43-.28-15.29-3.89-21.28-5.53-9.19-4.49-17.55,1.56-25.83a5.89,5.89,0,0,0,.66-1.33c.06-.13,0-.33-.09-.49-10.52,2.82-19,16.37-16.56,26.63a11.94,11.94,0,0,0,6,7.8C125.13,193.94,129.18,198.27,132.12,205.29Z"/></g></g></svg>