<svg xmlns="http://www.w3.org/2000/svg" viewBox="0 0 162.577 134.182" xmlns:v="https://vecta.io/nano"><style>.A{isolation:isolate}</style><g class="A"><path d="M19.65 90.703l.704-1.762a.83.83 0 0 0 .092-.416 11.966 11.966 0 0 1 .043-2.438l-.032-7.605-.05-2.46a6.127 6.127 0 0 1 .288-2.733c.058-.108-.002-.277-.005-.419a1.503 1.503 0 0 1 1.083-1.64 4.438 4.438 0 0 1 1.357-.296l4.189.018a2.482 2.482 0 0 1 1.782.623 2.323 2.323 0 0 1 .734 1.28 8.571 8.571 0 0 1 .136 2.347 20.851 20.851 0 0 0-.004 2.351l.061 12.217c.005.713.112 1.426.124 2.139l-.051 2.24c-.01.511-.327 1.051.145 1.523a.315.315 0 0 1 .027.29 6.204 6.204 0 0 0-.269 2.95l.014 8.687.009 7.832a1.856 1.856 0 0 0 .359 1.383l-.37 1.845a2.566 2.566 0 0 1-1.94 2.306 2.321 2.321 0 0 1-.63.13c-1.768-.032-3.54.312-5.304-.064a2.492 2.492 0 0 1-1.6-1.971l-.089-2.859q-.042-4.014-.06-8.028l.008-5.582a2.632 2.632 0 0 0-.7-1.962 2.709 2.709 0 0 0-1.977-.678l-3.327-.028a2.406 2.406 0 0 0-2.426 2.348q-.023 3.215.008 6.431a2.264 2.264 0 0 0 .235 1.015 1.149 1.149 0 0 1 .066.927 12.233 12.233 0 0 0-.312 3.912c.034.853-.042 1.709-.047 2.564-.002.464.1.933.054 1.39a2.841 2.841 0 0 1-1.758 2.493 2.175 2.175 0 0 1-.932.161c-1.396.006-2.792.004-4.187-.033a2.599 2.599 0 0 1-2.725-2.9l.097-4.178-.107-4.604.037-5.676-.048-4.82.116-3.305-.088-2.996.026-7.297c.104-2.218-.175-4.42-.078-6.634l.027-5.146a2.82 2.82 0 0 1 2.749-2.71l4.188.043a2.635 2.635 0 0 1 2.571 2.145l.092 1.067-.004 9.229q.001 2.52.024 5.04a2.357 2.357 0 0 0 2.461 2.523l4.609-.091a4.046 4.046 0 0 0 .605-.115zm14.117 23.069l.789-.23a1.484 1.484 0 0 1-.566-1.937 45.733 45.733 0 0 0 .953-5.143l.608-2.83.516-2.503.832-4.535 1.391-7.376.717-3.442.276-1.899a30.596 30.596 0 0 1 .677-3.359c.434-1.447.463-2.957.829-4.411.235-.933.326-1.899.526-2.842a3.217 3.217 0 0 1 2.601-2.377l2.13.005c1.104.07 2.216.015 3.324.012l1.826.002a2.913 2.913 0 0 1 3.021 2.508l.981 4.946 1.846 8.926 1.266 6.421 1.289 6.189.728 3.682q1.039 5.205 2.082 10.408l.858 4.09a3.485 3.485 0 0 1-.429 2.372c-.065.141-.247.23-.381.336l-.71.537a9.269 9.269 0 0 0-2.865-.197 19.825 19.825 0 0 1-2.991-.153 2.489 2.489 0 0 1-2.189-2.07l-.841-4.21-.395-1.887a2.798 2.798 0 0 0-2.641-2.129c-1.359-.035-2.72-.02-4.08.008a2.603 2.603 0 0 0-2.576 2.28l-.894 4.847-.039.212c-.38 2.103-1.439 2.975-3.625 3.064a32.899 32.899 0 0 1-3.96-.104 2.103 2.103 0 0 1-1.955-2.374 21.564 21.564 0 0 1 1.073-4.835zm14.005-12.145a1.962 1.962 0 0 0 2.135-2.543l-.947-5.37a3.131 3.131 0 0 0-.595-1.58.806.806 0 0 0-1.411.125 3.003 3.003 0 0 0-.306.906l-1.072 5.886a2.096 2.096 0 0 0 2.197 2.576zm45.845-15.09l-1.011 1.784a1.764 1.764 0 0 0-.561.087 4.6 4.6 0 0 1-2.72.297 8.885 8.885 0 0 0-1.816.047 3.68 3.68 0 0 1-2.355-.393 2.381 2.381 0 0 1-1.414-1.998l-.294-2.665a5.815 5.815 0 0 0-1.467-3.049 3.863 3.863 0 0 0-6.301.992 9.333 9.333 0 0 0-.824 4.172l-.018 7.83-.021 5.8.048 4.18.043 2.673a10.08 10.08 0 0 0 .706 3.771 3.932 3.932 0 0 0 3.369 2.484 3.982 3.982 0 0 0 3.812-2.249 12.082 12.082 0 0 0 .986-4.258c.072-.603.077-1.213.104-1.82a1.611 1.611 0 0 1 .687-1.276 3.273 3.273 0 0 1 2.233-.877l4.607.195a2.057 2.057 0 0 1 1.934 1.604 4.808 4.808 0 0 1 .17 1.586l-.424 4.269a15.309 15.309 0 0 1-2.313 6.495 11.538 11.538 0 0 1-3.633 3.538 15.737 15.737 0 0 1-11.92 1.533 11.618 11.618 0 0 1-7.852-6.003 16.215 16.215 0 0 1-1.753-5.814c-.207-1.682-.201-3.354-.255-5.031l-.131-3.743c-.01-.532.081-1.066.084-1.6l-.051-1.915.045-2.027.02-1.179-.064-2.889.009-.735-.018-2.143a10.435 10.435 0 0 0 .056-1.283 19.571 19.571 0 0 1 .382-5.539 10.464 10.464 0 0 1 1.221-3.844c.219-.357.214-.944.506-1.149.859-.604 1.084-1.638 1.795-2.343a8.873 8.873 0 0 1 3.047-2.294l2.604-.999a15.77 15.77 0 0 1 5.732-.469 13.233 13.233 0 0 1 2.129.262 12.327 12.327 0 0 1 9.069 7.614 20.476 20.476 0 0 1 1.452 6.785 10.136 10.136 0 0 0 .365 1.585z" fill="#7e7f7f"/><path d="M106.614 112.243q0 2.086 0 4.174l-.026 2.349a2.254 2.254 0 0 1-2.408 2.328c-1.629.113-3.257.021-4.884-.02a2.288 2.288 0 0 1-1.964-1.596 5.033 5.033 0 0 1-.2-2.198 14.475 14.475 0 0 0-.045-1.994l-.102-7.174.048-1.816.002-4.711.066-3.43-.037-7.509.044-5.031-.092-3.096c-.009-.427.04-.855.044-1.283l.062-7.194a7.511 7.511 0 0 1 .061-1.069 2.054 2.054 0 0 1 1.674-1.86 3.372 3.372 0 0 1 .42-.094 21.132 21.132 0 0 1 5.457.076 2.11 2.11 0 0 1 1.86 2.167l.046 4.714q.015 1.77.036 3.539l.031 1.605c.046.545.161 1.108.807 1.254s.994-.295 1.271-.778l1.884-3.37 2.118-3.964q.908-1.695 1.829-3.383a3.546 3.546 0 0 1 1.887-1.675 5.656 5.656 0 0 1 1.78-.289l4.08.004a7.601 7.601 0 0 1 .857.036 1.854 1.854 0 0 1 1.426 2.592l-.896 1.583q-1.141 2-2.286 3.997c-.089.155-.193.301-.296.448a46.915 46.915 0 0 0-2.639 4.515l-2.379 4.04a2.297 2.297 0 0 0-.287.908 5.748 5.748 0 0 0 .317 2.733l2.938 7.834 1.749 4.495 1.899 5.129 1.007 2.598q1.134 3.012 2.25 6.028a5.947 5.947 0 0 1 .286 1.034 1.685 1.685 0 0 1-1.235 2.074 1.838 1.838 0 0 1-.519.134 4.771 4.771 0 0 0-1.662.36 1.284 1.284 0 0 1-.932.008 2.788 2.788 0 0 0-1.336-.158 6.21 6.21 0 0 1-3.295-.747 2.664 2.664 0 0 1-1.137-1.39q-1.015-2.884-2.042-5.766l-2.08-5.745-1.216-3.437-.61-1.605a1.367 1.367 0 0 0-2.424-.195 7.213 7.213 0 0 0-1.072 2.761c-.187 2.002-.057 3.996-.087 5.992l-.001 1.068a.41.41 0 0 0-.049 0zm49.062.192l.583.42a2.536 2.536 0 0 0-1.534 1.882 2.983 2.983 0 0 1-1.004 1.612 2.91 2.91 0 0 0-.596.75 7.138 7.138 0 0 1-2.697 2.39l-1.958 1.093a3.055 3.055 0 0 1-.797.308l-4.411.907a4.201 4.201 0 0 1-2.021.003 1.658 1.658 0 0 0-.532-.063 13.162 13.162 0 0 1-6.694-1.663 12.372 12.372 0 0 1-4.575-4.132 18.598 18.598 0 0 1-2.852-6.895 3.112 3.112 0 0 1 .037-1.58 2.508 2.508 0 0 1 1.808-1.646l3.079-.912.925-.264a2.47 2.47 0 0 1 3.408 1.939 11.236 11.236 0 0 0 1.146 2.994 5.888 5.888 0 0 0 2.961 2.695 5.537 5.537 0 0 1 1.08.662c.603.453.816.425 1.421-.156a1.709 1.709 0 0 1 .733-.374 4.278 4.278 0 0 0 2.966-4.313 7.271 7.271 0 0 0-2.481-4.737c-1.088-1.084-2.283-2.064-3.475-3.038l-5.783-4.634a21.843 21.843 0 0 1-4.354-4.724 14.62 14.62 0 0 1-2.262-8.786 13.798 13.798 0 0 1 2.621-7.133 5.333 5.333 0 0 1 1.331-1.362c.653-.462 1.124-1.219 2.042-1.303.199-.019.361-.326.563-.468a8.482 8.482 0 0 1 2.757-1.118 12.459 12.459 0 0 1 2.637-.45 20.105 20.105 0 0 1 4.037.084 12.528 12.528 0 0 1 6.064 2.563 14.778 14.778 0 0 1 3.415 3.834 16.466 16.466 0 0 1 2.084 4.804c.367 1.646-.192 2.538-1.781 3.131-1.301.485-2.675.689-3.973 1.182a2.507 2.507 0 0 1-3.276-1.447 19.9 19.9 0 0 0-1.267-2.604 4.355 4.355 0 0 0-2.989-2.255 2.236 2.236 0 0 0-.845-.012 17.915 17.915 0 0 1-2.196.742.775.775 0 0 0-.473.409 16.958 16.958 0 0 0-.805 1.75.773.773 0 0 0 .187.895 1.05 1.05 0 0 1 .369 1.066 2.569 2.569 0 0 0 .654 2.268 16.051 16.051 0 0 0 3.234 3.124l5.752 4.501a30.645 30.645 0 0 1 4.311 4.031 14.769 14.769 0 0 1 3.639 7.878 20.134 20.134 0 0 1 .206 3.1 28.676 28.676 0 0 1-.42 3.054z" fill="#7e7f7f"/></g><path d="M48.959 93.716l.948 5.37-39.647 32.336-4.334-4.687 43.033-33.019zm8.023-5.968a35.599 35.599 0 0 1 1.004 5.22L152.239 21.6l-8.388-10.091-86.809 75.778-.156.257a1.597 1.597 0 0 1 .096.204z" fill="#f79b69"/><g class="A" fill="#3c4e55"><path d="M70.355 60.229a11.255 11.255 0 0 1-1.318.675 3.884 3.884 0 0 1-1.25.227l-4.935.014a7.54 7.54 0 0 1-1.178-.092 2.873 2.873 0 0 1-2.604-2.206 17.494 17.494 0 0 1-.646-3.561 1.912 1.912 0 0 0-.174-.492 6.245 6.245 0 0 1-.269-.813l-.736-3.888-1.004-4.382-.698-3.029q-.84-3.882-1.659-7.769l-.848-4.201-1.86-8.492-.961-4.293-.869-4.193a2.376 2.376 0 0 1 .909-2.383 1.214 1.214 0 0 1 .666-.301l5.256-.132a2.917 2.917 0 0 1 2.804 2.132 6.372 6.372 0 0 1 .209.83l1.516 7.358.79 4.11.321 1.579.798 4.313 1.169 5.233a2.686 2.686 0 0 0 .383.879.783.783 0 0 0 1.285.073 2.576 2.576 0 0 0 .638-1.567c.193-1.774.548-3.516.907-5.259a43.702 43.702 0 0 0 .888-4.85c.199-2.218.814-4.354 1.077-6.557.216-1.807.605-3.595.941-5.386a3.206 3.206 0 0 1 3.4-2.919l3.868-.02a2.423 2.423 0 0 1 2.372 2.972l-1.451 7.678c.157 1.243-.512 2.326-.682 3.511l-.868 4.639c-.901 4.045-1.532 8.141-2.343 12.202l-1.638 8.19-1.176 6.429c-.242 1.258-.544 2.505-.82 3.757l-.21-.017z"/><path d="M98.192 33.391q0 4.938 0 9.874-.004 7.296-.02 14.591a4.956 4.956 0 0 1-.196 1.48 2.06 2.06 0 0 1-1.904 1.631l-4.073.096a9.264 9.264 0 0 1-1.385-.156 2.086 2.086 0 0 1-1.866-1.677 7.063 7.063 0 0 1-.208-1.59l.078-3.326-.033-4.483.05-5.657-.025-2.892-.024-7.396q-.016-4.509-.037-9.018l.009-2.36a2.478 2.478 0 0 0-2.67-2.667c-1.322.058-2.651-.037-3.974.019a2.621 2.621 0 0 1-2.587-2.377q-.025-2.142.044-4.284a2.032 2.032 0 0 1 1.596-2.032 6.554 6.554 0 0 1 1.674-.302l8.162-.028q5.366-.001 10.731.008l3.321.027a2.436 2.436 0 0 1 2.631 2.704l.049 2.459a13.673 13.673 0 0 1-.397 2.524 1.572 1.572 0 0 1-1.126 1.066 4.64 4.64 0 0 1-1.153.221c-.893.028-1.787-.003-2.681-.001a14.951 14.951 0 0 0-1.595.036c-1.718.188-2.378.927-2.4 2.678l-.012 4.608q-.001 3.113 0 6.224z"/></g></svg>