<svg id="Layer_1" data-name="Layer 1" xmlns="http://www.w3.org/2000/svg" viewBox="0 0 162.57693 134.18213"><defs><style>.cls-1{isolation:isolate;}.cls-2{fill:#7e7f7f;}.cls-3{fill:#f79b69;}.cls-4{fill:#3c4e55;}</style></defs><g class="cls-1"><g class="cls-1"><path class="cls-2" d="M19.6499,90.70312c.23047-.57324.47217-1.166.70362-1.76171a.83024.83024,0,0,0,.09179-.416,11.9662,11.9662,0,0,1,.043-2.43848c.0127-2.53515-.01172-5.07031-.03174-7.60546-.00634-.82032-.09619-1.64356-.05029-2.46a6.12726,6.12726,0,0,1,.2876-2.73339c.05761-.1084-.002-.27735-.00489-.41895a1.50347,1.50347,0,0,1,1.08252-1.63965,4.43766,4.43766,0,0,1,1.35694-.2959c1.39551-.03222,2.79346-.02343,4.189.01758a2.4819,2.4819,0,0,1,1.78223.623,2.32324,2.32324,0,0,1,.73437,1.28027,8.57112,8.57112,0,0,1,.13623,2.34668,20.85127,20.85127,0,0,0-.00439,2.35059c.01856,4.07226.03076,8.14453.06055,12.21679.00537.7129.1123,1.42579.124,2.13868.0127.74609-.03662,1.49316-.05078,2.24023-.00977.51074-.32715,1.05078.145,1.52344a.31491.31491,0,0,1,.02734.29,6.20421,6.20421,0,0,0-.26855,2.95019c-.06592,2.89356.0039,5.791.01416,8.68653.00928,2.61035.0166,5.22168.00879,7.832a1.85556,1.85556,0,0,0,.35888,1.38281c-.14111.6875-.30127,1.26074-.36963,1.84473a2.56636,2.56636,0,0,1-1.94042,2.30566,2.3205,2.3205,0,0,1-.62989.12988c-1.76806-.03222-3.54.31153-5.30371-.06445a2.49182,2.49182,0,0,1-1.59961-1.9707c-.0625-.9502-.07861-1.90528-.08887-2.85938q-.04174-4.01367-.05957-8.02832c-.0083-1.86035-.00244-3.72168.00782-5.582a2.6315,2.6315,0,0,0-.69971-1.96191,2.70926,2.70926,0,0,0-1.97705-.67774c-1.106-.06347-2.21826-.03222-3.32715-.02832a2.40609,2.40609,0,0,0-2.42627,2.34766q-.02343,3.21533.00781,6.43066a2.26419,2.26419,0,0,0,.23536,1.01465,1.14945,1.14945,0,0,1,.06591.92676,12.23289,12.23289,0,0,0-.3125,3.91211c.03418.85254-.042,1.709-.04687,2.56445-.00195.46387.09961.93262.05371,1.38965a2.8412,2.8412,0,0,1-1.7583,2.49316,2.17463,2.17463,0,0,1-.93164.16114c-1.396.00586-2.792.0039-4.1875-.03321a2.599,2.599,0,0,1-2.7251-2.90039c.03369-1.39258.10059-2.78515.09668-4.17773-.00439-1.53418-.09766-3.06836-.10693-4.60352-.01075-1.8916.03808-3.78418.03662-5.67578-.001-1.60644-.05664-3.21289-.04834-4.82031.00586-1.10156.10888-2.20215.11572-3.30469.00635-.99805-.08252-1.99707-.08789-2.99609-.0127-2.43262-.08691-4.86914.02637-7.29688.10351-2.21777-.1753-4.41992-.07813-6.63379.07471-1.71289.01953-3.43066.02735-5.14648a2.81987,2.81987,0,0,1,2.749-2.71c1.39648.01269,2.79492.09472,4.18848.043a2.63542,2.63542,0,0,1,2.57128,2.14453c.02735.35644.0918.71191.0918,1.06738.0044,3.07617-.00537,6.15332-.00439,9.22949q.00074,2.51954.02392,5.04a2.35715,2.35715,0,0,0,2.46143,2.52344c1.53564.0293,3.07275-.0498,4.60937-.09082A4.0458,4.0458,0,0,0,19.6499,90.70312Z"/><path class="cls-2" d="M33.7666,113.77246c.20508-.05957.43164-.126.78906-.23047a1.48417,1.48417,0,0,1-.5664-1.93652,45.73294,45.73294,0,0,0,.95263-5.14258c.186-.94629.40772-1.88574.60791-2.83008.17676-.833.35743-1.666.51563-2.50293.28516-1.50976.5498-3.02343.83154-4.53515.4585-2.459.91651-4.91895,1.39063-7.376.22168-1.15039.49511-2.291.71679-3.44238.12061-.627.16211-1.26953.27637-1.89942a30.59629,30.59629,0,0,1,.67676-3.35937c.43408-1.44727.46338-2.957.8291-4.41113.23486-.93262.32617-1.89942.52588-2.8418a3.21693,3.21693,0,0,1,2.60059-2.377c.709.002,1.41357-.041,2.12988.00488,1.104.07031,2.21582.01465,3.32422.01172.60888-.001,1.21826-.02246,1.82568.00195a2.91287,2.91287,0,0,1,3.02051,2.50781c.35449,1.64258.64453,3.29981.98144,4.94629.60938,2.97656,1.24073,5.94824,1.8462,8.92578.435,2.1377.833,4.28223,1.26562,6.4209.418,2.06543.86426,4.125,1.28857,6.18945.252,1.22559.48243,2.45508.72754,3.68164q1.03859,5.20459,2.082,10.40821c.2749,1.36523.53125,2.73633.85839,4.08984a3.48526,3.48526,0,0,1-.4292,2.37207c-.06543.14063-.24707.23047-.38134.33594-.21.165-.4253.32227-.71.53711a9.26948,9.26948,0,0,0-2.86524-.19727,19.82452,19.82452,0,0,1-2.99121-.15332,2.48859,2.48859,0,0,1-2.189-2.07031c-.29248-1.40039-.55957-2.80664-.84082-4.21-.126-.62988-.23829-1.26367-.39454-1.88672a2.79845,2.79845,0,0,0-2.64062-2.12891c-1.35889-.03515-2.72022-.0205-4.08008.00782a2.6027,2.6027,0,0,0-2.57617,2.28027c-.27832,1.61914-.59375,3.23145-.89356,4.84668-.01269.07129-.02587.1416-.03857.21191-.37988,2.10254-1.43945,2.97461-3.62451,3.06446a32.89868,32.89868,0,0,1-3.96045-.10449,2.10332,2.10332,0,0,1-1.95459-2.374A21.56426,21.56426,0,0,1,33.7666,113.77246ZM47.772,101.62793a1.962,1.962,0,0,0,2.13477-2.543c-.33643-1.78613-.64063-3.57812-.94727-5.37012a3.13145,3.13145,0,0,0-.59521-1.58007.80641.80641,0,0,0-1.41065.125,3.00259,3.00259,0,0,0-.30615.90625c-.36426,1.96093-.68506,3.92968-1.07226,5.88574A2.09577,2.09577,0,0,0,47.772,101.62793Z"/><path class="cls-2" d="M93.61719,86.53711c-.29981.52832-.66016,1.165-1.01074,1.78418a1.76409,1.76409,0,0,0-.56055.08691,4.59987,4.59987,0,0,1-2.71973.29688,8.88539,8.88539,0,0,0-1.8164.04687,3.67973,3.67973,0,0,1-2.35547-.39257,2.38084,2.38084,0,0,1-1.41407-1.99805c-.07519-.89063-.1455-1.78516-.29394-2.665A5.81463,5.81463,0,0,0,81.979,80.64746a3.86283,3.86283,0,0,0-6.30127.99219,9.33252,9.33252,0,0,0-.82421,4.17187c-.063,2.6084-.01368,5.21973-.01758,7.83008-.00293,1.9336-.02393,3.86621-.021,5.79981.00195,1.39257.02881,2.78613.04785,4.17968.01172.89063.03125,1.78125.043,2.67286a10.0801,10.0801,0,0,0,.70557,3.77148A3.93167,3.93167,0,0,0,78.98,112.5498a3.98181,3.98181,0,0,0,3.812-2.249,12.08184,12.08184,0,0,0,.98633-4.25781c.07227-.60254.07715-1.21289.10449-1.82031a1.61074,1.61074,0,0,1,.68653-1.27637,3.27333,3.27333,0,0,1,2.23339-.877c1.53321.09961,3.07422.09082,4.60743.19531a2.05722,2.05722,0,0,1,1.93359,1.60449,4.8075,4.8075,0,0,1,.16992,1.58594c-.09668,1.42676-.1875,2.86133-.42383,4.26855a15.30908,15.30908,0,0,1-2.31347,6.49512,11.53842,11.53842,0,0,1-3.63282,3.53809A15.73726,15.73726,0,0,1,75.22363,121.29a11.61819,11.61819,0,0,1-7.85156-6.00293,16.2155,16.2155,0,0,1-1.75342-5.81445c-.207-1.68164-.20117-3.35352-.25488-5.03125-.03955-1.24805-.10645-2.49512-.13086-3.74317-.01025-.53222.08057-1.0664.08447-1.59961.00489-.63867-.04931-1.27636-.05127-1.915-.00146-.67578.0293-1.35156.04493-2.02734.00878-.39258.02636-.78613.02-1.17871-.01562-.96289-.04492-1.92578-.06445-2.88867-.00488-.24512.01123-.49024.00928-.73535-.00488-.71485-.02393-1.42872-.01807-2.14258a10.43479,10.43479,0,0,0,.05567-1.28321,19.57138,19.57138,0,0,1,.38232-5.53906,10.4638,10.4638,0,0,1,1.2207-3.84375c.21924-.35742.21436-.94433.50635-1.14941.85938-.60352,1.08447-1.6377,1.79541-2.34278a8.873,8.873,0,0,1,3.04736-2.29394c.8711-.32617,1.71534-.73438,2.60352-.999a15.77042,15.77042,0,0,1,5.73193-.46875,13.23265,13.23265,0,0,1,2.1294.26171A12.3269,12.3269,0,0,1,91.7998,78.167a20.47631,20.47631,0,0,1,1.45215,6.78516A10.1358,10.1358,0,0,0,93.61719,86.53711Z"/></g><g class="cls-1"><path class="cls-2" d="M106.61426,112.24316q0,2.08594,0,4.17383c-.002.78321.04,1.57129-.02637,2.34863a2.25384,2.25384,0,0,1-2.4082,2.32813c-1.62891.11328-3.25684.02051-4.88379-.01953a2.28841,2.28841,0,0,1-1.96387-1.5957,5.03272,5.03272,0,0,1-.20019-2.19825,14.47465,14.47465,0,0,0-.04493-1.99414c-.01953-2.3916-.07324-4.78222-.10156-7.17383-.00683-.60546.04492-1.21093.04785-1.8164.00684-1.57031-.00976-3.14063.002-4.71094.00879-1.14355.06738-2.28613.0664-3.42969-.001-2.50293-.03613-5.00586-.03711-7.50879-.001-1.67675.04785-3.35449.044-5.03125-.002-1.03125-.07031-2.06347-.0918-3.0957-.00879-.42676.04-.85547.044-1.2832.02343-2.39844.03906-4.79688.06152-7.19434a7.51087,7.51087,0,0,1,.06055-1.06933,2.05386,2.05386,0,0,1,1.67383-1.86036,3.372,3.372,0,0,1,.41992-.09375,21.13206,21.13206,0,0,1,5.457.07618,2.11022,2.11022,0,0,1,1.86035,2.167c.05566,1.57031.03223,3.14258.0459,4.71387q.01464,1.76952.03613,3.53906c.00586.53515-.01367,1.07324.03125,1.60547.0459.54492.16113,1.1084.80664,1.2539.6416.14551.99414-.29492,1.27051-.77832.6377-1.11718,1.26855-2.23925,1.88379-3.37011.71582-1.31543,1.41015-2.64356,2.11816-3.96387q.9082-1.69482,1.8291-3.38281A3.54565,3.54565,0,0,1,116.502,71.2041a5.65629,5.65629,0,0,1,1.78028-.28906c1.35937-.03613,2.71972-.00488,4.08007.00391a7.60075,7.60075,0,0,1,.85743.03613,1.85393,1.85393,0,0,1,1.42578,2.5918c-.2793.53808-.59473,1.05664-.89551,1.583q-1.14111,1.99952-2.28613,3.99707c-.08887.15528-.19336.30078-.2959.44825a46.91521,46.91521,0,0,0-2.63867,4.51464c-.7461,1.37207-1.59766,2.68653-2.37891,4.04a2.29688,2.29688,0,0,0-.28711.90821,5.74809,5.74809,0,0,0,.31738,2.73339c1.02149,2.59473,1.95508,5.22461,2.93848,7.834.56738,1.50391,1.17969,2.99121,1.749,4.49512.64551,1.70507,1.26075,3.42187,1.89942,5.1289.32519.87012.67969,1.72852,1.00683,2.59766q1.13379,3.01171,2.25,6.02832a5.94749,5.94749,0,0,1,.28614,1.03418,1.68536,1.68536,0,0,1-1.23535,2.07422,1.83829,1.83829,0,0,1-.51856.13379,4.7708,4.7708,0,0,0-1.66211.36035,1.284,1.284,0,0,1-.93164.00781,2.78826,2.78826,0,0,0-1.33594-.1582,6.20961,6.20961,0,0,1-3.29492-.74707,2.66408,2.66408,0,0,1-1.13672-1.38965q-1.01514-2.88427-2.042-5.76563c-.68652-1.917-1.39062-3.8291-2.08008-5.74511-.41113-1.14356-.80664-2.293-1.21582-3.4375-.19336-.53907-.373-1.08594-.61035-1.60547a1.36694,1.36694,0,0,0-2.42383-.19531,7.21339,7.21339,0,0,0-1.07226,2.76074c-.18653,2.00195-.05664,3.99609-.08692,5.99218-.00586.35547-.001.71192-.001,1.06836A.41.41,0,0,0,106.61426,112.24316Z"/></g><g class="cls-1"><path class="cls-2" d="M155.67578,112.43457c.17383.125.33106.23828.583.41992a2.53553,2.53553,0,0,0-1.53418,1.88184,2.98269,2.98269,0,0,1-1.00391,1.6123,2.90989,2.90989,0,0,0-.5957.75,7.13833,7.13833,0,0,1-2.69727,2.38965c-.6582.35352-1.29882.74024-1.958,1.09277a3.05519,3.05519,0,0,1-.79688.30762c-1.46777.31543-2.9375.625-4.41113.90723a4.20054,4.20054,0,0,1-2.02149.00293,1.658,1.658,0,0,0-.53222-.06348,13.16226,13.16226,0,0,1-6.69434-1.66308,12.37166,12.37166,0,0,1-4.57519-4.13184,18.59763,18.59763,0,0,1-2.85157-6.89453,3.1119,3.1119,0,0,1,.03711-1.58008,2.50825,2.50825,0,0,1,1.80762-1.64648c1.01465-.34082,2.05176-.61231,3.0791-.91211.30762-.08985.62207-.16016.92481-.26368a2.46977,2.46977,0,0,1,3.4082,1.93946,11.23627,11.23627,0,0,0,1.14648,2.99414,5.88814,5.88814,0,0,0,2.96094,2.69531,5.53721,5.53721,0,0,1,1.08008.66211c.60254.45313.81641.42481,1.4209-.15625a1.70876,1.70876,0,0,1,.7334-.374,4.27768,4.27768,0,0,0,2.96582-4.31348,7.271,7.271,0,0,0-2.48145-4.7373c-1.08789-1.084-2.2832-2.06446-3.47461-3.03809-1.91308-1.5625-3.90429-3.03125-5.7832-4.63379a21.843,21.843,0,0,1-4.35352-4.72363,14.6195,14.6195,0,0,1-2.26171-8.78613,13.7976,13.7976,0,0,1,2.62109-7.13282,5.333,5.333,0,0,1,1.33105-1.3623c.65332-.46192,1.124-1.21875,2.042-1.30274.19921-.01855.36132-.32617.56347-.46777a8.48236,8.48236,0,0,1,2.75684-1.11816,12.45852,12.45852,0,0,1,2.63672-.4502,20.10475,20.10475,0,0,1,4.03711.084,12.52759,12.52759,0,0,1,6.06445,2.5625,14.77815,14.77815,0,0,1,3.415,3.834,16.466,16.466,0,0,1,2.084,4.80371c.36719,1.64551-.19238,2.53809-1.78125,3.13086-1.30078.48535-2.6748.68945-3.97265,1.18164a2.50718,2.50718,0,0,1-3.27637-1.44727,19.89974,19.89974,0,0,0-1.2666-2.60351,4.3546,4.3546,0,0,0-2.98926-2.25488,2.23641,2.23641,0,0,0-.84473-.01172,17.915,17.915,0,0,1-2.19629.74219.77529.77529,0,0,0-.47265.40917,16.95841,16.95841,0,0,0-.80469,1.75.77255.77255,0,0,0,.18652.89454,1.0497,1.0497,0,0,1,.36914,1.0664,2.56892,2.56892,0,0,0,.6543,2.26758,16.05066,16.05066,0,0,0,3.23438,3.124c1.90625,1.51368,3.84277,2.98926,5.75195,4.501a30.64476,30.64476,0,0,1,4.31055,4.03125,14.76893,14.76893,0,0,1,3.63867,7.87793,20.134,20.134,0,0,1,.20605,3.09961A28.67563,28.67563,0,0,1,155.67578,112.43457Z"/></g></g><polygon class="cls-3" points="48.959 93.716 49.907 99.086 10.26 131.422 5.926 126.735 48.959 93.716"/><path class="cls-3" d="M56.98215,87.74783a35.59921,35.59921,0,0,1,1.00428,5.2201l94.25268-71.3678-8.38817-10.09132L57.04144,87.287l-.15558.2572A1.59709,1.59709,0,0,1,56.98215,87.74783Z"/><g class="cls-1"><path class="cls-4" d="M70.35547,60.22852a11.25451,11.25451,0,0,1-1.31787.6748,3.88421,3.88421,0,0,1-1.24951.22656c-1.64454.02735-3.28955.02051-4.93457.01367a7.53983,7.53983,0,0,1-1.17774-.09179,2.8733,2.8733,0,0,1-2.60449-2.20606,17.494,17.494,0,0,1-.64551-3.56054,1.91156,1.91156,0,0,0-.17432-.49219,6.24469,6.24469,0,0,1-.269-.81348c-.2539-1.29492-.46435-2.59765-.73633-3.88769C56.937,48.626,56.5791,47.16992,56.2417,45.71c-.23291-1.00976-.479-2.0166-.69824-3.0293q-.84009-3.88184-1.65918-7.76855c-.29444-1.39844-.54737-2.80469-.84766-4.20117-.60937-2.833-1.23633-5.66309-1.86035-8.49219-.31592-1.43262-.65088-2.86035-.96094-4.293-.30176-1.39551-.59619-2.793-.86914-4.19336a2.37559,2.37559,0,0,1,.90918-2.38281,1.21376,1.21376,0,0,1,.66553-.30078c1.75146-.07031,3.50635-.17676,5.25586-.13184a2.917,2.917,0,0,1,2.80371,2.13184,6.37185,6.37185,0,0,1,.20947.83008c.5083,2.45214,1.01953,4.90429,1.51563,7.35839.27685,1.36817.5249,2.74122.79,4.11036.102.52734.22216,1.05078.3208,1.5791.26757,1.4375.50244,2.88086.79834,4.3125.36181,1.75.76318,3.49219,1.16894,5.2334a2.68608,2.68608,0,0,0,.3833.8789.783.783,0,0,0,1.28516.07324,2.57647,2.57647,0,0,0,.63769-1.56738c.19287-1.77441.54834-3.51562.90723-5.25879a43.70211,43.70211,0,0,0,.8877-4.84961c.19921-2.21777.814-4.35351,1.07714-6.55664.21582-1.80664.6045-3.59472.94092-5.38574a3.20571,3.20571,0,0,1,3.3999-2.91894c1.28907-.02832,2.583.05957,3.86768-.01954a2.4225,2.4225,0,0,1,2.37207,2.97168c-.50537,2.55567-.96973,5.11817-1.45117,7.67774.15723,1.24316-.51221,2.32617-.68164,3.51074-.22315,1.55566-.52637,3.10352-.86768,4.63867-.90088,4.04492-1.53222,8.14063-2.34277,12.20215-.54492,2.73047-1.11084,5.457-1.63818,8.19043-.4126,2.13867-.76514,4.28906-1.17579,6.42871-.2417,1.25781-.54443,2.50488-.81982,3.75684C70.49609,60.23926,70.42529,60.23438,70.35547,60.22852Z"/><path class="cls-4" d="M98.19238,33.39062q0,4.938,0,9.874-.0044,7.29639-.01953,14.59082a4.95574,4.95574,0,0,1-.19629,1.48047,2.05989,2.05989,0,0,1-1.90429,1.63086c-1.35645.0625-2.71485.08886-4.07325.0957a9.26374,9.26374,0,0,1-1.38476-.15625,2.086,2.086,0,0,1-1.86621-1.67676,7.063,7.063,0,0,1-.208-1.58984c-.00684-1.1084.07324-2.2168.07812-3.32617.00684-1.49414-.03711-2.98926-.0332-4.4834.00391-1.88574.04-3.77149.04981-5.65723.00488-.96387-.02149-1.92773-.02539-2.8916-.01075-2.46582-.01465-4.93066-.02442-7.39551q-.01611-4.50879-.03711-9.01758c-.00293-.78711-.0625-1.58007.00879-2.36035a2.47761,2.47761,0,0,0-2.66992-2.667c-1.32227.05762-2.65137-.03711-3.97363.01856a2.62126,2.62126,0,0,1-2.58692-2.377q-.0249-2.1416.04444-4.28418a2.03225,2.03225,0,0,1,1.5957-2.03222,6.55448,6.55448,0,0,1,1.67431-.30176c2.72071-.03614,5.44141-.02735,8.16211-.02832q5.36572-.00147,10.73145.00781c1.10742.002,2.21484,0,3.32129.02734a2.43613,2.43613,0,0,1,2.63086,2.70411c-.00195.82031.10254,1.64453.04883,2.459a13.673,13.673,0,0,1-.39746,2.52441,1.57224,1.57224,0,0,1-1.126,1.06641,4.64014,4.64014,0,0,1-1.15332.2207c-.89258.02832-1.78711-.00293-2.68067-.001a14.95114,14.95114,0,0,0-1.59472.03613c-1.71778.18848-2.37793.92676-2.40039,2.67773-.01953,1.53614-.01074,3.07227-.01172,4.6084q-.00147,3.1128,0,6.22363Z"/></g></svg>