<svg id="Layer_1" data-name="Layer 1" xmlns="http://www.w3.org/2000/svg" viewBox="0 0 266.16 407.05"><defs><style>.cls-1{fill:#181b23;}.cls-2{fill:#454c5b;}.cls-3{fill:#99a289;}.cls-4{fill:#775943;}.cls-5{fill:#6e8456;}.cls-6{fill:#a38361;}.cls-7{fill:#cdad93;}.cls-8{fill:#7c624a;}.cls-9{fill:#2e3522;}.cls-10{fill:#4e5b3d;}.cls-11{fill:#3d3d3d;}.cls-12{fill:#242833;}.cls-13{fill:#3a3734;}.cls-14{fill:#c09b6f;}.cls-15{fill:#141923;}.cls-16{fill:#4d5464;}.cls-17{fill:#a0734b;}.cls-18{fill:#191c12;}.cls-19{fill:#634225;}.cls-20{fill:#f1eb52;}.cls-21{fill:#e22426;}.cls-22{fill:#171615;}.cls-23{fill:#353d28;}</style></defs><polygon class="cls-1" points="256.11 101.33 258.85 127.51 256.11 141.3 251.28 140.72 249.18 127.97 250.23 107.33 256.11 101.33"/><path class="cls-1" d="M252.51,127.24s-7.32-3.93-11.24,13.48-14.59,52.5-14.59,52.5,25.83-45.2,25.83-55.59Z"/><polygon class="cls-1" points="240.15 211.31 237.35 214.52 241.84 225.79 247.35 145.21 243.89 154.76 240.15 216.66 240.15 211.31"/><path class="cls-1" d="M231.28,264.82l17.3,4.42,7.08-5.76,3.87-3.15,1.41,4.45-5.62,3,2.55-3.91-6.74,5.37,4.11,1.46,10.92,19s-10.45,37.77-15.76,42.45a14,14,0,0,1-11.32,3.43l-.7-40.73,8.12-16.08-13.27-.93Z"/><polygon class="cls-1" points="14.2 303.76 0 310.64 15.67 326.64 14.2 303.76"/><path class="cls-1" d="M176.08,34.59,175.86,37v.08c-2.5-1.51-13.07-7.49-24.31-7.94-12.68-.5-18.12,13.27-18.28,13.69v0l-.88-5.22c3.27-7.34,8.94-15.63,18-16.47C161.07,20.15,170.63,28.5,176.08,34.59Z"/><path class="cls-2" d="M182.1,42.17h-6.7l.46-5.07.53.33-.53-.41.22-2.43C179.11,38,182.1,42.17,182.1,42.17Z"/><path class="cls-3" d="M219.75,71.21a0,0,0,0,1,0,0l-29.23,8.43-23.84,6.88L85.36,62.19S159.23,30,217.45,45.43l21.29.73S211.08,59.07,219.75,71.21Z"/><path class="cls-4" d="M8.45,0V0l0,0Z"/><path class="cls-3" d="M166.69,202.15H146.31l-129.18-21-2.93-.48s12.83-35.1,19.63-37l130.47,7.22,1.83,39.33Z"/><path class="cls-5" d="M199.18,62.19v0c-.07.1-.37.53-.85,1.3l-.2.34c-.53.86-1.23,2.05-2,3.58-.12.22-.24.44-.36.68a114.77,114.77,0,0,0-5.19,11.54C190,81,189.48,82.41,189,83.91c-.18.49-.35,1-.53,1.51s-.43,1.31-.66,2c-.14.45-.29.91-.43,1.38a172.16,172.16,0,0,0-4.73,18.82c-.13.64-.25,1.3-.37,2s-.25,1.35-.37,2-.2,1.2-.29,1.8c-.35,2.13-.68,4.33-1,6.6-.18,1.41-.36,2.85-.51,4.31-.29,2.65-.54,5.38-.73,8.21-.06.78-.11,1.58-.16,2.38s-.11,1.84-.15,2.78-.08,1.68-.11,2.53c0,.53,0,1.06,0,1.61,0,.72-.05,1.46-.06,2.19s0,1.54,0,2.33c0,1,0,2,0,3,0,.78,0,1.56,0,2.35l-14.49-.8L33.83,143.64s6.23-76.35,51.53-81.45S186.15,56.53,199.18,62.19Z"/><path class="cls-6" d="M166.69,218.59,155,400.79C114.32,395.23,10.7,330.2,10.7,330.2l3.5-134.56s46.92,13.21,96.3,21.9c28,4.93,42.31,4.61,49.46,3.4,5.2-.87,6.6-2.22,6.72-2.34Z"/><polygon class="cls-7" points="145.49 235.72 14.03 202.15 15.67 195.64 166.69 218.59 145.49 235.72"/><path class="cls-8" d="M166.69,202.15v16.44h0L160,220.94h0l-3.74-18.79h10.47Z"/><path class="cls-9" d="M235.68,270.05h0c-1.11-.24-36.89-8.22-53.17-23.81V222.42l0,0c1.26,1,45.63,35.69,53.17,28.83C235.68,251.27,243.33,264.83,235.68,270.05Z"/><path class="cls-9" d="M236.72,381c-7.3,22.95-57.37,26.08-57.37,26.08l-12.66-13.91s12.66-18.43,12-61.55,3.83-85.36,3.83-85.36c16.28,15.59,52.06,23.57,53.17,23.81h0s.34,9,8.34,28.16S244,358,236.72,381Z"/><path class="cls-10" d="M243.89,102.26s0,.69-.12,1.95c-.72,11.4-4.48,69.48-6.82,81.78-2.6,13.65-1.27,65.28-1.27,65.28-7.54,6.86-51.91-27.84-53.17-28.83l0,0-1.68-32.23-2-38.53c0-.79,0-1.57,0-2.35,0-1,0-2,0-3,0-.79,0-1.57,0-2.33s0-1.47.06-2.19c0-.55,0-1.08,0-1.61,0-.85.07-1.69.11-2.53s.09-1.86.15-2.78.1-1.59.16-2.38c.19-2.83.44-5.56.73-8.21.16-1.46.33-2.9.51-4.31.29-2.27.62-4.47,1-6.6.09-.6.19-1.21.29-1.8s.24-1.36.37-2,.24-1.32.37-2a172.16,172.16,0,0,1,4.73-18.82c.14-.47.29-.93.43-1.38.23-.67.44-1.33.66-2s.35-1,.53-1.51c.52-1.5,1-2.92,1.57-4.26a114.77,114.77,0,0,1,5.19-11.54c.12-.24.24-.46.36-.68.81-1.53,1.51-2.72,2-3.58l.2-.34c.48-.77.78-1.2.85-1.3v0a67.83,67.83,0,0,1,20.57,9,0,0,0,0,1,0,0,57.34,57.34,0,0,1,23.15,28.22C243.26,100.36,243.59,101.3,243.89,102.26Z"/><path class="cls-9" d="M262.22,95.09l-12,12.24-6.34-2.42-.12-.7c.08-1.26.12-1.95.12-1.95-.3-1-.63-1.9-1-2.82a57.34,57.34,0,0,0-23.15-28.22,0,0,0,0,0,0,0c-8.67-12.14,19-25,19-25a94.81,94.81,0,0,1,10.85,2.77c6.18,2,4.8,9.23,4.8,9.23l2.45,26.9Z"/><polygon class="cls-11" points="68.01 141.3 67.26 145.71 81.06 146.25 89.44 108.76 76.11 121.68 68.01 141.3"/><path class="cls-2" d="M134.21,48.42l-5.61.64a59.94,59.94,0,0,1,3.78-11.46l.88,5.22v0h0Z"/><path class="cls-12" d="M115.14,51.18S133.49,41,144,45c0,0-17.19,10.6-18,13.16Z"/><path class="cls-13" d="M160,220.94c-7.15,1.21-21.46,1.53-49.46-3.4-49.38-8.69-96.3-21.9-96.3-21.9s-7.27-11.46,0-15l2.93.48,129.18,21h9.91Z"/><path class="cls-14" d="M17.13,181.11l-2.93-.48C15.82,179.84,16.72,180.15,17.13,181.11Z"/><polygon class="cls-9" points="180.8 190.19 166.13 190.19 164.3 150.86 178.79 151.66 180.8 190.19"/><path class="cls-1" d="M72.1,140.71h0l-7.72.58S53.8,138.42,54.73,128l11.12.88a39.29,39.29,0,0,0,1.28,5.68,18.47,18.47,0,0,0,1.46,3.55C69.49,139.68,70.65,140.82,72.1,140.71Z"/><path class="cls-12" d="M114.36,67.14a69.35,69.35,0,0,1-12,15.43c-7.92,7.71-14.42,34.1-24,51.56-2.56,4.67-4.64,6.47-6.33,6.58-1.45.11-2.61-1-3.51-2.63a18.47,18.47,0,0,1-1.46-3.55C71.48,123.78,79.76,103.18,82.7,95c4.06-11.37,16.24-31.06,16.24-31.06Z"/><polygon class="cls-15" points="94.66 66.95 94.66 59.73 113.81 62.13 111.59 68.63 110.52 71.77 94.66 66.95"/><polygon class="cls-15" points="118.85 61.86 122.8 60.67 123.19 56.03 117.62 56.72 118.85 61.86"/><polygon class="cls-15" points="110.52 51.96 114.37 50.18 127.6 53.09 126.95 60.73 122.8 60.67 110.52 51.96"/><path class="cls-16" d="M94.66,59.73,105.38,56l4.27-.44.87-3.61s13.35,2.41,13.35,3.88l-6,1.7,1.2,5.25-8.54,9,3.29-9.63Z"/><path class="cls-13" d="M182.48,246.23s-4.52,42.25-3.83,85.36-12,61.55-12,61.55l12.66,13.91L155,400.79l11.68-182.2V202.15l-.56-12H180.8l1.68,32.23Z"/><polygon class="cls-17" points="166.13 190.19 180.8 190.19 182.48 222.42 165.12 243.14 166.69 214.52 166.13 190.19"/><path class="cls-18" d="M186.64,249.74l.91-6.6,3.78,9.84,2.79-4.92,3.38,8.43,3.46-6.67,3.38,9.94,4-4.62v4.62l4.32,3.36,4.09-5.35,2.08,7.52,3.81,1.22v-5.05l4.28,6.32,2.2,8.93,6.83,29.72-13.15-37.61-3.81-1.2-1.86,11.72,1.55,27.09,1.35,4.21-5.18-5.28-3.5-18.45V270.05l1.94,8.67-.83-13.58-4.56-3.84-2,11.09.11,16.9-2.18-28.09-2.49,10.26-3.11-11.92.1,19.8s1.35,16.79,1.35,17.83S198,306.5,198,306.5l-6.63-50.38-3.73,8,2.49,36.49-7.26-30.54,2.18-19.32-2.61-4.5Z"/><polygon class="cls-18" points="235.65 270.04 226.91 267.78 227.63 270.7 235.65 270.04"/><path class="cls-19" d="M19.62,206.6s3.46,3.13,14.46,4.71V221.7s-11.95-2.83-14.46-5Z"/><polygon class="cls-20" points="21.93 211.02 21.93 215.92 28.06 218.11 21.93 211.02"/><polygon class="cls-21" points="25 211.54 31.39 218.89 31.39 212.59 25 211.54"/><path class="cls-22" d="M14.2,182.5v5.67l.33,1.68,1.14,5.79-.74-6.57s108.34,26,122.94,25.08l10.73.37,3.48,7.13,1.4-9-4-10.55-.5,9.16-11.28,1.23s-32.56-2.85-87.13-16.9l-34.86-7.77Z"/><polygon class="cls-22" points="182.48 222.42 165.12 243.14 182.48 232.78 182.48 222.42"/><polygon class="cls-22" points="165.12 388.36 162.97 379.61 177.56 235.72 173.63 238.06 160.81 384.51 165.12 388.36"/><polygon class="cls-23" points="211.34 232.78 207.02 172.9 209.18 132.01 218.07 96.23 223.05 86.53 216.85 111.18 211.34 143.64 209.97 178.13 211.34 232.78"/><polygon class="cls-8" points="155.01 400.79 135.96 382.29 145.49 235.72 166.69 218.59 155.01 400.79"/></svg>