<svg xmlns="http://www.w3.org/2000/svg" viewBox="0 0 266.16 407.05" xmlns:v="https://vecta.io/nano"><g fill="#181b23"><path d="M256.11 101.33l2.74 26.18-2.74 13.79-4.83-.58-2.1-12.75 1.05-20.64 5.88-6z"/><path d="M252.51,127.24s-7.32-3.93-11.24,13.48-14.59,52.5-14.59,52.5,25.83-45.2,25.83-55.59Z"/><path d="M240.15 211.31l-2.8 3.21 4.49 11.27 5.51-80.58-3.46 9.55-3.74 61.9v-5.35zm-8.87 53.51l17.3 4.42 7.08-5.76 3.87-3.15 1.41 4.45-5.62 3 2.55-3.91-6.74 5.37 4.11 1.46 10.92 19s-10.45 37.77-15.76 42.45a14 14 0 0 1-11.32 3.43l-.7-40.73 8.12-16.08-13.27-.93zM14.2 303.76L0 310.64l15.67 16-1.47-22.88zM176.08 34.59l-.22 2.41v.08c-2.5-1.51-13.07-7.49-24.31-7.94-12.68-.5-18.12 13.27-18.28 13.69h0l-.88-5.22c3.27-7.34 8.94-15.63 18-16.47 10.68-.99 20.24 7.36 25.69 13.45z"/></g><path d="M182.1 42.17h-6.7l.46-5.07.53.33-.53-.41.22-2.43c3.03 3.41 6.02 7.58 6.02 7.58z" fill="#454c5b"/><path d="M219.75 71.21a0 0 0 0 1 0 0l-29.23 8.43-23.84 6.88-81.32-24.33S159.23 30 217.45 45.43l21.29.73s-27.66 12.91-18.99 25.05z" fill="#99a289"/><path d="M8.45 0h0 0z" fill="#775943"/><path d="M166.69,202.15H146.31l-129.18-21-2.93-.48s12.83-35.1,19.63-37l130.47,7.22,1.83,39.33Z" fill="#99a289"/><path d="M199.18 62.19h0l-.85 1.3-.2.34-2 3.58-.36.68a114.77 114.77 0 0 0-5.19 11.54L189 83.91l-.53 1.51-.66 2-.43 1.38a172.16 172.16 0 0 0-4.73 18.82l-.37 2-.37 2-.29 1.8-1 6.6-.51 4.31-.73 8.21-.16 2.38-.15 2.78-.11 2.53v1.61l-.06 2.19v2.33 3 2.35l-14.49-.8-130.58-7.27s6.23-76.35 51.53-81.45 100.79-5.66 113.82 0z" fill="#6e8456"/><path d="M166.69,218.59,155,400.79C114.32,395.23,10.7,330.2,10.7,330.2l3.5-134.56s46.92,13.21,96.3,21.9c28,4.93,42.31,4.61,49.46,3.4,5.2-.87,6.6-2.22,6.72-2.34Z" fill="#a38361"/><path d="M145.49 235.72L14.03 202.15l1.64-6.51 151.02 22.95-21.2 17.13z" fill="#cdad93"/><path d="M166.69,202.15v16.44h0L160,220.94h0l-3.74-18.79h10.47Z" fill="#7c624a"/><g fill="#2e3522"><path d="M235.68 270.05h0c-1.11-.24-36.89-8.22-53.17-23.81v-23.82h0c1.26 1 45.63 35.69 53.17 28.83 0 .02 7.65 13.58 0 18.8z"/><path d="M236.72,381c-7.3,22.95-57.37,26.08-57.37,26.08l-12.66-13.91s12.66-18.43,12-61.55,3.83-85.36,3.83-85.36c16.28,15.59,52.06,23.57,53.17,23.81h0s.34,9,8.34,28.16S244,358,236.72,381Z"/></g><path d="M243.89 102.26s0 .69-.12 1.95c-.72 11.4-4.48 69.48-6.82 81.78-2.6 13.65-1.27 65.28-1.27 65.28-7.54 6.86-51.91-27.84-53.17-28.83h0l-1.68-32.23-2-38.53v-2.35-3V144c0-.76 0-1.47.06-2.19v-1.61c0-.85.07-1.69.11-2.53l.15-2.78.16-2.38c.19-2.83.44-5.56.73-8.21l.51-4.31c.29-2.27.62-4.47 1-6.6l.29-1.8a67.56 67.56 0 0 1 .37-2c.13-.64.24-1.32.37-2a172.16 172.16 0 0 1 4.73-18.82l.43-1.38.66-2c.22-.67.35-1 .53-1.51.52-1.5 1-2.92 1.57-4.26a114.77 114.77 0 0 1 5.19-11.54c.12-.24.24-.46.36-.68.81-1.53 1.51-2.72 2-3.58l.2-.34c.48-.77.78-1.2.85-1.3h0a67.83 67.83 0 0 1 20.57 9 0 0 0 0 1 0 0 57.34 57.34 0 0 1 23.15 28.22c.44.96.77 1.9 1.07 2.86z" fill="#4e5b3d"/><path d="M262.22 95.09l-12 12.24-6.34-2.42-.12-.7.12-1.95-1-2.82a57.34 57.34 0 0 0-23.15-28.22 0 0 0 0 0 0 0c-8.67-12.14 19-25 19-25a94.81 94.81 0 0 1 10.85 2.77c6.18 2 4.8 9.23 4.8 9.23l2.45 26.9z" fill="#2e3522"/><path d="M68.01 141.3l-.75 4.41 13.8.54 8.38-37.49-13.33 12.92-8.1 19.62z" fill="#3d3d3d"/><path d="M134.21,48.42l-5.61.64a59.94,59.94,0,0,1,3.78-11.46l.88,5.22v0h0Z" fill="#454c5b"/><path d="M115.14,51.18S133.49,41,144,45c0,0-17.19,10.6-18,13.16Z" fill="#242833"/><path d="M160,220.94c-7.15,1.21-21.46,1.53-49.46-3.4-49.38-8.69-96.3-21.9-96.3-21.9s-7.27-11.46,0-15l2.93.48,129.18,21h9.91Z" fill="#3a3734"/><path d="M17.13 181.11l-2.93-.48c1.62-.79 2.52-.48 2.93.48z" fill="#c09b6f"/><path d="M180.8 190.19h-14.67l-1.83-39.33 14.49.8 2.01 38.53z" fill="#2e3522"/><path d="M72.1 140.71h0l-7.72.58S53.8 138.42 54.73 128l11.12.88a39.29 39.29 0 0 0 1.28 5.68 18.47 18.47 0 0 0 1.46 3.55c.9 1.57 2.06 2.71 3.51 2.6z" fill="#181b23"/><path d="M114.36 67.14a69.35 69.35 0 0 1-12 15.43c-7.92 7.71-14.42 34.1-24 51.56-2.56 4.67-4.64 6.47-6.33 6.58-1.45.11-2.61-1-3.51-2.63a18.47 18.47 0 0 1-1.46-3.55L82.7 95c4.06-11.37 16.24-31.06 16.24-31.06z" fill="#242833"/><g fill="#141923"><path d="M94.66 66.95v-7.22l19.15 2.4-2.22 6.5-1.07 3.14-15.86-4.82zm24.19-5.09l3.95-1.19.39-4.64-5.57.69 1.23 5.14z"/><path d="M110.52 51.96l3.85-1.78 13.23 2.91-.65 7.64-4.15-.06-12.28-8.71z"/></g><path d="M94.66,59.73,105.38,56l4.27-.44.87-3.61s13.35,2.41,13.35,3.88l-6,1.7,1.2,5.25-8.54,9,3.29-9.63Z" fill="#4d5464"/><path d="M182.48,246.23s-4.52,42.25-3.83,85.36-12,61.55-12,61.55l12.66,13.91L155,400.79l11.68-182.2V202.15l-.56-12H180.8l1.68,32.23Z" fill="#3a3734"/><path d="M166.13 190.19h14.67l1.68 32.23-17.36 20.72 1.57-28.62-.56-24.33z" fill="#a0734b"/><g fill="#191c12"><path d="M186.64 249.74l.91-6.6 3.78 9.84 2.79-4.92 3.38 8.43 3.46-6.67 3.38 9.94 4-4.62v4.62l4.32 3.36 4.09-5.35 2.08 7.52 3.81 1.22v-5.05l4.28 6.32 2.2 8.93 6.83 29.72-13.15-37.61-3.81-1.2-1.86 11.72 1.55 27.09 1.35 4.21-5.18-5.28-3.5-18.45v-16.86l1.94 8.67-.83-13.58-4.56-3.84-2 11.09.11 16.9-2.18-28.09-2.49 10.26-3.11-11.92.1 19.8 1.35 17.83c0 1.04-1.68 9.33-1.68 9.33l-6.63-50.38-3.73 8 2.49 36.49-7.26-30.54 2.18-19.32-2.61-4.5z"/><path d="M235.65 270.04l-8.74-2.26.72 2.92 8.02-.66z"/></g><path d="M19.62,206.6s3.46,3.13,14.46,4.71V221.7s-11.95-2.83-14.46-5Z" fill="#634225"/><path d="M21.93 211.02v4.9l6.13 2.19-6.13-7.09z" fill="#f1eb52"/><path d="M25 211.54l6.39 7.35v-6.3L25 211.54z" fill="#e22426"/><g fill="#171615"><path d="M14.2 182.5v5.67l.33 1.68 1.14 5.79-.74-6.57s108.34 26 122.94 25.08l10.73.37 3.48 7.13 1.4-9-4-10.55-.5 9.16-11.28 1.23s-32.56-2.85-87.13-16.9l-34.86-7.77zm168.28 39.92l-17.36 20.72 17.36-10.36v-10.36z"/><path d="M165.12 388.36l-2.15-8.75 14.59-143.89-3.93 2.34-12.82 146.45 4.31 3.85z"/></g><path d="M211.34 232.78l-4.32-59.88 2.16-40.89 8.89-35.78 4.98-9.7-6.2 24.65-5.51 32.46-1.37 34.49 1.37 54.65z" fill="#353d28"/><path d="M155.01 400.79l-19.05-18.5 9.53-146.57 21.2-17.13-11.68 182.2z" fill="#7c624a"/></svg>