<svg id="Layer_1" data-name="Layer 1" xmlns="http://www.w3.org/2000/svg" viewBox="0 0 89.93269 224.44661"><defs><style>.cls-1{fill:#87163b;opacity:0.43;}.cls-2{fill:#c9c9c9;}.cls-3{fill:#181818;}.cls-4{fill:#6d6c6d;}.cls-5{fill:#898989;}.cls-6{fill:#4c4c4d;}</style></defs><ellipse class="cls-1" cx="37.08501" cy="216.01679" rx="32.97648" ry="7.179"/><path class="cls-2" d="M26.83072,54.12671v158.719s5.2007,2.26682,9.3093,0V52.18332Z"/><path class="cls-1" d="M74.17,148.6266v66.29c0,2.32-3.23,4.45-8.6,6.1-6.8,2.1-17.03,3.43-28.48,3.43s-21.69-1.33-28.49-3.43c-5.37-1.65-8.6-3.78-8.6-6.1v-66.29C0,93.97,3.33013,69.78063,4.961,61.21151a7.24956,7.24956,0,0,1,4.38624-5.35015L12.78,54.45662H61.39l3.43277,1.40475A7.24955,7.24955,0,0,1,69.209,61.2115C70.83985,69.78061,74.17,93.97,74.17,148.6266Z"/><path class="cls-3" d="M68.25863,35.03978,59.2753,36.20232,15.52123,37.25919,5.26968,36.83644,6.71425,49.53905A5.26978,5.26978,0,0,0,11.984,54.80883h49.8826a5.26978,5.26978,0,0,0,5.26978-5.26978Z"/><path class="cls-4" d="M5.26968,36.83644l6.394-7.081,47.3474-1.16255S77.82322,24.25979,87.335,18.86979c0,0,3.0649,3.27628,2.53647,5.28431L68.25863,35.03978,59.2753,36.20232,15.52123,37.25919Z"/><polygon class="cls-5" points="30.899 18.87 16.525 22.78 12.78 29.728 21.114 29.523 21.839 27.492 32.857 22.522 30.899 18.87"/><polygon class="cls-6" points="32.327 22.761 34.968 29.183 21.114 29.523 21.839 27.492 32.327 22.761"/><polygon class="cls-5" points="66.427 26.671 63.964 22.761 34.508 28.064 34.968 29.183 59.011 28.593 66.427 26.671"/><path class="cls-2" d="M16.98493,22.65512,10.96916,4.46626S17.68947-.84041,22.81832.11512l7.51405,18.90872"/></svg>