<svg xmlns="http://www.w3.org/2000/svg" viewBox="0 0 89.933 224.447" xmlns:v="https://vecta.io/nano"><ellipse cx="37.085" cy="216.017" rx="32.976" ry="7.179" fill="#87163b" opacity=".43"/><path d="M26.831 54.127v158.719s5.201 2.267 9.309 0V52.183z" fill="#c9c9c9"/><path d="M74.17 148.627v66.29c0 2.32-3.23 4.45-8.6 6.1-6.8 2.1-17.03 3.43-28.48 3.43s-21.69-1.33-28.49-3.43c-5.37-1.65-8.6-3.78-8.6-6.1v-66.29C0 93.97 3.33 69.781 4.961 61.212a7.25 7.25 0 0 1 4.386-5.35l3.433-1.405h48.61l3.433 1.405a7.25 7.25 0 0 1 4.386 5.35c1.631 8.569 4.961 32.758 4.961 87.415z" fill="#87163b" opacity=".43"/><path d="M68.259 35.04l-8.983 1.163-43.754 1.057-10.252-.423 1.445 12.703a5.27 5.27 0 0 0 5.27 5.27h49.883a5.27 5.27 0 0 0 5.27-5.27z" fill="#181818"/><path d="M5.27 36.836l6.394-7.081 47.347-1.163s18.812-4.333 28.324-9.723c0 0 3.065 3.276 2.536 5.284L68.259 35.04l-8.983 1.163-43.754 1.057z" fill="#6d6c6d"/><path d="M30.899 18.87l-14.374 3.91-3.745 6.948 8.334-.205.725-2.031 11.018-4.97-1.958-3.652z" fill="#898989"/><path d="M32.327 22.761l2.641 6.422-13.854.34.725-2.031 10.488-4.731z" fill="#4c4c4d"/><path d="M66.427 26.671l-2.463-3.91-29.456 5.303.46 1.119 24.043-.59 7.416-1.922z" fill="#898989"/><path d="M16.985 22.655L10.969 4.466S17.689-.84 22.818.115l7.514 18.909" fill="#c9c9c9"/></svg>