<svg xmlns="http://www.w3.org/2000/svg" viewBox="0 0 104.21 226.51" xmlns:v="https://vecta.io/nano"><path d="M76.73 53.73v34.16l-3.48 10.15v27.22l-8.15 9.5-39.11-33.5-7.67-18.57.5-38.11 15.59 12.87-3.96 8.41 1.59 8.7 2.12 11.62 14.85 6.17 8.66 16.33 6.94-1.73-1.24-20.77 5.84-21.06 7.52-11.39z" fill="#5d606d"/><path d="M65.1 134.76l-17.38-3.06-38-33.14-5.14-16L.01 20.28h17.07l1.74 24.3-.5 38.11 7.67 18.57 39.11 33.5z" fill="#777a89"/><path d="M17.08 20.28H0S-1.23.59 19.81.77l6.71-.24c-11.37.87-9.44 19.75-9.44 19.75z" fill="#0b6e96"/><path d="M86.39 35.17c-4 15.1-9.66 18.56-9.66 18.56l-7.52 11.39-5.84 21.06s-24-22.79-14.61-18.34 15.6-13.12 10.65-14.11-3.47-9.4-8.91-23.26-9.66-9.9-15.22-8.42-3.1 7.18-3.1 7.18l6.19 17.08-1.29 3.63-2.67 7.51-15.59-12.87-1.74-24.3S15.15 1.4 26.52.53h.44C41.23-.38 60.1-2.15 69.21 16.11c0 0-.86 3.21-1.6 7.18h0c-1.23 6.55-2.15 15.16 1.61 14.85 6-.49 9-14.85 9-14.85s12.13-3.22 8.17 11.88z" fill="#1296d3"/><path d="M63.37 86.18l-17 1L32 74.56l-1.59-8.7s13 3.32 12.64-5.37-2.78-10.55-2.78-10.55h-3.19l1.29-3.63-6.19-17.08s-2.47-5.69 3.1-7.18 9.77-5.44 15.22 8.42 4 22.27 8.91 23.26-1.24 18.57-10.65 14.11 14.61 18.34 14.61 18.34z" fill="#002b43"/><path d="M78.22,23.29s-3,14.36-9,14.85c-3.76.31-2.84-8.3-1.61-14.85Z" fill="#edcdd8"/><path d="M90.53 192.05a95.54 95.54 0 0 1-1.63 11.78l-.43 2a.24.24 0 0 1 0 .08c-1.8 7.84-5.08 16.47-10.92 18.5a37 37 0 0 1-19.25 1.47c-3.83-.83-6.87-2.41-8.42-4.6-3.78-5.35-10.82-7.56-13.43-38.33A302.59 302.59 0 0 0 26 126.61l.78-13.17 12.55 11 4.91 4.28 7.7 56.21s2.61 24.51 11 24.64c4.92.08 7.35-1.07 8.83-3.24h0a19.27 19.27 0 0 0 2.23-5.94l9.39 3.91 3.91-12.25z" fill="#ecddbc"/><path d="M88.9 203.82l-.01.01" fill="none" stroke="#edcdd8" stroke-miterlimit="10"/><path d="M95 171.25l-3.3 23.66-1.17 7.82-1.63 1.09A95.54 95.54 0 0 0 90.53 192h-3.26l-3.91 12.25-9.36-3.87 6-31.92a21.27 21.27 0 0 0 8.08 2.59 25.93 25.93 0 0 0 6.92.2z" fill="#dddddf"/><path d="M104.21,143l-1.65,10.94-2.26,15s-1.16,1.74-5.29,2.28a25.93,25.93,0,0,1-7-.2A21.27,21.27,0,0,1,80,168.47c-2.64-1.61-3.13-3.27-3.13-3.27l3-16.43,1.8-9.78c-.17,1,4.57,2.75,10.62,3.82S104,144,104.21,143Z" fill="#2271b9"/><path d="M70.34 112.72c-6.54-2.33-12.67-4-12.67-4L49 92.35l-4-1.68a115.08 115.08 0 0 1 24.42 1.85c-10.51-.44.92 20.2.92 20.2z" fill="#796b52"/><path d="M101.33 140.41l-.27.75-.44 1.2-.23.64h-4.46l.11-1.45.13-1.72.45-5.9-7.26-2.93v-.5a13.74 13.74 0 0 0-5-11.21c-2.68-2.21-8.52-4.63-14.06-6.59 0 0-11.43-20.64-1-20.2 7.13 1.5 13.94 3.95 17.7 8.24 10.1 11.5 20 17.37 14.33 39.67z" fill="#ecddbc"/><path d="M96.62 133.92l-.45 5.9-.17 1.72-.07 1.46-11.4-2.44.24-1 .29-1.22 1.82-7.67 2.51-.13v.5z" fill="#dddddf"/><path d="M104.21 143c-.17 1-5.88.87-11.93-.19S81.49 140 81.66 139c.09-.5 1.38-.72 3.4-.67l-.29 1.22-.24 1 11.4 2.45h4.46l.23-.64.44-1.2c2 .67 3.24 1.34 3.15 1.84z" fill="#004c75"/><path d="M71.72 206.28c-.77 1.61-2.85 3.82-8.33 5-9.32 2-13.16-15.9-13.16-15.9l-10.9-71 4.91 4.28 7.7 56.21s2.61 24.51 11 24.64c4.87.09 7.3-1.06 8.78-3.23zm16.73-.4c-1.8 7.84-5.08 16.47-10.92 18.5a37 37 0 0 1-19.25 1.47h0c21.83 1.82 29.62-18.45 30.17-19.97z" fill="#796b52"/><path d="M77.35 197.33a2 2 0 0 0 .3 1 .79.79 0 0 0 .78.42c.45-.17.57-.88.57-1.46s-.13-1.28-.57-1.45a.77.77 0 0 0-.78.42 1.94 1.94 0 0 0-.3 1.07zm0 0a3.25 3.25 0 0 1 .18-1.1 1.18 1.18 0 0 1 .9-.85 1.31 1.31 0 0 1 1.22.69 2.4 2.4 0 0 1 .35 1.26 2.51 2.51 0 0 1-.35 1.27 1.35 1.35 0 0 1-1.22.69 1.2 1.2 0 0 1-.9-.85 3.31 3.31 0 0 1-.18-1.11zm-.28-13.44l8 2.83a41.2 41.2 0 0 0 4 1.24 9.41 9.41 0 0 0 2 .31 2.27 2.27 0 0 0 1-.15 1.22 1.22 0 0 0 .64-.74 1.2 1.2 0 0 1-.51 1 2.7 2.7 0 0 1-1.06.41 7.78 7.78 0 0 1-2.21 0 22.11 22.11 0 0 1-4.2-1.07 35.25 35.25 0 0 1-7.66-3.83zm2-10.55l7.78 2.83a39.69 39.69 0 0 0 3.88 1.24 8.5 8.5 0 0 0 2 .31 2.15 2.15 0 0 0 .94-.16 1.21 1.21 0 0 0 .61-.73 1.23 1.23 0 0 1-.47 1 2.43 2.43 0 0 1-1 .41 6.8 6.8 0 0 1-2.16 0 20.93 20.93 0 0 1-4.08-1.07 33.8 33.8 0 0 1-7.5-3.83zm17.55-39.42l-1.93.44-1.3 8.09 2.54.54.69-9.07z" fill="#aeadae"/><path d="M102.56,153.94l-2.26,15s-1.16,1.74-5.29,2.28a25.93,25.93,0,0,1-7-.2A21.27,21.27,0,0,1,80,168.47c-2.64-1.61-3.13-3.27-3.13-3.27l3-16.43Z" fill="#004c75"/><path d="M36.05 124.39L29.33 127s7.36 31.73 10 53.78 8.2 20.43 8.2 20.43zm14.67 83.07s2.42 7.94 9.5 6.73S74 219.38 74 219.38s-9.49 6.39-18.45 0a34.35 34.35 0 0 1-11.93-15.09 9.45 9.45 0 0 0 7.1 3.17zM76 205.32l-4.81 6.11s5.67 1 4.81 3.51c0 0 9-3.85 8.89-7.27zm-45.55-88.68l-1.12 5.59 5.69-1.61-4.57-3.98zm46.39-13.06s14 4.59 14.82 13.06l.77 8.47s-8.81-13.84-15.36-14.42-13.7-1.53-13.7-1.53l-1.69-5.58z" fill="#796b52"/><path d="M18.32 82.69l6.78 9.82.89 8.75-7.67-18.57z" fill="#242833"/><ellipse cx="67.44" cy="124.14" rx="1.58" ry="2.58" transform="matrix(.989851 -.142111 .142111 .989851 -16.95 10.84)" fill="#dddddf"/><path d="M69 123.91a3.14 3.14 0 0 0-.63-1.5 1.29 1.29 0 0 0-1.27-.58 1.27 1.27 0 0 0-.71 1 4.43 4.43 0 0 0 .4 2.8 1.28 1.28 0 0 0 1 .78 1.32 1.32 0 0 0 1.06-.91 3.28 3.28 0 0 0 .15-1.59zm0 0a4.42 4.42 0 0 1-.05 1.66 1.68 1.68 0 0 1-1.12 1.36 1.79 1.79 0 0 1-1.75-.79 3.64 3.64 0 0 1-.71-1.71 3.75 3.75 0 0 1 .2-1.84 1.82 1.82 0 0 1 1.43-1.25 1.69 1.69 0 0 1 1.45 1 4.33 4.33 0 0 1 .55 1.57z" fill="#9a9c9e"/><ellipse cx="82.92" cy="28.16" rx="1.58" ry="2.58" transform="matrix(.989851 -.142111 .142111 .989851 -3.16 12.06)" fill="#dddddf"/><path d="M84.48 27.93a3.22 3.22 0 0 0-.62-1.5 1 1 0 0 0-2 .45 4.34 4.34 0 0 0 .41 2.8 1.28 1.28 0 0 0 1 .78c.43 0 .86-.41 1-.91a3.07 3.07 0 0 0 .21-1.62zm0 0a4.42 4.42 0 0 1 0 1.66A1.72 1.72 0 0 1 83.32 31a1.84 1.84 0 0 1-1.76-.79 3.83 3.83 0 0 1-.71-1.72 3.75 3.75 0 0 1 .2-1.84 1.84 1.84 0 0 1 1.46-1.25 1.69 1.69 0 0 1 1.46 1 4.37 4.37 0 0 1 .51 1.53z" fill="#9a9c9e"/><ellipse cx="82.03" cy="35.82" rx="1.58" ry="2.58" transform="matrix(.989851 -.142111 .142111 .989851 -4.26 12.02)" fill="#dddddf"/><path d="M83.6 35.6a3.14 3.14 0 0 0-.6-1.5 1.27 1.27 0 0 0-1.27-.58 1.26 1.26 0 0 0-.71 1A3.87 3.87 0 0 0 81 36a3.74 3.74 0 0 0 .43 1.36 1.26 1.26 0 0 0 1 .78c.43 0 .86-.41 1.06-.9a3.31 3.31 0 0 0 .11-1.64zm0 0a4.43 4.43 0 0 1 0 1.66 1.69 1.69 0 0 1-1.12 1.36 1.79 1.79 0 0 1-1.75-.79 3.64 3.64 0 0 1-.73-1.71 3.74 3.74 0 0 1 .2-1.84A1.8 1.8 0 0 1 81.63 33a1.69 1.69 0 0 1 1.45 1 4.27 4.27 0 0 1 .52 1.6z" fill="#9a9c9e"/><path d="M50.26 16l11.41-4.77 1.7 7.27v12.22l-3.8-14.04-9.31-.68zm-.9 4.28l6.16.7 7.85 19.54v8.4h-3.8l-5.9-20.89-4.31-7.75zm-25.43 0s10.33-12.68 23-8.14l6.53-4.08-21.29-3.63s-12.78 3.78-8.24 15.85z" fill="none" stroke="#edcdd8" stroke-miterlimit="10"/><path d="M8.72 34.6L6 39.16l5.9 9.76 1.36-7.16-4.54-7.16z" fill="#edcdd8"/></svg>