<svg id="Layer_1" data-name="Layer 1" xmlns="http://www.w3.org/2000/svg" viewBox="0 0 104.21 226.51"><defs><style>.cls-1{fill:#5d606d;}.cls-2{fill:#777a89;}.cls-3{fill:#0b6e96;}.cls-4{fill:#1296d3;}.cls-5{fill:#002b43;}.cls-6{fill:#edcdd8;}.cls-7{fill:#ecddbc;}.cls-8{fill:none;stroke:#edcdd8;stroke-miterlimit:10;}.cls-9{fill:#dddddf;}.cls-10{fill:#2271b9;}.cls-11{fill:#796b52;}.cls-12{fill:#004c75;}.cls-13{fill:#aeadae;}.cls-14{fill:#242833;}.cls-15{fill:#9a9c9e;}</style></defs><polygon class="cls-1" points="76.73 53.73 76.73 87.89 73.25 98.04 73.25 125.26 65.1 134.76 25.99 101.26 18.32 82.69 18.82 44.58 34.41 57.45 30.45 65.86 32.04 74.56 34.16 86.18 49.01 92.35 57.67 108.68 64.61 106.95 63.37 86.18 69.21 65.12 76.73 53.73"/><polygon class="cls-2" points="65.1 134.76 47.72 131.7 9.72 98.56 4.58 82.56 0.01 20.28 17.08 20.28 18.82 44.58 18.32 82.69 25.99 101.26 65.1 134.76"/><path class="cls-3" d="M17.08,20.28H0S-1.23.59,19.81.77c2.06,0,4.31-.1,6.71-.24C15.15,1.4,17.08,20.28,17.08,20.28Z"/><path class="cls-4" d="M86.39,35.17c-4,15.1-9.66,18.56-9.66,18.56L69.21,65.12,63.37,86.18s-24-22.79-14.61-18.34,15.6-13.12,10.65-14.11-3.47-9.4-8.91-23.26-9.66-9.9-15.22-8.42-3.1,7.18-3.1,7.18l6.19,17.08-1.29,3.63-2.67,7.51L18.82,44.58l-1.74-24.3S15.15,1.4,26.52.53c.14,0,.29,0,.44,0C41.23-.38,60.1-2.15,69.21,16.11c0,0-.86,3.21-1.6,7.18h0c-1.23,6.55-2.15,15.16,1.61,14.85,6-.49,9-14.85,9-14.85S90.35,20.07,86.39,35.17Z"/><path class="cls-5" d="M63.37,86.18l-17,1L32,74.56l-1.59-8.7s13,3.32,12.64-5.37-2.78-10.55-2.78-10.55H37.08l1.29-3.63L32.18,29.23s-2.47-5.69,3.1-7.18,9.77-5.44,15.22,8.42,4,22.27,8.91,23.26S58.17,72.3,48.76,67.84,63.37,86.18,63.37,86.18Z"/><path class="cls-6" d="M78.22,23.29s-3,14.36-9,14.85c-3.76.31-2.84-8.3-1.61-14.85Z"/><path class="cls-7" d="M90.53,192.05a95.54,95.54,0,0,1-1.63,11.78c-.13.65-.28,1.31-.43,2a.24.24,0,0,1,0,.08c-1.8,7.84-5.08,16.47-10.92,18.5a37,37,0,0,1-19.25,1.47c-3.83-.83-6.87-2.41-8.42-4.6-3.78-5.35-10.82-7.56-13.43-38.33A302.59,302.59,0,0,0,26,126.61l.78-13.17,12.55,11,4.91,4.28,7.7,56.21s2.61,24.51,11,24.64c4.92.08,7.35-1.07,8.83-3.24h0A19.27,19.27,0,0,0,74,200.39l9.39,3.91,3.91-12.25Z"/><line class="cls-8" x1="88.9" y1="203.82" x2="88.89" y2="203.83"/><path class="cls-9" d="M95,171.25,91.7,194.91l-1.17,7.82-1.63,1.09A95.54,95.54,0,0,0,90.53,192H87.27l-3.91,12.25L74,200.38l6-31.92a21.27,21.27,0,0,0,8.08,2.59A25.93,25.93,0,0,0,95,171.25Z"/><path class="cls-10" d="M104.21,143l-1.65,10.94-2.26,15s-1.16,1.74-5.29,2.28a25.93,25.93,0,0,1-7-.2A21.27,21.27,0,0,1,80,168.47c-2.64-1.61-3.13-3.27-3.13-3.27l3-16.43,1.8-9.78c-.17,1,4.57,2.75,10.62,3.82S104,144,104.21,143Z"/><path class="cls-11" d="M70.34,112.72c-6.54-2.33-12.67-4-12.67-4L49,92.35,45,90.67a115.08,115.08,0,0,1,24.42,1.85C58.91,92.08,70.34,112.72,70.34,112.72Z"/><path class="cls-7" d="M101.33,140.41l-.27.75-.44,1.2-.23.64H95.93l.11-1.45.13-1.72.45-5.9L89.36,131s0-.18,0-.5a13.74,13.74,0,0,0-5-11.21c-2.68-2.21-8.52-4.63-14.06-6.59,0,0-11.43-20.64-1-20.2C76.43,94,83.24,96.45,87,100.74,97.1,112.24,107,118.11,101.33,140.41Z"/><path class="cls-9" d="M96.62,133.92l-.45,5.9L96,141.54,95.93,143l-11.4-2.44.24-1,.29-1.22,1.82-7.67,2.51-.13c0,.32,0,.5,0,.5Z"/><path class="cls-12" d="M104.21,143c-.17,1-5.88.87-11.93-.19S81.49,140,81.66,139c.09-.5,1.38-.72,3.4-.67l-.29,1.22-.24,1L95.93,143h4.46l.23-.64.44-1.2C103.06,141.83,104.3,142.5,104.21,143Z"/><path class="cls-11" d="M71.72,206.28c-.77,1.61-2.85,3.82-8.33,5-9.32,2-13.16-15.9-13.16-15.9l-10.9-71,4.91,4.28,7.7,56.21s2.61,24.51,11,24.64C67.81,209.6,70.24,208.45,71.72,206.28Z"/><path class="cls-11" d="M88.45,205.88c-1.8,7.84-5.08,16.47-10.92,18.5a37,37,0,0,1-19.25,1.47h0C80.11,227.67,87.9,207.4,88.45,205.88Z"/><path class="cls-13" d="M77.35,197.33a2,2,0,0,0,.3,1,.79.79,0,0,0,.78.42c.45-.17.57-.88.57-1.46s-.13-1.28-.57-1.45a.77.77,0,0,0-.78.42A1.94,1.94,0,0,0,77.35,197.33Zm0,0a3.25,3.25,0,0,1,.18-1.1,1.18,1.18,0,0,1,.9-.85,1.31,1.31,0,0,1,1.22.69,2.4,2.4,0,0,1,.35,1.26,2.51,2.51,0,0,1-.35,1.27,1.35,1.35,0,0,1-1.22.69,1.2,1.2,0,0,1-.9-.85A3.31,3.31,0,0,1,77.35,197.33Z"/><path class="cls-13" d="M77.07,183.89c2.73.87,5.36,1.91,8,2.83a41.2,41.2,0,0,0,4,1.24,9.41,9.41,0,0,0,2,.31,2.27,2.27,0,0,0,1-.15,1.22,1.22,0,0,0,.64-.74,1.2,1.2,0,0,1-.51,1,2.7,2.7,0,0,1-1.06.41,7.78,7.78,0,0,1-2.21,0,22.11,22.11,0,0,1-4.2-1.07A35.25,35.25,0,0,1,77.07,183.89Z"/><path class="cls-13" d="M79.07,173.34c2.65.87,5.2,1.91,7.78,2.83a39.69,39.69,0,0,0,3.88,1.24,8.5,8.5,0,0,0,2,.31,2.15,2.15,0,0,0,.94-.16,1.21,1.21,0,0,0,.61-.73,1.23,1.23,0,0,1-.47,1,2.43,2.43,0,0,1-1,.41,6.8,6.8,0,0,1-2.16,0,20.93,20.93,0,0,1-4.08-1.07A33.8,33.8,0,0,1,79.07,173.34Z"/><polygon class="cls-13" points="96.62 133.92 94.69 134.36 93.39 142.45 95.93 142.99 96.62 133.92"/><path class="cls-12" d="M102.56,153.94l-2.26,15s-1.16,1.74-5.29,2.28a25.93,25.93,0,0,1-7-.2A21.27,21.27,0,0,1,80,168.47c-2.64-1.61-3.13-3.27-3.13-3.27l3-16.43Z"/><path class="cls-11" d="M36.05,124.39,29.33,127s7.36,31.73,10,53.78,8.2,20.43,8.2,20.43Z"/><path class="cls-11" d="M50.72,207.46s2.42,7.94,9.5,6.73S74,219.38,74,219.38s-9.49,6.39-18.45,0a34.35,34.35,0,0,1-11.93-15.09A9.45,9.45,0,0,0,50.72,207.46Z"/><path class="cls-11" d="M76,205.32l-4.81,6.11s5.67,1,4.81,3.51c0,0,9-3.85,8.89-7.27Z"/><polygon class="cls-11" points="30.45 116.64 29.33 122.23 35.02 120.62 30.45 116.64"/><path class="cls-11" d="M76.84,103.58s14,4.59,14.82,13.06l.77,8.47s-8.81-13.84-15.36-14.42-13.7-1.53-13.7-1.53l-1.69-5.58Z"/><polygon class="cls-14" points="18.32 82.69 25.1 92.51 25.99 101.26 18.32 82.69"/><ellipse class="cls-9" cx="67.44" cy="124.14" rx="1.58" ry="2.58" transform="translate(-16.95 10.84) rotate(-8.17)"/><path class="cls-15" d="M69,123.91a3.14,3.14,0,0,0-.63-1.5,1.29,1.29,0,0,0-1.27-.58,1.27,1.27,0,0,0-.71,1,4.43,4.43,0,0,0,.4,2.8,1.28,1.28,0,0,0,1,.78,1.32,1.32,0,0,0,1.06-.91A3.28,3.28,0,0,0,69,123.91Zm0,0a4.42,4.42,0,0,1-.05,1.66,1.68,1.68,0,0,1-1.12,1.36,1.79,1.79,0,0,1-1.75-.79,3.64,3.64,0,0,1-.71-1.71,3.75,3.75,0,0,1,.2-1.84A1.82,1.82,0,0,1,67,121.34a1.69,1.69,0,0,1,1.45,1A4.33,4.33,0,0,1,69,123.91Z"/><ellipse class="cls-9" cx="82.92" cy="28.16" rx="1.58" ry="2.58" transform="translate(-3.16 12.06) rotate(-8.17)"/><path class="cls-15" d="M84.48,27.93a3.22,3.22,0,0,0-.62-1.5,1,1,0,0,0-2,.45,4.34,4.34,0,0,0,.41,2.8,1.28,1.28,0,0,0,1,.78c.43,0,.86-.41,1-.91A3.07,3.07,0,0,0,84.48,27.93Zm0,0a4.42,4.42,0,0,1,0,1.66A1.72,1.72,0,0,1,83.32,31a1.84,1.84,0,0,1-1.76-.79,3.83,3.83,0,0,1-.71-1.72,3.75,3.75,0,0,1,.2-1.84,1.84,1.84,0,0,1,1.46-1.25,1.69,1.69,0,0,1,1.46,1A4.37,4.37,0,0,1,84.48,27.93Z"/><ellipse class="cls-9" cx="82.03" cy="35.82" rx="1.58" ry="2.58" transform="translate(-4.26 12.02) rotate(-8.17)"/><path class="cls-15" d="M83.6,35.6A3.14,3.14,0,0,0,83,34.1a1.27,1.27,0,0,0-1.27-.58,1.26,1.26,0,0,0-.71,1A3.87,3.87,0,0,0,81,36a3.74,3.74,0,0,0,.43,1.36,1.26,1.26,0,0,0,1,.78c.43,0,.86-.41,1.06-.9A3.31,3.31,0,0,0,83.6,35.6Zm0,0a4.43,4.43,0,0,1,0,1.66,1.69,1.69,0,0,1-1.12,1.36,1.79,1.79,0,0,1-1.75-.79A3.64,3.64,0,0,1,80,36.12a3.74,3.74,0,0,1,.2-1.84A1.8,1.8,0,0,1,81.63,33a1.69,1.69,0,0,1,1.45,1A4.27,4.27,0,0,1,83.6,35.6Z"/><polygon class="cls-8" points="50.26 16 61.67 11.23 63.37 18.5 63.37 30.72 59.57 16.68 50.26 16"/><polygon class="cls-8" points="49.36 20.28 55.52 20.98 63.37 40.52 63.37 48.92 59.57 48.92 53.67 28.03 49.36 20.28"/><path class="cls-8" d="M23.93,20.28s10.33-12.68,23-8.14l6.53-4.08L32.17,4.43S19.39,8.21,23.93,20.28Z"/><polygon class="cls-6" points="8.72 34.6 6 39.16 11.9 48.92 13.26 41.76 8.72 34.6"/></svg>