<svg xmlns="http://www.w3.org/2000/svg" viewBox="0 0 1882 1670" xmlns:v="https://vecta.io/nano"><defs><linearGradient id="A" x1="941.241" y1="666.039" x2="941.241" y2="-107.208" gradientUnits="userSpaceOnUse"><stop offset=".079" stop-color="#b8e5f9" stop-opacity=".8"/><stop offset=".659" stop-color="#fff"/></linearGradient><linearGradient id="B" x1="941.241" y1="838.538" x2="941.241" y2="65.291" gradientUnits="userSpaceOnUse"><stop offset=".079" stop-color="#b8e5f9" stop-opacity=".73"/><stop offset=".659" stop-color="#fff"/></linearGradient><linearGradient id="C" x1="941.24" y1="1670.316" x2="941.24" y2="338.586" gradientUnits="userSpaceOnUse"><stop offset="0" stop-color="#cfedfb" stop-opacity="0"/><stop offset=".4" stop-color="#cfedfb"/><stop offset=".858" stop-color="#fff"/></linearGradient></defs><path d="M1882.481 163.15v471.52H.001V216.79a52.534 52.534 0 0 1 70.86-49.19 93.53 93.53 0 0 1 144.61-57.62 52.514 52.514 0 0 1 71.86 42.27 71.237 71.237 0 0 1 60.6 10.83 101.475 101.475 0 0 1 162.52-73.63 52.507 52.507 0 0 1 88.11-19.19 71.161 71.161 0 0 1 85.3 68.84 92.957 92.957 0 0 1 41.38-15.22 71.143 71.143 0 0 1 133.22 34.75l-.01.95a52.579 52.579 0 0 1 26.31 1.66 93.54 93.54 0 0 1 140.87-71.32 71.147 71.147 0 0 1 131.61-19.68 92.955 92.955 0 0 1 41.38 15.22 71.161 71.161 0 0 1 85.3-68.84 52.509 52.509 0 0 1 88.11 19.18 101.486 101.486 0 0 1 162.52 73.63 71.236 71.236 0 0 1 60.6-10.83 52.515 52.515 0 0 1 71.86-42.26 93.53 93.53 0 0 1 144.61 57.62 52.512 52.512 0 0 1 70.86 49.19z" fill="url(#A)"/><path d="M.001 335.649v471.52h1882.48v-417.88a52.534 52.534 0 0 0-70.86-49.19 93.53 93.53 0 0 0-144.61-57.62 52.514 52.514 0 0 0-71.86 42.27 71.237 71.237 0 0 0-60.6 10.83 101.475 101.475 0 0 0-162.52-73.63 52.507 52.507 0 0 0-88.11-19.19 71.161 71.161 0 0 0-85.3 68.84 92.956 92.956 0 0 0-41.38-15.22 71.143 71.143 0 0 0-133.22 34.75l.01.95a52.579 52.579 0 0 0-26.31 1.66 93.54 93.54 0 0 0-140.87-71.32 71.147 71.147 0 0 0-131.61-19.68 92.955 92.955 0 0 0-41.38 15.22 71.161 71.161 0 0 0-85.3-68.84 52.509 52.509 0 0 0-88.11 19.18 101.486 101.486 0 0 0-162.52 73.63 71.236 71.236 0 0 0-60.6-10.83 52.515 52.515 0 0 0-71.86-42.26 93.53 93.53 0 0 0-144.61 57.62 52.512 52.512 0 0 0-70.86 49.19z" fill="url(#B)"/><path d="M1882.48 501.736v1168.58H0V555.376a52.534 52.534 0 0 1 70.86-49.19 93.53 93.53 0 0 1 144.61-57.62 52.514 52.514 0 0 1 71.86 42.27 71.236 71.236 0 0 1 60.6 10.83 101.475 101.475 0 0 1 162.52-73.63 52.507 52.507 0 0 1 88.11-19.19 71.161 71.161 0 0 1 85.3 68.84 92.954 92.954 0 0 1 41.38-15.22 71.143 71.143 0 0 1 133.22 34.75l-.01.95a52.58 52.58 0 0 1 26.31 1.66 93.54 93.54 0 0 1 140.87-71.32 71.147 71.147 0 0 1 131.61-19.68 92.956 92.956 0 0 1 41.38 15.22 71.161 71.161 0 0 1 85.3-68.84 52.51 52.51 0 0 1 88.11 19.18 101.486 101.486 0 0 1 162.52 73.63 71.236 71.236 0 0 1 60.6-10.83 52.515 52.515 0 0 1 71.86-42.26 93.53 93.53 0 0 1 144.61 57.62 52.511 52.511 0 0 1 70.86 49.19z" fill="url(#C)"/></svg>