<svg id="Layer_1" data-name="Layer 1" xmlns="http://www.w3.org/2000/svg" xmlns:xlink="http://www.w3.org/1999/xlink" viewBox="0 0 1882 1670"><defs><style>.cls-1{fill:url(#linear-gradient);}.cls-2{fill:url(#linear-gradient-2);}.cls-3{fill:url(#linear-gradient-3);}</style><linearGradient id="linear-gradient" x1="941.24065" y1="666.03869" x2="941.24065" y2="-107.20793" gradientUnits="userSpaceOnUse"><stop offset="0.0788" stop-color="#b8e5f9" stop-opacity="0.8"/><stop offset="0.65855" stop-color="#fff"/></linearGradient><linearGradient id="linear-gradient-2" x1="-6782.90383" y1="838.53787" x2="-6782.90383" y2="65.29125" gradientTransform="matrix(-1, 0, 0, 1, -5841.66318, 0)" gradientUnits="userSpaceOnUse"><stop offset="0.0788" stop-color="#b8e5f9" stop-opacity="0.73"/><stop offset="0.65855" stop-color="#fff"/></linearGradient><linearGradient id="linear-gradient-3" x1="941.23996" y1="1670.31603" x2="941.23996" y2="338.58605" gradientUnits="userSpaceOnUse"><stop offset="0" stop-color="#cfedfb" stop-opacity="0"/><stop offset="0.39952" stop-color="#cfedfb"/><stop offset="0.8576" stop-color="#fff"/></linearGradient></defs><path class="cls-1" d="M1882.48067,163.15V634.67H.00063V216.79a52.53419,52.53419,0,0,1,70.86-49.19,93.53025,93.53025,0,0,1,144.61005-57.62,52.51384,52.51384,0,0,1,71.85986,42.27,71.2368,71.2368,0,0,1,60.6001,10.83,101.47543,101.47543,0,0,1,162.52-73.63,52.50662,52.50662,0,0,1,88.11-19.19,71.16074,71.16074,0,0,1,85.29993,68.84,92.95651,92.95651,0,0,1,41.38012-15.22,71.143,71.143,0,0,1,133.22,34.75c0,.32,0,.63-.01.95a52.57907,52.57907,0,0,1,26.31005,1.66,93.53965,93.53965,0,0,1,140.86988-71.32,71.14671,71.14671,0,0,1,131.6101-19.68,92.95528,92.95528,0,0,1,41.37989,15.22,71.16053,71.16053,0,0,1,85.30005-68.84,52.50936,52.50936,0,0,1,88.10986,19.18,101.48634,101.48634,0,0,1,162.52,73.63,71.23617,71.23617,0,0,1,60.6001-10.83,52.51533,52.51533,0,0,1,71.8601-42.26,93.53018,93.53018,0,0,1,144.60987,57.62,52.51152,52.51152,0,0,1,70.8601,49.19Z"/><path class="cls-2" d="M.00063,335.64921v471.52h1882.48v-417.88a52.53418,52.53418,0,0,0-70.86-49.19,93.53025,93.53025,0,0,0-144.61-57.62,52.51386,52.51386,0,0,0-71.85986,42.27,71.23691,71.23691,0,0,0-60.6001,10.83,101.47543,101.47543,0,0,0-162.52-73.63,52.50663,52.50663,0,0,0-88.11-19.19,71.16074,71.16074,0,0,0-85.29993,68.84,92.95637,92.95637,0,0,0-41.38013-15.22,71.143,71.143,0,0,0-133.22,34.75c0,.32,0,.63.01.95a52.57944,52.57944,0,0,0-26.31006,1.66,93.53963,93.53963,0,0,0-140.86987-71.32,71.14672,71.14672,0,0,0-131.61011-19.68,92.95529,92.95529,0,0,0-41.37988,15.22,71.16053,71.16053,0,0,0-85.3-68.84,52.50936,52.50936,0,0,0-88.10986,19.18,101.48634,101.48634,0,0,0-162.52,73.63,71.23614,71.23614,0,0,0-60.6001-10.83,52.51534,52.51534,0,0,0-71.86011-42.26,93.53017,93.53017,0,0,0-144.60986,57.62,52.51155,52.51155,0,0,0-70.86011,49.19Z"/><path class="cls-3" d="M1882.47992,501.73607v1168.58H0V555.37609a52.53407,52.53407,0,0,1,70.86-49.19,93.53026,93.53026,0,0,1,144.61-57.62,52.51409,52.51409,0,0,1,71.86,42.27,71.236,71.236,0,0,1,60.6,10.83,101.47533,101.47533,0,0,1,162.5199-73.63,52.50673,52.50673,0,0,1,88.11011-19.19,71.16081,71.16081,0,0,1,85.30005,68.84,92.95353,92.95353,0,0,1,41.37988-15.22,71.143,71.143,0,0,1,133.22,34.75c0,.32,0,.63-.01.95a52.58,52.58,0,0,1,26.31006,1.66,93.53986,93.53986,0,0,1,140.87012-71.32,71.14657,71.14657,0,0,1,131.60986-19.68,92.95642,92.95642,0,0,1,41.38013,15.22,71.16073,71.16073,0,0,1,85.29992-68.84,52.50955,52.50955,0,0,1,88.11,19.18,101.48641,101.48641,0,0,1,162.52,73.63,71.23589,71.23589,0,0,1,60.59985-10.83,52.51522,52.51522,0,0,1,71.86011-42.26,93.53031,93.53031,0,0,1,144.61011,57.62,52.51132,52.51132,0,0,1,70.85986,49.19Z"/></svg>