<svg xmlns="http://www.w3.org/2000/svg" viewBox="0 0 602.99 693.03" xmlns:v="https://vecta.io/nano"><path d="M28 341.43q0-65.12 0-130.21c0-7.58 1.08-14.86 6-20.61a43.53 43.53 0 0 1 10.19-8.74q113.55-69.12 227.25-138l8.53-5.2c14.43-9.32 28.88-9.12 43.39-.21q26.42 16.23 52.87 32.4 90.77 55.2 181.58 110.32c8.67 5.26 15 12.27 16.81 22.89a71.42 71.42 0 0 1 .77 11.71q-.07 124.86-.26 249.71c0 7.24.38 14.57-.49 21.71-1.52 12.49-8.85 21-19 27.11l-36.28 21.87q-95.33 58-190.64 116c-8 4.89-16.41 8.72-25.83 9.08-10.21.39-19.29-3.47-27.95-8.76q-83.59-51.11-167.24-102.15l-55.57-33.19c-10.45-6.26-19.16-14.38-22.33-27a80.61 80.61 0 0 1-2.19-19.24l.44-90.24v-39.24zm574.73 5.43l.25 137.55c.44 23.55-8.07 38.67-28 50.46l-237.37 143.6a47.32 47.32 0 0 0-4.53 2.78c-21.2 16.49-40.89 14.77-63.79.39L32.34 537.19c-5.75-3.5-11.49-7.05-17-11C6.09 519.65.91 510.45.38 498.61c-.19-4.4-.36-8.8-.37-13.2q0-134.8 0-269.6c0-4.77.37-9.54.23-14.3-.51-18.13 7.77-30.13 22.55-39l161.9-98 96.47-58.19c14.11-8.62 27.5-8.32 41.61.28q128 78 256.34 155.5c16.77 10.08 24.11 23.73 23.89 43.9l-.27 140.86zm-13.18.95l.21-142c.18-15.07-5.33-24.9-17.55-32.14l-79.11-48L322.32 21.82c-14.4-8.92-27.25-10.1-41-.16-2.87 2.08-6.08 3.64-9.11 5.48L35.66 170.19c-16.54 9.81-22.94 21.75-22.79 41.32l-.21 267.43C12.35 502 20.29 514.92 39 526q118.41 70.15 235.39 142.94c19.56 12.22 34.9 11.69 54.06-.2l240.88-146.21c14.68-8.76 20.68-19.77 20.44-37.14l-.22-137.58z" fill="#3d4e55"/><g fill="#f79a69"><path d="M589.83 348.05l.21 137.57c.24 17.38-5.77 28.38-20.44 37.15Q448.69 595 328.72 669c-19.16 11.89-34.51 12.42-54.06.2q-116.82-73-235.39-142.94c-18.7-11.1-26.64-23.97-26.27-47.07l.21-267.44c-.21-19.57 6.2-31.49 22.79-41.31L272.55 27.38c3-1.84 6.24-3.4 9.11-5.47 13.75-9.94 26.6-8.76 41 .16L493.39 126l79.1 48c12.23 7.24 17.74 17.07 17.56 32.13l-.22 141.92zm-560-2.44h-.13c0 41.8.95 83.64-.39 125.4-.7 21.91 6.93 35.17 25 45.9q111 65.91 220.75 134.08c19.12 12 34.45 11.51 53.24-.15L553.6 514c13.61-8.17 20.1-18.76 20-35.39V303.69l.07-90.21c.12-13.47-5-23.24-16.06-29.88-4.56-2.74-9-5.67-13.55-8.43L324.28 41.51c-15.34-9.46-28.43-10.09-43.9-.59L45 183.75c-10.42 6.25-15.4 14.73-15.29 27.64l.15 134.22zm80.63 126.9a15 15 0 0 1-2 1.13 5.09 5.09 0 0 1-1.88.38h-7.43a10.52 10.52 0 0 1-1.78-.16 4.48 4.48 0 0 1-3.92-3.7 32.46 32.46 0 0 1-1-6 3.35 3.35 0 0 0-.27-.83 11.25 11.25 0 0 1-.4-1.37l-1.11-6.52-1.51-7.36-1-5.08q-1.27-6.51-2.5-13l-1.28-7q-1.38-7.12-2.8-14.25l-1.45-7.2-1.31-7a4.24 4.24 0 0 1 1.37-4 1.75 1.75 0 0 1 1-.51l7.92-.22c2.08.06 3.52 1.36 4.22 3.58a12.75 12.75 0 0 1 .32 1.39l2.28 12.35 1.19 6.9.48 2.65 1.2 7.24 1.77 8.78a4.74 4.74 0 0 0 .57 1.48 1.12 1.12 0 0 0 1.94.12 4.62 4.62 0 0 0 1-2.63c.29-3 .82-5.9 1.37-8.83l1.33-8.14c.3-3.72 1.23-7.3 1.63-11 .32-3 .91-6 1.41-9 .54-3.21 2.23-4.82 5.12-4.9 1.94-.05 3.89.1 5.83 0 2.21-.15 4 2.3 3.57 5l-2.19 12.88c.24 2.09-.77 3.91-1 5.9-.34 2.61-.8 5.2-1.31 7.78-1.36 6.79-2.31 13.66-3.53 20.48l-2.47 13.74-1.77 10.79c-.36 2.12-.82 4.21-1.23 6.31z"/><path d="M152.4 427.47V444q0 12.24 0 24.49a9.31 9.31 0 0 1-.3 2.48c-.44 1.53-1.31 2.66-2.87 2.74l-6.13.16a12.57 12.57 0 0 1-2.09-.26 3.31 3.31 0 0 1-2.81-2.82 13.23 13.23 0 0 1-.31-2.66l.12-5.59v-7.52l.07-9.5v-4.85q0-6.21 0-12.41l-.06-15.13v-4a4 4 0 0 0-4-4.47c-2 .1-4-.06-6 0s-3.87-2-3.9-4q0-3.58.07-7.19a3.37 3.37 0 0 1 2.4-3.41 9.25 9.25 0 0 1 2.53-.51c4.09-.06 8.19 0 12.29 0h16.16l5 .05c2.59.07 4 1.69 4 4.53 0 1.38.16 2.76.08 4.13a26.24 26.24 0 0 1-.6 4.24 2.5 2.5 0 0 1-1.7 1.79 6.52 6.52 0 0 1-1.73.37c-1.35.05-2.7 0-4 0a21.31 21.31 0 0 0-2.4.07c-2.59.31-3.58 1.55-3.62 4.49v7.73 10.45zm69.6-4.67l1.06-3a1.46 1.46 0 0 0 .14-.7 22.36 22.36 0 0 1 .06-4.09v-12.76l-.08-4.13c.08-1.53-.27-3.12.43-4.59.09-.18 0-.46 0-.7a2.52 2.52 0 0 1 1.63-2.75 6.11 6.11 0 0 1 2-.5h6.31a3.48 3.48 0 0 1 2.68 1.05 4 4 0 0 1 1.11 2.15 15.63 15.63 0 0 1 .2 3.93c-.12 1.3 0 2.63 0 4q0 10.25.09 20.5c0 1.2.17 2.39.18 3.59s-.05 2.51-.07 3.76c0 .86-.49 1.76.22 2.56a.57.57 0 0 1 0 .48c-.75 1.59-.37 3.32-.41 4.95-.1 4.86 0 9.72 0 14.58q0 6.59 0 13.15a3.4 3.4 0 0 0 .54 2.32c-.22 1.15-.46 2.11-.56 3.1a4.19 4.19 0 0 1-2.92 3.86 3 3 0 0 1-.95.22c-2.66-.05-5.33.53-8-.11a4.1 4.1 0 0 1-2.41-3.3c-.09-1.6-.11-3.2-.13-4.8q-.06-6.73-.09-13.48v-9.36a4.75 4.75 0 0 0-1-3.3 3.85 3.85 0 0 0-3-1.13c-1.66-.11-3.34-.06-5-.05a3.83 3.83 0 0 0-3.65 3.94v10.79a4 4 0 0 0 .35 1.7 2.12 2.12 0 0 1 .1 1.56 22.91 22.91 0 0 0-.47 6.56c0 1.44-.06 2.87-.07 4.31 0 .78.15 1.56.08 2.33a4.78 4.78 0 0 1-2.65 4.19 3.16 3.16 0 0 1-1.4.27c-2.1 0-4.21 0-6.31-.06-2.63-.08-4.16-1.93-4.1-4.87l.15-7c0-2.57-.15-5.15-.16-7.72l.05-9.53-.07-8.09c0-1.85.16-3.7.17-5.55 0-1.67-.12-3.35-.13-5 0-4.09-.13-8.18 0-12.25.15-3.72-.26-7.42-.12-11.14.11-2.87 0-5.75 0-8.63 0-2.41 2-4.57 4.14-4.55s4.21.16 6.31.07a4.12 4.12 0 0 1 3.87 3.6c0 .6.14 1.2.14 1.79v15.49 8.46c0 2.53 1.41 4.19 3.71 4.24s4.63-.09 6.94-.16a4.63 4.63 0 0 0 1.09-.2zm21.27 38.72l1.19-.39c-1.24-.89-1.19-2.07-.85-3.25.8-2.81.93-5.76 1.43-8.63l.92-4.75.78-4.2 1.25-7.61q1-6.19 2.09-12.38l1.08-5.78.42-3.19a52.63 52.63 0 0 1 1-5.63c.65-2.43.69-5 1.25-7.41.35-1.56.49-3.18.79-4.77s2.1-4 3.91-4h3.21c1.66.12 3.34 0 5 0h2.75c2.49.12 4 1.5 4.54 4.22l1.48 8.3 2.78 15 1.91 10.77 1.94 10.39 1.09 6.18q1.58 8.73 3.14 17.47l1.29 6.86a6.44 6.44 0 0 1-.64 4c-.1.24-.37.39-.58.57l-1.07.9a12.51 12.51 0 0 0-4.31-.33 28.3 28.3 0 0 1-4.51-.26 3.94 3.94 0 0 1-3.29-3.48l-1.27-7.06-.59-3.17a4.35 4.35 0 0 0-4-3.57c-2.05-.06-4.1 0-6.14 0s-3.51 1.42-3.88 3.83l-1.35 8.13-.06.36c-.57 3.53-2.16 5-5.46 5.14a45.64 45.64 0 0 1-6-.17c-1.91-.17-3.06-1.85-2.94-4a39.47 39.47 0 0 1 1.7-8.09zm21.1-20.39c2.4 0 3.65-1.67 3.21-4.26l-1.43-9a5.54 5.54 0 0 0-.89-2.66 1.17 1.17 0 0 0-2.13.21 5.58 5.58 0 0 0-.46 1.52l-1.61 9.88c-.4 2.23 1.2 4.74 3.31 4.31zm68.5-27.98a18.05 18.05 0 0 0 .55 2.66l-1.52 3a2.35 2.35 0 0 0-.85.15c-1.31.83-2.7.59-4.09.5a12.55 12.55 0 0 0-2.74.07 5.05 5.05 0 0 1-3.55-.65 4 4 0 0 1-2.13-3.36l-.44-4.47a10.17 10.17 0 0 0-2.21-5.11c-2.64-3.2-7.5-2.66-9.49 1.66a17.15 17.15 0 0 0-1.24 7c-.09 4.38 0 8.76 0 13.14v9.74l.07 7c0 1.49.05 3 .07 4.49a18.58 18.58 0 0 0 1.06 6.33 6 6 0 0 0 5.07 4.17c2.33.31 4.65-1.41 5.75-3.78a22.35 22.35 0 0 0 1.48-7.14c.11-1 .12-2 .16-3.06a2.78 2.78 0 0 1 1-2.14 4.65 4.65 0 0 1 3.37-1.47c2.31.16 4.63.15 6.93.32a3.23 3.23 0 0 1 2.92 2.7 8.81 8.81 0 0 1 .25 2.66c-.14 2.39-.28 4.8-.64 7.16-.58 3.85-1.42 7.66-3.48 10.9a18.42 18.42 0 0 1-5.47 5.94 21.54 21.54 0 0 1-17.95 2.57 17.88 17.88 0 0 1-11.83-10.07 29.65 29.65 0 0 1-2.64-9.76c-.31-2.82-.3-5.63-.38-8.44l-.2-6.29c0-.89.12-1.78.13-2.68 0-1.07-.08-2.14-.08-3.21s0-2.27.07-3.41v-2c0-1.62-.07-3.24-.1-4.85v-1.24-3.59a19.59 19.59 0 0 0 .08-2.16 36.52 36.52 0 0 1 .58-9.29 18.81 18.81 0 0 1 1.84-6.45c.33-.6.32-1.59.76-1.93 1.29-1 1.63-2.75 2.7-3.93 1.39-1.53 2.72-3.07 4.59-3.85 1.31-.55 2.59-1.24 3.92-1.68a21.59 21.59 0 0 1 8.64-.79 18.12 18.12 0 0 1 3.2.44c6.44 1.75 11.12 5.83 13.66 12.78a37.6 37.6 0 0 1 2.19 11.39zM353 459v7 3.94c-.2 2.56-1.34 3.73-3.63 3.9a69.31 69.31 0 0 1-7.35 0 3.55 3.55 0 0 1-3-2.68 9.25 9.25 0 0 1-.3-3.69 26.92 26.92 0 0 0-.07-3.34l-.15-12 .07-3v-7.91l.09-5.75-.05-12.6.07-8.45-.14-5.19.06-2.16.1-12.07a13.48 13.48 0 0 1 .09-1.8 3.34 3.34 0 0 1 2.52-3.12c.21-.05.42-.13.63-.16a29 29 0 0 1 8.22.13 3.45 3.45 0 0 1 2.8 3.64l.07 7.91v5.94l.05 2.69s.24 1.86 1.22 2.11 1.49-.5 1.91-1.31l2.84-5.65 3.19-6.66 2.75-5.67a5.61 5.61 0 0 1 2.84-2.82 7.89 7.89 0 0 1 2.68-.48h6.15a9.29 9.29 0 0 1 1.29.06 3.16 3.16 0 0 1 2.15 4.35l-1.35 2.65-3.44 6.71-.45.75a82.67 82.67 0 0 0-4 7.58l-3.58 6.78a4.15 4.15 0 0 0-.43 1.53 10.68 10.68 0 0 0 .48 4.58c1.54 4.36 2.94 8.77 4.42 13.15l2.64 7.55c1 2.86 1.9 5.74 2.86 8.6l1.51 4.36q1.71 5.06 3.39 10.12a10.42 10.42 0 0 1 .43 1.73 2.87 2.87 0 0 1-1.86 3.49 2.76 2.76 0 0 1-.78.22 6.51 6.51 0 0 0-2.5.61 1.75 1.75 0 0 1-1.4 0 3.82 3.82 0 0 0-2-.27 8.6 8.6 0 0 1-5-1.25 4.41 4.41 0 0 1-1.71-2.33q-1.53-4.84-3.07-9.68l-3.14-9.64-1.83-5.77c-.29-.9-.56-1.82-.92-2.69a2 2 0 0 0-3.65-.33 12.93 12.93 0 0 0-1.61 4.63c-.28 3.36-.09 6.71-.13 10.06v1.79zm73.9.27l.88.71a4.14 4.14 0 0 0-2.31 3.16 5.16 5.16 0 0 1-1.51 2.7 4.65 4.65 0 0 0-.9 1.26 11.3 11.3 0 0 1-4.06 4l-2.95 1.84a4.66 4.66 0 0 1-1.2.51l-6.65 1.52a5.61 5.61 0 0 1-3 0 2.18 2.18 0 0 0-.8-.11 18.21 18.21 0 0 1-10.08-2.79 19.55 19.55 0 0 1-6.89-6.93 33.17 33.17 0 0 1-4.3-11.57 5.84 5.84 0 0 1 .06-2.66 4 4 0 0 1 2.72-2.76l4.64-1.53 1.39-.44c2.43-.93 4.62.41 5.13 3.25a20.49 20.49 0 0 0 1.73 5 9.29 9.29 0 0 0 4.46 4.52 8 8 0 0 1 1.62 1.11c.91.76 1.23.71 2.14-.26a2.51 2.51 0 0 1 1.11-.63c2.73-.81 4.65-4.09 4.47-7.24a12.71 12.71 0 0 0-3.74-8c-1.64-1.82-3.44-3.46-5.23-5.1-2.88-2.62-5.88-5.09-8.71-7.77a35.6 35.6 0 0 1-6.56-7.93 26.73 26.73 0 0 1-3.41-14.75 24.89 24.89 0 0 1 3.95-12 8.65 8.65 0 0 1 2-2.28c1-.78 1.69-2.05 3.07-2.19.3 0 .54-.55.85-.79a12 12 0 0 1 4.15-1.87 17.08 17.08 0 0 1 4-.76 27.42 27.42 0 0 1 6.08.14 17.93 17.93 0 0 1 9.13 4.3 24.2 24.2 0 0 1 5.15 6.44 29.63 29.63 0 0 1 3.14 8.06c.55 2.76-.29 4.26-2.69 5.25-2 .82-4 1.16-6 2a3.66 3.66 0 0 1-4.93-2.43 35.63 35.63 0 0 0-1.95-4.25 6.71 6.71 0 0 0-4.5-3.79 3.25 3.25 0 0 0-1.28 0c-1.13.27-2.1 1.13-3.3 1.25-.26 0-.58.39-.72.69-.44.95-.86 1.93-1.21 2.93a1.41 1.41 0 0 0 .29 1.51 1.86 1.86 0 0 1 .55 1.78 4.65 4.65 0 0 0 1 3.81 25.08 25.08 0 0 0 4.87 5.24l8.66 7.56a48.33 48.33 0 0 1 6.49 6.76 26.19 26.19 0 0 1 5.48 13.22 38 38 0 0 1 .31 5.21c-.06 1.64-.4 3.3-.64 5.1zm46.69-40.35v9.53 13.49q0 8.43 0 16.86v8.82c0 .9-.11 1.79-.17 2.69a3.87 3.87 0 0 1-1.17 2.48 2.56 2.56 0 0 1-2.12 1c-2.2-.07-4.41.05-6.61.08a5.23 5.23 0 0 1-1-.11c-2.15-.4-3.24-1.68-3.38-4.09l-.08-4.31.1-6.28-.11-12.77q0-12.71 0-25.39l.09-10.23-.08-7.18v-9.7a3.77 3.77 0 0 1 2.87-4 7.07 7.07 0 0 1 1.44-.22l5.82-.05c2.49 0 4 1.43 4.22 4.17.19 2.08.1 4.19.12 6.29v7.55q0 5.67 0 11.34zm28.09-9.92c1.14-1.15 1.51-2.7 2-4.23l2.76-7.47 1.36-4a4.74 4.74 0 0 1 4.37-3.43h7.59a3.42 3.42 0 0 1 2.59 1.29 2.54 2.54 0 0 1 .7 1.94 7 7 0 0 1-.89 3.36 12.28 12.28 0 0 0-1 2.42l-1.7 4.27a4.67 4.67 0 0 0-.41 2.78c.08.46.09.94.14 1.52-1.35.06-1.78 1.12-2.21 2.25l-2.74 6.91-3 7.94-.82 2.35a9.22 9.22 0 0 0 0 6.64l4.3 10.67 3.64 9q2.65 6.57 5.3 13.14l1.43 3.82c.48 1.45-1 3.74-2.44 3.79h-9c-1.81-.06-3.08-1.35-3.92-3.08-.43-.89-.73-1.86-1.09-2.8l-3.09-8.13-2.37-6.3a5.2 5.2 0 0 0-1.22-1.84c-.91-.83-2.14-.3-2.58.94l-1.06 2.56-.95 2.46.9 1.23-1.42.4-2.41 7.06 1 1.14H494a4 4 0 0 0-.27.47l-.65 2a4.45 4.45 0 0 1-4.24 3.72l-7.75.27a3.16 3.16 0 0 1-.32 0c-2.65-.33-3.91-2.1-2.87-5l2.42-6.45 2.41-6.28c1-2.3 1.64-4.75 2.83-7a21.93 21.93 0 0 0 1-3q1.24-3.33 2.44-6.63l.85-2.12 1.35-3.26a9.52 9.52 0 0 0 .16-7.65l-6-14.95q-3.33-8.22-6.64-16.43a13.29 13.29 0 0 1-.47-1.7 3.11 3.11 0 0 1 2.45-3.74 11.32 11.32 0 0 1 2.09-.22l5.82.08c2.52 0 4.2 1.37 5.21 3.77l3 8 1.75 4.84c.55 1.63 1.5 2.61 3.11 2.68z"/></g><path d="M463.82 325.51a26.79 26.79 0 0 0 2.29 3.17c6.37 6.67 13.94 12.55 21.53 18.43a56.3 56.3 0 0 1 6.44 6.17c1.65 1.75 1 3.32-1.4 4.42a12.06 12.06 0 0 1-6.94.72 26.45 26.45 0 0 1-11.38-4.35 14 14 0 0 0-6.27-2.37c-8.43-1.32-15.93-3.95-21.73-8.85a28.76 28.76 0 0 1-7.46-9.38 14.75 14.75 0 0 0-8.7-7.65c-3.71-1.38-5.11-3.94-5.26-6.93a9.24 9.24 0 0 0-2.94-6.59 25.94 25.94 0 0 0-4.47-3 2.53 2.53 0 0 0-1.82.14 11.86 11.86 0 0 0-2.63 2.07 36.33 36.33 0 0 1-17.73 10.82 10.93 10.93 0 0 0-6.33 4.63c-2.58 3.76-5.57 7.36-8.25 11.09a37.63 37.63 0 0 1-8 8.35 17.7 17.7 0 0 0-5.82 7.81 34.11 34.11 0 0 1-2.62 4.69c-.17.28-.63.46-1 .68-.31-.28-.9-.57-.88-.85a27.53 27.53 0 0 1 .63-5.79c1-3.51 3.45-6.54 6.29-9.4a27.9 27.9 0 0 0 3.72-4.27c.75-1.15.9-2.53 1.44-4.19a26 26 0 0 0-3 .7c-5.79 2.31-11.41 4.8-15.8 8.54-2.38 2-4.57 4.18-6.91 6.23-1 .92-2.21 1.77-3.36 2.61a1.3 1.3 0 0 1-.91.15c-.28-.23-.62-.63-.53-.87.55-1.41.87-3 1.92-4.14a52 52 0 0 1 13.93-11.47 103.11 103.11 0 0 1 15.38-7.18 21.27 21.27 0 0 0 9.28-6.2c2.6-3.06 6.07-5.24 10.22-7.15a104.76 104.76 0 0 0 12.47-7.36 71.49 71.49 0 0 0 12.77-10 22.34 22.34 0 0 1 4.4-3.34 4.93 4.93 0 0 1 5.71.09l18.4 12.1a24.47 24.47 0 0 0 10.06 4.21 49.89 49.89 0 0 1 23.09 9.74c4.24 3.3 9 6.17 13.49 9.32A30 30 0 0 1 506 344.35a16.86 16.86 0 0 0 8.1 9.06 4.86 4.86 0 0 1 .54.33c.93.64 1.23 1.41.48 2.21a2.38 2.38 0 0 1-2.8.27 20.81 20.81 0 0 1-7.45-5.44 28.94 28.94 0 0 1-3.78-5.15c-2.54-4.7-6.87-8.11-12.62-10.67l-17.09-7.87a41.36 41.36 0 0 0-4.82-1.83 10.65 10.65 0 0 0-2.43-.19zm-225.28-9.92c-2.07 0-2.94-1-2-2 4.14-4.55 5.63-9.79 7-15a14.4 14.4 0 0 0 .21-4.3c-.05-1.31-.79-1.65-2.14-.86-3.71 2.17-7.42 4.37-10.87 6.76a12.24 12.24 0 0 1-7.81 2.38c-1.13-.05-2.12-.2-2.45-1.14s.49-1.42 1.47-1.82a71.28 71.28 0 0 0 24.89-17c3.63-3.76 6.45-8 9.61-12a39.81 39.81 0 0 1 9.84-9.13 38.9 38.9 0 0 1 13.16-4.94 2.67 2.67 0 0 1 2 .68c.24.49-.18 1.24-.55 1.79-.19.28-.88.39-1.36.53-9.46 2.59-15.57 7.74-19.71 14.39-3.12 5-4.57 10.42-6.39 15.74-2.56 7.44-5.66 14.73-10.54 21.53a37.5 37.5 0 0 1-3.15 3.69 4.93 4.93 0 0 1-1.21.7zm192.89-57.76l-6.13 4.57c-6 5.28-13.17 9.49-20.7 13.44-2.37 1.25-4.28 3-6.77 4.1a9.69 9.69 0 0 0-5.77 5.67 62.39 62.39 0 0 1-3.21 5.94A45.43 45.43 0 0 1 375 307c-2.86 2.1-5.33 4.5-8.17 6.62-5.78 4.3-9.82 9.62-15.12 14.2-5.65 4.88-10.9 10-16.31 15.06a9 9 0 0 0-1.18 1.44c-5.88 8.14-14.79 13-27.18 14-8.28.69-16.55 1.32-24.93 1.22-7-.07-14.1.47-21.15.74a59.7 59.7 0 0 1-6.12.16c-3.94-.26-7.26-1.61-9.51-4.05s-.93-5.45 2.12-7.28c2.69-1.62 5.72-2.74 8.57-4.12a27.72 27.72 0 0 0 6.74-4.88l29.52-28.28a44 44 0 0 0 6.9-8.76 64.85 64.85 0 0 1 16-17.52l10.93-8.69c1.69-1.38 3.08-3 4.79-4.33 3.83-3.05 3.65-6.74 3.16-10.47-.24-1.85-1.95-3.12-3.68-4.33-5.57-3.87-9.46-8.51-11.06-14.1a25 25 0 0 1-.94-6.1 8.6 8.6 0 0 0-3.45-6.49c-2.72-2.32-5-4.89-7.48-7.38a6.61 6.61 0 0 1-1.92-5.34c.21-2.73-1.07-5-3.4-7.06-3.69-3.31-6-7.24-8.31-11.51-1.08.68-2.11 1.26-3 1.93-6.05 4.47-11.89 9.13-18.19 13.4a139.88 139.88 0 0 1-13.92 7.9 15.92 15.92 0 0 0-7.81 9 45.35 45.35 0 0 1 6.63 0c5 .81 9.87 1.89 13.08 5.24.61.63 1.31 1.36.38 2a4.18 4.18 0 0 1-2.6.44c-2.65-.58-5.21-1.4-7.85-2a7 7 0 0 0-4.65.5c-3.85 1.72-8.23 2.07-12.58 2.47-5.33.5-10.78.9-15.3 3.27a19.39 19.39 0 0 0-5.71 4.49c-5.71 6.84-11.23 13.77-16.65 20.75a32.25 32.25 0 0 0-2.87 5.45c-.25.48-.29 1.1-.73 1.44a3.82 3.82 0 0 1-2.15.9 1.39 1.39 0 0 1-1.51-1.61c.14-1.47.22-2.94.34-4.45a7 7 0 0 0-5 .66 23.33 23.33 0 0 0-3.86 2.81c-2.1 2-4 4.1-6 6.12l-16.12 16c-3.69 3.69-6.81 7.57-8.15 12.19a13.31 13.31 0 0 1-3.05 4.66c-2.56 2.86-5.35 5.61-8.12 8.36a5.11 5.11 0 0 1-1.61.62c.13-.45.07-1 .4-1.33a12.42 12.42 0 0 0 3.32-12.31c-.6-2.56-1-2.77-4.08-1.45-2.43 1.05-4.63 2.38-7.1 3.36-2.85 1.13-5.84 2.11-8.87 3a12 12 0 0 0-5.53 2.81 48.74 48.74 0 0 1-11 8.71c-2.39 1.37-4.68 2.86-7.23 4a117.31 117.31 0 0 0-17.51 10.2c-2.66 1.82-5.65 3.37-8.51 5a10.64 10.64 0 0 1-1.46.57c-.57-1.75-1-3.24 1-4.56l13.41-9.39c2.24-1.64 4.14-3.52 6.24-5.27 1.78-1.48 3.62-2.92 5.44-4.37a18.47 18.47 0 0 0 1.91-1.52c4.35-4.53 9.62-8.42 14.85-12.36a64.85 64.85 0 0 0 7.69-6.93 47.86 47.86 0 0 1 11.21-8.57 47.35 47.35 0 0 0 7-4.68 105.74 105.74 0 0 1 15.86-10.85 42.31 42.31 0 0 0 4.85-3.19 11.85 11.85 0 0 0 5.15-9.05 36.69 36.69 0 0 1 .38-4.31c.62-3.57-1.24-6.86-1.86-10.29a30.31 30.31 0 0 1-.07-5.22v-2.27l-.54-.14-1.43.83c-6.36 3.94-10.86 9-15 14.24a39 39 0 0 0-3.89 6.37c-1.49 2.92-4.48 4.71-7.78 6.32-1.61.79-3.3 1.48-4.94 2.24-3.84 1.77-7 4-8.84 7.18-2.75 4.71-7.54 8-13.67 10.27l-3.29 1.22c-5.92 2-8.9 5.59-9.85 10.25-.19.91-.71 1.36-1.83 1.82-2.58 1.06-5 2.36-7.46 3.54a7.3 7.3 0 0 1-1.18.32c-.07-.39-.38-.87-.19-1.17 1.94-3 3.88-5.93 6-8.84 1.1-1.53 2.54-2.92 3.72-4.42a27.94 27.94 0 0 1 10.22-7.73c5.29-2.51 9.11-6.21 12.79-9.94a54.83 54.83 0 0 1 3.92-4.16 64.46 64.46 0 0 1 6.69-4.72c1.91-1.2 4.07-2.18 6.11-3.27 3.46-1.85 6.42-4 7.91-7.11s4.26-5.7 7.29-8.08l15.89-12.2c1.43-1.1 2.88-1 3.83.3 3.05 4.24 7.63 7.48 12.41 10.55 4.25 2.72 8.74 5.22 13 7.9a48.76 48.76 0 0 1 4.13 3.22c.5-.67 1-1.34 1.55-2l3.89-5.55c3.48-5.33 8.71-9.17 16.3-11.12a21.61 21.61 0 0 0 10.28-6.25c4.27-4.36 8.77-8.61 12.67-13.15 2.3-2.65 5.4-4.21 8.91-5.63a75.05 75.05 0 0 0 14.27-7.93c3.7-2.54 7.48-5 11.27-7.47a35.21 35.21 0 0 0 9.33-8.91 21.24 21.24 0 0 1 3.72-3.6 2.38 2.38 0 0 1 3.08.13 107.28 107.28 0 0 1 8.54 6.73c5.28 5 10.18 10.21 15.42 15.23a39.61 39.61 0 0 0 5.61 3.92c11.73 7.83 21.74 16.77 29 27.16 6.65 9.47 15.84 17.31 25.61 24.89 4 3.14 8.3 6.13 12.29 9.06l12.64-7.39c1.39-.84 2.47-2 3.81-2.87a94.31 94.31 0 0 1 9-5.81 54.83 54.83 0 0 0 13.55-10.49 4.66 4.66 0 0 1 4.07-1.62 4.07 4.07 0 0 1 3.33 2.25 41.65 41.65 0 0 0 12.64 14.11c5 3.5 9.62 7.25 14.13 11.08 5.53 4.71 12.7 7.76 19.5 11.17 4.3 2.17 8.82 4.09 13.28 6.08s7.29 5 10.27 7.93a67.63 67.63 0 0 0 6.59 6.27 7.54 7.54 0 0 1 3.12 5.87c.43 5.35 1 10.7 1.19 16.06.16 4.13-.17 8.27-.29 12.78-2.67-2-5.29-3.48-6.09-6-.22-.68-.62-1.32-.84-2-.84-2.55-3.24-4-6.12-5.23a39.32 39.32 0 0 1-7.72-4.2 87.44 87.44 0 0 1-9-7.85 13.25 13.25 0 0 0-6-3.39c-2.08-.57-4.15-1.17-6.29-1.57-10.16-1.89-18.24-6-24.27-12.43-1.6-1.7-3.75-3.11-5.46-4.76s-3.34-3.55-5-5.33c-1.13-1.21-2.15-2.48-3.41-3.61a50.49 50.49 0 0 0-4-3.08c-3.73-2.7-5.54-6-5.53-9.85a14.87 14.87 0 0 0-2.78-9.35c-.39-.4-.61-.78-.96-1.26z" fill="#fff"/><path d="M305.15 315.05c0 5.21 1.35 5.57.3 8.76-2 6.07-7.95 6.56-10.85 12.21-1.3 2.55-2.26 6.68-.12 13.41a92.4 92.4 0 0 0 10.86-5.63c4.62-2.79 5.89-4.1 8.71-5.39 6.63-3.06 13.06-1.28 15.42-1.75 15.18-3.05 25-15.74 40.58-17.17-1.12 2.33-3.14 4.35-5.12 6.33l-24 23.95c-8.86 8.84-18.19 18-31.35 23-10.42 4-21.71 2.27-43.56.12-19-1.88-28.54-2.81-32.71-7.49-9.38-10.54 6.69-29.9 8.23-31.71 1.06-1.25 1.84-3.13 9-8.41l49.78-36.71c2.28-1.69 6.5-6.58 10.26-5.64 4.56 1.14 2.36 6.25 1.65 8.55-2.43 7.85-7.05 15.36-7.08 23.57z" fill="#3d4e55"/><g fill="#f79a69"><path d="M226.26 536.22c.22.66.23.79-.28 1.21a2.13 2.13 0 0 0-.74 1.26l-.3 1.23a1.64 1.64 0 0 0 1.16 2.08l3.49 1c1.62.4 2.09 1.66 1.48 3.35a8.39 8.39 0 0 0-.31 1.22 11.45 11.45 0 0 1-1 2.25 4.38 4.38 0 0 1-2.61-.08l-3.06-.91a1.83 1.83 0 0 0-2 1.16c-.21.55-.36 1.13-.52 1.7l-1 3.4-1.29 4.55-.92 3.08a1.84 1.84 0 0 1-2.34 1.39l-2.91-.87a2 2 0 0 1-1.13-2.66l2.33-8.22 1.3-4.45 1.65-5.95 1-3.24 1.2-4.4.52-1.69 1.63-5.69a6.06 6.06 0 0 1 .7-1.33.75.75 0 0 1 .4-.24 2.73 2.73 0 0 1 1.87 0c1 .35 2 .59 3 .87l4.17 1.18 5 1.42a2 2 0 0 1 1.41 2.4l-1 3.33c-.23.66-.65 1.19-1.4 1.13a10.14 10.14 0 0 1-1.35-.15q-1.23-.25-2.43-.6l-3-.95a5.38 5.38 0 0 0-1.2-.13 1.33 1.33 0 0 0-1 .57.63.63 0 0 0-.11.6 1.31 1.31 0 0 1-.41 1.18zm23.51-4.67l6 1.17a4.42 4.42 0 0 1 .94.28 1.76 1.76 0 0 1 1 1.72 3.92 3.92 0 0 1-.08.84l-.61 2.8a1.71 1.71 0 0 1-1.8 1.39 10.9 10.9 0 0 1-1.28-.15l-4.68-1a9.3 9.3 0 0 0-1.06-.13 1.64 1.64 0 0 0-1.74 1.42l-.91 4.48a1.86 1.86 0 0 0 1.4 2.34l3.51.67c1.36.28 1.87 1.18 1.63 2.72a15.07 15.07 0 0 1-.61 2.88c-.44 1.21-1.07 1.62-2.22 1.4l-3.58-.68a2.19 2.19 0 0 0-1 0 1.66 1.66 0 0 0-1.12 1.39l-.45 2.32-.71 3.66a1.88 1.88 0 0 0 .66 2.06 1.61 1.61 0 0 0 .61.28l3.88.77c.88.12 1.72.4 2.6.51a1.77 1.77 0 0 1 1.41 2 18.11 18.11 0 0 1-.71 3.56 1.74 1.74 0 0 1-2 1.37 6.44 6.44 0 0 1-1-.15l-5.06-1-4.45-.94-2.4-.39a2.24 2.24 0 0 1-.89-.4 1.87 1.87 0 0 1-.7-2c.35-1.34.5-2.71.77-4.07l1.18-6.13q.7-3.66 1.42-7.3l.74-3.55.26-1.67c.8-3.78 1.42-7.59 2.19-11.37a6.27 6.27 0 0 1 .44-1.35 1.7 1.7 0 0 1 1.85-1.05c.45.06.9.16 1.34.25l5.23 1zm8.51 34.04l.4-4.21a4.56 4.56 0 0 1 .33-1.63.45.45 0 0 0 0-.32 2.18 2.18 0 0 1 0-1.16l.81-7.58c0-.36.11-.72.17-1.08l.1-.67.48-5.21.37-3.62c0-.33.09-.67.13-1a13.45 13.45 0 0 0 .22-2 7 7 0 0 1 .21-1.5 1.86 1.86 0 0 1 2.37-1.61l1.11.36a.34.34 0 0 0 .28-.05.79.79 0 0 1 .72-.14l5.87.77a8.72 8.72 0 0 1 3.61 1.4 14.9 14.9 0 0 1 1.52 1.08 9 9 0 0 1 2.75 5.86 12.64 12.64 0 0 1-1.61 7.85 4.55 4.55 0 0 1-1.5 1.67 1.59 1.59 0 0 0-.75 1.56 1.33 1.33 0 0 0 .42 1 8.06 8.06 0 0 1 2.34 4.47 6.6 6.6 0 0 1 .11 1.09 14.31 14.31 0 0 1 0 1.85 34.48 34.48 0 0 1-.45 3 11.36 11.36 0 0 1-1.29 3.43 9.25 9.25 0 0 1-3.44 3.55 8.89 8.89 0 0 1-4 1.25l-2.43.09c-1-.05-2-.2-3-.31l-3-.32-2.24-.38a1.35 1.35 0 0 1-1-1.12 4.75 4.75 0 0 1-.11-1.41l.52-5zm7.24-3.92h0l-.31 2.93c-.16 1.66.74 2.3 1.6 2.31a6.57 6.57 0 0 0 2.41-.29 3.59 3.59 0 0 0 2-1.6 5 5 0 0 0 .58-2.33 5.82 5.82 0 0 0-.94-3.62 4.84 4.84 0 0 0-3-2 1.71 1.71 0 0 0-1.93 1.57c-.21 1.01-.3 2.02-.41 3.03zm1.5-14.84h.06c0 .39-.11.78-.12 1.17a1.56 1.56 0 0 0 1.53 1.82 4.56 4.56 0 0 0 .91 0 4.09 4.09 0 0 0 3.4-4 3.64 3.64 0 0 0-3.8-4.09 1.23 1.23 0 0 0-.82.39 3.11 3.11 0 0 0-.78 2.11 3.36 3.36 0 0 1 0 1c-.08.53-.24 1.06-.4 1.6zm42.29-10.76c.49-.52 1.18-.16 1.8 0a7.68 7.68 0 0 1 5.06 3.68 13.42 13.42 0 0 1 1.64 5.16 23.19 23.19 0 0 1-.09 5.07 11.83 11.83 0 0 1-.4 1.74 3.24 3.24 0 0 0-.13.41 16.92 16.92 0 0 1-1.92 4.75 50.77 50.77 0 0 1-2.62 4.53l-3.54 5.7a1.16 1.16 0 0 0-.16 1.33 1.18 1.18 0 0 0 1.15.7l5.25-.11a3.94 3.94 0 0 1 1.43.3 1.65 1.65 0 0 1 .9 1.12 8.46 8.46 0 0 1 0 4 1.71 1.71 0 0 1-1.39 1.33 3.15 3.15 0 0 1-.61.06l-7.42.22h-3.7a4.94 4.94 0 0 0-1.4.34.94.94 0 0 1-1.09-.09 1.29 1.29 0 0 0-.65-.22 1.89 1.89 0 0 1-1.64-2l-.09-2.66a6.14 6.14 0 0 1 1.18-3.48l3.31-5.06 4-6.7c.67-1.15 1.23-2.38 1.81-3.59a12.84 12.84 0 0 0 1.23-5 9 9 0 0 0-.39-3 2.21 2.21 0 0 0-3.68-1.09 1.82 1.82 0 0 0-.82 1.81c-.41.92-.08 2.05-.73 2.92a1.88 1.88 0 0 1-1.34.91 28.12 28.12 0 0 1-3.31 0 1.82 1.82 0 0 1-1.44-1.87 16.05 16.05 0 0 1 .56-5.18 9.05 9.05 0 0 1 3-4.28 8 8 0 0 1 5.33-1.94 4.18 4.18 0 0 1 .91.19zm32.57 34.52c-.34 0-.56.23-.65.62a.93.93 0 0 1-.45.62c-.48.36-.89.85-1.37 1.22a8.56 8.56 0 0 1-6.42 1.81 8.21 8.21 0 0 1-5-2.31 7.91 7.91 0 0 1-2-3 27.51 27.51 0 0 1-1.78-7.74l-.55-5.48-.81-8.17a23.2 23.2 0 0 1 .3-7 8.82 8.82 0 0 1 1.34-3.13 8.32 8.32 0 0 1 2.61-2.37 8.8 8.8 0 0 1 8.26-.67 7.08 7.08 0 0 1 2.9 2.17 13.33 13.33 0 0 1 2.55 5.49 41.79 41.79 0 0 1 .92 6.48l.82 8.15a63.22 63.22 0 0 1 .44 6.88 18.08 18.08 0 0 1-1 5.44 7.92 7.92 0 0 0-.11.99zm-7-25.53l-.56-1.88a2.41 2.41 0 0 0-2.89-1.74 2.73 2.73 0 0 0-2.19 2.68 19.11 19.11 0 0 0 .05 2.14l.54 5.22.64 7 .84 6.74a4.25 4.25 0 0 0 .73 1.69 2.41 2.41 0 0 0 4 0 5 5 0 0 0 .65-2.59 23.1 23.1 0 0 0-.24-3.51c-.23-1.58-.3-3.19-.45-4.78l-1.16-10.97zm18.74-13.59c.39-.59 1.13-.35 1.77-.32A7.71 7.71 0 0 1 361 534a13.52 13.52 0 0 1 2.44 4.83 22.61 22.61 0 0 1 .72 5 11.82 11.82 0 0 1-.11 1.78c0 .14-.06.28-.06.42a16.85 16.85 0 0 1-1.14 5 50.59 50.59 0 0 1-1.85 4.89c-1 2-1.73 4.12-2.59 6.19a1.18 1.18 0 0 0 .06 1.34 1.21 1.21 0 0 0 1.25.51l5.17-1a4 4 0 0 1 1.46 0 1.72 1.72 0 0 1 1.07 1 8.63 8.63 0 0 1 .68 3.94 1.72 1.72 0 0 1-1.16 1.54 3.13 3.13 0 0 1-.6.16l-7.28 1.41-3.65.63a4.7 4.7 0 0 0-1.33.56 1 1 0 0 1-1.09.09 1.38 1.38 0 0 0-.68-.12 1.88 1.88 0 0 1-1.93-1.68c-.22-.86-.35-1.74-.52-2.62a6 6 0 0 1 .61-3.61l2.46-5.53q1.5-3.6 2.9-7.26c.47-1.25.83-2.55 1.21-3.84a12.91 12.91 0 0 0 .4-5.15 8.87 8.87 0 0 0-.87-2.95 2.21 2.21 0 0 0-3.81-.48 1.83 1.83 0 0 0-.52 1.92c-.26 1 .25 2-.25 3a1.88 1.88 0 0 1-1.17 1.11 30.09 30.09 0 0 1-3.27.53 1.83 1.83 0 0 1-1.73-1.61 16.33 16.33 0 0 1-.27-5.21 9 9 0 0 1 2.25-4.7 8 8 0 0 1 5-2.77 3.35 3.35 0 0 1 .82.15zm21.25-5.02c.34-.63 1.09-.46 1.73-.48a7.65 7.65 0 0 1 5.82 2.28 13.56 13.56 0 0 1 2.89 4.59 23.45 23.45 0 0 1 1.18 4.93 11.73 11.73 0 0 1 .05 1.78v.43a16.6 16.6 0 0 1-.67 5.09 51.46 51.46 0 0 1-1.39 5l-2 6.41a1.24 1.24 0 0 0 1.47 1.71l5.06-1.42a4 4 0 0 1 1.46-.08 1.7 1.7 0 0 1 1.15.86 8.55 8.55 0 0 1 1 3.87 1.67 1.67 0 0 1-1 1.63 2.89 2.89 0 0 1-.58.22l-7.12 2.08-3.58 1a5.07 5.07 0 0 0-1.27.69c-.34.23-.63.41-1.07.18a1.45 1.45 0 0 0-.69-.05 1.89 1.89 0 0 1-2.08-1.49l-.75-2.56a5.92 5.92 0 0 1 .27-3.66l1.93-5.73 2.21-7.5c.36-1.29.6-2.61.85-3.93a12.87 12.87 0 0 0-.07-5.17 9.26 9.26 0 0 0-1.14-2.86 2.21 2.21 0 0 0-3.84-.13 1.84 1.84 0 0 0-.34 2c-.17 1 .44 2 0 3a1.89 1.89 0 0 1-1.06 1.22 32.94 32.94 0 0 1-3.21.84 1.82 1.82 0 0 1-1.87-1.45 16 16 0 0 1-.75-5.16 8.93 8.93 0 0 1 1.81-4.89 8 8 0 0 1 4.66-3.23 3.91 3.91 0 0 1 .94-.02zm-137.6-402.9l4.63-1.14a3.16 3.16 0 0 1 .75-.11 1.36 1.36 0 0 1 1.24.9 3.42 3.42 0 0 1 .22.61l.47 2.17a1.32 1.32 0 0 1-.81 1.56 8.1 8.1 0 0 1-1 .31l-3.61.83a5.57 5.57 0 0 0-.79.25 1.27 1.27 0 0 0-.76 1.56l.81 3.44a1.43 1.43 0 0 0 1.74 1.19l2.69-.66c.9-.21 1.69.22 2 1.38a10.75 10.75 0 0 1 .51 2.23c.08 1-.23 1.49-1.11 1.7l-2.74.68a1.75 1.75 0 0 0-.72.36 1.27 1.27 0 0 0-.35 1.34l.44 1.79.69 2.8a1.45 1.45 0 0 0 1.13 1.23 1.3 1.3 0 0 0 .52 0l3-.71c.66-.21 1.34-.28 2-.49a1.36 1.36 0 0 1 1.65 1 13.4 13.4 0 0 1 .65 2.73 1.34 1.34 0 0 1-1 1.6 4.4 4.4 0 0 1-.73.22l-3.88.95-3.43.78-1.81.5a1.63 1.63 0 0 1-.76 0 1.45 1.45 0 0 1-1.15-1.21c-.19-1.06-.53-2.07-.78-3.11l-1.15-4.7q-.69-2.79-1.37-5.59l-.63-2.73c-.1-.43-.26-.84-.36-1.26l-2.14-8.7a5.16 5.16 0 0 1-.13-1.1 1.33 1.33 0 0 1 1-1.34l1-.26 4-1zm30.82 19.9l.36.2a1.56 1.56 0 0 0-.65 1.27 1.9 1.9 0 0 1-.38 1.06 2.13 2.13 0 0 0-.25.5 4 4 0 0 1-1.22 1.68l-.95.84a1.45 1.45 0 0 1-.4.26l-2.3.94a2.13 2.13 0 0 1-1.09.18.57.57 0 0 0-.29 0 6.68 6.68 0 0 1-3.79-.41 7.22 7.22 0 0 1-2.88-2.09A12.24 12.24 0 0 1 252 144a2.06 2.06 0 0 1-.13-1 1.44 1.44 0 0 1 .81-1.15l1.58-.82.47-.24a1.34 1.34 0 0 1 2 .87 8 8 0 0 0 .92 1.7 3.43 3.43 0 0 0 1.86 1.36 2.59 2.59 0 0 1 .65.31c.37.22.49.18.76-.23a.94.94 0 0 1 .36-.29 2.6 2.6 0 0 0 1.17-2.86 4.6 4.6 0 0 0-1.8-2.63c-.7-.56-1.44-1-2.18-1.52l-3.58-2.28a12.94 12.94 0 0 1-2.82-2.47 9.69 9.69 0 0 1-2.09-5.09 9 9 0 0 1 .71-4.53 3.39 3.39 0 0 1 .59-.94c.31-.33.49-.83 1-1 .11 0 .17-.23.26-.33A4.33 4.33 0 0 1 254 120a6.34 6.34 0 0 1 1.38-.5 9.64 9.64 0 0 1 2.19-.31 6.45 6.45 0 0 1 3.53 1 8.85 8.85 0 0 1 2.23 2 10.47 10.47 0 0 1 1.6 2.71 1.47 1.47 0 0 1-.66 2c-.65.41-1.37.65-2 1.06a1.32 1.32 0 0 1-1.91-.58 14 14 0 0 0-.94-1.46 2.45 2.45 0 0 0-1.84-1.09 1 1 0 0 0-.46.07c-.39.16-.69.52-1.11.64-.09 0-.19.17-.22.29l-.26 1.12a.5.5 0 0 0 .19.52.68.68 0 0 1 .3.61 1.69 1.69 0 0 0 .58 1.31 9.28 9.28 0 0 0 2.06 1.6l3.55 2.2a17.39 17.39 0 0 1 2.73 2.05 9.57 9.57 0 0 1 2.74 4.42 15 15 0 0 1 .42 1.85l-.01 1.94zm11.54-12.73l.54 6q.4 4.43.79 8.87a3.46 3.46 0 0 1 0 .91 1.17 1.17 0 0 1-.95 1.08l-2.21.26a5 5 0 0 1-.77 0 1.19 1.19 0 0 1-1.11-.93 5 5 0 0 1-.2-.95l-.14-2-.26-2.72-.28-3.44-.17-1.76-.42-4.5q-.26-2.73-.52-5.48c0-.47-.12-1-.12-1.43a1.45 1.45 0 0 0-1.6-1.49l-2.17.2a1.51 1.51 0 0 1-1.54-1.31q-.14-1.31-.21-2.61a1.22 1.22 0 0 1 .76-1.31 3.22 3.22 0 0 1 .9-.27l4.45-.42 5.85-.52c.61 0 1.21-.11 1.81-.14.94-.06 1.5.48 1.59 1.51 0 .5.14 1 .16 1.49a10.13 10.13 0 0 1-.08 1.56.92.92 0 0 1-.56.7 1.88 1.88 0 0 1-.61.19l-1.47.13a8.08 8.08 0 0 0-.86.1c-.93.2-1.25.68-1.17 1.75l.25 2.8.34 3.79zm12.03 13.08l.07 1.73a1.33 1.33 0 0 1-1.29 1.44q-1.14.09-2.28.09a1.42 1.42 0 0 1-1.4-1.5c0-.84-.09-1.68-.13-2.52a1.85 1.85 0 0 1 0-.47c.18-1 .28-1.38 1.37-1.5a19.07 19.07 0 0 1 2.27-.11 1.35 1.35 0 0 1 1.32 1.31c.06.5.05 1 .08 1.53zm23.8-27.52c.41-.38.92-.07 1.39.07a5.91 5.91 0 0 1 3.72 3.1 10.38 10.38 0 0 1 1 4.07 18.18 18.18 0 0 1-.34 3.91 8.41 8.41 0 0 1-.4 1.33c0 .1-.09.2-.12.3a12.9 12.9 0 0 1-1.73 3.58 40.24 40.24 0 0 1-2.26 3.36c-1.07 1.35-2 2.81-3 4.22a.9.9 0 0 0-.19 1 .94.94 0 0 0 .86.6l4.06.19a3 3 0 0 1 1.09.3 1.26 1.26 0 0 1 .63.91 6.62 6.62 0 0 1-.18 3.1 1.31 1.31 0 0 1-1.14.95 1.92 1.92 0 0 1-.48 0l-5.74-.21c-.95 0-1.91-.14-2.86-.16a3.79 3.79 0 0 0-1.1.19c-.31.09-.57.15-.83-.13a1.18 1.18 0 0 0-.5-.21 1.45 1.45 0 0 1-1.16-1.6l.07-2.06a4.68 4.68 0 0 1 1.09-2.62l2.83-3.74 3.46-5c.57-.86 1.08-1.77 1.58-2.68a9.91 9.91 0 0 0 1.22-3.81 7.08 7.08 0 0 0-.14-2.38 1.71 1.71 0 0 0-2.79-1 1.41 1.41 0 0 0-.73 1.35c-.37.69-.17 1.59-.71 2.22a1.46 1.46 0 0 1-1.09.63 22 22 0 0 1-2.56-.17 1.4 1.4 0 0 1-1-1.52 12.65 12.65 0 0 1 .7-4 7.11 7.11 0 0 1 2.53-3.15 6.18 6.18 0 0 1 4.22-1.22 2.61 2.61 0 0 1 .6.28zm21.63 30.53c-.25-.08-.47.08-.6.36a.73.73 0 0 1-.44.39c-.43.2-.82.5-1.24.7a6.62 6.62 0 0 1-5.16.3 6.37 6.37 0 0 1-3.36-2.58 6.13 6.13 0 0 1-1-2.58 21.46 21.46 0 0 1-.06-6.15l.5-4.23.76-6.31a17.94 17.94 0 0 1 1.39-5.26 7 7 0 0 1 1.53-2.14 6.67 6.67 0 0 1 2.38-1.36 6.79 6.79 0 0 1 6.35.88 5.34 5.34 0 0 1 1.83 2.12 10.31 10.31 0 0 1 1 4.58 32.84 32.84 0 0 1-.39 5.05l-.74 6.3a49.51 49.51 0 0 1-.82 5.28 14.14 14.14 0 0 1-1.63 4 6.22 6.22 0 0 0-.3.65zM336 126.32c0-.33 0-.93-.11-1.51A1.87 1.87 0 0 0 334 123a2.13 2.13 0 0 0-2.11 1.66 15.1 15.1 0 0 0-.31 1.63l-.47 4-.67 5.37-.49 5.24a3.1 3.1 0 0 0 .27 1.4 1.86 1.86 0 0 0 3 .62 4 4 0 0 0 .92-1.85 17.28 17.28 0 0 0 .4-2.69c.09-1.24.31-2.46.46-3.69l1-8.37zm10.62 16.96l1-5.09.46-2.83.91-5.12a1.58 1.58 0 0 0-1.41-2 2 2 0 0 1-1.07-.34 1.23 1.23 0 0 1-.61-1 3.69 3.69 0 0 1 .45-2.18 2.24 2.24 0 0 1 1.21-1 16.19 16.19 0 0 0 2.25-1c.81-.44 1.59-1 2.39-1.46a2.58 2.58 0 0 1 2.55 0 1.26 1.26 0 0 1 .68 1.34 11.85 11.85 0 0 1-.15 1.32l-.66 3.4-1 5.45-1.06 5.69-.21 1.39-1.35 7.48-.48 2.42a1.57 1.57 0 0 1-1.83 1.44 18.42 18.42 0 0 1-1.94-.37c-.87-.21-1.2-.71-1.13-1.69 0-.51.12-1 .2-1.52l.37-2.17.4-2.16z"/><path d="M358.65 143.39l.93.24a1.52 1.52 0 0 1 1.16 1.77c0 .39-.06.79-.11 1.19-.24 1.71 1.08 2.88 2.57 2.26a1.83 1.83 0 0 0 .55-.42 5.13 5.13 0 0 0 1.08-2 11.16 11.16 0 0 0 .57-2.73 2.54 2.54 0 0 0-1.24-2.47 4.76 4.76 0 0 1-.7-.47c-.75-.67-.6-1.57-.36-2.48a6.82 6.82 0 0 0 .27-1 2 2 0 0 1 1.65-1.67h.54a2.13 2.13 0 0 0 2-1.41 8.27 8.27 0 0 0 .74-3.29 1.78 1.78 0 0 0-1-1.67 1.39 1.39 0 0 0-1.78.59 7.76 7.76 0 0 0-.74 1.15 1.58 1.58 0 0 1-1.79 1l-2.25-.6a1.5 1.5 0 0 1-.79-1.52 2.79 2.79 0 0 1 .14-.65 9.49 9.49 0 0 1 2-3.4 5.34 5.34 0 0 1 2.21-1.54 2.84 2.84 0 0 1 1.45-.31.45.45 0 0 0 .29-.07 1.77 1.77 0 0 1 1.67 0 .36.36 0 0 0 .22 0c2.06-.22 4.49 1.93 5.1 3.83a10.22 10.22 0 0 1 .37 4 15.34 15.34 0 0 1-1 4.26 6 6 0 0 1-1.77 2.57 1.82 1.82 0 0 0-.48 2.08 6.53 6.53 0 0 1 .48 4 18.46 18.46 0 0 1-1.15 4.36 13.76 13.76 0 0 1-2 3.42 1.2 1.2 0 0 1-.22.23A7.6 7.6 0 0 1 365 154a7.28 7.28 0 0 1-2.07.5 7 7 0 0 1-5.68-2.15 6.65 6.65 0 0 1-1.75-3.61 9.94 9.94 0 0 1 .3-4.59 1.34 1.34 0 0 1 1.49-1.09c.24 0 .48.08.71.13l.64.16z"/></g></svg>