<svg xmlns="http://www.w3.org/2000/svg" xmlns:xlink="http://www.w3.org/1999/xlink" viewBox="0 0 2847.87 2022.24"><defs><style>.cls-1{fill:none;}.cls-2{fill:url(#linear-gradient);}.cls-3{fill:url(#linear-gradient-2);}.cls-4{fill:url(#linear-gradient-3);}.cls-5{fill:url(#linear-gradient-4);}.cls-6{fill:url(#linear-gradient-5);}.cls-7{fill:url(#linear-gradient-6);}.cls-8{fill:url(#linear-gradient-7);}.cls-9{fill:url(#linear-gradient-8);}.cls-10{fill:url(#linear-gradient-9);}.cls-11{fill:url(#linear-gradient-10);}.cls-12{fill:url(#linear-gradient-11);}.cls-13{fill:url(#linear-gradient-12);}.cls-14{fill:url(#linear-gradient-13);}.cls-15{fill:url(#linear-gradient-14);}.cls-16{fill:url(#linear-gradient-15);}.cls-17{fill:url(#linear-gradient-16);}.cls-18{fill:url(#linear-gradient-17);}.cls-19{fill:url(#linear-gradient-18);}.cls-20{fill:url(#linear-gradient-19);}.cls-21{fill:url(#linear-gradient-20);}.cls-22{opacity:0.5;}.cls-23{clip-path:url(#clip-path);}.cls-24{fill:url(#linear-gradient-21);}</style><linearGradient id="linear-gradient" x1="5817.04" y1="560.55" x2="5817.04" y2="561.55" gradientTransform="matrix(660.16, 0, 0, -930.05, -3838019.85, 522495.13)" gradientUnits="userSpaceOnUse"><stop offset="0" stop-color="#070f0d"/><stop offset="1" stop-color="#046836"/></linearGradient><linearGradient id="linear-gradient-2" x1="5817.58" y1="560.56" x2="5817.58" y2="561.56" gradientTransform="matrix(703.1, 0, 0, -947.89, -4088570.15, 532467.53)" xlink:href="#linear-gradient"/><linearGradient id="linear-gradient-3" x1="5817.48" y1="560.55" x2="5817.48" y2="561.55" gradientTransform="matrix(695.01, 0, 0, -941.81, -4040836.99, 529499.43)" xlink:href="#linear-gradient"/><linearGradient id="linear-gradient-4" x1="5817.48" y1="560.55" x2="5817.48" y2="561.55" gradientTransform="matrix(695.01, 0, 0, -941.81, -4042277.57, 528892.68)" xlink:href="#linear-gradient"/><linearGradient id="linear-gradient-5" x1="5817.48" y1="560.55" x2="5817.48" y2="561.55" gradientTransform="matrix(695.01, 0, 0, -941.82, -4041884.27, 529034.22)" xlink:href="#linear-gradient"/><linearGradient id="linear-gradient-6" x1="5817.48" y1="560.61" x2="5817.48" y2="561.45" gradientTransform="matrix(695.02, 0, 0, -941.81, -4042660.65, 529230.86)" xlink:href="#linear-gradient"/><linearGradient id="linear-gradient-7" x1="5817.04" y1="560.55" x2="5817.04" y2="561.55" gradientTransform="matrix(660.14, 0, 0, -930.06, -3838952.34, 522671.31)" xlink:href="#linear-gradient"/><linearGradient id="linear-gradient-8" x1="5817.48" y1="560.55" x2="5817.48" y2="561.55" gradientTransform="matrix(695.01, 0, 0, -941.82, -4041678.54, 529369.74)" xlink:href="#linear-gradient"/><linearGradient id="linear-gradient-9" x1="5817.48" y1="560.55" x2="5817.48" y2="561.55" gradientTransform="matrix(695.01, 0, 0, -941.81, -4041132.59, 529568.17)" xlink:href="#linear-gradient"/><linearGradient id="linear-gradient-10" x1="5817.58" y1="560.56" x2="5817.58" y2="561.56" gradientTransform="matrix(703.1, 0, 0, -947.89, -4088562.31, 532917.11)" xlink:href="#linear-gradient"/><linearGradient id="linear-gradient-11" x1="5817.04" y1="560.55" x2="5817.04" y2="561.55" gradientTransform="matrix(660.15, 0, 0, -930.05, -3838820.57, 522959.95)" xlink:href="#linear-gradient"/><linearGradient id="linear-gradient-12" x1="5817.6" y1="560.56" x2="5817.6" y2="561.56" gradientTransform="matrix(705.35, 0, 0, -980.06, -4102463.61, 550947.77)" xlink:href="#linear-gradient"/><linearGradient id="linear-gradient-13" x1="5817.6" y1="560.56" x2="5817.6" y2="561.56" gradientTransform="matrix(705.36, 0, 0, -980.06, -4103026.18, 550936.45)" xlink:href="#linear-gradient"/><linearGradient id="linear-gradient-14" x1="5817.58" y1="560.56" x2="5817.58" y2="561.56" gradientTransform="matrix(703.1, 0, 0, -947.89, -4088368.98, 533349.32)" xlink:href="#linear-gradient"/><linearGradient id="linear-gradient-15" x1="5817.48" y1="560.55" x2="5817.48" y2="561.55" gradientTransform="matrix(695.02, 0, 0, -941.82, -4042540.14, 529795.99)" xlink:href="#linear-gradient"/><linearGradient id="linear-gradient-16" x1="5817.48" y1="560.55" x2="5817.48" y2="561.55" gradientTransform="matrix(695.02, 0, 0, -941.81, -4042732.37, 529899.66)" xlink:href="#linear-gradient"/><linearGradient id="linear-gradient-17" x1="5817.48" y1="560.55" x2="5817.48" y2="561.55" gradientTransform="matrix(695.02, 0, 0, -941.82, -4041626.98, 529907.99)" xlink:href="#linear-gradient"/><linearGradient id="linear-gradient-18" x1="5817.04" y1="560.55" x2="5817.04" y2="561.55" gradientTransform="matrix(660.16, 0, 0, -930.05, -3837800.65, 523302.08)" xlink:href="#linear-gradient"/><linearGradient id="linear-gradient-19" x1="5817.04" y1="560.55" x2="5817.04" y2="561.55" gradientTransform="matrix(660.15, 0, 0, -930.05, -3838823.54, 523302.08)" xlink:href="#linear-gradient"/><linearGradient id="linear-gradient-20" x1="5817.58" y1="560.56" x2="5817.58" y2="561.56" gradientTransform="matrix(703.1, 0, 0, -947.89, -4089331.64, 533318.27)" xlink:href="#linear-gradient"/><clipPath id="clip-path"><path class="cls-1" d="M2722.17,1303.57,2653,1282l2-5.37,36.54-4L2667.65,1255l53.24-9.4-119.5-52.54,56-13.21c-7-6.66-10.29-9.78-13.92-13.22l50.7-11.64-71.65-25.17c15.19-5.59,23.83-8.76,34.9-12.82l-88.35-32.32,2-8.08h57.18l-25.84-14.95,59.29-11.4-65-23.73,19.45-13.3-53.68-18.27,36.33-13.44-96-44.85c1-2.15,2.08-4.29,3.13-6.44l32.41-7-13.17-15,37.66-4.44c-.08-2-.15-3.92-.23-5.88l-36.69-16.38,27.6-15.1-52.59-25.76c3.89-6.24,6.19-10,7.71-12.4L2445.71,800l37.39-7.67-19.63-14.93,18.33-8.93L2417,723.34c12.68-2.16,16.5-2.19,19.75-3.56,2.87-1.21,5.09-3.92,9.84-7.79-40-14.6-53.78-47.55-63.92-89.58-10.49,25.28-14.54,43.69-24.83,57.44-5.93,7.94-13.92,14.33-22.61,20.74A153.5,153.5,0,0,1,2322.27,683l25.5-21.15c-16.21-19.34-30.57-36.45-44.32-52.86l62-29.77-63.15-16.85c13.09-14.46,22.74-25.14,32.4-35.82-32.58-.39-57.28-8.36-76-32l42-31.8c-47.41-26.84-77.84-62.07-95.8-111.24l24.3-3.19-75.27-126.44c-24.76,41.56-50.15,84.15-75.4,126.54l24.75,3.53c-19.36,48.41-48.4,85.17-96.9,110.63L2049,494.35c-20.46,25.78-46,33.18-84.6,22.09l38.91,45.42-45.47,12.48-11.1-19L1981.25,540l-74.72-76.35,30.87-18.94c-22-19.82-41-35.79-58.41-53.26-5.69-5.72-8.41-15.12-10.66-23.34-1.94-7.07,1.71-18.57-2.24-21.75-49.61-39.94-72.95-98.22-106.41-149.38-5.23-8-11.48-15.31-17.25-22.95l-7,1.84c.94,76.95-13.29,148.3-80,203.58l42.47,7.87c-29.46,31.54-55.18,59.09-80.8,86.54,25.37,28.26,25.67,28.53-2.89,59.62-8.35,9.1-17,17.89-26.32,27.11a80.62,80.62,0,0,1-8.64-8.7l13.71-9.38-25.76-8.77a142.31,142.31,0,0,1-7.44-17.08l15.85-5.86-20.86-9.74q-2-7-3.77-14.44c-1.54,3.72-2.93,7.27-4.24,10.7L1479.65,466q1.56-3.21,3.13-6.44l32.41-7L1502,437.49l37.66-4.43c-.07-2-.15-3.93-.23-5.89l-36.69-16.38,27.6-15.1-52.58-25.76,7.71-12.4-62.88-28.23,37.38-7.68-19.63-14.94,18.33-8.92-64.81-45.11c12.68-2.17,16.5-2.19,19.75-3.57,2.87-1.21,5.09-3.92,9.84-7.8-40-14.59-53.79-47.54-63.93-89.57-10.48,25.28-14.54,43.69-24.82,57.44s-26.86,22.95-42.48,35.61l24.15,10.45-60.75,41.5,17.53,8.2-18.29,17.24,28.21,4.46,1.29,5.16-52.59,21.93c-.87,32.88-33,25.19-46.55,40.68l24.61,14.76-28.54,13.27-6.72-2.45,19.46-13.3-53.69-18.27L1176.69,375l-96-44.85q1.56-3.21,3.13-6.44l32.41-7c-5.16-5.9-8.61-9.86-13.17-15.06l37.67-4.43-.24-5.88-36.69-16.39,27.6-15.1-52.58-25.76,7.71-12.4-62.88-28.23,37.38-7.69-19.63-14.92,18.33-8.93L994.89,116.8c12.68-2.17,16.5-2.2,19.75-3.57,2.86-1.21,5.09-3.92,9.84-7.8-40-14.59-53.78-47.54-63.93-89.57C950.07,41.14,946,59.55,935.73,73.3s-26.86,23-42.49,35.62l24.16,10.44-60.74,41.49,17.52,8.21L855.89,186.3l28.21,4.46,1.29,5.16L832.8,217.84c-.87,32.89-33,25.19-46.56,40.68l24.6,14.75-44.4,20.65,43.19,7.2-11,14.33,33.5,4.58,1.38,6.84-97.87,46.45L773,384.41l-55.23,19.28,20,13.08-67.72,24C635.32,425,622.56,393.54,613,354c-10.49,25.28-14.55,43.69-24.84,57.45s-26.85,22.94-42.48,35.61l24.15,10.45L509.13,499l17.52,8.21-18.28,17.24L536.58,529l1.28,5.15L485.28,556c-.87,32.89-33,25.19-46.56,40.66l24.61,14.76L418.92,632.1l36.08,6c-11.18,16.34-23,32.17-36.25,46.6A309.72,309.72,0,0,1,393.48,709l-5.37,2.55,1.78.53c-23.87,20.2-50.25,38.26-75.09,58.29h-37c24,22.54,67.5,29,89.72,16.21l4.88.8a28,28,0,0,1,1.74,9.36l-15.93,8.75,15.34,1.46A121.23,121.23,0,0,1,367.71,830l-45.7,15,34.56,8.64v1.75c-.86,1.62-1.75,3.24-2.66,4.83L296.07,879.7l.18,4.35,35.56,5.55c-.72.67-1.44,1.32-2.15,1.93-34.12,29.16-75.22,35.33-119,35.93,26.38,20.79,54.32,29.89,84,30.62l-35.85,15.1,57.68,8-27.1,18.7,27.43,4.1a142.23,142.23,0,0,1-19.49,14.87l-37.52,10.82,13.28,4.38c-24.89,15.93-48.9,33.54-76,52.2,31,10.5,62,18.57,97.1,6.64-39,51.91-95.13,77.06-151.74,101.51l2.23,7.06h72.05l.53,4.48-63.42,28,2.06,5.19L308,1258.56c-11.92,44.2-43.51,47.48-82.1,48.94,13.27,7.78,21.41,12.54,29.55,17.3l-.21,7.92L125.7,1343c18.43,22.25,77.14,40.82,112,39.7,22.66-.73,45.35-.68,68-.52,7.67,2.28,15.24,4.52,25.26,7.51L275.72,1409l20,13.07-68.12,24.15,64.78,10.6-28.68,15.75,51.72,4.91c.52,1.75,1,3.5,1.55,5.24l-89.44,29.46,34.55,8.65v5.68l-60.5,20.32c.07,1.45.13,2.9.19,4.35l55.81,8.71-27,15.1,47.42,9.73,1.25,7.16-114.95,48.42,57.69,8c-10.2,7-16.75,11.54-27.1,18.7l38.58,5.76.24,4.29-68.41,19.74,39.83,13.1-42.09,21.56,2.16,7.43H242l-33.56,25.26c2.49,12.72,3.87,19.75,5.43,27.65h28.93c-23.42,15.15-41.45,26.84-67,43.35h60.92L208,1861.19l2,4.45L284,1847.41l2,3.66-42.1,27.4c28.64,1.94,54.79-3.26,81.17-6.71,14.7-1.92,34.2-7,43.84-.07,27,19.51,49.57,5.19,73.85-2,4.31-1.28,8.83-1.86,15.93-3.31,11.74,35.16-13.38,61.82-17.54,96.29,34.5,0,67.54-.61,100.54.2,23.9.6,28.48-8.81,20.35-30.1-8.31-21.71-14.33-44.31-23.09-72,39.89,7.42,68.1,34.4,105.82,12.34,14.7-8.6,41.64,3.84,63,6.55,19.24,2.44,38.51,4.68,57.77,7,.48-1.89,1-3.78,1.45-5.67l-32.71-24.37,1.67-2.88,1.68,0,77.6,18-37.18-32.54,1.26-.43h49.11c.65,7.13,1.31,14.36,2,21.55,36.15,1.91,70.5-43.06,103.15,3.29,5.31-2.92,9.92-7,15.15-8,14-2.93,32.67-11.08,41.4-5.19,11.72,7.91,20.73,26.65,22,41.49,1.53,18.21-5.27,37.42-10.09,55.77-4.31,16.41-.17,24.06,17.43,23,31.84-1.85,63.68-3.45,97.92-5.28-6.38-14.85-12.2-25.93-15.88-37.68a168.14,168.14,0,0,1-7.52-36.47c-1.57-19.63,1.42-30.07,11-33l-8.09,11c22.61,18.7,42.84,12.29,63.91,1.92,6.58.38,13.58-.15,15.82-3.24a54.29,54.29,0,0,1,7.66-8.63,122.58,122.58,0,0,1,20.81-7.91c-5,16.24-9,29.29-15.2,49.52l55.22-26.59v87.54h76.36c-1.57-29.39-3.07-57.46-4.82-90l59.55,30.93c-2.26-7.2-4.23-13.51-6.06-19.35,17.11-.85,33.55-3.5,50-5.8,13.68,4.48,27.52,5,42.62-4.3a19.52,19.52,0,0,1,8.78,3.19c27,19.51,49.57,5.19,73.85-2,4.31-1.27,8.83-1.86,15.93-3.31,11.74,35.16-13.38,61.82-17.54,96.29,34.5,0,67.54-.61,100.54.21,23.9.59,28.48-8.82,20.35-30.1-6.06-15.85-10.91-32.18-16.49-50.61,19.25,5.26,37.36,2.75,55-2.19,14.1,3,28.3,2.39,44.19-6.9,9.08-5.31,22.84-2.59,37.08.9.52,5.68,1,11.4,1.56,17.08,13,.69,25.76-4.69,38.3-9.7,14.61,1.79,29.24,3.51,43.85,5.28.49-1.89,1-3.78,1.46-5.68l-9.86-7.34c10,1.31,19.75,7,29.39,20.73,5.32-2.92,9.93-6.94,15.15-8,14-2.93,32.68-11.08,41.42-5.18,11.71,7.9,20.72,26.64,22,41.48,1.54,18.21-5.26,37.42-10.08,55.77-4.31,16.41-.18,24.06,17.43,23,31.84-1.84,63.68-3.44,97.91-5.27-6.37-14.85-12.2-25.93-15.88-37.69a167.32,167.32,0,0,1-7.51-36.46c-2.61-32.47,7.25-39.81,38.64-29.69,7.24,2.35,13.76,7.74,21.06,8.85,7.58,1.15,19.82,1.77,22.9-2.5,18.81-26.07,43.2-19.53,67.93-14.74,18.17,3.52,36.44,6.51,54.66,9.74l3-6.22-20.05-22.16c5-2.47,10-5.14,15.07-7.74,7.21,2.49,14.25,5.53,21.34,8.28L2264,1902.78l48-24.94a55.23,55.23,0,0,0,11.32-2.43c-1.66,31.07-3.11,58.17-4.62,86.48h76.36v-87.54l55.21,26.59c-6.21-20.23-10.21-33.28-15.2-49.52,39.45,10.42,70.52,49,108.21,17.86l-35-47.61c93.87,19.33,112.7,18.07,135.78-10.46l-69.68-43.48c.85-2.69,1.69-5.38,2.54-8.07,37.53-8.52,81.1-2.07,110.24-41.24-35.62-6-70.15-8.26-89.42-39.43l34.41-30.25c-57.16.2-88.53-23.06-90.66-72.21,31.21,1.22,62.68-.6,82-36.44-47.27,8.37-76-13.21-97.7-47.1l21-17.46c8.5,2.1,17.14,4.42,25,5.42,19.24,2.44,38.51,4.68,57.76,7q.73-2.84,1.46-5.68l-32.71-24.37,1.85-3.19,79.1,18.34-37.67-33h59.71l-63.4-42.65,34.45-1.94-9.43-13.93,15.54-5.17-37.79-32.62h76.47q.63-2.58,1.28-5.18l-40.61-24.4ZM1180.34,455.08l18.62-3.57,32.17,4.39c.46,2.28.92,4.57,1.37,6.85L1177,489.09l-3-1.11-10.69-18h42.94C1193.74,462.84,1188.86,460,1180.34,455.08Zm800.45,234.86-16.87-23.71,21.25,16.63C1983.76,685.31,1982.29,687.66,1980.79,689.94Zm-373.42-87.08-3.19-2.22,4,1.27ZM704.1,516.81l-2.52-1.91,2.52.63ZM1980.4,613l-11.91-20.37,34.43,16.4-42.28,52.57-45.15-63.51ZM667.12,451.41c2.86-1.21,5.09-3.92,9.83-7.79-2.14-.78-4.19-1.63-6.18-2.51l63.62,10.41-28.68,15.74,51.72,4.92q.78,2.63,1.55,5.24L705.1,495.17c-17.93-12.48-35.34-24.61-57.74-40.19C660.05,452.81,663.87,452.78,667.12,451.41ZM822.41,1828.79c1.7-.1,3.4-.15,5.11-.15.12,1.26.23,2.55.35,3.82Zm543.65,41.75c-1.3-4.13-2.56-8.18-3.85-12.29l10.78-2.66c3.19,1.34,6.33,2.8,9.42,4.31Zm276.67-1q-.6-2-1.23-3.93c1.61.29,3.19.63,4.76,1C1645.08,1867.58,1643.91,1868.56,1642.73,1869.55Z"/></clipPath><linearGradient id="linear-gradient-21" x1="1382.41" y1="2038.1" x2="1382.41" y2="15.86" gradientUnits="userSpaceOnUse"><stop offset="0" stop-color="#340045"/><stop offset="1" stop-color="#000014"/></linearGradient></defs><g id="Layer_2" data-name="Layer 2"><path id="Path_5680" data-name="Path 5680" class="cls-2" d="M2303.45,609c13.75,16.41,28.11,33.52,44.32,52.86L2322.27,683c21.67,33.89,50.43,55.47,97.69,47.09-19.31,35.85-50.77,37.67-82,36.45,2.14,49.15,33.51,72.41,90.67,72.21L2394.23,869c19.26,31.16,53.8,33.43,89.41,39.43-29.14,39.17-72.7,32.71-110.24,41.24-.84,2.69-1.69,5.38-2.53,8.07l69.67,43.48c-23.08,28.54-41.9,29.79-135.78,10.46l35,47.61c-37.68,31.18-68.76-7.45-108.2-17.85l15.2,49.51-55.21-26.59v87.54h-76.37c1.58-29.39,3.08-57.47,4.82-90l-59.54,30.93c6.76-21.59,11-35.28,16.21-51.8-39.57,11-69.91,49-109.64,17.5l36.87-44.58-5.08-5.1c-23.71,5-47.22,12-71.18,14.54-24.2,2.58-47.89-1.66-62.15-21.54L1938.07,957c-1.08-2.67-2.15-5.35-3.22-8-38.51-6.08-80.84-2.35-111.37-40.79,36.57-5.1,70.83-7.78,90.08-39.39l-31.64-28.53c22.22-6.19,43.53-7.87,59.76-17.83,17.15-10.51,31.45-27.94,28.51-55-31.78.08-62.16-2.36-82.51-36.74,45.83,6.4,76.5-11.59,97.49-47.85l-25.54-20L2002.92,609c-22.18-10.57-39.28-18.7-62.73-29.88l63.07-17.3-38.91-45.42c38.55,11.09,64.14,3.69,84.6-22.09l-42.64-31.77c48.5-25.46,77.54-62.22,96.9-110.63l-24.75-3.53c25.25-42.39,50.64-85,75.4-126.54l75.27,126.44-24.3,3.19c18,49.17,48.39,84.4,95.8,111.24l-42,31.8c18.7,23.67,43.4,31.64,76,32-9.66,10.68-19.31,21.36-32.4,35.82l63.15,16.85Z"/><path id="Path_5675" data-name="Path 5675" class="cls-3" d="M1937.4,444.71l-30.87,18.94L1981.25,540l-34.56,15.36L1980.4,613l-64.91-14.91,133.17,187.3-54-12.73c10.35,34.39,44.62,48.22,63.22,79.45h-55.08l115.44,95.21-36.6,16.48,32.67,24.68c-39.37,17.73-67.18-15.74-103.72-15.66l31.68,35-3,6.23c-18.22-3.23-36.5-6.23-54.66-9.75-24.73-4.79-49.13-11.32-67.93,14.75-3.09,4.27-15.32,3.64-22.9,2.49-7.3-1.11-13.82-6.5-21.07-8.84-31.39-10.13-41.24-2.79-38.64,29.68a168.14,168.14,0,0,0,7.52,36.47c3.68,11.75,9.5,22.83,15.88,37.68-34.23,1.83-66.08,3.43-97.91,5.27-17.61,1-21.75-6.63-17.43-23,4.82-18.35,11.61-37.56,10.08-55.77-1.26-14.84-10.27-33.58-22-41.49-8.73-5.89-27.39,2.26-41.41,5.19-5.23,1.09-9.84,5.12-15.15,8-32.64-46.36-67-1.39-103.15-3.28-1-10.64-1.94-21.38-2.88-31.73-50.5,0-96.18,45.15-152.52,15.92,49-44.18,106-73.53,133.14-136.82l-47-8.13,95.41-120.64-41.61-8.72L1593,669.1l-37.48-4.71c18.19-21.59,34.61-41.09,52.64-62.48L1561.42,587c20-20.14,37-36.28,52.86-53.53,28.56-31.09,28.26-31.36,2.89-59.62,25.62-27.45,51.34-55,80.8-86.54l-42.47-7.87c66.69-55.28,80.92-126.63,80-203.58l7-1.84c5.77,7.64,12,15,17.25,22.95,33.46,51.16,56.8,109.44,106.41,149.38,4,3.18.3,14.68,2.24,21.75,2.25,8.22,5,17.62,10.66,23.34C1896.42,408.92,1915.4,424.89,1937.4,444.71Z"/><path id="Path_5676" data-name="Path 5676" class="cls-4" d="M2254.9,824.39l52.58-21.92-1.29-5.16L2278,792.85l18.29-17.24-17.52-8.21,60.74-41.49-24.15-10.44c15.63-12.67,32.16-21.82,42.48-35.62s14.34-32.16,24.83-57.44c10.14,42,23.93,75,63.92,89.58-4.75,3.87-7,6.58-9.84,7.79-3.25,1.37-7.07,1.4-19.75,3.56l64.82,45.12-18.33,8.93,19.63,14.93L2445.71,800l62.88,28.24c-1.52,2.44-3.82,6.16-7.71,12.4l52.59,25.76-27.6,15.1,36.69,16.38c.08,2,.15,3.92.23,5.88l-37.66,4.44,13.17,15-32.41,7c-1,2.15-2.09,4.29-3.13,6.44l96,44.85-36.33,13.44,53.68,18.27-19.45,13.3,65,23.73-59.29,11.4,25.84,14.95h-57.18l-2,8.08,88.35,32.32c-11.07,4.06-19.71,7.23-34.9,12.82l71.65,25.17-50.7,11.64c3.63,3.44,6.92,6.56,13.92,13.22l-56,13.21,119.5,52.54-53.24,9.4,23.85,17.56c-15.33,1.7-25.93,2.87-36.54,4l-2,5.37,69.21,21.62-44.27,10.63,40.61,24.4q-.65,2.6-1.28,5.18h-76.47l37.79,32.62-15.54,5.17,9.43,13.93-34.45,1.94,63.4,42.65h-59.71l37.67,33-79.1-18.34-1.85,3.19,32.71,24.37q-.72,2.85-1.46,5.68c-19.25-2.33-38.52-4.57-57.76-7-21.39-2.71-48.33-15.15-63-6.55-37.72,22.06-65.93-4.92-105.82-12.34,8.76,27.72,14.78,50.31,23.09,72,8.13,21.29,3.55,30.7-20.36,30.1-33-.82-66-.21-100.53-.21,4.16-34.46,29.28-61.12,17.54-96.28-7.1,1.45-11.62,2-15.93,3.3-24.28,7.15-46.83,21.48-73.85,2-9.65-7-29.14-1.85-43.84.07-26.38,3.45-52.53,8.65-81.18,6.71l42.11-27.4-2-3.66-73.93,18.22-2-4.44,28.72-26.06H2039.9l67-43.36h-28.93c-1.56-7.89-2.94-14.93-5.43-27.64,4.55-3.44,15.47-11.65,33.55-25.26h-76.74l-2.16-7.43,42.09-21.56-39.82-13.1,68.4-19.74-.24-4.3-38.58-5.76,27.1-18.7-57.68-8,114.94-48.42-1.24-7.16-47.43-9.73,27-15.1-55.81-8.71-.18-4.35,60.5-20.32v-5.68l-34.56-8.65,89.45-29.46c-.52-1.74-1-3.49-1.55-5.23l-51.72-4.93,28.68-15.74-64.78-10.6,68.12-24.15-20-13.07L2195,991l-37.31-11.1,97.87-46.44c-.46-2.28-.91-4.57-1.37-6.85l-33.5-4.57c3.86-5,6.9-9,11-14.34l-43.19-7.2L2233,879.82l-24.61-14.75C2221.93,849.59,2254,857.28,2254.9,824.39Z"/><path id="Path_5677" data-name="Path 5677" class="cls-5" d="M832.8,217.84l52.59-21.92-1.29-5.16-28.21-4.46,18.29-17.24-17.52-8.21,60.74-41.49c-10.79-4.67-17-7.35-24.16-10.44,15.63-12.67,32.17-21.83,42.49-35.62s14.34-32.16,24.82-57.44c10.15,42,23.94,75,63.93,89.57-4.75,3.88-7,6.59-9.84,7.8-3.25,1.37-7.07,1.4-19.75,3.57l64.81,45.11-18.33,8.93L1061,185.76l-37.38,7.69,62.88,28.23-7.71,12.4,52.58,25.76-27.6,15.1,36.69,16.39.24,5.88L1103,301.64c4.56,5.2,8,9.16,13.17,15.06l-32.41,7q-1.57,3.22-3.13,6.44l96,44.85-36.33,13.44,53.69,18.27L1174.59,420l65.05,23.72c-23,4.44-39.14,7.53-59.3,11.4,8.52,4.93,13.4,7.76,25.85,14.95H1149l-2,8.09,88.35,32.31-34.9,12.82,71.65,25.18-50.7,11.63,13.92,13.22-56,13.21L1298.8,639l-53.24,9.4L1269.4,666l-36.53,4-2,5.36,69.2,21.62-44.26,10.63,40.6,24.4c-.42,1.72-.85,3.45-1.28,5.17h-76.47l37.8,32.64L1240.91,775l9.44,13.93-34.45,1.94,63.4,42.64h-59.71c14.62,12.79,23.1,20.22,37.66,33l-79.1-18.35-1.84,3.2L1209,875.73l-1.46,5.68c-19.25-2.34-38.52-4.57-57.76-7-21.39-2.7-48.33-15.14-63-6.54-37.72,22-65.93-4.93-105.82-12.34,8.76,27.72,14.78,50.31,23.08,72,8.14,21.29,3.56,30.7-20.35,30.1-33-.82-66-.21-100.53-.21,4.16-34.46,29.28-61.12,17.53-96.29-7.09,1.45-11.61,2-15.93,3.31-24.28,7.15-46.82,21.47-73.84,2-9.65-7-29.15-1.84-43.84.08-26.38,3.45-52.53,8.65-81.18,6.71L728,845.8l-2-3.67-73.93,18.23-2-4.44,28.71-26.06H617.82l66.95-43.36H655.83c-1.55-7.89-2.93-14.93-5.43-27.65L684,733.59H607.22l-2.16-7.42,42.09-21.57-39.83-13.09,68.41-19.75c-.08-1.42-.17-2.85-.25-4.28l-38.58-5.76L664,643l-57.69-8,114.95-48.42L720,579.41l-47.42-9.73,27-15.09-55.82-8.71c0-1.45-.11-2.9-.17-4.36l60.5-20.31v-5.68l-34.56-8.65L759,477.42q-.76-2.61-1.55-5.24l-51.72-4.92,28.68-15.74-64.78-10.6,68.12-24.15-20-13.08L773,384.41l-37.31-11.09,97.87-46.45L832.13,320l-33.5-4.58,11-14.33-43.19-7.2,44.4-20.65-24.6-14.75C799.83,243,831.93,250.73,832.8,217.84Z"/><path id="Path_5678" data-name="Path 5678" class="cls-6" d="M1231.79,353.7l52.59-21.93-1.29-5.16-28.21-4.46,18.29-17.24-17.53-8.2,60.75-41.5-24.15-10.45c15.62-12.66,32.16-21.81,42.48-35.61s14.34-32.16,24.82-57.44c10.14,42,23.94,75,63.93,89.57-4.75,3.88-7,6.59-9.84,7.8-3.25,1.38-7.07,1.4-19.75,3.57l64.81,45.11-18.33,8.93L1460,321.62l-37.38,7.68,62.88,28.23-7.71,12.4,52.58,25.76-27.6,15.1,36.69,16.38c.08,2,.16,3.93.23,5.89L1502,437.49l13.17,15.05-32.41,7c-1,2.15-2.09,4.29-3.13,6.44l96,44.85-36.33,13.44L1593,542.51l-19.45,13.3,65.05,23.72-59.3,11.41,25.85,14.95H1548l-2,8.09,88.35,32.3-34.9,12.82,71.65,25.18-50.7,11.64,13.92,13.21-56,13.22,119.51,52.54-53.24,9.4c7.87,5.81,13.4,9.88,23.84,17.56l-36.53,4-2,5.36,69.2,21.62-44.26,10.62,40.6,24.41c-.42,1.72-.85,3.45-1.28,5.17h-76.47l37.79,32.63-15.54,5.18,9.44,13.93-34.45,1.94,63.4,42.64h-59.71l37.66,33L1577.14,984l-1.84,3.2,32.71,24.37c-.49,1.89-1,3.78-1.46,5.67-19.25-2.33-38.52-4.57-57.76-7-21.39-2.71-48.33-15.14-63-6.55-37.72,22.06-65.94-4.92-105.82-12.33,8.76,27.72,14.78,50.31,23.08,72,8.14,21.28,3.56,30.69-20.35,30.1-33-.82-66-.2-100.53-.2,4.16-34.47,29.28-61.13,17.54-96.29-7.1,1.45-11.62,2-15.93,3.3-24.28,7.15-46.83,21.48-73.85,2-9.65-7-29.15-1.85-43.84.07-26.38,3.45-52.53,8.65-81.18,6.71l42.1-27.4c-.67-1.22-1.34-2.44-2-3.66l-73.93,18.23-2-4.44,28.71-26.06H1016.8c25.5-16.51,43.55-28.19,67-43.36h-28.94c-1.54-7.89-2.93-14.93-5.43-27.65L1083,869.47h-76.75l-2.16-7.43,42.09-21.57c-12.88-4.23-22.44-7.37-39.82-13.1l68.4-19.74c-.08-1.43-.16-2.85-.25-4.28l-38.58-5.77,27.11-18.7-57.68-8,114.94-48.42-1.24-7.16-47.42-9.74,27-15.09-55.81-8.71-.18-4.36,60.51-20.31v-5.69l-34.55-8.64L1158,613.29q-.76-2.62-1.55-5.23l-51.72-4.93,28.68-15.74-64.78-10.6,68.12-24.16-20-13.07L1172,520.28l-37.31-11.09,97.86-46.44c-.45-2.28-.91-4.57-1.37-6.85l-33.5-4.57,11-14.35-43.18-7.2,44.4-20.64-24.61-14.76C1198.82,378.89,1230.92,386.58,1231.79,353.7Z"/><path id="Path_5679" data-name="Path 5679" class="cls-7" d="M485.28,556l52.58-21.93L536.58,529l-28.21-4.46,18.28-17.24L509.13,499l60.74-41.49L545.72,447.1c15.63-12.67,32.16-21.82,42.48-35.62S602.55,379.32,613,354c10.13,42,23.92,75,63.91,89.58-4.74,3.87-7,6.58-9.83,7.79-3.25,1.37-7.07,1.4-19.76,3.57l64.83,45.12L693.85,509,713.48,524l-37.39,7.67L739,559.86l-7.71,12.4L783.85,598l-27.6,15.1,36.69,16.38c.08,2,.16,3.92.24,5.88l-37.67,4.44,13.18,15-32.42,7-3.12,6.44,96,44.85-36.33,13.45,53.69,18.26-19.45,13.3,65,23.73-59.29,11.4,25.85,15H801.5l-2,8.09,88.35,32.31-34.9,12.82,71.65,25.17-50.7,11.64,13.91,13.22-56,13.21,119.5,52.54L898,986.62l23.84,17.57-36.54,4-2,5.37,69.21,21.62-44.26,10.63,40.6,24.4c-.43,1.72-.85,3.45-1.28,5.18H871.14L908.93,1108c-5.3,1.77-10.24,3.42-15.54,5.17l9.43,13.94c-10.51.59-19.41,1.1-34.44,1.93l63.4,42.65H872.07l37.66,33-79.09-18.35-1.86,3.2,32.71,24.37c-.48,1.89-1,3.78-1.45,5.67-19.25-2.32-38.52-4.57-57.76-7-21.39-2.71-48.34-15.15-63-6.55-37.71,22.06-65.93-4.92-105.81-12.33,8.76,27.71,14.78,50.31,23.08,72,8.13,21.29,3.56,30.7-20.35,30.1-33-.83-66-.21-100.53-.21,4.16-34.47,29.28-61.13,17.53-96.29-7.09,1.45-11.61,2-15.93,3.31-24.28,7.14-46.83,21.47-73.85,2-9.64-7-29.14-1.85-43.83.07-26.38,3.45-52.53,8.65-81.18,6.71l42.11-27.4c-.67-1.22-1.35-2.44-2-3.66l-73.93,18.23-2.05-4.45L331.21,1168H270.29l67-43.36H308.31c-1.55-7.9-2.93-14.93-5.43-27.65l33.56-25.26H259.69c-.72-2.47-1.43-4.94-2.16-7.42,12.83-6.57,25.66-13.14,42.09-21.57l-39.82-13.1L328.2,1010l-.24-4.3-38.58-5.76,27.1-18.7-57.68-8,114.94-48.42-1.24-7.17-47.42-9.73,27-15.1-55.81-8.71-.18-4.35,60.5-20.31V853.7L322,845.06l89.45-29.46-1.55-5.24-51.72-4.92,28.67-15.74-64.77-10.6L390.2,755l-20-13.07,55.22-19.29L388.11,711.5,486,665.06q-.69-3.43-1.37-6.85l-33.5-4.57c3.86-5,6.9-9,11-14.34l-43.19-7.2,44.41-20.65-24.61-14.76C452.31,581.22,484.41,588.92,485.28,556Z"/><path id="Path_5681" data-name="Path 5681" class="cls-8" d="M970.23,784.24,925.91,837.1l25.5,21.15c-21.67,33.88-50.44,55.47-97.7,47.09,19.31,35.84,50.77,37.67,82,36.45-2.14,49.15-33.51,72.41-90.67,72.21l34.4,30.25c-19.26,31.16-53.79,33.43-89.41,39.43,29.14,39.17,72.71,32.71,110.24,41.24q1.28,4,2.54,8.07l-69.67,43.48c23.07,28.53,41.9,29.79,135.78,10.46-11.21,15.25-22.43,30.5-35,47.61,37.69,31.18,68.76-7.45,108.2-17.85-5,16.23-9,29.28-15.2,49.51l55.2-26.59v87.54h76.37c-1.57-29.39-3.08-57.47-4.82-90L1213.2,1268c-6.75-21.59-11-35.28-16.2-51.8,39.56,11,69.91,49,109.63,17.5l-36.86-44.58,5.07-5.1c23.71,5,47.21,12,71.19,14.53,24.2,2.58,47.88-1.65,62.14-21.53-24.61-15.22-48.6-30-72.59-44.86l3.22-8c38.51-6.09,80.84-2.35,111.36-40.8-36.56-5.1-70.82-7.78-90.07-39.39l31.64-28.52c-22.22-6.2-43.53-7.87-59.76-17.83-17.15-10.52-31.46-27.94-28.51-55,31.78.07,62.17-2.36,82.51-36.74-45.83,6.4-76.5-11.59-97.49-47.85l25.54-20-43.29-53.83,62.73-29.87-63.07-17.3c13-15.24,23.26-27.14,38.91-45.42-38.54,11.09-64.14,3.68-84.6-22.1l42.64-31.76c-48.5-25.46-77.54-62.22-96.9-110.63l24.74-3.53L1119.79,397.1c-24.51,41.17-49.73,83.54-75.28,126.44l24.31,3.19c-18,49.17-48.39,84.4-95.8,111.24l42,31.8c-18.71,23.66-43.4,31.63-76,32,9.66,10.68,19.33,21.35,32.41,35.82l-63.15,16.84Z"/><path id="Path_5682" data-name="Path 5682" class="cls-9" d="M1423.3,688.61l52.59-21.93-1.3-5.16-28.21-4.46c7.42-7,12.31-11.59,18.29-17.24l-17.52-8.2,60.74-41.5-24.15-10.45c15.63-12.66,32.16-21.81,42.48-35.61s14.35-32.16,24.83-57.44c10.14,42,23.93,75,63.92,89.57-4.74,3.87-7,6.59-9.83,7.8-3.26,1.37-7.07,1.4-19.76,3.56l64.82,45.12-18.34,8.92,19.64,14.94-37.39,7.68L1677,692.44l-7.71,12.4,52.58,25.76-27.6,15.1L1731,762.09c.08,2,.15,3.92.23,5.88l-37.67,4.43,13.18,15.06-32.42,7-3.12,6.43,96,44.86-36.34,13.44,53.69,18.26c-6.3,4.32-11.26,7.7-19.45,13.3l65,23.72-59.29,11.41,25.85,14.95h-57.18l-2,8.09,88.35,32.31L1790.94,994l71.65,25.17-50.7,11.64,13.91,13.22-56,13.21,119.51,52.55-53.24,9.4,23.85,17.56-36.54,4-2,5.36,69.21,21.63-44.27,10.62,40.6,24.4q-.63,2.6-1.27,5.18h-76.47l37.79,32.63-15.54,5.17,9.43,13.93-34.44,1.94,63.4,42.64h-59.71l37.66,33-79.1-18.34-1.85,3.19,32.71,24.37-1.45,5.68c-19.26-2.33-38.52-4.58-57.76-7-21.39-2.72-48.34-15.15-63-6.55-37.71,22.05-65.93-4.93-105.82-12.34,8.76,27.72,14.79,50.31,23.09,72,8.13,21.29,3.56,30.7-20.35,30.1-33-.82-66-.21-100.53-.21,4.15-34.47,29.28-61.13,17.53-96.29-7.09,1.45-11.61,2-15.93,3.31-24.28,7.15-46.83,21.47-73.85,2-9.64-7-29.14-1.85-43.83.08-26.38,3.45-52.53,8.65-81.18,6.7l42.1-27.4c-.67-1.22-1.34-2.44-2-3.66l-73.93,18.23-2-4.44c7.73-7,15.47-14,28.71-26.06h-60.92l67-43.36h-28.94c-1.55-7.9-2.93-14.93-5.43-27.65l33.56-25.26h-76.74c-.73-2.47-1.44-4.95-2.16-7.42,12.82-6.58,25.64-13.14,42.09-21.57l-39.83-13.09,68.41-19.74c-.08-1.43-.17-2.87-.25-4.29l-38.58-5.77,27.11-18.7-57.69-8,115-48.42-1.25-7.16-47.42-9.73c10.58-5.93,17.25-9.65,27-15.1l-55.81-8.7c-.07-1.46-.12-2.9-.19-4.36L1294.6,992V986.3L1260,977.65l89.44-29.45c-.51-1.75-1-3.49-1.54-5.24L1296.21,938l28.68-15.74-64.77-10.6,68.11-24.16-20-13.07,55.23-19.29-37.31-11.09L1424,797.65l-1.38-6.85-33.5-4.57,11-14.34-43.18-7.2,44.4-20.65-24.61-14.75C1390.33,713.8,1422.43,721.49,1423.3,688.61Z"/><path id="Path_5683" data-name="Path 5683" class="cls-10" d="M1966.4,894.91,2019,873l-1.29-5.15-28.21-4.47,18.29-17.23-17.53-8.22L2051,796.43,2026.85,786c15.63-12.67,32.16-21.82,42.48-35.62s14.34-32.16,24.83-57.44c10.14,42,23.93,75,63.92,89.58-4.74,3.87-7,6.58-9.84,7.79-3.25,1.37-7.06,1.4-19.75,3.57L2193.31,839,2175,847.91l19.63,14.93-37.38,7.67,62.88,28.24-7.71,12.4L2265,936.91l-27.6,15.1,36.69,16.38c.08,2,.16,3.92.23,5.89l-37.66,4.43c4.56,5.2,8,9.16,13.17,15l-32.41,7c-1,2.15-2.09,4.29-3.13,6.44l96,44.85L2274,1065.47l53.68,18.26-19.45,13.3,65,23.73-59.3,11.4,25.85,14.95h-57.18l-2,8.09,88.35,32.31c-11.07,4.06-19.71,7.23-34.9,12.82l71.65,25.17-50.7,11.64c3.63,3.44,6.92,6.56,13.92,13.22l-56,13.21,119.51,52.54-53.24,9.4,23.84,17.56-36.53,4-2,5.36,69.2,21.63-44.26,10.62,40.6,24.4q-.63,2.6-1.28,5.18h-76.46l37.79,32.63-15.54,5.17L2384,1466,2349.5,1468l63.4,42.64h-59.71l37.67,33-79.1-18.34-1.85,3.19,32.71,24.37c-.48,1.9-1,3.79-1.45,5.68-19.26-2.33-38.53-4.58-57.77-7-21.38-2.7-48.33-15.14-63-6.54-37.71,22.06-65.94-4.92-105.82-12.34,8.76,27.72,14.79,50.31,23.08,72,8.14,21.29,3.56,30.7-20.35,30.1-33-.82-66-.21-100.52-.21,4.15-34.46,29.27-61.13,17.53-96.28-7.09,1.44-11.61,2-15.93,3.3-24.28,7.15-46.83,21.48-73.85,2-9.65-7-29.14-1.85-43.84.07-26.38,3.45-52.53,8.65-81.17,6.71l42.1-27.4c-.67-1.22-1.34-2.44-2-3.66l-73.93,18.22-2.05-4.44,28.72-26.06h-60.93l67-43.36h-28.93c-1.55-7.9-2.94-14.93-5.44-27.65l33.57-25.26h-76.75l-2.16-7.42,42.1-21.57-39.83-13.1,68.41-19.73c-.09-1.44-.17-2.87-.25-4.3l-38.58-5.76,27.1-18.7-57.68-8,114.94-48.42-1.24-7.17-47.42-9.73,27-15.1c-20.34-3.17-38.07-5.93-55.81-8.71-.06-1.44-.12-2.9-.18-4.35l60.51-20.31v-5.69l-34.55-8.64,89.44-29.46c-.51-1.75-1-3.5-1.54-5.24l-51.73-4.92,28.68-15.74-64.77-10.6,68.11-24.15-20-13.08,55.23-19.28-37.31-11.09,97.87-46.44-1.38-6.85-33.5-4.57c3.86-5,6.92-9,11-14.34l-43.18-7.2,44.4-20.65-24.6-14.76C1933.43,920.11,1965.53,927.8,1966.4,894.91Z"/><path id="Path_5684" data-name="Path 5684" class="cls-11" d="M1630.89,893.25l30.87,19L1587,988.55l34.56,15.37c-10.16,17.36-19.65,33.6-33.71,57.65l64.92-14.92c-45.91,64.56-87.52,123.08-133.18,187.31l54-12.74c-10.35,34.4-44.62,48.22-63.21,79.45h55.06L1450,1395.88l36.6,16.48L1454,1437.05c39.36,17.72,67.18-15.75,103.72-15.67-12.33,13.64-22,24.32-31.69,35l3,6.22c18.22-3.23,36.49-6.22,54.66-9.74,24.73-4.8,49.12-11.33,67.93,14.74,3.08,4.28,15.32,3.65,22.9,2.5,7.3-1.11,13.82-6.5,21.07-8.85,31.38-10.12,41.24-2.78,38.64,29.69a168.14,168.14,0,0,1-7.52,36.47c-3.68,11.75-9.5,22.83-15.88,37.68,34.23,1.83,66.08,3.43,97.91,5.28,17.61,1,21.74-6.64,17.43-23.05-4.82-18.35-11.62-37.56-10.08-55.77,1.25-14.84,10.26-33.59,22-41.49,8.74-5.9,27.39,2.26,41.41,5.19,5.23,1.09,9.84,5.12,15.15,8,32.64-46.35,67-1.38,103.15-3.29,1-10.63,2-21.37,2.89-31.72,50.48,0,96.16,45.15,152.51,15.92-49-44.18-106-73.53-133.14-136.82,18-3.11,32.34-5.6,47-8.12l-95.41-120.66,41.62-8.71c-13-18-24.42-33.67-37.89-52.26l37.48-4.71-52.64-62.49,46.74-14.9c-20-20.13-37-36.27-52.86-53.52-28.56-31.09-28.26-31.37-2.88-59.62-25.63-27.45-51.35-55-80.8-86.55L1912.8,828c-66.7-55.28-80.92-126.63-80-203.57l-6.94-1.84c-5.78,7.63-12,14.95-17.25,22.94-33.46,51.17-56.81,109.45-106.42,149.39-3.94,3.18-.29,14.68-2.23,21.75-2.25,8.22-5,17.62-10.66,23.33C1671.86,857.48,1652.89,873.43,1630.89,893.25Z"/><path id="Path_5685" data-name="Path 5685" class="cls-12" d="M1450.09,1074.05l44.32,52.85c-6.31,5.25-15.43,12.8-25.5,21.15,21.68,33.89,50.43,55.47,97.69,47.1-19.31,35.85-50.76,37.67-82,36.45,2.14,49.14,33.52,72.41,90.67,72.21-11.1,9.75-22.2,19.51-34.4,30.25,19.26,31.16,53.8,33.42,89.41,39.43-29.14,39.17-72.71,32.71-110.24,41.24-.85,2.68-1.69,5.37-2.54,8.06l69.68,43.49c-23.08,28.53-41.9,29.78-135.78,10.45l35,47.61c-37.69,31.19-68.77-7.44-108.2-17.85,5,16.24,9,29.29,15.2,49.52l-55.21-26.6V1617h-76.37c1.57-29.4,3.07-57.47,4.82-90l-59.54,30.93c6.75-21.59,11-35.29,16.21-51.8-39.57,11-69.92,49-109.64,17.51l36.86-44.59-5.08-5.1c-23.71,5-47.21,12-71.18,14.53-24.19,2.58-47.88-1.65-62.14-21.53l72.59-44.86c-1.08-2.68-2.15-5.35-3.22-8-38.52-6.08-80.84-2.34-111.37-40.79,36.56-5.1,70.82-7.77,90.08-39.39l-31.64-28.52c22.21-6.19,43.52-7.87,59.76-17.83,17.15-10.52,31.45-27.94,28.51-55-31.78.07-62.16-2.36-82.51-36.74,45.82,6.4,76.5-11.58,97.49-47.85l-25.54-20,43.29-53.82-62.74-29.87c26-7.14,43.39-11.91,63.08-17.3L1111,981.47c38.54,11.09,64.13,3.68,84.6-22.1L1153,927.61c48.52-25.46,77.55-62.22,96.9-110.63l-24.74-3.54c25.26-42.38,50.64-85,75.4-126.54l75.27,126.45-24.31,3.19c18,49.17,48.39,84.4,95.8,111.24l-42,31.8c18.71,23.66,43.4,31.63,76,32l-32.4,35.81,63.14,16.85Z"/><path id="Path_5686" data-name="Path 5686" class="cls-13" d="M1107.91,1419.68l-45-32.48-.52,3.7-51.6-11.94c-13.79,29,1.12,63.06-.86,96-2.24,37.07,11.49,65.34,50.35,79.34l-4.42,9.72c-16.23-1.25-32.44-3-48.7-3.63-19-.74-38.17-1.44-57.17-.42-17.22.93-34.32,4.19-54,2.72,74.67-49.76,44.31-121.13,50.23-183.44-22.65-7.89-32,33.74-50.51,4l-43.06,31.85-6.37-5.78,6.76-23a61.16,61.16,0,0,0-7.88.68c-23.72,5-46.81,24.63-71.83,2-2.69-2.44-11,1-16.65,2.22-48.37,10.53-89.49-11.22-132.38-25.08l.25-10.45,129-10.47.6-7.4-27.34-16.62c34.9-3.84,67.86-5.33,80-49.85l-162.1-20.92,72.2-32.48,0-3.86H642.75l-4.39-7c58.85-22.26,113.08-51.18,158.9-97.6l-105-5.66c3.94-8,4.65-11.86,6.2-12.23,44-10.72,70.68-48.61,108.43-69.5,15.71-8.7,24.59-29.75,34.26-50.3-48.36,3.45-91.39-2.7-131.07-32.8,9-1.43,18.3-4.85,27.12-4,48.3,4.85,85.5-17.85,111.46-53.53,16.5-22.68,20.78-54.23,27.52-82.8-37.48,20-66.7,1.45-97-7.29l.3-7.62h33.11l-1.76-5.27c8.23-5.54,15.77-13,24.81-16.29,48.76-17.91,90.36-46,110.37-94.6,9.84-23.92,6.94-53.1,10.21-83.72,26.31,37.89,49.18,79.39,80.35,113.22,29.94,32.49,68.51,57,104,85.61h37c-25.29,23.72-72.11,29.68-93,14.06-12.74,18.56,13.14,83.19,41.17,107.14,34.12,29.17,75.22,35.34,119,35.93-39.79,31.36-83.09,36.16-130.48,25.68,4,45.3,35.45,60.33,64.2,78.46,26.28,16.57,51.37,35,79.88,54.67-31.06,10.5-62,18.57-97.1,6.63,39,51.92,95.14,77.07,151.74,101.52l-2.23,7.05H1238.6l-.54,4.49,63.44,28-2.07,5.18L1147.31,1271c11.92,44.19,43.52,47.48,82.11,48.94l-29.56,17.3.22,7.93,129.54,10.27c-18.43,22.26-77.14,40.82-112,39.7-37.64-1.21-75.35-.27-113-.27Z"/><path id="Path_5687" data-name="Path 5687" class="cls-14" d="M347.43,1407.28c19.51-14.08,32.27-23.29,45-32.48l.51,3.69,51.6-11.94c13.79,29-1.12,63.06.87,96,2.23,37.06-11.5,65.34-50.36,79.33l4.42,9.73c16.23-1.26,32.44-3,48.7-3.63,19-.74,38.17-1.44,57.17-.42,17.22.93,34.32,4.19,54,2.72-74.66-49.76-44.31-121.14-50.22-183.45,22.65-7.88,32,33.74,50.51,4l43.05,31.85,6.37-5.78-6.76-23a63,63,0,0,1,7.88.69c23.72,5,46.8,24.63,71.83,2,2.69-2.44,11,1,16.65,2.22,48.37,10.53,89.49-11.22,132.38-25.09l-.24-10.44-129-10.47-.6-7.4,27.33-16.61c-34.9-3.85-67.86-5.34-80-49.85L810.65,1238l-72.21-32.48,0-3.86h74.09c1.47-2.32,2.93-4.63,4.39-7-58.85-22.26-113.08-51.18-158.9-97.6l105-5.65c-4-8-4.66-11.86-6.22-12.24-44-10.7-70.67-48.6-108.42-69.5-15.71-8.7-24.59-29.75-34.26-50.3,48.36,3.45,91.39-2.7,131.07-32.8-9-1.44-18.3-4.85-27.12-4-48.29,4.85-85.5-17.85-111.45-53.54-16.5-22.67-20.79-54.22-27.53-82.79,37.49,20,66.7,1.44,97-7.29l-.3-7.62H642.72l1.76-5.28c-8.23-5.53-15.77-13-24.81-16.29-48.75-17.9-90.36-46-110.36-94.6-9.85-23.92-6.94-53.1-10.22-83.71-26.31,37.87-49.17,79.37-80.34,113.21-29.94,32.49-68.51,57-103.95,85.61h-37c25.29,23.72,72.11,29.68,93,14.06,12.74,18.56-13.14,83.19-41.16,107.15-34.12,29.16-75.22,35.33-119,35.93,39.78,31.34,83.08,36.15,130.47,25.67-4,45.29-35.44,60.33-64.2,78.46-26.28,16.57-51.37,35-79.87,54.67,31,10.5,62,18.57,97.1,6.64-39,51.91-95.13,77.06-151.74,101.51l2.23,7.06h72.05l.53,4.48-63.42,28,2.06,5.19L308,1258.56c-11.92,44.2-43.51,47.48-82.11,48.94l29.56,17.3-.21,7.92L125.7,1343c18.43,22.26,77.14,40.83,112,39.71,37.64-1.21,75.36-.28,113-.28Z"/><path id="Path_5688" data-name="Path 5688" class="cls-15" d="M2152.79,1329.16l-30.87,18.94,74.72,76.36-34.56,15.36c10.16,17.37,19.65,33.61,33.72,57.65l-64.92-14.91,133.18,187.31-54-12.74c10.35,34.39,44.62,48.22,63.22,79.45h-55.07l115.44,95.21-36.6,16.48,32.66,24.68c-39.36,17.73-67.17-15.74-103.72-15.66l31.69,35-3,6.22c-18.22-3.23-36.49-6.22-54.66-9.74-24.73-4.79-49.12-11.33-67.93,14.74-3.08,4.27-15.32,3.65-22.9,2.5-7.3-1.11-13.82-6.5-21.06-8.85-31.39-10.12-41.25-2.78-38.64,29.69a167.53,167.53,0,0,0,7.51,36.47c3.68,11.75,9.51,22.83,15.88,37.68-34.23,1.83-66.07,3.43-97.91,5.27-17.61,1-21.74-6.63-17.43-23,4.82-18.35,11.62-37.56,10.08-55.77-1.25-14.84-10.26-33.58-22-41.48-8.74-5.9-27.39,2.25-41.42,5.18-5.22,1.1-9.83,5.12-15.15,8-32.64-46.36-67-1.39-103.14-3.29-1-10.63-2-21.37-2.89-31.72-50.49,0-96.17,45.15-152.51,15.92,49-44.18,106-73.53,133.13-136.82l-47-8.13,95.41-120.64c-17.17-3.61-27.73-5.82-41.61-8.72l37.89-52.26-37.48-4.71c18.19-21.6,34.61-41.09,52.64-62.48l-46.75-14.9c20-20.14,37-36.28,52.86-53.53,28.57-31.09,28.27-31.36,2.88-59.62l80.8-86.54-42.47-7.87c66.7-55.29,80.92-126.64,80-203.58l6.94-1.84c5.78,7.63,12,15,17.25,23,33.46,51.16,56.81,109.44,106.42,149.38,3.94,3.18.29,14.68,2.23,21.75,2.26,8.22,5,17.62,10.67,23.33C2111.82,1293.38,2130.79,1309.34,2152.79,1329.16Z"/><path id="Path_5689" data-name="Path 5689" class="cls-16" d="M588.72,1114l52.58-21.93-1.28-5.15-28.21-4.46,18.28-17.24L612.57,1057l60.75-41.49-24.16-10.45c15.63-12.66,32.16-21.82,42.49-35.61S706,937.32,716.48,912c10.14,42,23.92,75,63.91,89.57-4.74,3.87-7,6.59-9.83,7.8-3.25,1.37-7.07,1.4-19.76,3.56l64.83,45.12L797.29,1067l19.63,14.93-37.38,7.68,62.87,28.24-7.7,12.4L887.29,1156l-27.6,15.1,36.7,16.39q.11,2.94.23,5.88L859,1197.82c4.56,5.21,8,9.16,13.17,15.06l-32.42,7q-1.55,3.21-3.12,6.43l96,44.86-36.34,13.44L950,1302.84l-19.45,13.3,65,23.73-59.29,11.41c8.52,4.92,13.4,7.74,25.84,15H904.93l-2,8.08,88.35,32.31-34.9,12.82,71.65,25.18-50.7,11.64,13.92,13.21-56,13.21c42.69,18.78,78.08,34.33,119.52,52.55l-53.25,9.4,23.85,17.56-36.54,4-2,5.36,69.21,21.63-44.26,10.62,40.6,24.41c-.43,1.72-.86,3.45-1.28,5.17H974.59l37.79,32.63-15.54,5.17,9.43,13.94-34.45,1.93,63.4,42.64H975.51l37.67,33-79.1-18.34-1.85,3.19L965,1771.92c-.5,1.9-1,3.79-1.46,5.68-19.26-2.33-38.53-4.58-57.77-7-21.39-2.71-48.33-15.15-63-6.55-37.71,22-65.93-4.93-105.82-12.33,8.76,27.71,14.78,50.3,23.09,72,8.13,21.29,3.55,30.7-20.35,30.1-33-.82-66-.21-100.54-.21,4.16-34.46,29.29-61.13,17.54-96.29-7.09,1.45-11.62,2-15.93,3.31-24.28,7.15-46.83,21.47-73.85,2-9.64-7-29.14-1.84-43.84.08-26.38,3.45-52.53,8.65-81.17,6.7l42.1-27.4-2-3.66L408,1756.55l-2.05-4.44c7.74-7,15.47-14,28.72-26.06H373.73l67-43.36H411.75c-1.55-7.9-2.93-14.93-5.43-27.65l33.56-25.26H363.14l-2.16-7.42c12.82-6.58,25.65-13.15,42.09-21.57l-39.83-13.1L431.65,1568l-.24-4.29-38.58-5.76,27.1-18.7-57.69-8,115-48.42-1.25-7.17-47.42-9.73,27-15.1-55.81-8.7-.18-4.35L460,1417.4v-5.69l-34.56-8.64,89.45-29.47q-.78-2.61-1.55-5.23l-51.72-4.92,28.67-15.74-64.78-10.6L493.65,1313l-20-13.07,55.22-19.28-37.3-11.1,97.87-46.44-1.38-6.85-33.5-4.57,11-14.34-43.18-7.2,44.41-20.65-24.61-14.75C555.75,1139.21,587.85,1146.91,588.72,1114Z"/><path id="Path_5690" data-name="Path 5690" class="cls-17" d="M390.8,1223.12l52.59-21.93L442.1,1196l-28.21-4.46,18.29-17.24-17.52-8.21,60.74-41.49-24.16-10.44c15.64-12.67,32.17-21.82,42.49-35.62s14.34-32.16,24.83-57.44c10.13,42,23.93,75,63.92,89.58-4.75,3.87-7,6.58-9.84,7.79-3.25,1.37-7.07,1.4-19.75,3.56l64.82,45.12-18.34,8.93c6.23,4.73,11.14,8.46,19.63,14.93l-37.38,7.67L644.5,1227l-7.71,12.4,52.59,25.76-27.6,15.1,36.69,16.38c.08,2,.15,3.93.23,5.88L661,1306.91c4.55,5.21,8,9.16,13.17,15l-32.42,7-3.12,6.44,96,44.85-36.33,13.44,53.68,18.27-19.45,13.3,65,23.73c-23,4.43-39.13,7.52-59.29,11.41l25.85,14.94H707l-2,8.09,88.35,32.31-34.9,12.82,71.65,25.17-50.7,11.64,13.91,13.22-56,13.21,119.5,52.55-53.24,9.39,23.84,17.57-36.53,4-2,5.37,69.21,21.62-44.27,10.63,40.61,24.4-1.29,5.18H776.67l37.79,32.62-15.54,5.17c3,4.44,5.57,8.24,9.43,13.94-10.51.59-19.41,1.1-34.45,1.93l63.4,42.65H777.59l37.67,33-79.1-18.34-1.85,3.2L767,1881c-.48,1.89-1,3.78-1.45,5.67-19.26-2.33-38.53-4.57-57.77-7-21.39-2.71-48.33-15.15-63-6.55-37.72,22.06-65.93-4.92-105.82-12.34,8.76,27.72,14.78,50.32,23.09,72,8.13,21.29,3.55,30.7-20.35,30.1-33-.81-66-.2-100.54-.2,4.16-34.47,29.28-61.13,17.54-96.29-7.1,1.45-11.62,2-15.93,3.31-24.28,7.15-46.83,21.47-73.85,2-9.64-7-29.14-1.85-43.84.07-26.38,3.45-52.53,8.65-81.17,6.71l42.1-27.4-2-3.66-73.92,18.23-2-4.45,28.72-26.06H175.82c25.5-16.51,43.53-28.2,67-43.35H213.84c-1.56-7.9-2.94-14.93-5.43-27.65L242,1738.87H165.22l-2.16-7.43,42.09-21.56-39.83-13.1L233.73,1677l-.24-4.29L194.9,1667c10.36-7.16,16.9-11.67,27.11-18.7l-57.69-8,115-48.42-1.25-7.16L230.6,1575l27-15.1-55.81-8.71c-.06-1.45-.12-2.9-.19-4.35l60.5-20.32v-5.68l-34.55-8.65L317,1482.69c-.52-1.74-1-3.49-1.55-5.24l-51.72-4.91,28.68-15.75-64.78-10.6L295.73,1422l-20-13.07,55.22-19.28-37.31-11.09,97.88-46.45-1.38-6.85-33.5-4.57,11-14.34-43.19-7.2,44.41-20.65-24.6-14.75C357.84,1248.31,389.93,1256,390.8,1223.12Z"/><path id="Path_5691" data-name="Path 5691" class="cls-18" d="M1493.36,1228l52.58-21.93-1.28-5.16-28.21-4.46,18.28-17.24-17.52-8.2,60.74-41.5L1553.8,1119c15.63-12.66,32.16-21.82,42.48-35.61s14.35-32.16,24.83-57.44c10.14,42,23.93,75,63.92,89.57-4.74,3.87-7,6.59-9.83,7.8-3.25,1.37-7.07,1.4-19.76,3.57l64.82,45.11-18.33,8.92c6.22,4.74,11.13,8.48,19.63,14.93l-37.39,7.69,62.88,28.23c-1.52,2.44-3.82,6.16-7.71,12.4l52.59,25.76-27.61,15.1,36.7,16.38c.07,2,.15,3.93.23,5.89l-37.66,4.43c4.55,5.21,8,9.16,13.17,15l-32.42,7-3.12,6.44,96,44.85-36.33,13.44,53.69,18.27-19.45,13.3,65,23.72-59.29,11.41,25.85,15h-57.18l-2,8.09,88.36,32.3-34.9,12.82,71.65,25.18-50.7,11.64,13.91,13.21-56,13.21,119.5,52.55-53.24,9.4c7.87,5.81,13.4,9.88,23.84,17.56l-36.54,4-2,5.36,69.21,21.62-44.26,10.62,40.6,24.41c-.42,1.73-.85,3.45-1.27,5.18h-76.48L1917,1780l-15.53,5.18c3,4.42,5.57,8.24,9.43,13.93l-34.45,1.94,63.4,42.64h-59.71l37.66,33-79.09-18.34-1.85,3.19,32.71,24.37c-.49,1.9-1,3.79-1.46,5.68-19.25-2.33-38.52-4.57-57.76-7-21.39-2.71-48.33-15.14-63-6.55-37.71,22.06-65.93-4.92-105.82-12.33,8.76,27.72,14.78,50.3,23.09,72,8.13,21.28,3.55,30.69-20.35,30.1-33-.82-66-.21-100.54-.21,4.16-34.47,29.28-61.13,17.54-96.29-7.1,1.45-11.62,2-15.93,3.31-24.28,7.15-46.83,21.47-73.85,2-9.65-7-29.14-1.85-43.84.08-26.38,3.45-52.53,8.65-81.17,6.71l42.1-27.4-2-3.66-73.93,18.23-2-4.45,28.72-26.06h-60.92l67-43.36h-28.94L1311,1769c4.56-3.42,15.47-11.64,33.56-25.25h-76.74c-.73-2.48-1.45-5-2.16-7.43l42.09-21.56-39.83-13.1,68.41-19.74c-.08-1.43-.17-2.87-.25-4.29l-38.58-5.77,27.1-18.7-57.68-8,115-48.42-1.25-7.16-47.42-9.73c10.58-5.93,17.25-9.65,27-15.1l-55.81-8.71q-.11-2.17-.18-4.35l60.5-20.32v-5.68l-34.56-8.65,89.45-29.45c-.52-1.75-1-3.5-1.56-5.24l-51.72-4.92,28.68-15.75L1330.17,1451l68.11-24.16-20-13.07,55.23-19.28-37.31-11.1,97.87-46.44c-.46-2.28-.91-4.56-1.38-6.85l-33.5-4.57,11-14.34L1427,1304l44.41-20.65-24.61-14.75C1460.39,1253.14,1492.49,1260.83,1493.36,1228Z"/><path id="Path_5692" data-name="Path 5692" class="cls-19" d="M2507,1419c13.75,16.41,28.11,33.53,44.32,52.86l-25.5,21.15c21.67,33.89,50.43,55.47,97.7,47.1-19.31,35.84-50.78,37.66-82,36.44,2.13,49.15,33.5,72.41,90.66,72.21L2597.78,1679c19.27,31.17,53.8,33.43,89.42,39.43-29.14,39.17-72.71,32.72-110.24,41.24-.85,2.69-1.69,5.38-2.54,8.07l69.68,43.48c-23.08,28.53-41.91,29.79-135.78,10.46l35,47.61c-37.69,31.18-68.76-7.44-108.21-17.86,5,16.24,9,29.29,15.2,49.52l-55.21-26.59v87.54h-76.36l4.81-90c-21.42,11.14-38.07,19.78-59.54,30.93,6.76-21.58,11-35.28,16.21-51.8-39.56,11-69.91,49-109.63,17.51l36.86-44.59-5.08-5.1c-23.7,5-47.21,12-71.18,14.54-24.2,2.58-47.88-1.65-62.15-21.53l72.59-44.87-3.21-8c-38.51-6.09-80.84-2.35-111.37-40.8,36.57-5.1,70.83-7.77,90.07-39.38l-31.63-28.53c22.21-6.19,43.52-7.87,59.76-17.82,17.15-10.52,31.45-27.94,28.51-55-31.78.07-62.17-2.36-82.5-36.74,45.82,6.39,76.5-11.59,97.48-47.85l-25.53-20c15.47-19.25,29.69-36.92,43.29-53.83l-62.74-29.87,63.07-17.3-38.91-45.43c38.55,11.1,64.14,3.69,84.59-22.1l-42.63-31.76c48.5-25.46,77.54-62.22,96.9-110.62l-24.75-3.54c25.25-42.39,50.64-85,75.4-126.54,24.51,41.17,49.74,83.54,75.27,126.45l-24.3,3.18c18,49.17,48.39,84.4,95.8,111.25-14.35,10.86-27.32,20.7-42,31.79,18.7,23.66,43.4,31.63,76,32-9.66,10.68-19.31,21.36-32.4,35.82l63.15,16.85Z"/><path id="Path_5693" data-name="Path 5693" class="cls-20" d="M1133.17,1419l-44.32,52.86,25.5,21.15c-21.68,33.89-50.44,55.47-97.7,47.1,19.31,35.84,50.77,37.66,82,36.44-2.14,49.15-33.52,72.41-90.67,72.21l34.4,30.25c-19.26,31.17-53.8,33.43-89.41,39.43,29.14,39.17,72.71,32.72,110.24,41.24.85,2.69,1.69,5.38,2.54,8.07l-69.68,43.48c23.08,28.53,41.9,29.79,135.78,10.46l-35,47.61c37.7,31.18,68.77-7.44,108.2-17.86-5,16.24-9,29.29-15.2,49.52l55.22-26.59v87.54h76.36c-1.57-29.39-3.07-57.46-4.82-90l59.55,30.93c-6.76-21.58-11-35.28-16.21-51.8,39.57,11,69.91,49,109.63,17.51-12.69-15.34-24.77-30-36.86-44.59l5.08-5.1c23.71,5,47.21,12,71.18,14.54,24.19,2.58,47.88-1.65,62.14-21.53l-72.59-44.87q1.62-4,3.22-8c38.51-6.09,80.84-2.35,111.37-40.8-36.57-5.1-70.82-7.77-90.08-39.38l31.64-28.53c-22.21-6.19-43.53-7.87-59.76-17.82-17.15-10.52-31.45-27.94-28.51-55,31.78.07,62.17-2.36,82.5-36.74-45.82,6.39-76.5-11.59-97.48-47.85l25.53-20L1433.67,1419l62.73-29.87-63.07-17.3,38.91-45.43c-38.54,11.1-64.14,3.69-84.6-22.1l42.65-31.76c-48.52-25.46-77.55-62.22-96.9-110.62l24.74-3.54-75.4-126.54-75.27,126.45,24.3,3.18c-18,49.17-48.39,84.4-95.8,111.25l42,31.79c-18.72,23.66-43.41,31.63-76,32l32.41,35.82-63.15,16.85Z"/><path id="Path_5694" data-name="Path 5694" class="cls-21" d="M1197.25,1293.6c-11.67,7.16-18.65,11.43-30.87,18.94l74.72,76.35-34.56,15.37,33.71,57.65L1175.33,1447c45.9,64.56,87.52,123.08,133.18,187.31l-54-12.73c10.35,34.39,44.61,48.21,63.21,79.44h-55.07c42,34.6,77.89,64.23,115.44,95.21l-36.6,16.48,32.66,24.69c-39.36,17.71-67.17-15.75-103.72-15.67,12.34,13.64,22,24.32,31.69,35l-3,6.23c-18.22-3.23-36.5-6.23-54.66-9.75-24.73-4.8-49.13-11.33-67.93,14.74-3.09,4.28-15.32,3.65-22.9,2.5-7.3-1.11-13.83-6.5-21.08-8.84-31.38-10.13-41.23-2.79-38.63,29.68a168.14,168.14,0,0,0,7.52,36.47c3.68,11.75,9.5,22.83,15.88,37.68-34.24,1.83-66.08,3.43-97.92,5.28-17.6,1-21.74-6.64-17.43-23,4.82-18.35,11.62-37.56,10.09-55.77-1.26-14.84-10.27-33.58-22-41.49-8.73-5.89-27.39,2.26-41.4,5.19-5.23,1.09-9.84,5.12-15.15,8-32.65-46.35-67-1.38-103.15-3.29-1-10.63-1.95-21.37-2.89-31.72-50.49,0-96.17,45.15-152.51,15.92,49-44.18,106-73.53,133.14-136.82-18-3.12-32.34-5.6-47-8.12,31.53-39.9,62-78.46,95.41-120.66L815,1570.25,852.85,1518l-37.48-4.71L868,1450.79l-46.75-14.9c20-20.13,37-36.27,52.87-53.52,28.56-31.09,28.26-31.37,2.88-59.62l80.8-86.55-42.46-7.87c66.69-55.28,80.91-126.63,80-203.57l6.95-1.84c5.77,7.63,12,15,17.25,22.94,33.46,51.17,56.81,109.45,106.41,149.39,4,3.18.3,14.68,2.24,21.75,2.26,8.21,5,17.62,10.67,23.33C1156.28,1257.82,1175.25,1273.78,1197.25,1293.6Z"/><g class="cls-22"><g class="cls-23"><rect class="cls-24" x="-41.52" y="15.86" width="2847.87" height="2022.24"/></g></g></g></svg>