<svg xmlns="http://www.w3.org/2000/svg" width="1920" height="4500" preserveAspectRatio="none" xmlns:v="https://vecta.io/nano"><g fill="#563426"><path d="M0 3732.86h1920v2399.52H0z"/><path d="M1920 3172.81v572.24H0V72.78l23.97-21.87 18.27-16.67 19.28-23.23L85.17 0h28.91l6.99 20.8v11.01l15.81 46.45 14.85 24.51 21.89 12.19 18.45 41.63 33.28 50.13 7.92 40.35 16.64 47.73 20.19 56.24v61.17l14.83 48.99v57.49l-9.65 112.56 7.09 32.99h26.27l25.39 9.79v47.73l6.99 41.6 10.56 30.48 13.17-25.63h8.72l35.01 20.8 16.72-7.36 10.48 17.15 8.8 17.12v70.96l5.2 34.24 20.19 26.91h24.53l35.92 18.32 12.27 34.24 13.2 29.44 35.01 24.4 18.43 41.6 42.93 95.44 23.65 19.55 20.16 17.12 13.12 11.07 11.44 15.84-6.19 17.17v20.8l14.03 19.55 21.07 51.41 9.65 59.89 19.25 35.55 46.48 48.88 57.81 64.83 23.65 12.19 6.99 19.65 11.39 34.27h21.09l37.63 44.05v58.67l17.55 52.61 42.11 58.67-7.09 52.67 10.56 37.95 5.25 51.28 30.64 4.96 4.45 19.55 12.21 42.77 28.08 37.92 6.08 47.73v51.39l23.73 30.61 17.47 20.8-5.2 54.99 9.65 22.05 14.83 12.19v29.44l18.45 21.97 5.25 31.87v29.28l18.37 26.91-6.99 24.51 6.99 67.25 16.64 31.87 9.65 54.99 27.17-19.57v24.48l23.65 42.8 32.45 46.45v33.09h29.81l6.11 20.83h23.63l20.19 4.83v30.59l31.55 18.4h14.91l22.75 26.91v26.19l18.45 20.27 8.72 12.19h32.45l29.76 28.16 15.81-8.51 18.37 7.25 19.28 74.64c1.79 6.11 18.43 36.69 18.43 36.69l14.91 17.12h43.84l14.83 20.8h29.81l21.01 30.61 50.83-4.85 44.72-19.65h25.47v28.16l19.03 16.74z"/></g><g opacity=".2" fill="#fff"><path d="M1920 3173.07v775.58l-221.15-203.34-18.75-38.75-108.05-155.41-77.01-110.8-64.19-68.53 43.41 179.33 1.89 7.79 90.64 137.09 99.32 210.29-197.16-161.01-128.4-194.16-109.87-166.16-90.64-113.36s-79.31-163.39-73.87-173.97c5.47-10.53-5.44-15.79-1.68-52.69 3.79-36.91 0-39.55 0-39.55v-144.99l-13.2-205.57L960 2461.15s-15.04-33.52-21.04-41.89-70-89.33-70-89.33l-34-72.59v78.16l40 147.97 85.04 234.5-93.04-66.99-80-44.67-219.97-731.41-200-58.64-60-150.75-196-268-72-58.64 30-167.49 86 92.13 132 75.36 42 159.15 78 5.57 138 134 8-27.92-54-100.51-58-206.59-78-198.21-152-393.6-118-83.76-58-64.21 66-75.36 80 117.25-10-170.29-40-206.59-66-134.03-3.47-82.51L85.17.25h28.91l6.99 20.8v11.01l15.81 46.45 14.85 24.51 21.89 12.19 18.45 41.63 33.28 50.13 7.92 40.35 16.64 47.73 20.19 56.24v61.17l14.83 48.99v57.49l-9.65 112.56 7.09 32.99h26.27l25.39 9.79v47.73l6.99 41.6 10.56 30.48 13.17-25.63h8.72l35.01 20.8 16.72-7.36 10.48 17.15 8.8 17.12v70.96l5.2 34.24 20.19 26.91h24.53l35.92 18.32 12.27 34.24 13.2 29.44 35.01 24.4 18.43 41.6 42.93 95.44 23.65 19.55 20.16 17.12 13.12 11.07 11.44 15.84-6.19 17.17v20.8l14.03 19.55 21.07 51.41 9.65 59.89 19.25 35.55 46.48 48.88 57.81 64.83 23.65 12.19 6.99 19.65 11.39 34.27h21.09l37.63 44.05v58.67l17.55 52.61 42.11 58.67-7.09 52.67 10.56 37.95 5.25 51.28 30.64 4.96 4.45 19.55 12.21 42.77 28.08 37.92 6.08 47.73v51.39l23.73 30.61 17.47 20.8-5.2 54.99 9.65 22.05 14.83 12.19v29.44l18.45 21.97 5.25 31.87v29.28l18.37 26.91-6.99 24.51 6.99 67.25 16.64 31.87 9.65 54.99 27.17-19.57v24.48l23.65 42.8 32.45 46.45v33.09h29.81l6.11 20.83h23.63l20.19 4.83v30.59l31.55 18.4h14.91l22.75 26.91v26.19l18.45 20.27 8.72 12.19h32.45l29.76 28.16 15.81-8.51 18.37 7.25 19.28 74.64c1.79 6.11 18.43 36.69 18.43 36.69l14.91 17.12h43.84l14.83 20.8h29.81l21.01 30.61 50.83-4.85 44.72-19.65h25.47v28.16l19.03 16.75zM216.21 1816.21l180.46 262.9 27.34 225.38 125.77 278.42 235.15 245.27h-87.5l-325.64-172.75-158.59-225.38 3-337.67-43.75-192.24 43.76-83.93z"/></g></svg>