<svg xmlns="http://www.w3.org/2000/svg" viewBox="0 0 1920 7438.33"><defs><style>.cls-1{fill:#340f47;}.cls-2{opacity:0.5;}.cls-3{fill:#5e2d8f;}</style></defs><g id="Layer_4" data-name="Layer 4"><rect id="Rectangle_2" data-name="Rectangle 2" class="cls-1" y="5038.8" width="1920" height="2399.52"/><path id="Path_1" data-name="Path 1" class="cls-1" d="M1920,4478.75V5051H0V1378.72l24-21.86,18.27-16.67L61.52,1317l23.65-11h28.91l7,20.8v11l15.81,46.46,14.85,24.5,21.9,12.19,18.45,41.63,33.28,50.13,7.92,40.35,16.64,47.73L270.11,1657v61.17l14.82,49v57.49l-9.65,112.56,7.09,33h26.27L334,1980v47.73l7,41.6,10.56,30.48,13.18-25.63h8.72l35,20.8,16.72-7.36,10.48,17.15,8.8,17.12v71l5.2,34.24L469.87,2254H494.4l35.92,18.32,12.27,34.24,13.2,29.44,35,24.4,18.43,41.6,42.93,95.44L675.81,2517,696,2534.08l13.12,11.07L720.53,2561l-6.18,17.17V2599l14,19.55,21.07,51.41,9.65,59.9,19.26,35.54,46.48,48.88,57.81,64.83,23.65,12.19,7,19.65,11.39,34.27h21.09l37.63,44.05v58.67l17.54,52.61,42.11,58.67-7.09,52.67,10.56,37.94,5.25,51.28,30.64,5,4.45,19.55,12.22,42.77,28.08,37.92,6.08,47.73v51.39L1157,3536l17.47,20.8-5.2,55,9.65,22.06,14.83,12.18v29.44l18.45,22,5.25,31.87v29.28l18.38,26.91-7,24.51,7,67.25,16.64,31.87,9.65,55,27.17-19.57V3969l23.66,42.8,32.45,46.45v33.1h29.81l6.11,20.82h23.63l20.18,4.83v30.59l31.55,18.4h14.91l22.74,26.9v26.19l18.46,20.27,8.72,12.18h32.45l29.76,28.16,15.81-8.5,18.38,7.25s17.54,68.53,19.28,74.64,18.42,36.69,18.42,36.69l14.91,17.12h43.84l14.83,20.8H1759l21,30.62,50.83-4.86,44.72-19.65H1901V4462Z"/><g id="Group_1" data-name="Group 1" class="cls-2"><path id="Path_2" data-name="Path 2" class="cls-3" d="M1920,4484v775.57l-221.15-203.33-18.74-38.75-108.06-155.41-77-110.8-64.19-68.54,43.42,179.34,1.89,7.78L1566.8,5007l99.32,210.29-197.16-161-128.4-194.16-109.87-166.16-90.64-113.36s-79.3-163.39-73.86-174-5.44-15.78-1.68-52.69,0-39.55,0-39.55v-145l-13.2-205.58L960,3772.09s-15-33.52-21-41.9-70-89.33-70-89.33l-34-72.59v78.16l40,148,85,234.5-93-67-80-44.67L567,3185.85l-200-58.64-60-150.75-196-268-72-58.64,30-167.49,86,92.13,132,75.36L329,2809l78,5.57,138,134,8-27.92-54-100.51-58-206.58-78-198.22-152-393.6L93,1938l-58-64.21,66-75.36,80,117.25-10-170.29-40-206.59-66-134-3.47-82.51,23.65-11h28.91l7,20.8v11l15.81,46.45L151.73,1414l21.9,12.19,18.45,41.62,33.28,50.14,7.92,40.34L249.92,1606l20.19,56.24v61.17l14.82,49v57.49l-9.65,112.56,7.09,33h26.27l25.39,9.78V2033l7,41.6,10.56,30.48,13.18-25.63h8.72l35,20.8,16.72-7.36L435.68,2110l8.8,17.12v71l5.2,34.24,20.19,26.9H494.4l35.92,18.32,12.27,34.24,13.2,29.44,35,24.4,18.43,41.6,42.93,95.44,23.65,19.55L696,2539.34l13.12,11.07,11.44,15.84-6.18,17.17v20.8l14,19.55,21.07,51.41,9.65,59.89,19.26,35.55,46.48,48.88,57.81,64.83,23.65,12.18,7,19.66,11.39,34.26h21.09l37.63,44.06v58.66l17.54,52.62,42.11,58.66L1036,3217.1l10.56,38,5.25,51.28,30.64,5,4.45,19.55,12.22,42.77,28.08,37.92,6.08,47.73v51.39l23.73,30.61,17.47,20.8-5.2,55,9.65,22,14.83,12.19v29.44l18.45,22,5.25,31.87v29.28l18.38,26.91-7,24.5,7,67.26,16.64,31.86,9.65,55,27.17-19.57v24.48l23.65,42.8,32.46,46.45v33.09h29.81l6.11,20.83h23.62l20.19,4.83v30.58l31.55,18.4h14.91l22.74,26.91v26.19l18.46,20.26,8.72,12.19h32.45l29.76,28.16,15.81-8.51,18.37,7.26s17.55,68.53,19.28,74.64,18.43,36.69,18.43,36.69l14.91,17.12h43.84l14.82,20.8H1759l21,30.61,50.83-4.85,44.72-19.65H1901v28.16Z"/><path id="Path_4" data-name="Path 4" class="cls-3" d="M216.21,3122.15l180.46,262.9L424,3610.43l125.78,278.42,235.14,245.27h-87.5L374.79,3915.37,216.21,3690V3398.31l-43.75-192.24Z"/></g></g></svg>