<svg width="1920" height="4662.33" preserveAspectRatio="none" xmlns="http://www.w3.org/2000/svg">
 <defs>
  <style>.cls-1{fill:#340f47;}.cls-2{opacity:0.5;}.cls-3{fill:#5e2d8f;}</style>
 </defs>
 <g>
  <title>background</title>
  <rect fill="none" id="canvas_background" height="4664.33" width="1922" y="-1" x="-1"/>
 </g>
 <g>
  <title>Layer 1</title>
  <g id="Layer_4">
   <rect x="0" height="2399.52" width="1920" y="4232.79841" class="cls-1" id="Rectangle_2"/>
   <path d="m1920,3672.74841l0,572.25l-1920,0l0,-3672.28l24,-21.86l18.27,-16.67l19.25,-23.19l23.65,-11l28.91,0l7,20.8l0,11l15.81,46.46l14.85,24.5l21.9,12.19l18.45,41.63l33.28,50.13l7.92,40.35l16.64,47.73l20.18,56.21l0,61.17l14.82,49l0,57.49l-9.65,112.56l7.09,33l26.27,0l25.36,9.78l0,47.73l7,41.6l10.56,30.48l13.18,-25.63l8.72,0l35,20.8l16.72,-7.36l10.48,17.15l8.8,17.12l0,71l5.2,34.24l20.21,26.87l24.53,0l35.92,18.32l12.27,34.24l13.2,29.44l35,24.4l18.43,41.6l42.93,95.44l23.66,19.56l20.19,17.08l13.12,11.07l11.41,15.85l-6.18,17.17l0,20.83l14,19.55l21.07,51.41l9.65,59.9l19.26,35.54l46.48,48.88l57.81,64.83l23.65,12.19l7,19.65l11.39,34.27l21.09,0l37.63,44.05l0,58.67l17.54,52.61l42.11,58.67l-7.09,52.67l10.56,37.94l5.25,51.28l30.64,5l4.45,19.55l12.22,42.77l28.08,37.92l6.08,47.73l0,51.39l23.78,30.53l17.47,20.8l-5.2,55l9.65,22.06l14.83,12.18l0,29.44l18.45,22l5.25,31.87l0,29.28l18.38,26.91l-7,24.51l7,67.25l16.64,31.87l9.65,55l27.17,-19.57l0,24.4l23.66,42.8l32.45,46.45l0,33.1l29.81,0l6.11,20.82l23.63,0l20.18,4.83l0,30.59l31.55,18.4l14.91,0l22.74,26.9l0,26.19l18.46,20.27l8.72,12.18l32.45,0l29.76,28.16l15.81,-8.5l18.38,7.25s17.54,68.53 19.28,74.64s18.42,36.69 18.42,36.69l14.91,17.12l43.84,0l14.83,20.8l29.81,0l21,30.62l50.83,-4.86l44.72,-19.65l25.45,0l0,28.2l19,16.75z" class="cls-1" id="Path_1"/>
   <g class="cls-2" id="Group_1">
    <path d="m1920,3677.99841l0,775.57l-221.15,-203.33l-18.74,-38.75l-108.06,-155.41l-77,-110.8l-64.19,-68.54l43.42,179.34l1.89,7.78l90.63,137.14l99.32,210.29l-197.16,-161l-128.4,-194.16l-109.87,-166.16l-90.64,-113.36s-79.3,-163.39 -73.86,-174s-5.44,-15.78 -1.68,-52.69s0,-39.55 0,-39.55l0,-145l-13.2,-205.58l-91.31,-193.7s-15,-33.52 -21,-41.9s-70,-89.33 -70,-89.33l-34,-72.59l0,78.16l40,148l85,234.5l-93,-67l-80,-44.67l-220,-731.41l-200,-58.64l-60,-150.75l-196,-268l-72,-58.64l30,-167.49l86,92.13l132,75.36l42,159.18l78,5.57l138,134l8,-27.92l-54,-100.51l-58,-206.58l-78,-198.22l-152,-393.6l-118,-83.74l-58,-64.21l66,-75.36l80,117.25l-10,-170.29l-40,-206.59l-66,-134l-3.47,-82.51l23.65,-11l28.91,0l7,20.8l0,11l15.81,46.45l14.83,24.46l21.9,12.19l18.45,41.62l33.28,50.14l7.92,40.34l16.64,47.71l20.19,56.24l0,61.17l14.82,49l0,57.49l-9.65,112.56l7.09,33l26.27,0l25.39,9.78l0,47.76l7,41.6l10.56,30.48l13.18,-25.63l8.72,0l35,20.8l16.72,-7.36l10.47,17.11l8.8,17.12l0,71l5.2,34.24l20.19,26.9l24.53,0l35.92,18.32l12.27,34.24l13.2,29.44l35,24.4l18.43,41.6l42.93,95.44l23.65,19.55l20.2,17.09l13.12,11.07l11.44,15.84l-6.18,17.17l0,20.8l14,19.55l21.07,51.41l9.65,59.89l19.26,35.55l46.48,48.88l57.81,64.83l23.65,12.18l7,19.66l11.39,34.26l21.09,0l37.63,44.06l0,58.66l17.54,52.62l42.11,58.66l-7.06,52.67l10.56,38l5.25,51.28l30.64,5l4.45,19.55l12.22,42.77l28.08,37.92l6.08,47.73l0,51.39l23.73,30.61l17.47,20.8l-5.2,55l9.65,22l14.83,12.19l0,29.44l18.45,22l5.25,31.87l0,29.28l18.38,26.91l-7,24.5l7,67.26l16.64,31.86l9.65,55l27.17,-19.57l0,24.48l23.65,42.8l32.46,46.45l0,33.09l29.81,0l6.11,20.83l23.62,0l20.19,4.83l0,30.58l31.55,18.4l14.91,0l22.74,26.91l0,26.19l18.46,20.26l8.72,12.19l32.45,0l29.76,28.16l15.81,-8.51l18.37,7.26s17.55,68.53 19.28,74.64s18.43,36.69 18.43,36.69l14.91,17.12l43.84,0l14.82,20.8l29.81,0l21,30.61l50.83,-4.85l44.72,-19.65l25.45,0l0,28.16l19,16.67z" class="cls-3" id="Path_2"/>
    <path d="m216.21,2316.14841l180.46,262.9l27.33,225.38l125.78,278.42l235.14,245.27l-87.5,0l-322.63,-218.75l-158.58,-225.37l0,-291.69l-43.75,-192.24l43.75,-83.92z" class="cls-3" id="Path_4"/>
   </g>
  </g>
 </g>
</svg>