<svg width="1920" height="4500" xmlns="http://www.w3.org/2000/svg" preserveAspectRatio="none">

 <g>
  <title>background</title>
  <rect fill="none" id="canvas_background" height="602" width="802" y="-1" x="-1"/>
 </g>
 <g>
  <title>Layer 1</title>
  <g id="Mountain">
   <g fill="#563426" class="bottom" id="MountainBack">
    <rect x="0" id="svg_1" y="3732.85989" width="1920" height="2399.52"/>
    <path id="svg_2" d="m1920,3172.80989l0,572.24l-1920,0l0,-3672.27l23.97,-21.87l18.27,-16.67l19.28,-23.23l23.65,-11.01l28.91,0l6.99,20.8l0,11.01l15.81,46.45l14.85,24.51l21.89,12.19l18.45,41.63l33.28,50.13l7.92,40.35l16.64,47.73l20.19,56.24l0,61.17l14.83,48.99l0,57.49l-9.65,112.56l7.09,32.99l26.27,0l25.39,9.79l0,47.73l6.99,41.6l10.56,30.48l13.17,-25.63l8.72,0l35.01,20.8l16.72,-7.36l10.48,17.15l8.8,17.12l0,70.96l5.2,34.24l20.19,26.91l24.53,0l35.92,18.32l12.27,34.24l13.2,29.44l35.01,24.4l18.43,41.6l42.93,95.44l23.65,19.55l20.16,17.12l13.12,11.07l11.44,15.84l-6.19,17.17l0,20.8l14.03,19.55l21.07,51.41l9.65,59.89l19.25,35.55l46.48,48.88l57.81,64.83l23.65,12.19l6.99,19.65l11.39,34.27l21.09,0l37.63,44.05l0,58.67l17.55,52.61l42.11,58.67l-7.09,52.67l10.56,37.95l5.25,51.28l30.64,4.96l4.45,19.55l12.21,42.77l28.08,37.92l6.08,47.73l0,51.39l23.73,30.61l17.47,20.8l-5.2,54.99l9.65,22.05l14.83,12.19l0,29.44l18.45,21.97l5.25,31.87l0,29.28l18.37,26.91l-6.99,24.51l6.99,67.25l16.64,31.87l9.65,54.99l27.17,-19.57l0,24.48l23.65,42.8l32.45,46.45l0,33.09l29.81,0l6.11,20.83l23.63,0l20.19,4.83l0,30.59l31.55,18.4l14.91,0l22.75,26.91l0,26.19l18.45,20.27l8.72,12.19l32.45,0l29.76,28.16l15.81,-8.51l18.37,7.25c0,0 17.55,68.53 19.28,74.64c1.79,6.11 18.43,36.69 18.43,36.69l14.91,17.12l43.84,0l14.83,20.8l29.81,0l21.01,30.61l50.83,-4.85l44.72,-19.65l25.47,0l0,28.16l19.03,16.74z"/>
   </g>
   <g id="svg_3" opacity="0.2" fill="#fff">
    <path id="svg_4" d="m1920,3173.06989l0,775.58l-221.15,-203.34l-18.75,-38.75l-108.05,-155.41l-77.01,-110.8l-64.19,-68.53l43.41,179.33l1.89,7.79l90.64,137.09l99.32,210.29l-197.16,-161.01l-128.4,-194.16l-109.87,-166.16l-90.64,-113.36c0,0 -79.31,-163.39 -73.87,-173.97c5.47,-10.53 -5.44,-15.79 -1.68,-52.69c3.79,-36.91 0,-39.55 0,-39.55l0,-144.99l-13.2,-205.57l-91.29,-193.71c0,0 -15.04,-33.52 -21.04,-41.89s-70,-89.33 -70,-89.33l-34,-72.59l0,78.16l40,147.97l85.04,234.5l-93.04,-66.99l-80,-44.67l-219.97,-731.41l-200,-58.64l-60,-150.75l-196,-268l-72,-58.64l30,-167.49l86,92.13l132,75.36l42,159.15l78,5.57l138,134l8,-27.92l-54,-100.51l-58,-206.59l-78,-198.21l-152,-393.6l-118,-83.76l-58,-64.21l66,-75.36l80,117.25l-10,-170.29l-40,-206.59l-66,-134.03l-3.47,-82.51l23.65,-11.01l28.91,0l6.99,20.8l0,11.01l15.81,46.45l14.85,24.51l21.89,12.19l18.45,41.63l33.28,50.13l7.92,40.35l16.64,47.73l20.19,56.24l0,61.17l14.83,48.99l0,57.49l-9.65,112.56l7.09,32.99l26.27,0l25.39,9.79l0,47.73l6.99,41.6l10.56,30.48l13.17,-25.63l8.72,0l35.01,20.8l16.72,-7.36l10.48,17.15l8.8,17.12l0,70.96l5.2,34.24l20.19,26.91l24.53,0l35.92,18.32l12.27,34.24l13.2,29.44l35.01,24.4l18.43,41.6l42.93,95.44l23.65,19.55l20.16,17.12l13.12,11.07l11.44,15.84l-6.19,17.17l0,20.8l14.03,19.55l21.07,51.41l9.65,59.89l19.25,35.55l46.48,48.88l57.81,64.83l23.65,12.19l6.99,19.65l11.39,34.27l21.09,0l37.63,44.05l0,58.67l17.55,52.61l42.11,58.67l-7.09,52.67l10.56,37.95l5.25,51.28l30.64,4.96l4.45,19.55l12.21,42.77l28.08,37.92l6.08,47.73l0,51.39l23.73,30.61l17.47,20.8l-5.2,54.99l9.65,22.05l14.83,12.19l0,29.44l18.45,21.97l5.25,31.87l0,29.28l18.37,26.91l-6.99,24.51l6.99,67.25l16.64,31.87l9.65,54.99l27.17,-19.57l0,24.48l23.65,42.8l32.45,46.45l0,33.09l29.81,0l6.11,20.83l23.63,0l20.19,4.83l0,30.59l31.55,18.4l14.91,0l22.75,26.91l0,26.19l18.45,20.27l8.72,12.19l32.45,0l29.76,28.16l15.81,-8.51l18.37,7.25c0,0 17.55,68.53 19.28,74.64c1.79,6.11 18.43,36.69 18.43,36.69l14.91,17.12l43.84,0l14.83,20.8l29.81,0l21.01,30.61l50.83,-4.85l44.72,-19.65l25.47,0l0,28.16l19.03,16.75z" class="top"/>
    <path id="svg_5" d="m216.21,1816.20989l180.46,262.9l27.34,225.38l125.77,278.42l235.15,245.27l-87.5,0l-325.64,-172.75l-158.59,-225.38l3,-337.67l-43.75,-192.24l43.76,-83.93z" class="top"/>
   </g>
  </g>
 </g>
</svg>