<svg xmlns="http://www.w3.org/2000/svg" viewBox="0 0 747.64 128.89" xmlns:v="https://vecta.io/nano"><path d="M630.71 45.3c-6.13-3.41-12.26 3.63-18.39-.02.76 1.62 1.51 3.21 2.27 4.13 5.02 1.21 10.04-3.38 15.06-1.31.35.03.71.09 1.06.2v-3z" fill="#9b1c22"/><path d="M639.26 45.07l4.46 7.55-6.81 2.39h-10.36l5.7-11.68z" fill="#280e10"/><circle cx="637.07" cy="39.1" r="6.42" fill="#be9a7f"/><path d="M639.86 44.78l.8 2.67-10.59.34.77-3.01c0 0 7 .71 9.02 0z" fill="#b42025"/><path d="M700.24 120.02l-26.97-50.09h25.42l1.55 50.09zm-21.95-47.09l18.56 34.46-1.07-34.46h-17.49z" fill="#be1e2d"/><circle cx="698.54" cy="113.71" r="15.18"/><path d="M679.86 115.21a1.5 1.5 0 0 1-1.5-1.5c0-11.13 9.05-20.18 20.18-20.18 5.2 0 10.15 1.98 13.91 5.56a1.5 1.5 0 0 1 .05 2.12 1.5 1.5 0 0 1-2.12.05 17.11 17.11 0 0 0-11.84-4.73c-9.47 0-17.18 7.71-17.18 17.18a1.5 1.5 0 0 1-1.5 1.5z" fill="#be1e2d"/><circle cx="698.54" cy="113.71" r="11.61" fill="#fff"/><circle cx="698.54" cy="113.71" r="3.68"/><path d="M556.49 49.76l-26.51 2.54c-3.74-7.03-4.39-13.02-3.39-18l29.9 15.46z" fill="#736b6b"/><path d="M574.77 48.01l-18.28 1.75-29.9-15.46c1.03-5.1 3.79-9.15 6.75-12.17l41.43 25.88z" fill="#fff"/><path d="M574.77 48.01l-41.43-25.88a35.37 35.37 0 0 1 3.78-3.32c2.98-2.25 7.16-1.98 9.77.7l27.88 28.5z" fill="#be1e2d"/><path d="M547.34 80.64l-.53-15.76 14.74 4.44z" fill="#4a4747"/><path d="M714 69.27v12.57l-85.34-.85c-23.01-.23-45.87-3.92-67.78-10.95L536 62.05c-1.4-.45-2.62-1.21-3.61-2.2l43.85 7.97c10.9 1.99 22.04 2.99 33.13 2.99l2.78-.02L714 69.27z" fill="#736b6b"/><path d="M714 44.1v25.17l-101.85 1.52-2.78.02c-11.09 0-22.23-1-33.13-2.99l-43.85-7.97a8.86 8.86 0 0 1-2.41-4.59 8.07 8.07 0 0 1-.18-1.71 4.41 4.41 0 0 1 1.24-3.07 4.45 4.45 0 0 1 3.04-1.33l78.9-2.21c3.11 5.19 10.49 8.83 19.1 8.83 9.2 0 17-4.16 19.69-9.92L714 44.1z" fill="#be1e2d"/><circle cx="547.34" cy="80.64" r="6.89"/><circle cx="547.34" cy="80.64" r="5.27" fill="#fff"/><circle cx="547.34" cy="80.64" r="1.67"/><path d="M742.46 61.45V34.93c0-3.45-1.22-6.79-3.45-9.42h0v35.94h3.45z" fill="#be1e2d"/><path d="M734.37 57.22h7.92a5.34 5.34 0 0 1 5.34 5.34h0a5.34 5.34 0 0 1-5.34 5.34h-8.46l.54-10.68z" fill="#3a1c19"/><path d="M739.01 64.61v26.52c0 3.45 1.22 6.79 3.45 9.42h0V64.61h-3.45z" fill="#be1e2d"/><path d="M714 44.1v37.75h16.45c2.11 0 3.85-1.66 3.95-3.76l1.42-30.35c.11-2.3-1.76-4.2-4.06-4.13L714 44.1z" fill="#5b3131"/><path d="M632.08 57.77c-9.08 0-17.25-3.85-20.82-9.8a1.998 1.998 0 0 1 3.43-2.05c2.82 4.7 9.8 7.86 17.38 7.86 8.12 0 15.47-3.6 17.88-8.77a2.01 2.01 0 0 1 2.66-.97 2.01 2.01 0 0 1 .97 2.66c-3.09 6.62-11.73 11.07-21.5 11.07zm81.92 7.5l-101.91 1.52a182.35 182.35 0 0 1-35.14-2.9l-46.97-8.63a8.86 8.86 0 0 0 2.41 4.59l43.85 7.97c10.9 1.99 22.04 2.99 33.13 2.99l2.78-.02L714 69.27v-4z" fill="#fff"/><path d="M687.108 70.538l4.502-43.096 4.973.519-4.502 43.096zm-24.18.623l4.502-43.096 4.973.519-4.502 43.096z" fill="#cca066"/><path d="M647.43 75.6l53.62-1.53c.81-.02 1.45-.69 1.45-1.5v-.62c0-1.04-.41-2.03-1.15-2.77h0a6.61 6.61 0 0 0-5.37-1.9l-43.4 4.62a9.07 9.07 0 0 0-5.59 2.75h0c-.32.37-.06.97.44.95zm5.92-45.92l53.62-1.53c.81-.02 1.45-.69 1.45-1.5v-.62c0-1.04-.41-2.03-1.15-2.77h0a6.61 6.61 0 0 0-5.37-1.9l-43.4 4.62a9.07 9.07 0 0 0-5.59 2.75h0c-.32.37-.05.96.44.95z" fill="#be1e2d"/><path d="M531.42 57.95h-39.8l-36.13-34.19.69-.73 35.84 33.92h39.4z"/><path d="M454.041 85.585l37.463-28.547.606.795-37.463 28.547z"/><path d="M643.75 36.66c0 .3-.01.58-.05.86-6.88.21-8.53 8.07-8.53 8.07-.71.57-1.14 1.43-1.14 2.36v.53c0 .61-.5 1.1-1.11 1.1s-1.1-.49-1.1-1.1v-1.21c0-.81-.25-1.61-.71-2.3l-.45-.65c-.5-.72-.77-1.57-.77-2.45V38a6.79 6.79 0 0 1 6.79-6.79c3.75.02 7.07 1.71 7.07 5.45z" fill="#4a2f12"/><path d="M456.84 20.67v68.84C304.56 17.91 152.28 161.1 0 89.51c16.9-3.53 33.81-9.7 50.71-17.93C33.81 56.86 16.9 40.09 0 20.67c152.28 71.59 304.56-71.6 456.84 0z" fill="#fff"/><path d="M92.88 57.34v4.81c0 2.9-.41 5.79-1.04 9.67A295.98 295.98 0 0 1 87.55 93c-.46 1.9-1.51 3.03-3.25 2.95s-2.96-1.31-3.36-3.25c-1.39-6.23-2.67-12.4-4.29-21.58-.7-3.94-1.04-6.87-1.04-9.77v-4.81c0-1.16 1.1-2.06 2.26-1.97 1.16.08 2.15 1.13 2.15 2.29v3.83c0 1.74.23 6.11 1.04 10.74l3.31 19.2c1.04-5.75 1.97-11.34 3.07-18.9.7-4.56 1.04-8.9 1.04-10.64v-3.83c0-1.16.99-2.12 2.15-2.09 1.15.02 2.25 1.02 2.25 2.17zm7.54 36.6V57.4a2.25 2.25 0 0 1 2.2-2.24c1.22-.03 2.2.93 2.2 2.15v36.54c0 1.22-.99 2.23-2.2 2.26-1.21.02-2.2-.95-2.2-2.17zm11.08-7.67c0-2.55.58-4.55.99-5.5.58-1.36 1.8-1.95 3.07-1.63 1.16.27 1.51 1.64 1.04 2.89-.46 1.36-.7 2.42-.7 3.76 0 3.54 1.74 5.81 4.7 5.58 2.84-.22 4.7-2.43 4.7-8.29 0-4.64-1.22-6.95-5.05-9.14l-2.2-1.29c-3.77-2.17-5.57-4.7-5.57-9.34 0-5.34 3.42-8.92 8.35-9.31 5.16-.41 8.18 2.16 8.18 8.02v.46c0 1.33-.93 2.24-2.15 2.36-1.16.11-2.15-.61-2.15-2.06v-.35c0-3.6-1.57-4.55-3.77-4.38-2.44.19-4.06 2.21-4.06 4.99 0 2.72.99 4.17 3.25 5.45l2.2 1.27c5.45 3.02 7.42 5.91 7.42 12.59 0 9.1-3.89 12.72-9.28 13.14-5.32.42-8.97-3.07-8.97-9.22zm24.94 5.14V54.87c0-1.22.99-2.32 2.2-2.48 1.22-.15 2.2.7 2.2 1.92v36.54c0 1.22-.99 2.33-2.2 2.49-1.22.16-2.2-.71-2.2-1.93zm16.93-2.37V54.59l-4.99.77c-1.16.17-2.15-.56-2.15-1.72s.99-2.17 2.15-2.34c4.79-.71 9.59-1.5 14.38-2.35 1.16-.2 2.15.49 2.15 1.65s-.99 2.21-2.15 2.41l-4.99.86v34.45c0 1.22-.99 2.37-2.2 2.57-1.21.19-2.2-.64-2.2-1.85zm24.25-11.35V55.3c0-5.86 3.02-10.1 8.7-11.3s8.7 1.77 8.7 7.63v22.39c0 5.85-3.02 10.19-8.7 11.39-5.69 1.2-8.7-1.86-8.7-7.72zm12.99-3.46V53.35c0-4.35-1.51-5.76-4.29-5.17s-4.29 2.63-4.29 6.99v20.88c0 4.35 1.51 5.78 4.29 5.19s4.29-2.66 4.29-7.01zm11.83-1.86V42.79c0-1.22.99-2.43 2.2-2.7 1.22-.28 2.2.48 2.2 1.7v28.83c0 4.35 1.51 5.75 4.29 5.1 2.78-.64 4.29-2.74 4.29-7.09V39.8c0-1.22.99-2.43 2.2-2.72 1.22-.28 2.2.47 2.2 1.69v29.58c0 5.86-3.02 10.22-8.7 11.54-5.66 1.31-8.68-1.67-8.68-7.52zm38.4-18.16c1.62.55 3.31 2.54 3.31 5.96v9.45c0 1.22-.99 2.43-2.2 2.72-1.22.28-2.2-.47-2.2-1.69v-8.24c0-3.31-1.74-5.45-4.58-4.79l-3.07.72v14.09c0 1.22-.99 2.44-2.2 2.72-1.22.29-2.2-.47-2.2-1.69V38.43c0-2.44 1.04-3.73 3.54-4.31l3.89-.91c5.8-1.36 9.16 1.69 9.16 8.71v2.73c-.03 4.01-1.08 7.2-3.45 9.56zm-.87-9.49v-.87c0-5.22-1.57-7.35-5.28-6.48l-2.61.61v16.3l2.61-.61c3.71-.87 5.28-3.73 5.28-8.95zm20.18 19.87V29.44c0-1.22.99-2.42 2.2-2.69 1.22-.27 2.2.5 2.2 1.72v34.45l7.66-1.63c1.28-.27 2.2.41 2.2 1.63s-.93 2.28-2.2 2.55l-8.53 1.82c-2.49.55-3.53-.26-3.53-2.7zm19.84-2.8V25.25c0-1.22.99-2.4 2.2-2.64 1.22-.24 2.2.56 2.2 1.78v36.54c0 1.22-.99 2.39-2.2 2.63-1.22.24-2.2-.55-2.2-1.77zm29.23-41.71v4.81c0 2.9-.41 5.86-1.04 9.84-1.51 9.27-2.84 15.57-4.29 21.94-.46 1.99-1.51 3.31-3.25 3.6s-2.96-.67-3.36-2.51c-1.39-5.91-2.67-11.78-4.29-20.53-.7-3.76-1.04-6.6-1.04-9.5v-4.81c0-1.16 1.1-2.34 2.26-2.55 1.16-.2 2.15.61 2.15 1.77v3.83c0 1.74.23 6.05 1.04 10.49l3.31 18.47c1.04-5.97 1.97-11.75 3.07-19.52.7-4.69 1.04-9.1 1.04-10.84v-3.83c0-1.16.99-2.3 2.15-2.48 1.14-.16 2.25.66 2.25 1.82zm21.86 34.02c0 1.16-.99 2.12-2.15 2.24l-8.93.99c-2.49.31-3.54-.6-3.54-3.03V20.66c0-2.43 1.04-3.62 3.54-3.93l8.93-.99c1.16-.11 2.15.66 2.15 1.82s-.99 2.12-2.15 2.23l-8.06.88v12.18l7.19-.79c1.16-.12 2.15.66 2.15 1.82s-.99 2.12-2.15 2.24l-7.19.79v16.24l8.06-.88c1.17-.11 2.15.67 2.15 1.83zm13.4-8.35c0-2.55.58-4.55.99-5.5.58-1.36 1.8-1.94 3.07-1.59 1.16.3 1.51 1.68 1.04 2.92-.46 1.35-.7 2.4-.7 3.74 0 3.54 1.74 5.84 4.7 5.77 2.84-.07 4.7-2.1 4.7-7.96 0-4.63-1.22-7.08-5.05-9.49l-2.2-1.39c-3.77-2.31-5.57-4.81-5.57-9.46 0-5.33 3.42-8.95 8.35-9.06 5.16-.11 8.18 2.84 8.18 8.69v.46c0 1.33-.93 2.14-2.15 2.14-1.16 0-2.15-.8-2.15-2.25v-.35c0-3.59-1.57-4.69-3.77-4.64-2.44.05-4.06 2.03-4.06 4.82 0 2.73.99 4.19 3.25 5.59l2.2 1.4c5.45 3.4 7.42 6.59 7.42 13.25 0 9.11-3.89 12.24-9.28 12.37-5.32.13-8.97-3.3-8.97-9.46zm24.94 7.03V16.24c0-1.22.99-2.17 2.2-2.12 1.22.05 2.2 1.09 2.2 2.31v36.54c0 1.22-.99 2.15-2.2 2.1-1.22-.05-2.2-1.07-2.2-2.29zm16.93 1.14V19.47l-4.99-.46c-1.16-.09-2.15-1.03-2.15-2.19s.99-1.96 2.15-1.87a234.15 234.15 0 0 1 14.38 1.61c1.16.17 2.15 1.19 2.15 2.35s-.99 1.88-2.15 1.71l-4.99-.66v34.45c0 1.22-.99 2.08-2.2 1.95s-2.2-1.22-2.2-2.44zm31.27 5.47c0 1.16-.99 1.78-2.15 1.51l-8.93-1.93c-2.49-.48-3.54-1.7-3.54-4.14V21.19c0-2.43 1.04-3.3 3.54-2.82a218.99 218.99 0 0 1 8.93 1.93c1.16.28 2.15 1.39 2.15 2.55s-.99 1.78-2.15 1.51l-8.06-1.76v12.18l7.19 1.55c1.16.27 2.15 1.38 2.15 2.54s-.99 1.79-2.15 1.52l-7.19-1.55v16.24l8.06 1.76c1.16.28 2.15 1.4 2.15 2.55zm7.5 3.86c0-1.62 1.28-2.9 2.9-2.9s2.9 1.28 2.9 2.9-1.28 2.9-2.9 2.9a2.87 2.87 0 0 1-2.9-2.9zm.7-9.1V26.89c0-1.16.99-2.2 2.2-2.2 1.22 0 2.2 1.04 2.2 2.2v27.26c0 1.16-.99 2.2-2.2 2.2-1.22 0-2.2-1.04-2.2-2.2z"/></svg>