<?xml version="1.0" encoding="utf-8"?>
<!-- Generator: Adobe Illustrator 24.2.1, SVG Export Plug-In . SVG Version: 6.00 Build 0)  -->
<svg version="1.1" id="Layer_1" xmlns="http://www.w3.org/2000/svg" xmlns:xlink="http://www.w3.org/1999/xlink" x="0px" y="0px"
	 viewBox="0 0 747.64 128.89" style="enable-background:new 0 0 747.64 128.89;" xml:space="preserve">
<style type="text/css">
	.st0{fill:#9B1C22;}
	.st1{fill:#280E10;}
	.st2{fill:#BE9A7F;}
	.st3{fill:#B42025;}
	.st4{fill:#BE1E2D;}
	.st5{fill:#FFFFFF;}
	.st6{fill:#736B6B;}
	.st7{fill:#4A4747;}
	.st8{fill:#3A1C19;}
	.st9{fill:#5B3131;}
	.st10{fill:#CCA066;}
	.st11{fill:none;}
	.st12{fill:#4A2F12;}
</style>
<g>
	<g>
		<path class="st0" d="M630.71,45.3c-6.13-3.41-12.26,3.63-18.39-0.02c0.76,1.62,1.51,3.21,2.27,4.13
			c5.02,1.21,10.04-3.38,15.06-1.31c0.35,0.03,0.71,0.09,1.06,0.2C630.71,47.3,630.71,46.3,630.71,45.3z"/>
	</g>
	<g>
		<polygon class="st1" points="639.26,45.07 643.72,52.62 636.91,55.01 626.55,55.01 632.25,43.33 		"/>
	</g>
	<g>
		<circle class="st2" cx="637.07" cy="39.1" r="6.42"/>
	</g>
	<g>
		<path class="st3" d="M639.86,44.78l0.8,2.67l-10.59,0.34l0.77-3.01C630.84,44.78,637.84,45.49,639.86,44.78z"/>
	</g>
	<g>
		<path class="st4" d="M700.24,120.02l-26.97-50.09h25.42L700.24,120.02z M678.29,72.93l18.56,34.46l-1.07-34.46H678.29z"/>
	</g>
	<g>
		<circle cx="698.54" cy="113.71" r="15.18"/>
	</g>
	<g>
		<path class="st4" d="M679.86,115.21c-0.83,0-1.5-0.67-1.5-1.5c0-11.13,9.05-20.18,20.18-20.18c5.2,0,10.15,1.98,13.91,5.56
			c0.6,0.57,0.62,1.52,0.05,2.12c-0.57,0.6-1.52,0.62-2.12,0.05c-3.21-3.05-7.41-4.73-11.84-4.73c-9.47,0-17.18,7.71-17.18,17.18
			C681.36,114.54,680.69,115.21,679.86,115.21z"/>
	</g>
	<g>
		<circle class="st5" cx="698.54" cy="113.71" r="11.61"/>
	</g>
	<g>
		<circle cx="698.54" cy="113.71" r="3.68"/>
	</g>
	<g>
		<path class="st6" d="M556.49,49.76l-26.51,2.54c-3.74-7.03-4.39-13.02-3.39-18L556.49,49.76z"/>
	</g>
	<g>
		<path class="st5" d="M574.77,48.01l-18.28,1.75l-29.9-15.46c1.03-5.1,3.79-9.15,6.75-12.17L574.77,48.01z"/>
	</g>
	<g>
		<path class="st4" d="M574.77,48.01l-41.43-25.88c1.27-1.29,2.57-2.4,3.78-3.32c2.98-2.25,7.16-1.98,9.77,0.7L574.77,48.01z"/>
	</g>
	<g>
		<polygon class="st7" points="547.34,80.64 546.81,64.88 561.55,69.32 		"/>
	</g>
	<g>
		<path class="st6" d="M714,69.27v12.57l-85.34-0.85c-23.01-0.23-45.87-3.92-67.78-10.95L536,62.05c-1.4-0.45-2.62-1.21-3.61-2.2
			l43.85,7.97c10.9,1.99,22.04,2.99,33.13,2.99c0.93,0,1.85-0.01,2.78-0.02L714,69.27z"/>
	</g>
	<g>
		<path class="st4" d="M714,44.1v25.17l-101.85,1.52c-0.93,0.01-1.85,0.02-2.78,0.02c-11.09,0-22.23-1-33.13-2.99l-43.85-7.97
			c-1.23-1.24-2.08-2.84-2.41-4.59c-0.12-0.55-0.18-1.13-0.18-1.71c0-1.19,0.47-2.27,1.24-3.07c0.77-0.79,1.85-1.29,3.04-1.33
			l78.9-2.21c3.11,5.19,10.49,8.83,19.1,8.83c9.2,0,17-4.16,19.69-9.92L714,44.1z"/>
	</g>
	<g>
		<circle cx="547.34" cy="80.64" r="6.89"/>
	</g>
	<g>
		<circle class="st5" cx="547.34" cy="80.64" r="5.27"/>
	</g>
	<g>
		<circle cx="547.34" cy="80.64" r="1.67"/>
	</g>
	<g>
		<path class="st4" d="M742.46,61.45V34.93c0-3.45-1.22-6.79-3.45-9.42v0v35.94H742.46z"/>
	</g>
	<g>
		<path class="st8" d="M734.37,57.22h7.92c2.95,0,5.34,2.39,5.34,5.34v0c0,2.95-2.39,5.34-5.34,5.34h-8.46L734.37,57.22z"/>
	</g>
	<g>
		<path class="st4" d="M739.01,64.61v26.52c0,3.45,1.22,6.79,3.45,9.42v0V64.61H739.01z"/>
	</g>
	<g>
		<path class="st9" d="M714,44.1v37.75h16.45c2.11,0,3.85-1.66,3.95-3.76l1.42-30.35c0.11-2.3-1.76-4.2-4.06-4.13L714,44.1z"/>
	</g>
	<g>
		<path class="st5" d="M632.08,57.77c-9.08,0-17.25-3.85-20.82-9.8c-0.57-0.95-0.26-2.18,0.69-2.74c0.95-0.57,2.18-0.26,2.74,0.69
			c2.82,4.7,9.8,7.86,17.38,7.86c8.12,0,15.47-3.6,17.88-8.77c0.47-1,1.66-1.43,2.66-0.97c1,0.47,1.43,1.66,0.97,2.66
			C650.49,53.32,641.85,57.77,632.08,57.77z"/>
	</g>
	<g>
		<g>
			<path class="st5" d="M714,65.27l-101.91,1.52c-11.75,0.17-23.58-0.8-35.14-2.9l-46.97-8.63c0.33,1.75,1.18,3.35,2.41,4.59
				l43.85,7.97c10.9,1.99,22.04,2.99,33.13,2.99c0.93,0,1.85-0.01,2.78-0.02L714,69.27V65.27z"/>
		</g>
	</g>
	<g>
		
			<rect x="670.19" y="46.76" transform="matrix(0.1039 -0.9946 0.9946 0.1039 570.9679 732.2502)" class="st10" width="43.33" height="5"/>
	</g>
	<g>
		
			<rect x="646.01" y="47.38" transform="matrix(0.1039 -0.9946 0.9946 0.1039 548.6837 708.7601)" class="st10" width="43.33" height="5"/>
	</g>
	<g>
		<path class="st4" d="M647.43,75.6l53.62-1.53c0.81-0.02,1.45-0.69,1.45-1.5v-0.62c0-1.04-0.41-2.03-1.15-2.77l0,0
			c-1.41-1.41-3.38-2.11-5.37-1.9l-43.4,4.62c-2.13,0.23-4.11,1.2-5.59,2.75l0,0C646.67,75.02,646.93,75.62,647.43,75.6z"/>
	</g>
	<g>
		<path class="st4" d="M653.35,29.68l53.62-1.53c0.81-0.02,1.45-0.69,1.45-1.5v-0.62c0-1.04-0.41-2.03-1.15-2.77v0
			c-1.41-1.41-3.38-2.11-5.37-1.9l-43.4,4.62c-2.13,0.23-4.11,1.2-5.59,2.75v0C652.59,29.1,652.86,29.69,653.35,29.68z"/>
	</g>
	<g>
		<line class="st11" x1="533.34" y1="22.13" x2="532.9" y2="21.86"/>
	</g>
	<g>
		<line class="st11" x1="558.87" y1="50.99" x2="556.49" y2="49.76"/>
	</g>
	<g>
		<line class="st11" x1="526.59" y1="34.3" x2="525.42" y2="33.69"/>
	</g>
	<g>
		<polygon points="531.42,57.95 491.62,57.95 455.49,23.76 456.18,23.03 492.02,56.95 531.42,56.95 		"/>
	</g>
	<g>
		<rect x="449.53" y="71.22" transform="matrix(0.7954 -0.6061 0.6061 0.7954 53.3179 301.3971)" width="47.1" height="1"/>
	</g>
	<g>
		<path class="st12" d="M643.75,36.66c0,0.3-0.01,0.58-0.05,0.86c-6.88,0.21-8.53,8.07-8.53,8.07c-0.71,0.57-1.14,1.43-1.14,2.36
			v0.53c0,0.61-0.5,1.1-1.11,1.1s-1.1-0.49-1.1-1.1v-1.21c0-0.81-0.25-1.61-0.71-2.3l-0.45-0.65c-0.5-0.72-0.77-1.57-0.77-2.45
			v-3.87c0-3.74,3.03-6.79,6.79-6.79C640.43,31.23,643.75,32.92,643.75,36.66z"/>
	</g>
	<g>
		<g>
			<g>
				<path class="st5" d="M456.84,20.67c0,22.95,0,45.89,0,68.84C304.56,17.91,152.28,161.1,0,89.51c16.9-3.53,33.81-9.7,50.71-17.93
					C33.81,56.86,16.9,40.09,0,20.67C152.28,92.26,304.56-50.93,456.84,20.67z"/>
			</g>
			<g>
				<g>
					<path d="M92.88,57.34c0,1.6,0,3.21,0,4.81c0,2.9-0.41,5.79-1.04,9.67c-1.51,9.02-2.84,15.08-4.29,21.18
						c-0.46,1.9-1.51,3.03-3.25,2.95c-1.74-0.08-2.96-1.31-3.36-3.25c-1.39-6.23-2.67-12.4-4.29-21.58
						c-0.7-3.94-1.04-6.87-1.04-9.77c0-1.6,0-3.21,0-4.81c0-1.16,1.1-2.06,2.26-1.97c1.16,0.08,2.15,1.13,2.15,2.29
						c0,1.28,0,2.55,0,3.83c0,1.74,0.23,6.11,1.04,10.74c1.33,7.68,2.32,13.35,3.31,19.2c1.04-5.75,1.97-11.34,3.07-18.9
						c0.7-4.56,1.04-8.9,1.04-10.64c0-1.28,0-2.55,0-3.83c0-1.16,0.99-2.12,2.15-2.09C91.78,55.19,92.88,56.19,92.88,57.34z"/>
				</g>
				<g>
					<path d="M100.42,93.94c0-12.18,0-24.36,0-36.54c0-1.22,0.99-2.22,2.2-2.24c1.22-0.03,2.2,0.93,2.2,2.15
						c0,12.18,0,24.36,0,36.54c0,1.22-0.99,2.23-2.2,2.26C101.41,96.13,100.42,95.16,100.42,93.94z"/>
				</g>
				<g>
					<path d="M111.5,86.27c0-2.55,0.58-4.55,0.99-5.5c0.58-1.36,1.8-1.95,3.07-1.63c1.16,0.27,1.51,1.64,1.04,2.89
						c-0.46,1.36-0.7,2.42-0.7,3.76c0,3.54,1.74,5.81,4.7,5.58c2.84-0.22,4.7-2.43,4.7-8.29c0-4.64-1.22-6.95-5.05-9.14
						c-0.73-0.43-1.47-0.86-2.2-1.29c-3.77-2.17-5.57-4.7-5.57-9.34c0-5.34,3.42-8.92,8.35-9.31c5.16-0.41,8.18,2.16,8.18,8.02
						c0,0.15,0,0.31,0,0.46c0,1.33-0.93,2.24-2.15,2.36c-1.16,0.11-2.15-0.61-2.15-2.06c0-0.12,0-0.23,0-0.35
						c0-3.6-1.57-4.55-3.77-4.38c-2.44,0.19-4.06,2.21-4.06,4.99c0,2.72,0.99,4.17,3.25,5.45c0.73,0.43,1.47,0.85,2.2,1.27
						c5.45,3.02,7.42,5.91,7.42,12.59c0,9.1-3.89,12.72-9.28,13.14C115.15,95.91,111.5,92.42,111.5,86.27z"/>
				</g>
				<g>
					<path d="M136.44,91.41c0-12.18,0-24.36,0-36.54c0-1.22,0.99-2.32,2.2-2.48c1.22-0.15,2.2,0.7,2.2,1.92c0,12.18,0,24.36,0,36.54
						c0,1.22-0.99,2.33-2.2,2.49C137.42,93.5,136.44,92.63,136.44,91.41z"/>
				</g>
				<g>
					<path d="M153.37,89.04c0-11.48,0-22.97,0-34.45c-1.66,0.26-3.33,0.52-4.99,0.77c-1.16,0.17-2.15-0.56-2.15-1.72
						c0-1.16,0.99-2.17,2.15-2.34c4.79-0.71,9.59-1.5,14.38-2.35c1.16-0.2,2.15,0.49,2.15,1.65c0,1.16-0.99,2.21-2.15,2.41
						c-1.66,0.29-3.33,0.58-4.99,0.86c0,11.48,0,22.97,0,34.45c0,1.22-0.99,2.37-2.2,2.57C154.36,91.08,153.37,90.25,153.37,89.04z"
						/>
				</g>
				<g>
					<path d="M177.62,77.69c0-7.46,0-14.93,0-22.39c0-5.86,3.02-10.1,8.7-11.3c5.68-1.2,8.7,1.77,8.7,7.63c0,7.46,0,14.93,0,22.39
						c0,5.85-3.02,10.19-8.7,11.39C180.63,86.61,177.62,83.55,177.62,77.69z M190.61,74.23c0-6.96,0-13.92,0-20.88
						c0-4.35-1.51-5.76-4.29-5.17c-2.78,0.59-4.29,2.63-4.29,6.99c0,6.96,0,13.92,0,20.88c0,4.35,1.51,5.78,4.29,5.19
						C189.1,80.65,190.61,78.58,190.61,74.23z"/>
				</g>
				<g>
					<path d="M202.44,72.37c0-9.86,0-19.72,0-29.58c0-1.22,0.99-2.43,2.2-2.7c1.22-0.28,2.2,0.48,2.2,1.7c0,9.61,0,19.22,0,28.83
						c0,4.35,1.51,5.75,4.29,5.1c2.78-0.64,4.29-2.74,4.29-7.09c0-9.61,0-19.22,0-28.83c0-1.22,0.99-2.43,2.2-2.72
						c1.22-0.28,2.2,0.47,2.2,1.69c0,9.86,0,19.72,0,29.58c0,5.86-3.02,10.22-8.7,11.54C205.46,81.2,202.44,78.22,202.44,72.37z"/>
				</g>
				<g>
					<path d="M240.84,54.21c1.62,0.55,3.31,2.54,3.31,5.96c0,3.15,0,6.3,0,9.45c0,1.22-0.99,2.43-2.2,2.72
						c-1.22,0.28-2.2-0.47-2.2-1.69c0-2.75,0-5.49,0-8.24c0-3.31-1.74-5.45-4.58-4.79c-1.02,0.24-2.05,0.48-3.07,0.72
						c0,4.7,0,9.4,0,14.09c0,1.22-0.99,2.44-2.2,2.72c-1.22,0.29-2.2-0.47-2.2-1.69c0-11.68,0-23.35,0-35.03
						c0-2.44,1.04-3.73,3.54-4.31c1.3-0.3,2.59-0.61,3.89-0.91c5.8-1.36,9.16,1.69,9.16,8.71c0,0.91,0,1.82,0,2.73
						C244.26,48.66,243.21,51.85,240.84,54.21z M239.97,44.72c0-0.29,0-0.58,0-0.87c0-5.22-1.57-7.35-5.28-6.48
						c-0.87,0.2-1.74,0.41-2.61,0.61c0,5.43,0,10.87,0,16.3c0.87-0.2,1.74-0.41,2.61-0.61C238.4,52.8,239.97,49.94,239.97,44.72z"/>
				</g>
				<g>
					<path d="M260.15,64.59c0-11.72,0-23.43,0-35.15c0-1.22,0.99-2.42,2.2-2.69c1.22-0.27,2.2,0.5,2.2,1.72c0,11.48,0,22.97,0,34.45
						c2.55-0.55,5.1-1.1,7.66-1.63c1.28-0.27,2.2,0.41,2.2,1.63c0,1.22-0.93,2.28-2.2,2.55c-2.84,0.59-5.68,1.2-8.53,1.82
						C261.19,67.84,260.15,67.03,260.15,64.59z"/>
				</g>
				<g>
					<path d="M279.99,61.79c0-12.18,0-24.36,0-36.54c0-1.22,0.99-2.4,2.2-2.64c1.22-0.24,2.2,0.56,2.2,1.78c0,12.18,0,24.36,0,36.54
						c0,1.22-0.99,2.39-2.2,2.63C280.97,63.8,279.99,63.01,279.99,61.79z"/>
				</g>
				<g>
					<path d="M309.22,20.08c0,1.6,0,3.21,0,4.81c0,2.9-0.41,5.86-1.04,9.84c-1.51,9.27-2.84,15.57-4.29,21.94
						c-0.46,1.99-1.51,3.31-3.25,3.6c-1.74,0.29-2.96-0.67-3.36-2.51c-1.39-5.91-2.67-11.78-4.29-20.53c-0.7-3.76-1.04-6.6-1.04-9.5
						c0-1.6,0-3.21,0-4.81c0-1.16,1.1-2.34,2.26-2.55c1.16-0.2,2.15,0.61,2.15,1.77c0,1.28,0,2.55,0,3.83
						c0,1.74,0.23,6.05,1.04,10.49c1.33,7.37,2.32,12.83,3.31,18.47c1.04-5.97,1.97-11.75,3.07-19.52c0.7-4.69,1.04-9.1,1.04-10.84
						c0-1.28,0-2.55,0-3.83c0-1.16,0.99-2.3,2.15-2.48C308.11,18.1,309.22,18.92,309.22,20.08z"/>
				</g>
				<g>
					<path d="M331.08,54.1c0,1.16-0.99,2.12-2.15,2.24c-2.98,0.29-5.95,0.62-8.93,0.99c-2.49,0.31-3.54-0.6-3.54-3.03
						c0-11.21,0-22.43,0-33.64c0-2.43,1.04-3.62,3.54-3.93c2.98-0.36,5.95-0.69,8.93-0.99c1.16-0.11,2.15,0.66,2.15,1.82
						c0,1.16-0.99,2.12-2.15,2.23c-2.69,0.26-5.37,0.56-8.06,0.88c0,4.06,0,8.12,0,12.18c2.4-0.29,4.79-0.55,7.19-0.79
						c1.16-0.12,2.15,0.66,2.15,1.82c0,1.16-0.99,2.12-2.15,2.24c-2.4,0.24-4.79,0.51-7.19,0.79c0,5.41,0,10.83,0,16.24
						c2.69-0.32,5.37-0.62,8.06-0.88C330.1,52.16,331.08,52.94,331.08,54.1z"/>
				</g>
				<g>
					<path d="M344.48,45.75c0-2.55,0.58-4.55,0.99-5.5c0.58-1.36,1.8-1.94,3.07-1.59c1.16,0.3,1.51,1.68,1.04,2.92
						c-0.46,1.35-0.7,2.4-0.7,3.74c0,3.54,1.74,5.84,4.7,5.77c2.84-0.07,4.7-2.1,4.7-7.96c0-4.63-1.22-7.08-5.05-9.49
						c-0.73-0.47-1.47-0.93-2.2-1.39c-3.77-2.31-5.57-4.81-5.57-9.46c0-5.33,3.42-8.95,8.35-9.06c5.16-0.11,8.18,2.84,8.18,8.69
						c0,0.15,0,0.31,0,0.46c0,1.33-0.93,2.14-2.15,2.14c-1.16,0-2.15-0.8-2.15-2.25c0-0.12,0-0.23,0-0.35
						c0-3.59-1.57-4.69-3.77-4.64c-2.44,0.05-4.06,2.03-4.06,4.82c0,2.73,0.99,4.19,3.25,5.59c0.73,0.46,1.47,0.93,2.2,1.4
						c5.45,3.4,7.42,6.59,7.42,13.25c0,9.11-3.89,12.24-9.28,12.37C348.13,55.34,344.48,51.91,344.48,45.75z"/>
				</g>
				<g>
					<path d="M369.42,52.78c0-12.18,0-24.36,0-36.54c0-1.22,0.99-2.17,2.2-2.12c1.22,0.05,2.2,1.09,2.2,2.31
						c0,12.18,0,24.36,0,36.54c0,1.22-0.99,2.15-2.2,2.1C370.4,55.02,369.42,54,369.42,52.78z"/>
				</g>
				<g>
					<path d="M386.35,53.92c0-11.48,0-22.97,0-34.45c-1.66-0.17-3.33-0.32-4.99-0.46c-1.16-0.09-2.15-1.03-2.15-2.19
						c0-1.16,0.99-1.96,2.15-1.87c4.79,0.39,9.59,0.92,14.38,1.61c1.16,0.17,2.15,1.19,2.15,2.35c0,1.16-0.99,1.88-2.15,1.71
						c-1.66-0.24-3.33-0.46-4.99-0.66c0,11.48,0,22.97,0,34.45c0,1.22-0.99,2.08-2.2,1.95C387.34,56.23,386.35,55.14,386.35,53.92z"
						/>
				</g>
				<g>
					<path d="M417.62,59.39c0,1.16-0.99,1.78-2.15,1.51c-2.98-0.71-5.95-1.35-8.93-1.93c-2.49-0.48-3.54-1.7-3.54-4.14
						c0-11.21,0-22.43,0-33.64c0-2.43,1.04-3.3,3.54-2.82c2.98,0.58,5.95,1.22,8.93,1.93c1.16,0.28,2.15,1.39,2.15,2.55
						c0,1.16-0.99,1.78-2.15,1.51c-2.69-0.64-5.37-1.22-8.06-1.76c0,4.06,0,8.12,0,12.18c2.4,0.47,4.79,0.99,7.19,1.55
						c1.16,0.27,2.15,1.38,2.15,2.54c0,1.16-0.99,1.79-2.15,1.52c-2.4-0.56-4.79-1.08-7.19-1.55c0,5.41,0,10.83,0,16.24
						c2.69,0.53,5.37,1.12,8.06,1.76C416.63,57.12,417.62,58.24,417.62,59.39z"/>
				</g>
			</g>
		</g>
		<g>
			<g>
				<path d="M425.12,63.25c0-1.62,1.28-2.9,2.9-2.9s2.9,1.28,2.9,2.9s-1.28,2.9-2.9,2.9S425.12,64.88,425.12,63.25z M425.82,54.15
					V26.89c0-1.16,0.99-2.2,2.2-2.2c1.22,0,2.2,1.04,2.2,2.2v27.26c0,1.16-0.99,2.2-2.2,2.2C426.8,56.35,425.82,55.31,425.82,54.15z
					"/>
			</g>
		</g>
	</g>
</g>
</svg>
