<svg xmlns="http://www.w3.org/2000/svg" viewBox="0 0 606.8 697.5" xmlns:v="https://vecta.io/nano"><path d="M15.8 343.32q0-68.46 0-136.91c0-8 1.13-15.62 6.33-21.67a45.7 45.7 0 0 1 10.71-9.18q119.4-72.69 238.94-145.11l9-5.46c15.18-9.8 30.37-9.59 45.62-.22q27.78 17.06 55.59 34.06 95.45 58.05 191 116c9.12 5.53 15.81 12.89 17.68 24.06a75.49 75.49 0 0 1 .81 12.31q-.09 131.28-.28 262.56c0 7.62.4 15.32-.51 22.83-1.6 13.12-9.31 22.07-20 28.5l-38.14 23Q432.23 609 332 670.07c-8.44 5.14-17.26 9.16-27.16 9.54-10.73.41-20.28-3.65-29.38-9.21Q187.58 616.66 99.63 563l-58.42-34.9c-11-6.58-20.15-15.11-23.48-28.39a84.82 84.82 0 0 1-2.31-20.24l.47-94.88v-41.25z" fill="#3d4e55"/><path d="M15.84,373.78S58.91,353.11,66.23,346s17.87-18.83,21.53-23.49a62.57,62.57,0,0,1,15.11-14.27c7.49-5.12,11.87-10,14.93-12.8s12.26-9,15.55-11.18,6.93-5.31,8.27-7.94a26.25,26.25,0,0,1,8.76-9.6c4.14-2.5,6.1-5.21,9.33-7.53s4.93-4.86,6.7-5.17,2-.6,5,3.22,15.45,10.79,16.61,11.51,7.5,4.39,9.07,5.19a24.35,24.35,0,0,1,3.93,3s5-8.49,7.09-10.59,7.28-5.89,8.9-7.15,9.29-2.56,11.23-4.54S240,244,242.46,241s5.79-8.16,12.55-10.87,18-9.85,20.77-12.58,10.06-6.17,11.69-8.66,3.23-3.46,4-4.55a34.39,34.39,0,0,1,4-4.46c1-.84,1.69-2.67,6.09.87S318.63,215,320.16,217s12.88,9.93,17.19,12.78,21,18.45,26.34,25.37S390.3,279.65,397,284s6.17,4.27,6.17,4.27,9.65-5.82,14.56-9.17,9.14-7.08,14.38-9.95,7.82-7,10.21-8.6,2.89-3.39,5.27-3,2.88.8,8.94,9.51,12.26,9.1,18.62,14.69,23.72,15,31.34,17.67,14.16,5.53,18.77,10.92a40,40,0,0,0,8.88,8c2,1.59,22,13.16,31.48,17.36s24.08,13.11,24.08,13.11a441.65,441.65,0,0,1,0,174.65L303.83,697.5l-288-179.67Z" fill="#f59869"/><path d="M223.82 539.72c.23.7.23.83-.31 1.27a2.26 2.26 0 0 0-.77 1.33l-.31 1.29a1.73 1.73 0 0 0 1.21 2.18l3.68 1.06c1.7.42 2.19 1.74 1.55 3.52a11.45 11.45 0 0 0-.33 1.28 11 11 0 0 1-1 2.37 4.5 4.5 0 0 1-2.74-.09l-3.21-.95a1.93 1.93 0 0 0-2.14 1.22c-.22.58-.38 1.19-.55 1.78l-1 3.58-1.37 4.79-1 3.24a1.93 1.93 0 0 1-2.46 1.46l-3-.91a2.12 2.12 0 0 1-1.19-2.8q1.21-4.32 2.44-8.64l1.37-4.69 1.73-6.25 1-3.41 1.25-4.62.55-1.78 1.71-6a6.48 6.48 0 0 1 .74-1.4.79.79 0 0 1 .42-.26 3 3 0 0 1 2 0c1 .38 2.09.63 3.14.92l4.38 1.24 5.22 1.49a2.08 2.08 0 0 1 1.49 2.53l-1 3.49c-.24.7-.69 1.25-1.47 1.19a11.2 11.2 0 0 1-1.42-.15l-2.56-.63-3.19-1a5.38 5.38 0 0 0-1.27-.14 1.36 1.36 0 0 0-1.06.6.64.64 0 0 0-.12.63 1.37 1.37 0 0 1-.41 1.26zm24.72-4.91l6.35 1.23a4.2 4.2 0 0 1 1 .3 1.83 1.83 0 0 1 1 1.81 4.37 4.37 0 0 1-.08.88l-.64 2.94a1.79 1.79 0 0 1-1.89 1.46 10.15 10.15 0 0 1-1.35-.16l-4.92-1a7 7 0 0 0-1.11-.14 1.73 1.73 0 0 0-1.84 1.49l-.95 4.71a2 2 0 0 0 1.48 2.46l3.68.7c1.43.3 2 1.24 1.72 2.86a15.58 15.58 0 0 1-.65 3c-.46 1.27-1.12 1.71-2.33 1.48l-3.76-.72a2.4 2.4 0 0 0-1.1 0 1.76 1.76 0 0 0-1.19 1.46l-.47 2.45-.74 3.85a2 2 0 0 0 .69 2.16 1.93 1.93 0 0 0 .65.3l4.07.8c.92.13 1.81.42 2.73.53a1.86 1.86 0 0 1 1.48 2.12 18.22 18.22 0 0 1-.74 3.74 1.82 1.82 0 0 1-2.08 1.44 7.1 7.1 0 0 1-1-.15l-5.33-1-4.67-1-2.52-.41a2.35 2.35 0 0 1-.94-.42 2 2 0 0 1-.73-2.15c.37-1.41.52-2.85.81-4.27l1.24-6.45 1.49-7.68.78-3.73c.12-.58.15-1.18.27-1.76.84-4 1.49-8 2.3-12a6.37 6.37 0 0 1 .46-1.42 1.81 1.81 0 0 1 1.95-1.11c.47.07.94.18 1.41.27l5.49 1zm8.95 35.79l.42-4.42a4.64 4.64 0 0 1 .35-1.72.48.48 0 0 0 0-.33 2.34 2.34 0 0 1 0-1.23l.85-8 .19-1.14.1-.7.51-5.48.39-3.8c0-.36.08-.71.13-1.06a13.36 13.36 0 0 0 .23-2.1 6.56 6.56 0 0 1 .23-1.58 1.94 1.94 0 0 1 2.48-1.69l1.17.38a.36.36 0 0 0 .29 0 .86.86 0 0 1 .77-.15l6.16.8a9.39 9.39 0 0 1 3.8 1.47c.53.39 1.11.7 1.6 1.14a9.42 9.42 0 0 1 2.89 6.17 12.81 12.81 0 0 1-.07 3.71 13 13 0 0 1-1.62 4.54 5 5 0 0 1-1.58 1.76 1.66 1.66 0 0 0-.79 1.63 1.44 1.44 0 0 0 .44 1.08 8.43 8.43 0 0 1 2.47 4.7 6.2 6.2 0 0 1 .11 1.14 12.7 12.7 0 0 1 0 1.95c-.1 1.05-.27 2.11-.47 3.15a11.61 11.61 0 0 1-1.42 3.58 9.59 9.59 0 0 1-3.62 3.74 9.23 9.23 0 0 1-4.22 1.31l-2.55.1c-1.05 0-2.11-.21-3.16-.33l-3.17-.34a23.69 23.69 0 0 1-2.36-.39 1.44 1.44 0 0 1-1.04-1.19 5.66 5.66 0 0 1-.11-1.48l.55-5.22zm7.61-4.12h-.05l-.32 3.08c-.17 1.74.77 2.42 1.68 2.43a6.8 6.8 0 0 0 2.53-.31A3.74 3.74 0 0 0 271 570a5.14 5.14 0 0 0 .61-2.45 6.17 6.17 0 0 0-1-3.81 5.22 5.22 0 0 0-3.2-2.09 1.81 1.81 0 0 0-2 1.65l-.31 3.18zm1.58-15.6h.06c0 .41-.11.82-.13 1.23a1.64 1.64 0 0 0 1.62 1.92 5 5 0 0 0 .95 0c2.17-.41 3.33-1.93 3.57-4.21a3.82 3.82 0 0 0-4-4.29 1.25 1.25 0 0 0-.86.4 3.32 3.32 0 0 0-.83 2.23 3.36 3.36 0 0 1 0 1c-.06.59-.24 1.15-.38 1.72zm44.5-11.32c.51-.55 1.23-.17 1.89 0a8.05 8.05 0 0 1 5.32 3.86 14.19 14.19 0 0 1 1.73 5.43 24.23 24.23 0 0 1-.1 5.32 11.55 11.55 0 0 1-.42 1.83c0 .15-.11.29-.14.43a17.27 17.27 0 0 1-2 5 51.27 51.27 0 0 1-2.75 4.77l-3.72 6a1.23 1.23 0 0 0-.17 1.4 1.25 1.25 0 0 0 1.22.73l5.52-.11a4.11 4.11 0 0 1 1.5.31 1.78 1.78 0 0 1 .95 1.17 9.08 9.08 0 0 1 0 4.21 1.79 1.79 0 0 1-1.46 1.4 3.5 3.5 0 0 1-.65.07l-7.8.23h-3.89a5 5 0 0 0-1.47.36 1 1 0 0 1-1.14-.09 1.46 1.46 0 0 0-.69-.24 2 2 0 0 1-1.73-2.07l-.09-2.8a6.31 6.31 0 0 1 1.24-3.65l3.48-5.32 4.24-7c.7-1.21 1.29-2.5 1.9-3.77a13.67 13.67 0 0 0 1.29-5.28 9.51 9.51 0 0 0-.41-3.21 2.32 2.32 0 0 0-3.87-1.14 1.92 1.92 0 0 0-.87 1.9c-.43 1-.08 2.16-.76 3.07a2 2 0 0 1-1.4.95 29 29 0 0 1-3.49 0 1.93 1.93 0 0 1-1.52-2 16.89 16.89 0 0 1 .6-5.45 9.47 9.47 0 0 1 3.13-4.5 8.4 8.4 0 0 1 5.6-2 4.27 4.27 0 0 1 .93.19zm34.28 36.28c-.36 0-.6.24-.68.64a1.06 1.06 0 0 1-.48.66c-.5.38-.93.89-1.44 1.28a9 9 0 0 1-6.75 1.91 8.59 8.59 0 0 1-5.21-2.42 8.33 8.33 0 0 1-2.12-3.12 29.16 29.16 0 0 1-1.88-8.14l-.58-5.77-.85-8.58a24.34 24.34 0 0 1 .31-7.38 9.52 9.52 0 0 1 1.4-3.29 9.11 9.11 0 0 1 2.75-2.5 9.27 9.27 0 0 1 8.68-.7 7.49 7.49 0 0 1 3.05 2.28 14 14 0 0 1 2.69 5.78 44.68 44.68 0 0 1 1 6.81l.86 8.57a64.68 64.68 0 0 1 .47 7.23 18.75 18.75 0 0 1-1 5.73 8.56 8.56 0 0 0-.22 1.01zM338 549l-.59-2a2.54 2.54 0 0 0-3-1.83 2.89 2.89 0 0 0-2.31 2.82 19 19 0 0 0 .06 2.26l.56 5.49.68 7.31.89 7.09a4.36 4.36 0 0 0 .77 1.78 2.53 2.53 0 0 0 4.17 0 5.49 5.49 0 0 0 .69-2.73 24.12 24.12 0 0 0-.27-3.69l-.47-5L338 549zm19.83-14.3c.42-.63 1.2-.37 1.87-.34a8.09 8.09 0 0 1 5.87 3 14 14 0 0 1 2.57 5.08 23.69 23.69 0 0 1 .76 5.27 10.86 10.86 0 0 1-.12 1.88c0 .15-.06.29-.06.44a17.76 17.76 0 0 1-1.19 5.26 55 55 0 0 1-1.95 5.15l-2.71 6.51a1.22 1.22 0 0 0 .05 1.41 1.25 1.25 0 0 0 1.32.53l5.43-1a4.21 4.21 0 0 1 1.54.06 1.79 1.79 0 0 1 1.12 1 9.14 9.14 0 0 1 .72 4.15 1.79 1.79 0 0 1-1.22 1.61 2.66 2.66 0 0 1-.63.17l-7.66 1.49-3.83.66a4.94 4.94 0 0 0-1.4.6c-.38.21-.71.37-1.14.09a1.54 1.54 0 0 0-.72-.13 2 2 0 0 1-2-1.76l-.54-2.75a6.25 6.25 0 0 1 .64-3.8l2.58-5.82 3-7.64c.5-1.3.88-2.67 1.27-4a13.5 13.5 0 0 0 .43-5.41 9.53 9.53 0 0 0-.92-3.11 2.32 2.32 0 0 0-4-.5 1.92 1.92 0 0 0-.54 2c-.27 1 .26 2.14-.26 3.15a2 2 0 0 1-1.24 1.17 30.64 30.64 0 0 1-3.43.56 1.91 1.91 0 0 1-1.82-1.69 17.15 17.15 0 0 1-.29-5.48 9.5 9.5 0 0 1 2.37-4.94 8.37 8.37 0 0 1 5.2-2.92 3.29 3.29 0 0 1 .93.05zm22.36-5.3c.36-.66 1.16-.48 1.83-.51a8.1 8.1 0 0 1 6.12 2.4 14.26 14.26 0 0 1 3 4.82 24.73 24.73 0 0 1 1.24 5.18 11.74 11.74 0 0 1 .06 1.88v.45a17.4 17.4 0 0 1-.69 5.35 53.2 53.2 0 0 1-1.46 5.3l-2.1 6.74a1.24 1.24 0 0 0 .19 1.4 1.28 1.28 0 0 0 1.36.4l5.32-1.5a4.13 4.13 0 0 1 1.53-.08 1.76 1.76 0 0 1 1.21.9 9 9 0 0 1 1.1 4.06 1.77 1.77 0 0 1-1.06 1.72 2.64 2.64 0 0 1-.61.23l-7.49 2.19-3.76 1a5.55 5.55 0 0 0-1.33.72 1 1 0 0 1-1.13.19 1.57 1.57 0 0 0-.72 0 2 2 0 0 1-2.19-1.57l-.8-2.69a6.35 6.35 0 0 1 .28-3.84l2-6q1.23-3.92 2.32-7.89c.38-1.35.63-2.74.89-4.13a13.25 13.25 0 0 0-.08-5.43 9.31 9.31 0 0 0-1.2-3 2.33 2.33 0 0 0-4-.13 1.93 1.93 0 0 0-.35 2.06c-.18 1 .46 2.11 0 3.16a2 2 0 0 1-1.12 1.28 29.82 29.82 0 0 1-3.37.89 1.92 1.92 0 0 1-2-1.52 16.82 16.82 0 0 1-.8-5.43 9.45 9.45 0 0 1 1.9-5.14 8.38 8.38 0 0 1 4.9-3.39 3.66 3.66 0 0 1 1.01-.07z" fill="#3d4e55"/><path d="M235.86 135.26l4.87-1.19a3 3 0 0 1 .79-.12 1.42 1.42 0 0 1 1.3.94 3.15 3.15 0 0 1 .23.65l.5 2.28a1.39 1.39 0 0 1-.85 1.64 8.94 8.94 0 0 1-1 .32l-3.8.88a6 6 0 0 0-.82.25 1.35 1.35 0 0 0-.81 1.65l.85 3.62a1.52 1.52 0 0 0 1.84 1.25l2.82-.7c1.1-.25 1.78.24 2.13 1.46a11.67 11.67 0 0 1 .53 2.34c.09 1-.24 1.56-1.16 1.79l-2.88.72a1.75 1.75 0 0 0-.76.37 1.35 1.35 0 0 0-.36 1.41l.46 1.88.72 2.94a1.54 1.54 0 0 0 1.18 1.3 1.51 1.51 0 0 0 .56 0l3.12-.75c.69-.21 1.41-.3 2.1-.51a1.44 1.44 0 0 1 1.73 1 15.15 15.15 0 0 1 .68 2.87 1.4 1.4 0 0 1-1 1.69 4 4 0 0 1-.77.23l-4.07 1-3.61.82-1.91.52a1.76 1.76 0 0 1-.79 0 1.53 1.53 0 0 1-1.22-1.27c-.19-1.11-.55-2.17-.81-3.27l-1.22-4.94-1.44-5.88-.65-2.87-.38-1.33-2.26-9.15a5.56 5.56 0 0 1-.14-1.15 1.4 1.4 0 0 1 1-1.4c.35-.11.72-.19 1.08-.28l4.2-1zm32.41 20.92l.38.21a1.6 1.6 0 0 0-.68 1.34 1.93 1.93 0 0 1-.4 1.11 1.87 1.87 0 0 0-.26.53 4.35 4.35 0 0 1-1.29 1.77l-1 .87a1.58 1.58 0 0 1-.42.27l-2.41 1a2.08 2.08 0 0 1-1.15.19 1.08 1.08 0 0 0-.31 0 6.9 6.9 0 0 1-4-.43 7.42 7.42 0 0 1-3-2.19 12.69 12.69 0 0 1-2.33-4.1 2.12 2.12 0 0 1-.14-1 1.52 1.52 0 0 1 .85-1.22l1.66-.86.5-.25a1.41 1.41 0 0 1 2.13.91 8.12 8.12 0 0 0 1 1.79 3.53 3.53 0 0 0 2 1.43 3.23 3.23 0 0 1 .68.32c.39.23.51.19.79-.23a1 1 0 0 1 .38-.31 2.76 2.76 0 0 0 1.24-3 4.88 4.88 0 0 0-1.9-2.77c-.73-.58-1.51-1.09-2.29-1.6l-3.77-2.39a13.67 13.67 0 0 1-3-2.59 10.23 10.23 0 0 1-2.2-5.36 9.5 9.5 0 0 1 .75-4.76 3.2 3.2 0 0 1 .62-1c.32-.36.51-.88 1-1 .12 0 .17-.24.27-.35a4.8 4.8 0 0 1 1.46-1 5.87 5.87 0 0 1 1.45-.53 10.64 10.64 0 0 1 2.3-.33 6.84 6.84 0 0 1 3.71 1.06 9.19 9.19 0 0 1 2.34 2.11 11.32 11.32 0 0 1 1.68 2.85 1.54 1.54 0 0 1-.68 2.15c-.69.43-1.45.69-2.14 1.12a1.4 1.4 0 0 1-2-.61 12.13 12.13 0 0 0-1-1.53 2.55 2.55 0 0 0-1.93-1.15 1.15 1.15 0 0 0-.49.07c-.41.17-.72.55-1.17.67a.47.47 0 0 0-.22.31 11.27 11.27 0 0 0-.28 1.18.56.56 0 0 0 .2.55.71.71 0 0 1 .32.64 1.73 1.73 0 0 0 .61 1.37 9.38 9.38 0 0 0 2.16 1.68l3.73 2.32a18.05 18.05 0 0 1 2.87 2.15 10.08 10.08 0 0 1 2.89 4.65 13.05 13.05 0 0 1 .43 2 17.81 17.81 0 0 1 .06 1.94zm12.14-13.37l.57 6.31.83 9.32a3.85 3.85 0 0 1 0 1c-.12.59-.41 1.06-1 1.14l-2.33.27a4.25 4.25 0 0 1-.8 0 1.26 1.26 0 0 1-1.17-1 5 5 0 0 1-.21-1l-.15-2.13-.27-2.86-.3-3.62-.18-1.85-.44-4.72-.54-5.76-.13-1.51a1.52 1.52 0 0 0-1.68-1.57l-2.28.22a1.58 1.58 0 0 1-1.62-1.39l-.22-2.74a1.27 1.27 0 0 1 .79-1.38 3.33 3.33 0 0 1 .95-.28l4.68-.44 6.16-.55 1.9-.15c1-.06 1.57.51 1.67 1.59 0 .53.15 1.05.17 1.57a10 10 0 0 1-.09 1.64 1 1 0 0 1-.58.74 2.57 2.57 0 0 1-.65.2l-1.54.13a7.06 7.06 0 0 0-.91.11c-1 .21-1.31.71-1.22 1.83l.25 3 .36 4zM293 156.55l.08 1.82a1.4 1.4 0 0 1-1.36 1.52l-2.39.09a1.49 1.49 0 0 1-1.47-1.58l-.15-2.65a2.68 2.68 0 0 1 0-.49c.19-1 .29-1.45 1.44-1.58a21.13 21.13 0 0 1 2.39-.11 1.41 1.41 0 0 1 1.38 1.37c.07.53.06 1.07.08 1.61zm25.08-28.94c.42-.4 1-.07 1.46.07a6.28 6.28 0 0 1 3.91 3.27 11.05 11.05 0 0 1 1.05 4.28 18.23 18.23 0 0 1-.36 4.11 7.66 7.66 0 0 1-.42 1.39c0 .11-.09.21-.12.32a13.4 13.4 0 0 1-1.83 3.76 40.42 40.42 0 0 1-2.37 3.54l-3.19 4.43a1 1 0 0 0-.2 1.08 1 1 0 0 0 .9.63l4.27.2a3.13 3.13 0 0 1 1.15.31 1.37 1.37 0 0 1 .66 1 6.91 6.91 0 0 1-.18 3.26 1.41 1.41 0 0 1-1.2 1 2.9 2.9 0 0 1-.51 0l-6-.23c-1 0-2-.15-3-.17a3.86 3.86 0 0 0-1.15.2.78.78 0 0 1-.88-.13 1.11 1.11 0 0 0-.52-.22 1.54 1.54 0 0 1-1.22-1.69l.07-2.17a5 5 0 0 1 1.15-2.75l3-3.93 3.64-5.23c.6-.9 1.13-1.86 1.67-2.81a10.53 10.53 0 0 0 1.27-4 7.28 7.28 0 0 0-.15-2.5 1.8 1.8 0 0 0-2.93-1.09 1.51 1.51 0 0 0-.77 1.43c-.38.72-.18 1.66-.75 2.33a1.51 1.51 0 0 1-1.13.66 24.46 24.46 0 0 1-2.7-.17 1.51 1.51 0 0 1-1.07-1.6 13.09 13.09 0 0 1 .75-4.18 7.37 7.37 0 0 1 2.65-3.31 6.54 6.54 0 0 1 4.44-1.29 3.07 3.07 0 0 1 .61.2zm22.71 32.1c-.26-.08-.49.09-.62.38a.82.82 0 0 1-.47.41c-.45.21-.86.52-1.3.73a6.94 6.94 0 0 1-5.43.32 6.71 6.71 0 0 1-3.53-2.7 6.39 6.39 0 0 1-1.08-2.72 22.18 22.18 0 0 1-.06-6.46l.52-4.46.79-6.63a19.08 19.08 0 0 1 1.47-5.53 7.24 7.24 0 0 1 1.61-2.25 6.77 6.77 0 0 1 2.49-1.43 7.16 7.16 0 0 1 6.69.92 5.81 5.81 0 0 1 1.92 2.23 11 11 0 0 1 1.07 4.82 35.07 35.07 0 0 1-.41 5.31l-.78 6.62a49.58 49.58 0 0 1-.85 5.55 14.8 14.8 0 0 1-1.72 4.18 5.93 5.93 0 0 0-.31.71zm-1.12-21.54c0-.35 0-1-.12-1.59a2 2 0 0 0-2-1.89 2.23 2.23 0 0 0-2.21 1.75 14.33 14.33 0 0 0-.33 1.71l-.49 4.25-.71 5.64-.52 5.51a3.42 3.42 0 0 0 .29 1.47 2 2 0 0 0 3.16.66 4.15 4.15 0 0 0 1-2 19.11 19.11 0 0 0 .41-2.83l.49-3.88 1.03-8.8zM350.84 156l1.1-5.36.47-3 1-5.39a1.66 1.66 0 0 0-1.48-2.13 2.24 2.24 0 0 1-1.13-.35 1.37 1.37 0 0 1-.64-1.05 3.9 3.9 0 0 1 .48-2.29 2.38 2.38 0 0 1 1.27-1 17.25 17.25 0 0 0 2.36-1.07l2.52-1.54a2.72 2.72 0 0 1 2.68 0 1.33 1.33 0 0 1 .71 1.41 11 11 0 0 1-.16 1.39l-.68 3.57-1 5.73-1.1 6-.23 1.46q-.7 3.93-1.42 7.87l-.5 2.54a1.65 1.65 0 0 1-1.93 1.51 20.33 20.33 0 0 1-2-.38c-.92-.22-1.26-.75-1.19-1.79 0-.53.13-1.06.22-1.59q.18-1.14.39-2.28l.41-2.28zm12.63.11l1 .26a1.59 1.59 0 0 1 1.22 1.86c0 .41-.06.83-.12 1.25-.25 1.8 1.15 3 2.71 2.37a1.86 1.86 0 0 0 .58-.44 5.18 5.18 0 0 0 1.13-2.12 11.85 11.85 0 0 0 .61-2.87 2.69 2.69 0 0 0-1.31-2.6 4.46 4.46 0 0 1-.74-.48c-.78-.72-.63-1.66-.37-2.62a7.15 7.15 0 0 0 .28-1.08 2.11 2.11 0 0 1 1.74-1.75 5.43 5.43 0 0 1 .57 0 2.23 2.23 0 0 0 2.09-1.49 8.58 8.58 0 0 0 .79-3.46 1.88 1.88 0 0 0-1.07-1.75 1.47 1.47 0 0 0-1.88.61 9 9 0 0 0-.78 1.22 1.67 1.67 0 0 1-1.88 1l-2.37-.63a1.61 1.61 0 0 1-.83-1.61 2.67 2.67 0 0 1 .15-.68 10.2 10.2 0 0 1 2.08-3.57 5.66 5.66 0 0 1 2.32-1.62 3.07 3.07 0 0 1 1.53-.33.57.57 0 0 0 .31-.06 1.84 1.84 0 0 1 1.75 0 .41.41 0 0 0 .24.06c2.17-.24 4.71 2 5.36 4a11.06 11.06 0 0 1 .39 4.17 16.13 16.13 0 0 1-1.09 4.48 6.34 6.34 0 0 1-1.86 2.7 1.89 1.89 0 0 0-.5 2.19 6.87 6.87 0 0 1 .5 4.18 19.44 19.44 0 0 1-1.21 4.59 14.33 14.33 0 0 1-2.06 3.59 1.31 1.31 0 0 1-.23.24 8.22 8.22 0 0 1-2.34 1.59 7.42 7.42 0 0 1-8.14-1.73 7 7 0 0 1-1.85-3.8 10.44 10.44 0 0 1 .32-4.83 1.41 1.41 0 0 1 1.57-1.13 6 6 0 0 1 .74.13l.68.17zm243.09 194.17l.22 144.65c.25 18.26-6.06 29.84-21.49 39.05Q458.15 609.92 332 687.71c-20.15 12.5-36.28 13.06-56.84.21Q152.34 611.15 27.68 537.63C8 526-.32 512.45 0 488.16L.23 207c-.15-20.58 6.57-33.11 24-43.44L272.91 13.12c3.19-1.94 6.56-3.58 9.58-5.76 14.46-10.45 28-9.21 43.1.17L505.16 116.8l83.17 50.43c12.86 7.61 18.65 17.94 18.46 33.78l-.23 149.27zM17.8 347.71h-.15c0 44 1 88-.4 131.85-.74 23 7.28 37 26.27 48.26q116.7 69.3 232.1 141c20.11 12.56 36.22 12.11 56-.15l236.86-143.93c14.31-8.59 21.14-19.72 21-37.21V303.61l.06-94.85c.13-14.16-5.29-24.43-16.88-31.41-4.79-2.88-9.47-6-14.24-8.86L327.31 27.93c-16.13-9.95-29.9-10.6-46.17-.62L33.71 177.52c-10.95 6.62-16.19 15.48-16.07 29.07l.16 141.12z" fill="#f59869"/><path d="M167.12 274.87v1.73a29.83 29.83 0 0 0 .15 4c.53 2.61 2 5.09 1.61 7.82a30.12 30.12 0 0 0-.22 3.29 9 9 0 0 1-3.75 7 33.1 33.1 0 0 1-3.64 2.53 80.63 80.63 0 0 0-11.89 8.56 37 37 0 0 1-5.27 3.7 36.25 36.25 0 0 0-8.38 6.74 50.28 50.28 0 0 1-5.74 5.43 92.19 92.19 0 0 0-10.99 9.65 14.1 14.1 0 0 1-1.43 1.19l-4.07 3.44-4.66 4.13c-3.27 2.52-6.66 5-10.05 7.4-1.46 1-1.11 2.17-.64 3.5a8.14 8.14 0 0 0 1.1-.46c2.15-1.32 4.39-2.56 6.39-4a90.1 90.1 0 0 1 13.16-8.09c1.92-.95 3.64-2.13 5.44-3.22a37.47 37.47 0 0 0 8.27-6.84 9.11 9.11 0 0 1 4.16-2.24c2.29-.72 4.55-1.52 6.71-2.44 1.86-.79 3.52-1.85 5.34-2.69a7 7 0 0 1 2.34-.57c2.77-.52 7.71-2.88 13.7-8 4.56-3.9 9.1-9.46 12-12.48 1.52-1.59 2.91-3.23 4.48-4.78a17 17 0 0 1 2.89-2.21 5.33 5.33 0 0 1 3.8-.6c3.62.29 4.95-1.09 5.25-1.45 2.56-3-.94-9.34-3-11.76-3-3.5-3.75-1.95-10.08-5.79-3.71-2.25-7.26-4.63-9.66-7.81a1.9 1.9 0 0 0-1-.73 2.14 2.14 0 0 0-1.9.57c-.7.61-.54 1.44-.42 5.48zm127.73-42.8c.71 2 1.17 1.68 7.5 9.88 1.83 2.38 3.21 4.13 3.11 6.08a5.73 5.73 0 0 0 1.79 4.62c2.17 2.12 4.26 4.32 6.68 6.28a7.52 7.52 0 0 1 3.14 5.59 22.36 22.36 0 0 0 .95 5.3c1.52 4.85 5 8.81 10 12.08 1.54 1 3 2.09 3.3 3.69.35 2.21.57 4.41-.36 6.45a7.72 7.72 0 0 1-2.17 2.76c-4.49 3.92-4.46 14.36-10 24.26-3.33 5.92-8.95 12.17-10.85 19.24-.07.29-.08.94-.29 1.76-.65 2.42 2.1 10.06 7.8 12.55 2.82 1.24 5.56-.07 13.42-1.85 8.74-2 15.33-7.6 22.73-11.62 3-3.17 5.81-6.45 9.42-9.28 2.43-1.91 4.54-4.06 7-5.95a39.8 39.8 0 0 0 11.73-13.76 54.17 54.17 0 0 0 2.67-5.26 6.87 6.87 0 0 1 1.34-2.43c1.39-1.69 2.65-1.6 3.57-2.64 1.87-2.1.15-6.42.06-6.65-2-4.82-8-6.55-10.91-7.65-2.22-.82-11.4-5.65-22.87-21.17-6.59-8.91-15.52-16.5-25.92-23.09a35.84 35.84 0 0 1-5-3.3c-4.68-4.27-9.06-8.72-13.77-13-2.28-2.05-5-3.81-7.59-5.68a2.31 2.31 0 0 0-2-.45 2.05 2.05 0 0 0-.69.39 15.57 15.57 0 0 0-3.18 3.22c-1.3 1.99-1.95 5.85-.61 9.63zm142.84 50.74c.67 3.73 3.05 4.28 3.16 9.76.09 4.07 2.08 7.48 6.07 10.22a52.15 52.15 0 0 1 4.33 3.14c1.35 1.16 2.46 2.47 3.68 3.71 1.78 1.83 3.47 3.73 5.38 5.48s4.14 3.12 5.86 4.87c6.51 6.61 15.11 10.72 25.85 12.46 2.26.36 4.45.95 6.65 1.48a14 14 0 0 1 6.42 3.42 92.44 92.44 0 0 0 9.66 8c3.92 2.78 5.84 4.21 8.23 4.22 7.58 0 12.76-12.34 12.38-16.7a9.42 9.42 0 0 0-1.09-3.61 8.07 8.07 0 0 0-2.33-2.49 71.47 71.47 0 0 1-7.09-6.43c-3.21-3.05-6.33-6.14-11-8.08s-9.54-3.89-14.12-6.05c-7.24-3.42-14.85-6.44-20.79-11.26-4.84-3.91-9.84-7.74-15.15-11.29a43.89 43.89 0 0 1-13.65-14.53 4.31 4.31 0 0 0-3.56-2.28 4.71 4.71 0 0 0-1.83.18 5.23 5.23 0 0 0-2.41 1.63 17.86 17.86 0 0 0-4.65 14.15z" fill="#fff"/><g fill="#384750"><path d="M100.88 486.19a17.64 17.64 0 0 1-1.95 1.57 4.59 4.59 0 0 1-1.85.61l-7.29.59a7.67 7.67 0 0 1-1.73-.06c-1.92-.31-3.33-1.55-3.83-4.47a53.13 53.13 0 0 1-1-7.65 4.89 4.89 0 0 0-.26-1l-.39-1.74-1.08-8.39-1.47-9.48-1-6.57q-1.23-8.44-2.42-17l-1.24-9.22-2.7-18.76-1.39-9.54-1.26-9.36a6.44 6.44 0 0 1 1.32-5.15 1.37 1.37 0 0 1 1-.58 75.09 75.09 0 0 1 7.63.37c2 .24 3.41 2 4.09 5a17.71 17.71 0 0 1 .31 1.82q1.13 8 2.23 16l1.16 8.9.47 3.42 1.18 9.29 1.73 11.24a7 7 0 0 0 .56 1.88c.48 1 1.3 1.05 1.9.15a7 7 0 0 0 .94-3.34c.28-3.78.8-7.48 1.33-11.18.49-3.42 1.09-6.82 1.3-10.27.29-4.7 1.2-9.2 1.59-13.84.31-3.81.89-7.56 1.38-11.31.53-4 2.18-5.91 5-5.79 1.92.09 3.85.42 5.77.39 2.2 0 4 3.13 3.56 6.42l-2.16 15.82c.24 2.59-.76 4.8-1 7.26-.33 3.23-.78 6.44-1.29 9.63-1.34 8.4-2.27 17-3.47 25.49l-2.43 17.26-1.73 13.61c-.36 2.68-.81 5.34-1.21 8z"/><path d="M142.83 429.87v19.74q0 14.58 0 29.16a12.88 12.88 0 0 1-.3 3c-.44 1.84-1.33 3.24-2.91 3.43l-6.21.57a11.58 11.58 0 0 1-2.11-.19c-1.5-.2-2.48-1.28-2.84-3.24a19 19 0 0 1-.32-3.21l.11-6.78-.06-9.12.06-11.52v-5.88l-.06-15.05q0-9.18-.08-18.36v-4.8c.2-3-1.62-5.64-4.05-5.61-2 0-4-.25-6-.23s-3.86-2.62-3.89-5.11q0-4.44.06-8.88c0-2.16.88-3.56 2.39-4a7.32 7.32 0 0 1 2.52-.45l12.34.79 16.4 1 5.12.35c2.65.24 4.08 2.22 4.07 5.55l.09 4.84a33.85 33.85 0 0 1-.61 4.94 2.67 2.67 0 0 1-1.74 2 5.6 5.6 0 0 1-1.78.37c-1.38 0-2.76-.11-4.13-.16a16.85 16.85 0 0 0-2.46 0c-2.64.27-3.64 1.71-3.67 5.2v9.22q0 6.21 0 12.44zm72.63-4.76l1.13-3.27a1.69 1.69 0 0 0 .15-.78 25.48 25.48 0 0 1 .07-4.54l-.06-14.17-.08-4.59c.08-1.7-.29-3.47.46-5.08.09-.2 0-.52 0-.78 0-1.56.49-2.53 1.74-3a6.31 6.31 0 0 1 2.2-.48l6.79.24a3.84 3.84 0 0 1 2.9 1.23 4.56 4.56 0 0 1 1.19 2.39 17.48 17.48 0 0 1 .22 4.34c-.13 1.43 0 2.89 0 4.34l.1 22.54c0 1.32.18 2.63.2 3.95l-.08 4.13c0 .95-.53 1.94.23 2.82a.65.65 0 0 1 0 .53c-.81 1.74-.4 3.64-.44 5.44-.1 5.34 0 10.69 0 16q0 7.23 0 14.46a3.7 3.7 0 0 0 .58 2.53c-.23 1.28-.48 2.34-.6 3.42a4.78 4.78 0 0 1-3.14 4.34 3.92 3.92 0 0 1-1 .27c-2.86 0-5.72.74-8.57.12-1.12-.24-2.49-2.05-2.57-3.59-.11-1.77-.13-3.55-.15-5.32q-.08-7.49-.1-15v-10.4a5.35 5.35 0 0 0-1.13-3.65 3.94 3.94 0 0 0-3.18-1.25c-1.77-.12-3.56-.05-5.33 0a4.23 4.23 0 0 0-3.88 4.44q0 6.06 0 12.11a4.8 4.8 0 0 0 .37 1.9 2.51 2.51 0 0 1 .11 1.74 26.8 26.8 0 0 0-.49 7.37l-.07 4.83c0 .88.16 1.75.08 2.62a5.61 5.61 0 0 1-2.8 4.79 3 3 0 0 1-1.48.36c-2.22.1-4.44.18-6.65.2-2.76 0-4.38-2-4.32-5.35l.15-8c0-2.93-.16-5.85-.18-8.78l.05-10.82-.09-9.19c0-2.1.17-4.2.17-6.3 0-1.9-.13-3.81-.14-5.71 0-4.64-.15-9.29 0-13.91.16-4.23-.28-8.44-.13-12.66.11-3.26 0-6.54 0-9.81 0-2.74 2.07-5.1 4.35-5s4.44.36 6.66.35c2 0 4 2.2 4.11 4.2.05.67.15 1.35.15 2v17.38q0 4.74 0 9.48c0 2.84 1.5 4.71 3.94 4.79s4.94-.06 7.41-.11a7 7 0 0 0 1.15-.11zm22.9 42.58l1.29-.44c-1.34-1-1.29-2.25-.92-3.55.87-3.09 1-6.32 1.56-9.47l1-5.2.85-4.6 1.36-8.33 2.28-13.51 1.18-6.3.46-3.48a59.56 59.56 0 0 1 1.11-6.13c.72-2.64.77-5.4 1.37-8.05.39-1.7.54-3.47.87-5.18s2.3-4.31 4.3-4.27l3.52.07c1.82.16 3.67.09 5.51.12h3c2.76.16 4.45 1.68 5 4.62l1.62 9 3.06 16.21 2.09 11.64 2.14 11.21 1.2 6.67 3.45 18.83 1.43 7.4a6.8 6.8 0 0 1-.73 4.29c-.11.26-.42.43-.64.62l-1.19 1a14.3 14.3 0 0 0-4.79-.32 31.85 31.85 0 0 1-5-.23 4.24 4.24 0 0 1-3.63-3.72l-1.39-7.63-.65-3.42a4.71 4.71 0 0 0-4.38-3.84l-6.74.08c-2.09.07-3.85 1.57-4.25 4.2l-1.48 8.87-.06.39c-.63 3.85-2.38 5.48-5.95 5.72a50 50 0 0 1-6.48-.05c-2.06-.14-3.31-1.95-3.19-4.3a45 45 0 0 1 1.82-8.92zm23-22.42a3.68 3.68 0 0 0 3.54-4.64l-1.56-9.77a6.15 6.15 0 0 0-1-2.88 1.29 1.29 0 0 0-2.34.23 6 6 0 0 0-.51 1.65l-1.78 10.72c-.39 2.42 1.57 4.9 3.68 4.69zM337.82 415a19.34 19.34 0 0 0 .6 2.88l-1.7 3.25a2.6 2.6 0 0 0-.94.16c-1.45.9-3 .65-4.54.55a14 14 0 0 0-3 .1 5.81 5.81 0 0 1-3.95-.7 4.26 4.26 0 0 1-2.36-3.61l-.48-4.83a10.77 10.77 0 0 0-2.45-5.5c-2.95-3.43-8.4-2.84-10.66 1.81a18.08 18.08 0 0 0-1.42 7.55c-.12 4.71-.05 9.44-.07 14.16l-.07 10.48.05 7.56.06 4.83a19.27 19.27 0 0 0 1.17 6.82 6.71 6.71 0 0 0 5.68 4.5c2.61.34 5.2-1.5 6.44-4s1.38-5.08 1.68-7.7c.13-1.09.14-2.2.19-3.3a3 3 0 0 1 1.16-2.31 5.33 5.33 0 0 1 3.76-1.58c2.56.18 5.14.18 7.69.37a3.52 3.52 0 0 1 3.22 2.92 9.66 9.66 0 0 1 .27 2.89c-.17 2.59-.33 5.19-.74 7.75-.66 4.16-1.6 8.27-3.9 11.76a19.92 19.92 0 0 1-6.1 6.36c-6.35 3.89-13 4.47-20.07 2.68a19.75 19.75 0 0 1-13.23-10.84 31 31 0 0 1-2.92-10.51c-.34-3-.33-6.07-.41-9.1l-.2-6.77c0-1 .14-1.93.15-2.9 0-1.15-.08-2.31-.08-3.46s.06-2.45.08-3.67c0-.71.05-1.42 0-2.13 0-1.74-.06-3.49-.09-5.23v-1.33-3.87a20.17 20.17 0 0 0 .09-2.32 38.16 38.16 0 0 1 .67-10 20 20 0 0 1 2.08-7c.37-.64.37-1.7.86-2.07 1.45-1.09 1.84-3 3.05-4.23 1.56-1.65 3.06-3.3 5.18-4.14 1.48-.59 2.92-1.33 4.43-1.81a25.27 25.27 0 0 1 9.7-.88 20.49 20.49 0 0 1 3.59.45 20.75 20.75 0 0 1 15.16 13.68 39.71 39.71 0 0 1 2.37 12.3zm21.92 49.75v7.65l-.06 4.3c-.23 2.79-1.48 4-4 4.18a80.37 80.37 0 0 1-8.06-.17 4 4 0 0 1-3.24-3 10.26 10.26 0 0 1-.32-4 29.55 29.55 0 0 0-.05-3.63l-.12-13.06.09-3.3v-8.58l.14-6.24v-13.67l.11-9.15-.13-5.64.08-2.33.16-13.1a14.17 14.17 0 0 1 .11-1.95 3.74 3.74 0 0 1 2.79-3.43 5.84 5.84 0 0 1 .69-.18 32.07 32.07 0 0 1 9 0c1.9.33 3 1.74 3.05 3.91v8.63 6.48 2.94c0 .94.26 2 1.32 2.28s1.63-.56 2.09-1.45l3.12-6.23 3.49-7.35q1.5-3.15 3-6.3a6.4 6.4 0 0 1 3.09-3.17 8.5 8.5 0 0 1 2.9-.61l6.62-.19a9.22 9.22 0 0 1 1.39 0c1.73.17 3.26 2.57 2.28 4.75l-1.46 3-3.73 7.51a11.53 11.53 0 0 1-.49.84c-1.63 2.7-2.95 5.59-4.32 8.44l-3.9 7.52a4.59 4.59 0 0 0-.48 1.68 11.84 11.84 0 0 0 .5 5c1.64 4.78 3.14 9.64 4.71 14.48l2.8 8.34 3 9.56 1.61 4.86q1.8 5.64 3.58 11.31a11.86 11.86 0 0 1 .45 1.94c.28 1.94-.41 3.24-2 3.81a2.5 2.5 0 0 1-.84.23 6.85 6.85 0 0 0-2.69.58 1.78 1.78 0 0 1-1.5 0 4.1 4.1 0 0 0-2.17-.35 9.33 9.33 0 0 1-5.34-1.53 5 5 0 0 1-1.84-2.62q-1.62-5.36-3.28-10.7l-3.35-10.62-2-6.34c-.31-1-.6-2-1-2.95-.75-1.86-3.12-2.15-4-.38a14.14 14.14 0 0 0-1.78 5c-.32 3.67-.12 7.32-.19 11v1.95zm78.72 2.11l.91.84c-1.47.65-2 2-2.41 3.58a5.9 5.9 0 0 1-1.59 3.06 5.66 5.66 0 0 0-.94 1.42 11.66 11.66 0 0 1-4.25 4.44l-3.09 2a4.18 4.18 0 0 1-1.26.53l-7 1.43a5.59 5.59 0 0 1-3.21-.13 2.19 2.19 0 0 0-.84-.15c-3.81.06-7.34-1.42-10.66-3.55a22.67 22.67 0 0 1-7.31-8 39.09 39.09 0 0 1-4.53-13 6.84 6.84 0 0 1 .07-2.95 4.28 4.28 0 0 1 2.93-3c1.64-.61 3.3-1.1 4.95-1.65.5-.16 1-.29 1.49-.48 2.59-1 4.9.53 5.43 3.73a24.22 24.22 0 0 0 1.81 5.69 10.61 10.61 0 0 0 4.69 5.21 8.78 8.78 0 0 1 1.71 1.3c1 .89 1.3.85 2.26-.23a2.48 2.48 0 0 1 1.17-.68c2.88-.85 4.9-4.54 4.72-8.14a15.08 15.08 0 0 0-3.88-9.11 78 78 0 0 0-5.49-5.83c-3-3-6.19-5.77-9.18-8.78a39.61 39.61 0 0 1-6.94-8.84 30.61 30.61 0 0 1-3.57-16.4 29.42 29.42 0 0 1 4.28-13.45 10 10 0 0 1 2.14-2.62c1.05-.91 1.82-2.36 3.29-2.57.31-.05.57-.63.9-.91a13.08 13.08 0 0 1 4.41-2.28 17.42 17.42 0 0 1 4.2-1 27.48 27.48 0 0 1 6.4-.13 16.93 16.93 0 0 1 9.55 4.49 25 25 0 0 1 5.33 7.18 34.65 34.65 0 0 1 3.23 9.19c.56 3.18-.32 4.94-2.82 6.15-2 1-4.2 1.43-6.24 2.42-1.78.86-4.16.25-5.15-2.67a42.05 42.05 0 0 0-2-4.94c-1.07-2.14-2.55-3.76-4.72-4.17a3 3 0 0 0-1.34 0c-1.2.34-2.22 1.34-3.5 1.5-.27 0-.6.46-.75.8a35.51 35.51 0 0 0-1.3 3.34 1.67 1.67 0 0 0 .29 1.69 2.13 2.13 0 0 1 .58 2 5.43 5.43 0 0 0 1 4.28 28.17 28.17 0 0 0 5.12 5.87l9.06 8.52a51.59 51.59 0 0 1 6.74 7.77 31.93 31.93 0 0 1 5.65 15.33 48.7 48.7 0 0 1 .29 6c-.01 1.91-.37 3.81-.63 5.9zm47.83-47.65v11.67l-.07 16.53v20.64 10.8c0 1.1-.11 2.19-.17 3.28a4.88 4.88 0 0 1-1.18 3 2.29 2.29 0 0 1-2.14 1.07c-2.22-.23-4.46-.22-6.68-.33a4.75 4.75 0 0 1-1-.19c-2.18-.63-3.28-2.24-3.41-5.13l-.07-5.19.12-7.54-.06-15.36q0-15.26.09-30.52l.13-12.3-.05-8.62q0-5.82 0-11.66c0-2.48 1.12-4.3 2.93-4.93a6.16 6.16 0 0 1 1.45-.36l5.86-.45c2.5-.13 4 1.46 4.22 4.8.18 2.54.09 5.13.1 7.7q0 4.62 0 9.25v13.88zm27.86-13.37c1.12-1.5 1.48-3.5 2-5.48.82-3.26 1.82-6.46 2.71-9.72.48-1.74.86-3.53 1.34-5.27.77-2.84 2.26-4.47 4.24-4.76 2.45-.37 4.9-.5 7.34-.69a2.76 2.76 0 0 1 2.5 1.48 3.84 3.84 0 0 1 .67 2.49 12.64 12.64 0 0 1-.85 4.48 18.91 18.91 0 0 0-1 3.24l-1.65 5.69a8.52 8.52 0 0 0-.45 3.7c.08.6.09 1.22.14 2-1.3.13-1.72 1.55-2.14 3l-2.66 9.08-2.89 10.34-.8 3a15.47 15.47 0 0 0 0 8.56l4.18 13.85q1.75 5.91 3.52 11.86 2.58 8.69 5.13 17.5c.48 1.69 1 3.39 1.38 5.12.47 2-.94 4.86-2.36 4.8-2.91-.14-5.85-.29-8.78-.66-1.77-.23-3-2-3.82-4.28-.42-1.18-.72-2.45-1.07-3.68q-1.5-5.33-3-10.61l-2.32-8.15a7.19 7.19 0 0 0-1.19-2.4c-.9-1.09-2.11-.45-2.54 1.11-.31 1.09-.71 2.13-1.05 3.2l-.94 3.07.89 1.61-1.41.44-2.39 8.78 1 1.5-1.43-.09a3.52 3.52 0 0 0-.26.57c-.23.84-.48 1.66-.66 2.52-.61 3-2.08 4.36-4.21 4.38-2.56 0-5.14-.13-7.72-.21a1.28 1.28 0 0 1-.32-.06c-2.64-.59-3.9-2.85-2.85-6.34l2.43-7.82 2.43-7.67c1-2.81 1.65-5.83 2.83-8.54a30.73 30.73 0 0 0 1-3.7l2.44-8.25c.27-.89.56-1.77.85-2.64l1.35-4.08a15 15 0 0 0 .17-9.6q-2.92-9.36-5.93-18.54-3.27-10.1-6.56-20a16.87 16.87 0 0 1-.46-2.07c-.43-2 .71-4.26 2.45-4.78a9.36 9.36 0 0 1 2.08-.42c1.92-.14 3.85-.15 5.76-.34 2.5-.25 4.16 1.41 5.15 4.36 1.07 3.2 2 6.55 2.94 9.86l1.72 6c.55 2 1.49 3.31 3.07 3.26z"/></g></svg>