<svg xmlns="http://www.w3.org/2000/svg" viewBox="0 0 109.34 122.54" xmlns:v="https://vecta.io/nano"><path d="M90.58,88h13.36a3.18,3.18,0,0,0,3.17-3.06l2.23-67.11a2.81,2.81,0,0,0-2.87-2.91L4.31,16.77A4,4,0,0,0,.81,19L0,20.54l90.58,27.8Z" fill="#282828"/><path d="M.46 20.74S8.79 5.34 46.39 4.36 97.35 0 97.35 0l3.52 17.39-93.44 1.13-5.79 2.73z" fill="#9dad92"/><path d="M1.05,21.25S10.62,6.39,48.22,5.41,100.87,3,100.87,3l.66,14.85L8,19,2.22,21.75Z" fill="#bcceb3"/><g fill="#0a331c"><path d="M53.33 15.05c0 1 .1 2 .16 3h-.57l-.16-3.51-.35-.34.17 3.87h-.54l-.23-5.2 2.45 2.17.24-.27-2.7-2.39v-.78l3.13 2.76 2.94-3.17v.78q-1.79 1.93-3.59 3.85zm3.93 2.69l-.58.05c0-1-.11-2-.16-3L55 16.4l-.43-.33 3.35-3.59.29 5.19h-.58l-.21-3.87-.34.38.18 3.56zM59 14.92A2.59 2.59 0 0 1 61.5 12a2.54 2.54 0 0 1 2.82 2.54 2.64 2.64 0 0 1-2.53 2.86A2.54 2.54 0 0 1 59 14.92zm4.77-.32a2 2 0 0 0-2.25-2 2.07 2.07 0 0 0-2 2.3 2 2 0 0 0 2.22 2 2.13 2.13 0 0 0 2.04-2.3zm-3.86.25a1.73 1.73 0 0 1 1.63-1.91 1.7 1.7 0 0 1 1.84 1.69 1.77 1.77 0 0 1-1.65 1.92 1.7 1.7 0 0 1-1.81-1.7zm2.93-.2a1.17 1.17 0 0 0-1.28-1.18 1.2 1.2 0 0 0-1.12 1.34A1.18 1.18 0 0 0 61.71 16a1.23 1.23 0 0 0 1.14-1.35zm2.24-2.27v-.71l3.2 2.56-.12-2.41h.53c0 1 .11 1.92.16 2.88l.34.32c0-1.07-.1-2.14-.16-3.21h.53l.16 4.36-4.64-3.79zm.22 4.84l-.19-4.36 4.59 3.76v.72l-3.07-2.58.09 2.41h-.54l-.12-2.89-.35-.28.14 3.21zm5.55-.17l-.16-5.3h.52l.15 5.3zm.69-5.32h2.06l-.07.54h-1.46v.33h1.42v.54h-1.36v.49h1.36v.54h-1.86l-.09-2.44zm2 4.39h-1.41v.34h1.44l.09.55h-2l-.07-2.51h1.86v.54h-1.34v.55h1.34zM75 17l.73-1.67-1.69-3.63h.58l1.39 3 .18-.4L75 11.69h.57l.92 2 .86-2H78L75.65 17zm3.3-5.31h.58l-2.37 5.32H76l2.33-5.33zm4.7 1.23l-1.46.13c-.34 0-.48.09-.48.28s.18.29.42.41l1 .48a1.27 1.27 0 0 1 .72 1.29 1.62 1.62 0 0 1-1.36 1.63V18h-.5v-.81h-.31V18h-.5v-.81l-1.14.1.07-.51 1.84-.16c.86-.07 1.38-.48 1.38-1.17a1 1 0 0 0-.61-1l-1-.48a.77.77 0 0 1-.52-.73c0-.58.4-.77 1-.83l1.51-.13zm-1.45-.7c-.87.08-1.38.48-1.38 1.17a1 1 0 0 0 .6 1l1 .48a.77.77 0 0 1 .52.73c0 .58-.41.78-1 .83l-1.75.15.07-.51 1.69-.14c.33 0 .51-.1.51-.29s-.18-.29-.43-.41l-1-.48a1.26 1.26 0 0 1-.71-1.29 1.59 1.59 0 0 1 1.26-1.6V11h.49v.82h.32V11h.49v.82l1-.09-.07.51zm5.74.33l-1.47.13c-.33 0-.47.09-.47.28s.18.29.42.41l1 .48a1.29 1.29 0 0 1 .72 1.29 1.62 1.62 0 0 1-1.36 1.63v.85h-.5v-.81h-.31v.81h-.5v-.81l-1.14.1.07-.51 1.84-.16c.86-.08 1.37-.48 1.37-1.17a1 1 0 0 0-.6-1l-1-.48a.78.78 0 0 1-.53-.73c0-.58.41-.78 1-.83l1.5-.13zm-1.46-.7c-.86.07-1.38.48-1.38 1.17a1 1 0 0 0 .61 1l1 .48a.76.76 0 0 1 .52.73c0 .58-.4.77-1 .83l-1.76.15.08-.51 1.69-.15c.33 0 .5-.1.5-.28s-.18-.29-.42-.41l-1-.48a1.28 1.28 0 0 1-.71-1.29 1.61 1.61 0 0 1 1.26-1.61v-.87h.5v.82h.31v-.82h.5v.81l1-.08-.07.51zm-40.31 2.04l-1.47.11c-.33 0-.48.1-.48.29s.18.29.43.4l1 .49a1.26 1.26 0 0 1 .72 1.28 1.6 1.6 0 0 1-1.36 1.63V19h-.49v-.81h-.32V19h-.49v-.81l-1.14.1.07-.52 1.83-.16c.87-.07 1.38-.48 1.38-1.17a1 1 0 0 0-.6-1l-1-.49a.76.76 0 0 1-.52-.73c0-.57.41-.77 1-.83l1.5-.13zm-1.46-.7c-.86.08-1.38.48-1.38 1.18a1 1 0 0 0 .61 1l1 .48a.77.77 0 0 1 .52.73c0 .58-.4.78-1 .83l-1.76.16.07-.51 1.7-.15c.33 0 .5-.1.5-.29s-.18-.29-.42-.4l-1-.49a1.27 1.27 0 0 1-.71-1.29 1.59 1.59 0 0 1 1.26-1.6v-.88h.5v.82h.31v-.82h.5v.82l1-.09-.07.51zm5.71.33l-1.46.13c-.34 0-.48.09-.48.28s.18.29.42.41l1 .48a1.27 1.27 0 0 1 .75 1.29 1.61 1.61 0 0 1-1.36 1.63v.85h-.49v-.81h-.32v.81h-.5v-.81l-1.14.1.07-.51 1.84-.16c.86-.07 1.38-.48 1.38-1.17a1 1 0 0 0-.61-1l-1-.48a.77.77 0 0 1-.52-.73c0-.58.4-.77 1-.83h1.5zm-1.45-.7c-.87.08-1.38.48-1.38 1.17a1 1 0 0 0 .6 1l1.05.48a.77.77 0 0 1 .52.73c0 .58-.41.77-1 .83l-1.75.15.07-.51 1.69-.15c.34 0 .51-.09.51-.28s-.18-.29-.43-.41l-1-.48a1.27 1.27 0 0 1-.78-1.35 1.59 1.59 0 0 1 1.26-1.6v-.88h.49v.82h.32v-.82h.49v.82l1-.09-.07.51zM94.23 9.9l-3.42 2.07h4.44l-5.49 2.66h6.18l-7.27 2.8 6.24-.57M38.57 10.3v8.35l-23.58.59 4.47-4.02 19.11-4.92z"/><path d="M9.84 18.69s14.39-9.12 40.07-10.3l46.42-1.94v11.12l-6.28.58s6.28-.09 3.47-8.47c0 0-53.11-3.89-76.93 9.25"/></g><path d="M1.05 22.8a.51.51 0 0 1-.46-.28.51.51 0 0 1 .24-.67l4.26-2A14.2 14.2 0 0 1 11 18.49l93.63-1.13 1.43-1.52a.5.5 0 1 1 .73.69l-1.72 1.82h-.21L11 19.49a13.36 13.36 0 0 0-5.49 1.26l-4.26 2a.52.52 0 0 1-.2.05z" fill="#181818"/><path d="M104.33 21.75l-.21 9.55-57.23.9-31.9-9.32 86.63-1.13" fill="#515251"/><path d="M101.24,32.2V27.77a2.89,2.89,0,0,0-2.94-2.9l-63.54.19a4.09,4.09,0,0,0-4.08,4.27l.23,5Z" fill="#fff"/><path d="M101.45 32.37V28a2.91 2.91 0 0 0-2.94-3L35 25.23a4.1 4.1 0 0 0-4.08 4.28l.23 4.95z" fill="#7e1416"/><path d="M68.8 25.13L48.22 32.2l34.06-.73-13.48-6.34z" fill="#bd444e"/><path d="M68.3 30.66l-2.75 1.17h-.91l3.1-1.4.56.23zm.85.34l-1.95.83h-.9l2.31-1.05.54.22zm.88.35l-1.12.48H68l1.52-.69.51.21z" fill="#fff"/><path d="M92.79 25.06l-8.97 7.14-15.02-7.07 23.99-.07z" fill="#501113"/><path d="M39 27.71h20.24l30.24.07c3.12 0 8.12-.81 8.74 3.51 0 .3 1.5 0 1.45-.39-.57-3.94-4.46-3.71-7.43-3.72H79.72l-32.06-.07H40c-.31 0-1.64.6-.93.6z" fill="#b7b7b7"/><path d="M104.84 31.02L46.39 32.2l30.59 9.08 27.35-.92.51-9.34" fill="#444545"/><path d="M103,40.61V38.54a2.92,2.92,0,0,0-3-2.91l-50.4.52,17.43,8.5Z" fill="#fff"/><path d="M103.23,40.83V38.75a2.9,2.9,0,0,0-3-2.9l-50.4.52,17.43,8.5Z" fill="#e5eae5"/><path d="M100.27 40.5H100v-.8a1.57 1.57 0 0 0-1.57-1.56H66v-.25h32.45a1.82 1.82 0 0 1 1.82 1.81zm-1.63 1.1V40a.89.89 0 0 0-.89-.9H64.46l12.4 2.49z" fill="#231f20"/><path d="M104.33 40.36l-28.49.96 15.41 8.97 12.87-.72.21-9.21" fill="#3a3a3a"/><path d="M103,49.63V47.56a2.92,2.92,0,0,0-3-2.91l-14.93.21,7,5.38Z" fill="#fff"/><path d="M103.23,49.85V47.77a2.91,2.91,0,0,0-3-2.9l-14.93.2,7,5.39Z" fill="#94bf94"/><path d="M90.58 87.97l.67-37.68 12.87-.72-.89 38.4H90.58z" fill="#303030"/><path d="M7.05 22.7l.88-.45a9.27 9.27 0 0 1 7-.57l71.9 22.71a7.83 7.83 0 0 1 5.48 7.44c0 4 0 10.65-.34 21.93l-1.38 35.57" fill="#5e5f5f"/><path d="M90.58,56.9v62.66a3,3,0,0,1-4,2.78L8.83,92.67A4.37,4.37,0,0,1,6,89L0,20.54,82.4,45.83A11.58,11.58,0,0,1,90.58,56.9Z" fill="#3a3a3a"/><path d="M103.73 87.99l-1-.03 1.62-70.12 1 .03-.73 31.71h0l-.89 38.41z" fill="#181818"/><g fill="#b9d987"><path d="M98.22 48.94a.12.12 0 0 1-.12-.12.11.11 0 0 1 .11-.13l2.66-.26a.13.13 0 0 1 .13.11.12.12 0 0 1-.11.14l-2.66.25zm-1.89.57a.12.12 0 0 1-.12-.11.12.12 0 0 1 .11-.14l4.62-.46a.12.12 0 0 1 .13.12.11.11 0 0 1-.11.13l-4.62.46z"/><path d="M94.54,50.07a.12.12,0,0,1-.12-.11.12.12,0,0,1,.11-.14l6.41-.63a.12.12,0,0,1,.13.11.12.12,0,0,1-.11.14l-6.41.63Z"/></g><path d="M73.37 40.14h23.98l-22.57.22 22.57.14-22.15.26h16.82l-15.04.52-3.61-1.14z" fill="#e5eae5"/><path d="M2 24.23a.25.25 0 0 1-.12 0l-.95-.32a.38.38 0 1 1 .25-.71l.94.32a.39.39 0 0 1 .24.48.38.38 0 0 1-.36.23zm81.7 91.98h-.21a.373.373 0 1 1 .09-.74 1.07 1.07 0 0 0 1.13-.76.37.37 0 0 1 .46-.25.38.38 0 0 1 .26.46 1.82 1.82 0 0 1-1.73 1.29zm-1.58-.51h-.13l-1.87-.74a.37.37 0 0 1-.21-.48.38.38 0 0 1 .49-.22l1.86.74a.37.37 0 0 1-.14.72zm-3.25-1.28a.32.32 0 0 1-.14 0l-1.86-.73a.38.38 0 0 1-.22-.49.39.39 0 0 1 .49-.21l1.86.73a.37.37 0 0 1 .21.49.36.36 0 0 1-.34.21zm6.24-.73a.38.38 0 0 1-.37-.37v-2a.37.37 0 0 1 .37-.38h0a.37.37 0 0 1 .38.37v2a.38.38 0 0 1-.37.38zm-9.5-.55a.32.32 0 0 1-.14 0l-1.86-.73a.38.38 0 1 1 .27-.7l1.86.73a.37.37 0 0 1 .21.49.35.35 0 0 1-.34.21zm-3.26-1.29a.32.32 0 0 1-.14 0l-1.86-.74a.36.36 0 0 1-.21-.48.37.37 0 0 1 .48-.21l1.86.73a.37.37 0 0 1-.13.72zm-3.26-1.28h-.14l-1.86-.74a.375.375 0 1 1 .27-.7l1.86.74a.37.37 0 0 1 .22.48.38.38 0 0 1-.35.22zm16-.38a.38.38 0 0 1-.37-.37v-2a.38.38 0 0 1 .37-.37.35.35 0 0 1 .38.37v2a.38.38 0 0 1-.37.38zm-19.23-.9a.35.35 0 0 1-.14 0l-1.86-.73a.38.38 0 0 1 .27-.7l1.87.73a.39.39 0 0 1 .21.49.38.38 0 0 1-.38.21zM62.57 108a.35.35 0 0 1-.14 0l-1.86-.73a.38.38 0 0 1-.21-.49.37.37 0 0 1 .48-.21l1.87.73a.39.39 0 0 1 .21.49.38.38 0 0 1-.35.21zm-3.26-1.29a.34.34 0 0 1-.14 0l-1.86-.71a.37.37 0 0 1-.21-.48.38.38 0 0 1 .49-.21l1.86.73a.38.38 0 0 1 .21.49.38.38 0 0 1-.35.19zm25.71 0a.38.38 0 0 1-.38-.37v-2a.38.38 0 0 1 .37-.38h0a.38.38 0 0 1 .38.37v2a.37.37 0 0 1-.37.38zm-29-1.24h-.14l-1.86-.74a.37.37 0 0 1-.21-.48.38.38 0 0 1 .49-.22l1.86.74a.37.37 0 0 1 .21.48.38.38 0 0 1-.32.19zm-3.26-1.28a.31.31 0 0 1-.13 0l-1.87-.73a.38.38 0 0 1-.21-.49.39.39 0 0 1 .49-.21l1.86.73a.38.38 0 0 1-.14.73zm32.18-1a.37.37 0 0 1-.37-.37v-2a.38.38 0 0 1 .37-.38h0a.38.38 0 0 1 .37.37v2a.38.38 0 0 1-.37.38zm-35.44-.3a.31.31 0 0 1-.13 0l-1.87-.73a.38.38 0 0 1 .28-.7l1.86.73a.38.38 0 0 1-.14.73zm-3.26-1.29a.3.3 0 0 1-.13 0l-1.86-.74a.37.37 0 1 1 .27-.69l1.86.73a.38.38 0 0 1 .21.49.37.37 0 0 1-.32.2zM43 100.31a.32.32 0 0 1-.14 0L41 99.55a.37.37 0 0 1-.22-.48.38.38 0 0 1 .49-.22l1.86.74a.36.36 0 0 1 .21.48.36.36 0 0 1-.34.24zm41.91-.63a.38.38 0 0 1-.38-.37v-2a.37.37 0 0 1 .37-.38.38.38 0 0 1 .38.37v2a.37.37 0 0 1-.37.38zM39.76 99a.32.32 0 0 1-.14 0l-1.86-.73a.375.375 0 1 1 .27-.7l1.86.73a.38.38 0 0 1 .22.49.38.38 0 0 1-.35.21zm-3.26-1.25a.35.35 0 0 1-.14 0L34.5 97a.375.375 0 1 1 .27-.7l1.86.73a.38.38 0 0 1 .22.49.38.38 0 0 1-.35.23zm-3.26-1.29h-.14l-1.86-.74a.37.37 0 0 1-.21-.48.36.36 0 0 1 .48-.21l1.87.73a.37.37 0 0 1-.14.72zm51.64-.28a.38.38 0 0 1-.37-.37v-2a.37.37 0 0 1 .37-.38.38.38 0 0 1 .38.37v2a.38.38 0 0 1-.37.38zm-54.9-1a.35.35 0 0 1-.14 0L28 94.42a.375.375 0 1 1 .27-.7l1.87.74a.37.37 0 0 1-.14.72zm-3.26-1.28a.35.35 0 0 1-.14 0l-1.86-.73a.38.38 0 0 1-.21-.49.38.38 0 0 1 .49-.21l1.86.73a.38.38 0 0 1-.14.73zm58.12-1.22a.38.38 0 0 1-.38-.37v-2a.39.39 0 0 1 .37-.38h0a.38.38 0 0 1 .37.37v2a.38.38 0 0 1-.37.38zm-61.38-.06h-.14l-1.86-.73a.38.38 0 0 1 .28-.7l1.86.73a.38.38 0 0 1-.14.73zm-3.26-1.29h-.14l-1.86-.74a.372.372 0 0 1 .28-.69l1.86.73a.38.38 0 0 1 .21.49.38.38 0 0 1-.35.21zm-3.26-1.28a.31.31 0 0 1-.13 0l-1.87-.73a.37.37 0 0 1-.21-.48.38.38 0 0 1 .49-.22l1.86.74a.37.37 0 0 1 .21.48.38.38 0 0 1-.35.21zm67.85-.88a.37.37 0 0 1-.37-.37v-2a.38.38 0 0 1 .37-.38.37.37 0 0 1 .38.37v2a.38.38 0 0 1-.37.38zm-71.11-.4a.31.31 0 0 1-.13 0L11.68 88a.38.38 0 0 1-.21-.49.39.39 0 0 1 .49-.21l1.86.73a.38.38 0 0 1-.14.73zm-3.25-1.28a.32.32 0 0 1-.14 0l-1.86-.73a.38.38 0 0 1-.22-.49.38.38 0 0 1 .49-.27l1.86.73a.37.37 0 0 1 .21.49.36.36 0 0 1-.34.27zm74.31-1.82a.37.37 0 0 1-.37-.37v-2a.38.38 0 0 1 .37-.38.37.37 0 0 1 .38.37v2a.37.37 0 0 1-.37.38zm0-3.5a.38.38 0 0 1-.38-.37v-2a.37.37 0 0 1 .37-.38h0a.38.38 0 0 1 .38.37v2a.37.37 0 0 1-.37.38zm0-3.5a.38.38 0 0 1-.37-.37v-2a.37.37 0 0 1 .37-.38h0a.37.37 0 0 1 .37.37v2a.37.37 0 0 1-.37.38zm0-3.5a.38.38 0 0 1-.38-.37v-2a.38.38 0 0 1 .37-.38.42.42 0 0 1 .38.37v2a.38.38 0 0 1-.37.38zm0-3.51a.37.37 0 0 1-.37-.37v-2a.38.38 0 0 1 .37-.38h0a.38.38 0 0 1 .37.37v2a.38.38 0 0 1-.37.38zm0-3.5a.37.37 0 0 1-.38-.37v-2a.38.38 0 0 1 .37-.38.37.37 0 0 1 .38.37v2a.37.37 0 0 1-.37.38zm0-3.5a.36.36 0 0 1-.37-.37v-2a.37.37 0 0 1 .37-.38.38.38 0 0 1 .38.37v2a.38.38 0 0 1-.38.38zm0-3.5a.38.38 0 0 1-.37-.37v-2a.38.38 0 0 1 .37-.38h0a.37.37 0 0 1 .37.37v2a.38.38 0 0 1-.37.38zm0-3.5a.38.38 0 0 1-.38-.37v-.94a5.45 5.45 0 0 0-.1-1 .373.373 0 1 1 .73-.15 5.35 5.35 0 0 1 .12 1.13v.94a.38.38 0 0 1-.37.38zm-.6-3.42a.37.37 0 0 1-.34-.21 5.39 5.39 0 0 0-1.09-1.51.375.375 0 0 1 .53-.53 6.35 6.35 0 0 1 1.24 1.71.38.38 0 0 1-.18.51.45.45 0 0 1-.52.03zm-2.36-2.51a.41.41 0 0 1-.19 0 5.1 5.1 0 0 0-.92-.42l-.87-.3a.37.37 0 0 1-.23-.47.38.38 0 0 1 .48-.24l.87.31a5.72 5.72 0 0 1 1 .47.37.37 0 0 1-.18.7zm-3.64-1.23a.27.27 0 0 1-.12 0l-1.89-.65a.36.36 0 0 1-.23-.47.38.38 0 0 1 .47-.24l1.9.66a.37.37 0 0 1 .23.47.38.38 0 0 1-.36.23zm-3.31-1.15a.25.25 0 0 1-.12 0l-1.89-.65a.375.375 0 0 1 .24-.71l1.9.65a.38.38 0 0 1 .23.48.38.38 0 0 1-.36.23zm-3.31-1.14a.25.25 0 0 1-.12 0l-1.89-.65a.375.375 0 0 1 .24-.71l1.89.65a.38.38 0 0 1 .24.48.39.39 0 0 1-.36.23zm-3.31-1.14h-.12l-1.89-.67a.37.37 0 0 1-.23-.48.36.36 0 0 1 .47-.23l1.89.65a.38.38 0 0 1 .24.48.39.39 0 0 1-.36.25zm-3.31-1.14h-.12l-1.89-.66a.37.37 0 1 1 .24-.7l1.87.63a.38.38 0 0 1 .24.47.38.38 0 0 1-.34.26zm-3.31-1.14h-.12l-1.89-.66a.37.37 0 0 1-.24-.47.39.39 0 0 1 .48-.24l1.89.66a.38.38 0 0 1-.12.73zm-3.31-1.15a.25.25 0 0 1-.12 0l-1.9-.64a.38.38 0 0 1 .25-.71l1.89.65a.38.38 0 0 1 .23.48.36.36 0 0 1-.35.22zM55 42.5a.25.25 0 0 1-.12 0L53 41.83a.38.38 0 0 1 .25-.71l1.89.65a.37.37 0 0 1 .23.48.38.38 0 0 1-.37.25zm-3.31-1.14h-.13l-1.89-.65a.38.38 0 1 1 .25-.71l1.89.65a.38.38 0 0 1-.12.73zm-3.31-1.14h-.13l-1.89-.65a.38.38 0 0 1-.23-.48.37.37 0 0 1 .48-.23l1.89.65a.38.38 0 0 1-.12.73zM45 39.08h-.12L43 38.4a.37.37 0 1 1 .24-.7l1.9.65a.38.38 0 0 1-.13.73zm-3.31-1.14a.27.27 0 0 1-.12 0l-1.89-.65a.36.36 0 0 1-.23-.47.38.38 0 0 1 .47-.24l1.9.66a.37.37 0 0 1 .23.47.38.38 0 0 1-.33.23zm-3.31-1.15a.25.25 0 0 1-.12 0l-1.89-.65a.375.375 0 0 1 .24-.71l1.89.65a.38.38 0 0 1 .24.48.38.38 0 0 1-.33.23zm-3.28-1.14a.25.25 0 0 1-.12 0L33.09 35a.375.375 0 0 1 .24-.71l1.89.65a.38.38 0 0 1 .24.48.39.39 0 0 1-.36.23zm-3.31-1.14h-.12l-1.89-.65a.375.375 0 1 1 .24-.71l1.89.65a.38.38 0 0 1 .24.48.39.39 0 0 1-.36.23zm-3.31-1.14h-.12l-1.89-.65a.39.39 0 0 1-.24-.48.37.37 0 0 1 .48-.23l1.89.65a.37.37 0 0 1 .23.48.37.37 0 0 1-.35.23zm-3.31-1.14h-.12l-1.9-.66a.37.37 0 0 1-.23-.47.38.38 0 0 1 .48-.24l1.89.66a.36.36 0 0 1 .23.47.37.37 0 0 1-.35.24zm-3.31-1.15a.25.25 0 0 1-.12 0l-1.9-.65a.37.37 0 0 1-.23-.47.38.38 0 0 1 .48-.24l1.89.66a.37.37 0 0 1-.12.72zm-3.31-1.14a.32.32 0 0 1-.13 0l-1.89-.65a.38.38 0 0 1 .25-.71l1.89.65a.38.38 0 0 1 .23.48.36.36 0 0 1-.35.23zm-3.31-1.14h-.13l-1.89-.65a.38.38 0 0 1 .25-.71l1.89.65a.38.38 0 0 1-.12.73zm-3.31-1.14h-.13L9.91 27a.38.38 0 0 1-.23-.48.37.37 0 0 1 .48-.23l1.89.65a.38.38 0 0 1-.12.73zm-3.32-1.14h-.12l-1.89-.68a.37.37 0 1 1 .24-.7l1.9.65a.37.37 0 0 1 .23.47.38.38 0 0 1-.36.26zM5.3 25.38h-.12l-1.89-.68a.36.36 0 0 1-.23-.47.37.37 0 0 1 .47-.23l1.9.66a.38.38 0 0 1 .23.47.38.38 0 0 1-.36.25zM7.15 86.2a.31.31 0 0 1-.13 0l-.93-.36a.38.38 0 0 1-.22-.49.38.38 0 0 1 .49-.21l.93.36a.38.38 0 0 1-.14.73z" fill="#303030"/><path d="M68 98.87l.76.3L71 104.9l.21-.47-2-5.08.77.29 1.6 4.14 1.56-2.92.77.29-2.91 5.26zm3.23 8.13l3.17-5.68.77.29-3.59 6.3zm4.42-4.52l-.1-.71 5.45 2.09-.1.64zm.16 1.16l-.1-.7 5.13 2-.09.63-1.56-.6v5.54l-.7-.26v-5.54l-.43-.17v5.54l-.69-.27v-5.54z" fill="#262626"/></svg>