<svg id="Layer_1" data-name="Layer 1" xmlns="http://www.w3.org/2000/svg" viewBox="0 0 109.34 122.54"><defs><style>.cls-1{fill:#282828;}.cls-2{fill:#9dad92;}.cls-3{fill:#bcceb3;}.cls-4{fill:#0a331c;}.cls-5{fill:#181818;}.cls-6{fill:#515251;}.cls-7{fill:#fff;}.cls-8{fill:#7e1416;}.cls-9{fill:#bd444e;}.cls-10{fill:#501113;}.cls-11{fill:#b7b7b7;}.cls-12{fill:#444545;}.cls-13{fill:#e5eae5;}.cls-14{fill:#231f20;}.cls-15{fill:#3a3a3a;}.cls-16{fill:#94bf94;}.cls-17{fill:#303030;}.cls-18{fill:#5e5f5f;}.cls-19{fill:#b9d987;}.cls-20{fill:#262626;}</style></defs><path class="cls-1" d="M90.58,88h13.36a3.18,3.18,0,0,0,3.17-3.06l2.23-67.11a2.81,2.81,0,0,0-2.87-2.91L4.31,16.77A4,4,0,0,0,.81,19L0,20.54l90.58,27.8Z"/><path class="cls-2" d="M.46,20.74S8.79,5.34,46.39,4.36,97.35,0,97.35,0l3.52,17.39L7.43,18.52,1.64,21.25Z"/><path class="cls-3" d="M1.05,21.25S10.62,6.39,48.22,5.41,100.87,3,100.87,3l.66,14.85L8,19,2.22,21.75Z"/><path class="cls-4" d="M53.33,15.05c0,1,.1,2,.16,3l-.57,0c-.06-1.17-.15-2.34-.16-3.51l-.35-.34c0,1.29.11,2.58.17,3.87l-.54,0c-.08-1.73-.16-3.47-.23-5.2.81.74,1.62,1.47,2.45,2.17l.24-.27c-.92-.77-1.82-1.58-2.7-2.39l0-.78c1,.93,2.06,1.87,3.13,2.76,1-1.05,2-2.11,2.94-3.17,0,.26,0,.52,0,.78q-1.79,1.93-3.59,3.85Zm3.93,2.69-.58.05c0-1-.11-2-.16-3L55,16.4l-.43-.33c1.12-1.19,2.24-2.38,3.35-3.59.09,1.73.19,3.46.29,5.19l-.58,0-.21-3.87-.34.38C57.13,15.39,57.2,16.57,57.26,17.74Z"/><path class="cls-4" d="M59,14.92A2.59,2.59,0,0,1,61.5,12a2.54,2.54,0,0,1,2.82,2.54,2.64,2.64,0,0,1-2.53,2.86A2.54,2.54,0,0,1,59,14.92Zm4.77-.32a2,2,0,0,0-2.25-2,2.07,2.07,0,0,0-2,2.3,2,2,0,0,0,2.22,2A2.13,2.13,0,0,0,63.78,14.6Zm-3.86.25a1.73,1.73,0,0,1,1.63-1.91,1.7,1.7,0,0,1,1.84,1.69,1.77,1.77,0,0,1-1.65,1.92A1.7,1.7,0,0,1,59.92,14.85Zm2.93-.2a1.17,1.17,0,0,0-1.28-1.18,1.2,1.2,0,0,0-1.12,1.34A1.18,1.18,0,0,0,61.71,16,1.23,1.23,0,0,0,62.85,14.65Z"/><path class="cls-4" d="M65.08,12.38l0-.71c1.07.84,2.14,1.7,3.2,2.56l-.12-2.41h.53c0,1,.11,1.92.16,2.88l.34.32c0-1.07-.1-2.14-.16-3.21l.53,0c.07,1.45.12,2.91.16,4.36C68.19,14.84,66.64,13.61,65.08,12.38Zm.22,4.84c-.06-1.46-.13-2.91-.19-4.36,1.55,1.23,3.1,2.46,4.59,3.76l0,.72c-1-.88-2-1.74-3.07-2.58l.09,2.41-.54,0-.12-2.89L65.71,14c.05,1.07.09,2.14.14,3.21Z"/><path class="cls-4" d="M70.85,17.05c0-1.76-.08-3.53-.16-5.3h.52c.06,1.77.1,3.53.15,5.3Zm.69-5.32,2.06,0-.07.54-1.46,0c0,.11,0,.22,0,.33l1.42,0c0,.18,0,.36,0,.54l-1.36,0c0,.17,0,.33,0,.49l1.36,0v.54l-1.86,0C71.59,13.37,71.56,12.55,71.54,11.73Zm2,4.39-1.41,0c0,.11,0,.22,0,.34l1.44,0,.09.55c-.68,0-1.35,0-2,0,0-.84,0-1.67-.07-2.51l1.86,0c0,.18,0,.36,0,.54l-1.34,0c0,.18,0,.37,0,.55l1.34,0Z"/><path class="cls-4" d="M75,17c.25-.56.49-1.11.73-1.67-.56-1.21-1.12-2.42-1.69-3.63h.58l1.39,3,.18-.4L75,11.69h.57c.31.65.61,1.31.92,2l.86-2H78c-.79,1.77-1.58,3.54-2.35,5.31Zm3.3-5.31h.58c-.78,1.78-1.58,3.55-2.37,5.32H76C76.74,15.22,77.54,13.45,78.33,11.68Z"/><path class="cls-4" d="M83,12.92l-1.46.13c-.34,0-.48.09-.48.28s.18.29.42.41l1,.48a1.27,1.27,0,0,1,.72,1.29,1.62,1.62,0,0,1-1.36,1.63V18l-.5,0v-.81l-.31,0v.81l-.5,0v-.81l-1.14.1.07-.51,1.84-.16c.86-.07,1.38-.48,1.38-1.17a1,1,0,0,0-.61-1l-1-.48a.77.77,0,0,1-.52-.73c0-.58.4-.77,1-.83l1.51-.13Zm-1.45-.7c-.87.08-1.38.48-1.38,1.17a1,1,0,0,0,.6,1l1,.48a.77.77,0,0,1,.52.73c0,.58-.41.78-1,.83l-1.75.15.07-.51,1.69-.14c.33,0,.51-.1.51-.29s-.18-.29-.43-.41l-1-.48a1.26,1.26,0,0,1-.71-1.29,1.59,1.59,0,0,1,1.26-1.6V11l.49,0v.82l.32,0v-.82l.49,0v.82l1-.09-.07.51Z"/><path class="cls-4" d="M87.29,12.55l-1.47.13c-.33,0-.47.09-.47.28s.18.29.42.41l1,.48a1.29,1.29,0,0,1,.72,1.29,1.62,1.62,0,0,1-1.36,1.63v.85l-.5,0v-.81l-.31,0v.81l-.5,0v-.81l-1.14.1.07-.51,1.84-.16c.86-.08,1.37-.48,1.37-1.17a1,1,0,0,0-.6-1l-1-.48a.78.78,0,0,1-.53-.73c0-.58.41-.78,1-.83l1.5-.13Zm-1.46-.7c-.86.07-1.38.48-1.38,1.17a1,1,0,0,0,.61,1l1,.48a.76.76,0,0,1,.52.73c0,.58-.4.77-1,.83l-1.76.15.08-.51,1.69-.15c.33,0,.5-.1.5-.28s-.18-.29-.42-.41l-1-.48a1.28,1.28,0,0,1-.71-1.29,1.61,1.61,0,0,1,1.26-1.61v-.87l.5,0v.82l.31,0v-.82l.5,0v.81l1-.08-.07.51Z"/><path class="cls-4" d="M45.52,13.89,44.05,14c-.33,0-.48.1-.48.29s.18.29.43.4l1,.49a1.26,1.26,0,0,1,.72,1.28,1.6,1.6,0,0,1-1.36,1.63V19l-.49,0v-.81l-.32,0V19l-.49,0v-.81l-1.14.1.07-.52,1.83-.16c.87-.07,1.38-.48,1.38-1.17a1,1,0,0,0-.6-1l-1-.49a.76.76,0,0,1-.52-.73c0-.57.41-.77,1-.83l1.5-.13Zm-1.46-.7c-.86.08-1.38.48-1.38,1.18a1,1,0,0,0,.61,1l1,.48a.77.77,0,0,1,.52.73c0,.58-.4.78-1,.83l-1.76.16.07-.51,1.7-.15c.33,0,.5-.1.5-.29s-.18-.29-.42-.4l-1-.49a1.27,1.27,0,0,1-.71-1.29,1.59,1.59,0,0,1,1.26-1.6v-.88l.5,0v.82l.31,0v-.82l.5,0v.82l1-.09-.07.51Z"/><path class="cls-4" d="M49.77,13.52l-1.46.13c-.34,0-.48.09-.48.28s.18.29.42.41l1,.48A1.27,1.27,0,0,1,50,16.11a1.61,1.61,0,0,1-1.36,1.63v.85l-.49,0v-.81l-.32,0v.81l-.5,0v-.81l-1.14.1.07-.51,1.84-.16c.86-.07,1.38-.48,1.38-1.17a1,1,0,0,0-.61-1l-1-.48a.77.77,0,0,1-.52-.73c0-.58.4-.77,1-.83L49.85,13Zm-1.45-.7c-.87.08-1.38.48-1.38,1.17a1,1,0,0,0,.6,1l1.05.48a.77.77,0,0,1,.52.73c0,.58-.41.77-1,.83l-1.75.15.07-.51,1.69-.15c.34,0,.51-.09.51-.28s-.18-.29-.43-.41l-1-.48A1.27,1.27,0,0,1,46.42,14a1.59,1.59,0,0,1,1.26-1.6v-.88l.49,0v.82l.32,0v-.82l.49,0v.82l1-.09-.07.51Z"/><polyline class="cls-4" points="94.23 9.9 90.81 11.97 95.25 11.97 89.76 14.63 95.94 14.63 88.67 17.43 94.91 16.86"/><polygon class="cls-4" points="38.57 10.3 38.57 18.65 14.99 19.24 19.46 15.22 38.57 10.3"/><path class="cls-4" d="M9.84,18.69S24.23,9.57,49.91,8.39,96.33,6.45,96.33,6.45V17.57l-6.28.58s6.28-.09,3.47-8.47c0,0-53.11-3.89-76.93,9.25"/><path class="cls-5" d="M1.05,22.8a.51.51,0,0,1-.46-.28.51.51,0,0,1,.24-.67l4.26-2A14.2,14.2,0,0,1,11,18.49l93.63-1.13,1.43-1.52a.5.5,0,1,1,.73.69l-1.72,1.82h-.21L11,19.49a13.36,13.36,0,0,0-5.49,1.26l-4.26,2A.52.52,0,0,1,1.05,22.8Z"/><polyline class="cls-6" points="104.33 21.75 104.12 31.3 46.89 32.2 14.99 22.88 101.62 21.75"/><path class="cls-7" d="M101.24,32.2V27.77a2.89,2.89,0,0,0-2.94-2.9l-63.54.19a4.09,4.09,0,0,0-4.08,4.27l.23,5Z"/><path class="cls-8" d="M101.45,32.37V28A2.91,2.91,0,0,0,98.51,25L35,25.23a4.1,4.1,0,0,0-4.08,4.28l.23,4.95Z"/><polygon class="cls-9" points="68.8 25.13 48.22 32.2 82.28 31.47 68.8 25.13"/><polygon class="cls-7" points="68.3 30.66 65.55 31.83 64.64 31.83 67.74 30.43 68.3 30.66"/><polygon class="cls-7" points="69.15 31 67.2 31.83 66.3 31.83 68.61 30.78 69.15 31"/><polygon class="cls-7" points="70.03 31.35 68.91 31.83 68 31.83 69.52 31.14 70.03 31.35"/><polygon class="cls-10" points="92.79 25.06 83.82 32.2 68.8 25.13 92.79 25.06"/><path class="cls-11" d="M39,27.71l20.24,0,30.24.07c3.12,0,8.12-.81,8.74,3.51,0,.3,1.5,0,1.45-.39-.57-3.94-4.46-3.71-7.43-3.72l-12.52,0-32.06-.07H40c-.31,0-1.64.6-.93.6Z"/><polyline class="cls-12" points="104.84 31.02 46.39 32.2 76.98 41.28 104.33 40.36 104.84 31.02"/><path class="cls-7" d="M103,40.61V38.54a2.92,2.92,0,0,0-3-2.91l-50.4.52,17.43,8.5Z"/><path class="cls-13" d="M103.23,40.83V38.75a2.9,2.9,0,0,0-3-2.9l-50.4.52,17.43,8.5Z"/><path class="cls-14" d="M100.27,40.5H100v-.8a1.57,1.57,0,0,0-1.57-1.56H66v-.25H98.45a1.82,1.82,0,0,1,1.82,1.81Z"/><path class="cls-14" d="M98.64,41.6V40a.89.89,0,0,0-.89-.9H64.46l12.4,2.49Z"/><polyline class="cls-15" points="104.33 40.36 75.84 41.32 91.25 50.29 104.12 49.57 104.33 40.36"/><path class="cls-7" d="M103,49.63V47.56a2.92,2.92,0,0,0-3-2.91l-14.93.21,7,5.38Z"/><path class="cls-16" d="M103.23,49.85V47.77a2.91,2.91,0,0,0-3-2.9l-14.93.2,7,5.39Z"/><polygon class="cls-17" points="90.58 87.97 91.25 50.29 104.12 49.57 103.23 87.97 90.58 87.97"/><path class="cls-18" d="M7.05,22.7l.88-.45a9.27,9.27,0,0,1,7-.57l71.9,22.71a7.83,7.83,0,0,1,5.48,7.44c0,4,0,10.65-.34,21.93-.7,27.59-1.38,35.57-1.38,35.57"/><path class="cls-15" d="M90.58,56.9v62.66a3,3,0,0,1-4,2.78L8.83,92.67A4.37,4.37,0,0,1,6,89L0,20.54,82.4,45.83A11.58,11.58,0,0,1,90.58,56.9Z"/><polygon class="cls-5" points="103.73 87.99 102.73 87.96 104.35 17.84 105.35 17.87 104.62 49.58 104.62 49.58 103.73 87.99"/><path class="cls-19" d="M98.22,48.94a.12.12,0,0,1-.12-.12.11.11,0,0,1,.11-.13l2.66-.26a.13.13,0,0,1,.13.11.12.12,0,0,1-.11.14l-2.66.25Z"/><path class="cls-19" d="M96.33,49.51a.12.12,0,0,1-.12-.11.12.12,0,0,1,.11-.14l4.62-.46a.12.12,0,0,1,.13.12.11.11,0,0,1-.11.13l-4.62.46Z"/><path class="cls-19" d="M94.54,50.07a.12.12,0,0,1-.12-.11.12.12,0,0,1,.11-.14l6.41-.63a.12.12,0,0,1,.13.11.12.12,0,0,1-.11.14l-6.41.63Z"/><polygon class="cls-13" points="73.37 40.14 97.35 40.14 74.78 40.36 97.35 40.5 75.2 40.76 92.02 40.76 76.98 41.28 73.37 40.14"/><path class="cls-17" d="M2,24.23a.25.25,0,0,1-.12,0l-.95-.32a.38.38,0,1,1,.25-.71l.94.32a.39.39,0,0,1,.24.48A.38.38,0,0,1,2,24.23Z"/><path class="cls-17" d="M83.7,116.21h-.21a.37.37,0,1,1,.09-.74,1.07,1.07,0,0,0,1.13-.76.37.37,0,0,1,.46-.25.38.38,0,0,1,.26.46A1.82,1.82,0,0,1,83.7,116.21Zm-1.58-.51-.13,0-1.87-.74a.37.37,0,0,1-.21-.48.38.38,0,0,1,.49-.22l1.86.74a.37.37,0,0,1-.14.72Zm-3.25-1.28a.32.32,0,0,1-.14,0l-1.86-.73a.38.38,0,0,1-.22-.49.39.39,0,0,1,.49-.21l1.86.73a.37.37,0,0,1,.21.49A.36.36,0,0,1,78.87,114.42Zm6.24-.73a.38.38,0,0,1-.37-.37l0-2a.37.37,0,0,1,.37-.38h0a.37.37,0,0,1,.38.37l0,2a.38.38,0,0,1-.37.38Zm-9.5-.55a.32.32,0,0,1-.14,0l-1.86-.73a.38.38,0,1,1,.27-.7l1.86.73a.37.37,0,0,1,.21.49A.35.35,0,0,1,75.61,113.14Zm-3.26-1.29a.32.32,0,0,1-.14,0l-1.86-.74a.36.36,0,0,1-.21-.48.37.37,0,0,1,.48-.21l1.86.73a.37.37,0,0,1-.13.72Zm-3.26-1.28-.14,0-1.86-.74a.37.37,0,0,1-.21-.48.37.37,0,0,1,.48-.22l1.86.74a.37.37,0,0,1,.22.48A.38.38,0,0,1,69.09,110.57Zm16-.38a.38.38,0,0,1-.37-.37l0-2a.38.38,0,0,1,.37-.37.35.35,0,0,1,.38.37l0,2a.38.38,0,0,1-.37.38Zm-19.23-.9a.35.35,0,0,1-.14,0l-1.86-.73a.38.38,0,0,1,.27-.7l1.87.73a.39.39,0,0,1,.21.49A.38.38,0,0,1,65.83,109.29ZM62.57,108a.35.35,0,0,1-.14,0l-1.86-.73a.38.38,0,0,1-.21-.49.37.37,0,0,1,.48-.21l1.87.73a.39.39,0,0,1,.21.49A.38.38,0,0,1,62.57,108Zm-3.26-1.29a.34.34,0,0,1-.14,0L57.31,106a.37.37,0,0,1-.21-.48.38.38,0,0,1,.49-.21l1.86.73a.38.38,0,0,1,.21.49A.38.38,0,0,1,59.31,106.72Zm25.71,0a.38.38,0,0,1-.38-.37l0-2a.38.38,0,0,1,.37-.38h0a.38.38,0,0,1,.38.37l0,2a.37.37,0,0,1-.37.38Zm-29-1.24-.14,0-1.86-.74a.37.37,0,0,1-.21-.48.38.38,0,0,1,.49-.22l1.86.74a.37.37,0,0,1,.21.48A.38.38,0,0,1,56.05,105.44Zm-3.26-1.28a.31.31,0,0,1-.13,0l-1.87-.73a.38.38,0,0,1-.21-.49.39.39,0,0,1,.49-.21l1.86.73a.38.38,0,0,1-.14.73Zm32.18-1a.37.37,0,0,1-.37-.37l0-2a.38.38,0,0,1,.37-.38h0a.38.38,0,0,1,.37.37l0,2a.38.38,0,0,1-.37.38Zm-35.44-.3a.31.31,0,0,1-.13,0l-1.87-.73a.38.38,0,0,1,.28-.7l1.86.73a.38.38,0,0,1-.14.73Zm-3.26-1.29a.3.3,0,0,1-.13,0l-1.86-.74a.37.37,0,1,1,.27-.69l1.86.73a.38.38,0,0,1,.21.49A.37.37,0,0,1,46.27,101.59ZM43,100.31a.32.32,0,0,1-.14,0L41,99.55a.37.37,0,0,1-.22-.48.38.38,0,0,1,.49-.22l1.86.74a.36.36,0,0,1,.21.48A.36.36,0,0,1,43,100.31Zm41.91-.63a.38.38,0,0,1-.38-.37l0-2a.37.37,0,0,1,.37-.38.38.38,0,0,1,.38.37l0,2a.37.37,0,0,1-.37.38ZM39.76,99a.32.32,0,0,1-.14,0l-1.86-.73a.37.37,0,0,1-.21-.49.37.37,0,0,1,.48-.21l1.86.73a.38.38,0,0,1,.22.49A.38.38,0,0,1,39.76,99ZM36.5,97.75a.35.35,0,0,1-.14,0L34.5,97a.37.37,0,0,1-.21-.49.37.37,0,0,1,.48-.21l1.86.73a.38.38,0,0,1,.22.49A.38.38,0,0,1,36.5,97.75Zm-3.26-1.29-.14,0-1.86-.74a.37.37,0,0,1-.21-.48.36.36,0,0,1,.48-.21l1.87.73a.37.37,0,0,1-.14.72Zm51.64-.28a.38.38,0,0,1-.37-.37l0-2a.37.37,0,0,1,.37-.38.38.38,0,0,1,.38.37l0,2a.38.38,0,0,1-.37.38Zm-54.9-1a.35.35,0,0,1-.14,0L28,94.42a.37.37,0,0,1-.21-.48.37.37,0,0,1,.48-.22l1.87.74a.37.37,0,0,1-.14.72ZM26.72,93.9a.35.35,0,0,1-.14,0l-1.86-.73a.38.38,0,0,1-.21-.49.38.38,0,0,1,.49-.21l1.86.73a.38.38,0,0,1-.14.73Zm58.12-1.22a.38.38,0,0,1-.38-.37l0-2a.39.39,0,0,1,.37-.38h0a.38.38,0,0,1,.37.37l0,2a.38.38,0,0,1-.37.38Zm-61.38-.06-.14,0-1.86-.73a.38.38,0,0,1,.28-.7l1.86.73a.38.38,0,0,1-.14.73ZM20.2,91.33l-.14,0-1.86-.74a.37.37,0,0,1-.21-.48.37.37,0,0,1,.49-.21l1.86.73a.38.38,0,0,1,.21.49A.38.38,0,0,1,20.2,91.33Zm-3.26-1.28a.31.31,0,0,1-.13,0l-1.87-.73a.37.37,0,0,1-.21-.48.38.38,0,0,1,.49-.22l1.86.74a.37.37,0,0,1,.21.48A.38.38,0,0,1,16.94,90.05Zm67.85-.88a.37.37,0,0,1-.37-.37l0-2a.38.38,0,0,1,.37-.38.37.37,0,0,1,.38.37l0,2a.38.38,0,0,1-.37.38Zm-71.11-.4a.31.31,0,0,1-.13,0L11.68,88a.38.38,0,0,1-.21-.49.39.39,0,0,1,.49-.21l1.86.73a.38.38,0,0,1-.14.73Zm-3.25-1.28a.32.32,0,0,1-.14,0l-1.86-.73a.38.38,0,0,1-.22-.49A.38.38,0,0,1,8.7,86l1.86.73a.37.37,0,0,1,.21.49A.36.36,0,0,1,10.43,87.49Zm74.31-1.82a.37.37,0,0,1-.37-.37l0-2a.38.38,0,0,1,.37-.38.37.37,0,0,1,.38.37l0,2a.37.37,0,0,1-.37.38Zm0-3.5a.38.38,0,0,1-.38-.37l0-2a.37.37,0,0,1,.37-.38h0a.38.38,0,0,1,.38.37l0,2a.37.37,0,0,1-.37.38Zm0-3.5a.38.38,0,0,1-.37-.37l0-2a.37.37,0,0,1,.37-.38h0a.37.37,0,0,1,.37.37l0,2a.37.37,0,0,1-.37.38Zm0-3.5a.38.38,0,0,1-.38-.37l0-2a.38.38,0,0,1,.37-.38.42.42,0,0,1,.38.37l0,2a.38.38,0,0,1-.37.38Zm0-3.51a.37.37,0,0,1-.37-.37l0-2a.38.38,0,0,1,.37-.38h0a.38.38,0,0,1,.37.37l0,2a.38.38,0,0,1-.37.38Zm0-3.5a.37.37,0,0,1-.38-.37l0-2a.38.38,0,0,1,.37-.38.37.37,0,0,1,.38.37l0,2a.37.37,0,0,1-.37.38Zm0-3.5a.36.36,0,0,1-.37-.37l0-2a.37.37,0,0,1,.37-.38.38.38,0,0,1,.38.37l0,2a.38.38,0,0,1-.38.38Zm0-3.5a.38.38,0,0,1-.37-.37l0-2a.38.38,0,0,1,.37-.38h0a.37.37,0,0,1,.37.37l0,2a.38.38,0,0,1-.37.38Zm0-3.5a.38.38,0,0,1-.38-.37v-.94a5.45,5.45,0,0,0-.1-1,.37.37,0,1,1,.73-.15,5.35,5.35,0,0,1,.12,1.13v.94a.38.38,0,0,1-.37.38Zm-.6-3.42a.37.37,0,0,1-.34-.21,5.39,5.39,0,0,0-1.09-1.51.37.37,0,0,1,.53-.53,6.35,6.35,0,0,1,1.24,1.71.38.38,0,0,1-.18.51A.45.45,0,0,1,83.78,54.24Zm-2.36-2.51a.41.41,0,0,1-.19,0,5.1,5.1,0,0,0-.92-.42l-.87-.3a.37.37,0,0,1-.23-.47.38.38,0,0,1,.48-.24l.87.31a5.72,5.72,0,0,1,1,.47.37.37,0,0,1-.18.7ZM78.14,50.5a.27.27,0,0,1-.12,0l-1.89-.65a.36.36,0,0,1-.23-.47.38.38,0,0,1,.47-.24l1.9.66a.37.37,0,0,1,.23.47A.38.38,0,0,1,78.14,50.5Zm-3.31-1.15a.25.25,0,0,1-.12,0l-1.89-.65a.37.37,0,0,1,.24-.71l1.9.65a.38.38,0,0,1,.23.48A.38.38,0,0,1,74.83,49.35Zm-3.31-1.14a.25.25,0,0,1-.12,0l-1.89-.65a.37.37,0,0,1,.24-.71l1.89.65a.38.38,0,0,1,.24.48A.39.39,0,0,1,71.52,48.21Zm-3.31-1.14-.12,0L66.2,46.4a.37.37,0,0,1-.23-.48.36.36,0,0,1,.47-.23l1.89.65a.38.38,0,0,1,.24.48A.39.39,0,0,1,68.21,47.07ZM64.9,45.93l-.12,0-1.89-.66a.37.37,0,1,1,.24-.7L65,45.2a.38.38,0,0,1,.24.47A.38.38,0,0,1,64.9,45.93Zm-3.31-1.14-.12,0-1.89-.66a.37.37,0,0,1-.24-.47.39.39,0,0,1,.48-.24l1.89.66a.38.38,0,0,1-.12.73Zm-3.31-1.15a.25.25,0,0,1-.12,0L56.26,43a.38.38,0,0,1,.25-.71l1.89.65a.38.38,0,0,1,.23.48A.36.36,0,0,1,58.28,43.64ZM55,42.5a.25.25,0,0,1-.12,0L53,41.83a.38.38,0,0,1,.25-.71l1.89.65a.37.37,0,0,1,.23.48A.38.38,0,0,1,55,42.5Zm-3.31-1.14-.13,0-1.89-.65a.38.38,0,1,1,.25-.71l1.89.65a.38.38,0,0,1-.12.73Zm-3.31-1.14-.13,0-1.89-.65a.38.38,0,0,1-.23-.48.37.37,0,0,1,.48-.23l1.89.65a.38.38,0,0,1-.12.73ZM45,39.08l-.12,0L43,38.4a.36.36,0,0,1-.23-.47.36.36,0,0,1,.47-.23l1.9.65a.38.38,0,0,1-.13.73Zm-3.31-1.14a.27.27,0,0,1-.12,0l-1.89-.65a.36.36,0,0,1-.23-.47.38.38,0,0,1,.47-.24l1.9.66a.37.37,0,0,1,.23.47A.38.38,0,0,1,41.72,37.94Zm-3.31-1.15a.25.25,0,0,1-.12,0l-1.89-.65a.37.37,0,0,1,.24-.71l1.89.65a.38.38,0,0,1,.24.48A.38.38,0,0,1,38.41,36.79ZM35.1,35.65a.25.25,0,0,1-.12,0L33.09,35a.37.37,0,0,1,.24-.71l1.89.65a.38.38,0,0,1,.24.48A.39.39,0,0,1,35.1,35.65Zm-3.31-1.14-.12,0-1.89-.65a.37.37,0,1,1,.24-.71l1.89.65a.38.38,0,0,1,.24.48A.39.39,0,0,1,31.79,34.51Zm-3.31-1.14-.12,0-1.89-.65a.39.39,0,0,1-.24-.48.37.37,0,0,1,.48-.23l1.89.65a.37.37,0,0,1,.23.48A.37.37,0,0,1,28.48,33.37Zm-3.31-1.14-.12,0-1.9-.66a.37.37,0,0,1-.23-.47.38.38,0,0,1,.48-.24l1.89.66a.36.36,0,0,1,.23.47A.37.37,0,0,1,25.17,32.23Zm-3.31-1.15a.25.25,0,0,1-.12,0l-1.9-.65a.37.37,0,0,1-.23-.47.38.38,0,0,1,.48-.24l1.89.66a.37.37,0,0,1-.12.72Zm-3.31-1.14a.32.32,0,0,1-.13,0l-1.89-.65a.38.38,0,0,1,.25-.71l1.89.65a.38.38,0,0,1,.23.48A.36.36,0,0,1,18.55,29.94ZM15.24,28.8l-.13,0-1.89-.65a.38.38,0,0,1,.25-.71l1.89.65a.38.38,0,0,1-.12.73Zm-3.31-1.14-.13,0L9.91,27a.38.38,0,0,1-.23-.48.37.37,0,0,1,.48-.23l1.89.65a.38.38,0,0,1-.12.73ZM8.61,26.52l-.12,0L6.6,25.84a.36.36,0,0,1-.23-.47.36.36,0,0,1,.47-.23l1.9.65a.37.37,0,0,1,.23.47A.38.38,0,0,1,8.61,26.52ZM5.3,25.38l-.12,0L3.29,24.7a.36.36,0,0,1-.23-.47A.37.37,0,0,1,3.53,24l1.9.66a.38.38,0,0,1,.23.47A.38.38,0,0,1,5.3,25.38Z"/><path class="cls-17" d="M7.15,86.2a.31.31,0,0,1-.13,0l-.93-.36a.38.38,0,0,1-.22-.49.38.38,0,0,1,.49-.21l.93.36a.38.38,0,0,1-.14.73Z"/><path class="cls-20" d="M68,98.87l.76.3L71,104.9l.21-.47-2-5.08.77.29,1.6,4.14,1.56-2.92.77.29L71,106.41ZM71.23,107l3.17-5.68.77.29-3.59,6.3Z"/><path class="cls-20" d="M75.65,102.48l-.1-.71L81,103.86l-.1.64Zm.16,1.16-.1-.7,5.13,2-.09.63-1.56-.6v5.54l-.7-.26v-5.54l-.43-.17v5.54l-.69-.27v-5.54Z"/></svg>