<?xml version="1.0" encoding="UTF-8" standalone="no"?>
<svg
   xmlns:dc="http://purl.org/dc/elements/1.1/"
   xmlns:cc="http://creativecommons.org/ns#"
   xmlns:rdf="http://www.w3.org/1999/02/22-rdf-syntax-ns#"
   xmlns:svg="http://www.w3.org/2000/svg"
   xmlns="http://www.w3.org/2000/svg"
   xmlns:sodipodi="http://sodipodi.sourceforge.net/DTD/sodipodi-0.dtd"
   xmlns:inkscape="http://www.inkscape.org/namespaces/inkscape"
   version="1.1"
   id="svg2"
   xml:space="preserve"
   width="816"
   height="1056"
   viewBox="0 0 816 1056"
   sodipodi:docname="yak ai file.ai"><metadata
     id="metadata8"><rdf:RDF><cc:Work
         rdf:about=""><dc:format>image/svg+xml</dc:format><dc:type
           rdf:resource="http://purl.org/dc/dcmitype/StillImage" /></cc:Work></rdf:RDF></metadata><defs
     id="defs6"><clipPath
       clipPathUnits="userSpaceOnUse"
       id="clipPath18"><path
         d="M 0,792 H 612 V 0 H 0 Z"
         id="path16" /></clipPath></defs><sodipodi:namedview
     pagecolor="#ffffff"
     bordercolor="#666666"
     borderopacity="1"
     objecttolerance="10"
     gridtolerance="10"
     guidetolerance="10"
     inkscape:pageopacity="0"
     inkscape:pageshadow="2"
     inkscape:window-width="640"
     inkscape:window-height="480"
     id="namedview4" /><g
     id="g10"
     inkscape:groupmode="layer"
     inkscape:label="yak ai file"
     transform="matrix(1.3333333,0,0,-1.3333333,0,1056)"><g
       id="g12"><g
         id="g14"
         clip-path="url(#clipPath18)"><g
           id="g20"
           transform="translate(331.7842,259.5869)"><path
             d="m 0,0 c -70.434,0 -140.868,0.014 -211.301,-0.063 -2.257,-0.002 -2.7,0.442 -2.699,2.7 0.069,140.866 0.069,281.733 0,422.6 -0.001,2.257 0.441,2.7 2.699,2.7 140.867,-0.07 281.734,-0.07 422.601,0 2.257,0 2.701,-0.442 2.699,-2.7 -0.068,-140.866 -0.068,-281.733 0,-422.6 0.002,-2.256 -0.44,-2.702 -2.698,-2.7 C 140.867,0.014 70.434,0 0,0"
             style="fill:#ffffff;fill-opacity:1;fill-rule:nonzero;stroke:none"
             id="path22" /></g><g
           id="g24"
           transform="translate(131.6621,374.9561)"><path
             d="m 0,0 c -0.631,-0.152 -1.262,-0.304 -2.173,-0.523 0.466,2.842 3.267,4.408 3.539,7.139 1.315,1.726 1.136,4.155 2.728,5.721 C 2.403,11.654 3.5,8.977 1.386,8.567 -0.213,9.838 -0.719,8.075 -1.397,7.402 -3.956,4.865 -6.696,2.606 -10.439,0.456 c 4.11,7.122 8.111,13.565 10.308,21.695 -4.058,-3.486 -7.547,-6.483 -11.104,-9.54 -0.673,1.172 -0.087,1.751 0.234,2.198 3.469,4.82 3.983,10.35 3.725,15.983 -0.202,4.412 0.658,8.727 0.773,13.104 0.055,2.117 1.077,3.706 2.888,5.196 4.539,3.736 8.731,7.894 13.299,11.762 C 6.915,54.079 5.207,47.012 2.957,40.078 8.831,46.063 13.524,52.947 19.178,60.298 16.801,51.473 14.66,43.527 12.52,35.581 c 6.147,6.565 12.013,13.203 16.255,21.143 0.309,-7.909 -2.091,-15.183 -4.588,-22.573 7.319,6.557 11.746,15.495 18.361,22.75 -1.152,-9.115 -3.222,-17.895 -7.519,-26.68 8.595,5.796 14.496,12.917 17.904,22.141 -0.893,-6.69 -2.942,-12.894 -6.099,-18.731 -0.366,-0.749 -0.371,-1.713 -1.005,-2.012 0.436,0.287 0.895,1.025 1.673,1.345 7.271,6.232 13.126,13.539 17.227,22.735 -0.382,-9.298 -0.249,-18.301 -7.041,-25.524 9.111,6.637 15.866,15.375 22.396,24.551 0.451,-2.359 -0.636,-8.725 -2.112,-13.66 -1.318,-4.403 -2.831,-8.712 -5.228,-12.764 4.236,3.166 8.859,5.644 12.742,9.259 4.013,3.735 5.15,9.09 8.428,13.832 0.694,-2.746 0.732,-5.183 0.257,-7.362 -1.209,-5.552 -2.73,-11.055 -5.759,-15.983 -0.477,-0.776 -1.632,-1.603 -0.599,-2.531 1.051,-0.944 1.909,0.348 2.478,0.9 4.468,4.333 8.771,8.833 11.849,14.315 1.484,2.643 2.811,5.372 4.252,8.144 0.916,-4.621 0.438,-7.561 -1.86,-13.25 -1.729,-4.282 -5.209,-7.565 -6.851,-11.993 3.652,0.576 7.729,4.19 15.098,13.274 2.124,-0.816 0.556,-1.913 0.063,-2.654 -2.352,-3.534 -4.81,-7 -7.152,-9.077 7.414,4.373 12.421,12.511 18.198,19.947 0.845,1.088 1.709,2.89 3.232,2.177 1.526,-0.715 0.905,-2.587 0.365,-3.861 -2.702,-6.373 -5.189,-12.944 -10.729,-15.43 4.468,2.31 9.933,6.033 15.59,9.428 3.461,2.077 5.771,5.336 7.893,8.709 0.602,0.955 0.983,2.645 2.5,2.053 1.492,-0.583 0.816,-2.092 0.455,-3.187 -2.216,-6.726 -6.177,-12.224 -10.582,-15.964 6.341,3.273 13.051,8.17 18.29,14.938 0.646,0.835 1.516,2.054 2.658,1.342 0.985,-0.614 0.278,-1.841 -0.171,-2.686 -2.198,-4.141 -3.604,-8.794 -8.095,-12.143 3.894,3.132 7.933,4.879 11.465,7.417 1.332,0.957 2.741,1.817 4.062,2.801 0.538,0.401 1.198,0.665 1.839,0.273 0.786,-0.482 0.756,-1.285 0.57,-2.059 -0.258,-1.078 -0.796,-2.046 -1.321,-3.009 -2.177,-3.995 -5.238,-7.159 -8.799,-9.489 0.447,0.164 1.153,0.47 1.891,0.688 5.728,1.691 10.574,4.641 14.156,9.561 0.786,1.08 2.123,2.862 3.364,2.058 1.545,-1.003 0.162,-2.82 -0.423,-4.141 -2.028,-4.574 -4.698,-8.674 -8.534,-11.123 8.107,1.382 13.622,6.866 17.399,14.479 0.293,0.589 0.593,1.181 1.037,1.676 0.867,0.966 1.507,0.75 1.839,-0.432 0.346,-1.227 -0.055,-2.394 -0.461,-3.535 -1.703,-4.79 -4.682,-8.657 -8.746,-11.944 3.813,1.409 7.194,3.234 10.28,5.63 1.845,1.433 4.327,1.394 6.292,2.75 5.845,4.033 11.246,8.44 14.58,14.905 0.306,0.592 0.688,1.128 1.374,1.344 1.143,-0.163 1.592,-0.964 1.816,-1.972 -3.202,-11.803 -7.497,-23.078 -17.694,-30.748 -7.698,-5.79 -15.448,-11.563 -23.943,-16.204 -1.454,-0.794 -2.972,-1.424 -4.526,-1.974 -0.811,-0.287 -1.887,-0.877 -2.419,10e-4 -0.646,1.063 0.46,1.777 1.197,2.383 1.698,1.397 3.322,2.858 4.87,4.429 2.184,2.215 3.866,4.735 5.22,7.507 -0.792,-1.5 -1.969,-2.734 -3.336,-3.612 -5.082,-3.264 -9.971,-6.826 -15.173,-9.905 -0.754,-0.446 -1.548,-0.838 -2.4,-1.078 -0.533,-0.152 -1.133,-0.289 -1.543,0.162 -0.584,0.641 -0.038,1.218 0.283,1.761 0.28,0.473 0.654,0.892 1.069,1.249 4.104,3.524 6.683,8.082 8.822,13.09 -6.007,-5.415 -12.686,-9.733 -19.389,-14.019 -1.479,-0.946 -2.946,-1.915 -4.323,-3.016 -0.834,-0.667 -1.895,-1.906 -2.815,-1.043 -1.119,1.05 0.22,2.21 0.868,3.116 1.344,1.879 2.597,3.808 3.795,5.783 0.861,1.417 1.536,2.906 2.104,4.454 -3.335,-4.097 -7.362,-7.563 -10.672,-11.686 -0.539,-0.672 -1.275,-1.233 -2.27,-1.125 -0.247,0.205 -0.403,0.465 -0.471,0.78 0.022,1.532 0.952,2.631 1.853,3.899 -1.335,-0.895 -2.544,-1.803 -3.971,-2.303 -0.698,-0.245 -1.538,-0.786 -2.133,-0.071 -0.711,0.854 -0.088,1.735 0.538,2.313 2.96,2.725 5.06,6.009 6.697,9.656 0.673,1.499 1.314,3.006 1.878,4.554 -1.259,-4.168 -3.88,-7.53 -6.55,-10.821 -2.803,-3.456 -6.472,-5.893 -10.315,-8.055 -0.81,-0.456 -1.861,-1.387 -2.625,-0.357 -0.709,0.954 0.408,1.79 0.996,2.513 2.844,3.495 5.192,7.283 6.987,11.651 -1.553,-1.921 -3.137,-3.557 -4.815,-5.097 -0.697,-0.639 -1.488,-1.715 -2.488,-1.119 -1.093,0.655 -0.278,1.775 0,2.665 0.228,0.73 0.611,1.406 1.018,2.059 -3.522,-5.422 -8.275,-9.639 -13.304,-13.584 -0.433,-0.34 -0.923,-0.599 -1.445,-0.772 -0.756,-0.251 -1.626,-0.426 -2.127,0.286 -0.546,0.776 0.08,1.489 0.645,1.987 1.724,1.521 3.564,2.922 4.526,4.765 -1.62,-2.387 -3.868,-4.515 -6.611,-6.116 -1.036,0.119 -1.298,-0.92 -1.982,-1.327 -1.592,-0.951 -2.958,-2.279 -4.784,-2.841 -0.858,-0.264 -1.83,-0.601 -2.403,0.285 -0.482,0.747 0.18,1.469 0.687,2.03 2.151,2.376 3.778,5.109 5.804,8.521 -4.48,-5.381 -9.56,-8.797 -14.903,-11.875 -1.491,-0.319 -2.595,-1.712 -4.262,-1.551 -1.71,1.665 -0.172,2.618 0.927,3.356 3.693,2.483 5.854,6.502 8.677,8.406 -4.647,-4.942 -9.293,-7.789 -14.556,-8.581 -0.945,-0.141 -2.18,-0.681 -2.704,0.379 -0.545,1.103 0.764,1.654 1.417,2.289 1.469,1.429 2.786,2.974 3.966,4.55 -3.244,-1.725 -6.515,-3.509 -9.974,-4.898 -0.866,-0.348 -2.06,-0.955 -2.699,0.081 -0.625,1.012 0.401,1.877 1.102,2.476 3.443,2.945 6.463,6.238 8.699,10.266 C 65.764,4.2 63.518,2.12 60.988,0.39 c -0.996,-0.682 -1.946,-1.45 -3.107,-1.838 -0.615,-0.207 -1.328,-0.415 -1.757,0.307 -0.33,0.555 0.049,1.084 0.375,1.496 1.492,1.888 3.17,3.646 3.891,6.123 -2.647,-2.109 -4.866,-4.709 -7.629,-6.692 -2.22,-1.594 -4.686,-2.351 -7.289,-2.848 -0.65,-0.123 -1.419,-0.156 -1.78,0.488 -0.407,0.725 0.279,1.205 0.722,1.646 2.714,2.698 6.003,4.778 8.855,8.444 -4.594,-3.455 -9.28,-5.301 -13.549,-7.9 -1.408,-0.857 -2.892,-1.578 -4.398,-2.245 -0.905,-0.4 -2.081,-0.956 -2.735,-0.045 -0.781,1.091 0.58,1.663 1.197,2.292 2.839,2.894 5.821,5.648 8.433,8.763 -4.924,-5.356 -10.583,-9.579 -17.651,-11.685 -0.631,-0.187 -1.25,-0.431 -1.907,-0.507 -0.77,-0.087 -1.711,-0.211 -2.048,0.608 -0.401,0.973 0.648,1.263 1.242,1.615 3.174,1.885 5.486,4.691 7.933,7.4 C 26.724,3.434 23.169,2.093 19.598,0.784 18.773,0.482 17.95,0.157 17.061,0.114 16.396,0.083 15.63,0.075 15.327,0.761 14.984,1.533 15.719,1.93 16.22,2.295 20.017,5.07 22.913,8.575 24.884,12.851 21.095,8.408 16.254,5.291 11.47,2.114 10.622,1.552 9.478,0.501 8.579,1.607 7.715,2.672 8.935,3.603 9.582,4.432 11.647,7.077 13.679,9.741 15.031,12.485 11.647,7.299 6.882,3.193 1.232,0.059 0.839,-0.16 0.424,-0.264 0,0"
             style="fill:#ece9d8;fill-opacity:1;fill-rule:nonzero;stroke:none"
             id="path26" /></g><g
           id="g28"
           transform="translate(258.2729,371.001)"><path
             d="m 0,0 c 3.972,4.209 7.967,8.396 11.893,12.646 0.716,0.776 1.267,1.674 2.695,2.358 C 13.083,8.91 9.507,4.484 6.443,-0.312 15.514,6.324 25.747,11.289 33.819,19.567 33.822,15.782 31.281,11.724 23.105,1.558 c 8.167,4.843 16.916,8.845 23.7,17.037 -1.287,-4.063 -2.808,-7.112 -5.265,-9.74 -2.357,-2.519 -4.831,-4.902 -7.498,-7.149 5.349,1.937 10.36,4.187 14.897,7.778 3.95,3.128 8.328,5.81 12.539,8.655 6.041,4.08 10.883,9.161 13.839,15.873 2.33,5.291 5.401,10.294 6.435,16.104 1.478,0.299 1.705,-0.968 2.171,-1.823 0.915,-1.676 1.924,-3.283 3.09,-4.793 0.399,-0.83 1.031,-1.316 1.974,-1.35 1.438,-0.453 2.494,-1.735 4.078,-1.875 2.286,-2.307 5.109,-3.458 8.268,-3.995 1.238,-0.21 2.588,-0.299 3.525,-1.364 -1.014,-4.888 0.072,-9.791 -0.108,-14.678 -0.262,-7.109 -1.815,-14.185 -7.871,-18.355 -6.778,-4.667 -11.078,-12.112 -18.67,-15.696 -3.026,-1.429 -5.969,-3.034 -9.437,-4.807 1.678,3.563 4.79,5.469 5.814,8.745 0.076,0.188 0.132,0.382 0.17,0.58 -0.349,-0.125 -0.621,-0.378 -0.927,-0.573 -2.955,-2.07 -5.622,-4.608 -8.954,-6.067 -1.99,-0.871 -1.284,-2.525 -1.631,-3.896 -3.006,1.518 -2.914,3.825 -1.623,6.684 -4.224,-1.651 -7.392,-4.948 -11.496,-6.54 -0.394,-0.194 -0.795,-0.374 -1.225,-0.459 -0.757,-0.154 -1.611,-0.337 -2.036,0.499 -0.428,0.842 0.317,1.408 0.796,1.971 0.423,0.497 0.917,0.934 1.406,1.368 4.593,3.314 7.563,7.933 10.378,12.679 -3.003,-3.557 -5.733,-7.35 -9.527,-10.168 -2.088,-1.467 -4.526,-2.394 -6.422,-4.161 -2.452,0.538 -1.078,2.724 -1.899,4.394 -1.705,-1.176 -3.166,-2.653 -4.996,-3.524 -0.892,-0.425 -1.967,-0.974 -2.726,-0.091 -0.875,1.019 0.186,1.845 0.821,2.479 2.942,2.931 5.669,6.001 7.31,9.795 -4.571,-4.281 -8.487,-9.283 -13.729,-12.901 -0.632,0.387 -1.267,0.47 -1.906,0.015 -0.224,-0.256 -0.449,-0.259 -0.678,-0.007 0.398,0.902 1.387,1.503 1.341,2.631 1.97,3.724 4.571,7.129 5.476,11.183 -2.122,-2.734 -4.656,-5.388 -7.401,-7.839 -3.244,0.019 -4.578,-2.882 -6.691,-4.521 -2.297,-1.78 -4.495,-3.612 -7.372,-4.545 4.702,4.043 8.357,8.782 10.782,14.436 0.151,0.494 0.139,1.022 0.316,1.512 -0.439,-0.202 -0.586,-0.707 -0.987,-0.947 -5.732,-5.411 -12.625,-9.341 -18.53,-14.531 -0.608,-0.176 -0.842,0.026 -0.656,0.651 4.308,4.608 7.329,9.997 9.502,15.998 -7.82,-7.508 -15.236,-15.464 -24.764,-20.984 3.936,5.029 7.373,10.352 10.039,16.147 0.158,0.256 0.292,0.554 0.07,0.799 -0.258,0.286 -0.502,10e-4 -0.735,-0.128 -4.699,-5.094 -10.229,-9.185 -15.858,-13.16 -0.682,-0.247 -0.828,0.04 -0.648,0.652 4.395,5.382 9.323,10.406 11.514,17.369 -6.235,-7.838 -14.465,-12.754 -23.451,-16.619 6.509,4.86 10.379,11.745 14.563,18.378 0.195,0.232 0.315,0.514 0.096,0.754 -0.25,0.271 -0.492,0.013 -0.718,-0.123 -8.045,-9.596 -20.194,-19.153 -27.399,-21.283 7.047,5.324 11.214,12.59 14.191,20.658 2.586,2.833 5.744,5.079 8.128,8.132 -1.357,-3.44 -4.275,-5.629 -6.23,-8.636 7.373,3.561 12.371,9.756 17.724,15.793 -0.786,-2.046 -1.573,-4.092 -2.61,-6.79 3.454,2.683 5.771,5.499 8.388,8.108 C -7.28,9.143 -11.038,4.474 -15.14,-0.658 -5.215,3.868 0.842,11.217 4.948,20.481 4.969,16.93 3.132,14.015 1.885,10.88 0.543,7.506 -2.531,5.56 -4.85,2.278 -1.577,3.03 0.49,4.739 2.776,6.835 2.688,4.035 0.679,2.652 0,0.665 -0.204,0.376 -0.463,0.121 -0.549,-0.238 -0.366,-0.159 -0.183,-0.079 0,0"
             style="fill:#d2cfbf;fill-opacity:1;fill-rule:nonzero;stroke:none"
             id="path30" /></g><g
           id="g32"
           transform="translate(376.9395,504.8267)"><path
             d="m 0,0 c 0.005,0.228 0.01,0.456 0.015,0.683 6.386,-0.945 10.478,-4.844 13.439,-10.987 0.89,2.546 1.093,4.755 2.077,6.668 1.115,2.168 2.064,2.305 3.556,0.392 0.821,-1.053 1.596,-2.009 2.992,-2.232 0.291,-0.345 0.612,-0.726 0.62,-1.149 0.089,-4.68 0.361,-9.355 0.379,-14.037 0.002,-0.434 -0.334,-0.796 -0.672,-1.092 -3.02,-0.914 -2.248,-3.935 -3.302,-5.941 -1.839,-0.95 -3.685,0.855 -5.631,-0.096 -0.994,-0.485 -1.968,-0.675 -2.1,-1.964 -1.727,-0.932 -3.569,-1.684 -4.849,-3.316 2.028,2.298 4.678,3.336 7.593,3.303 1.792,-0.021 3.807,-0.379 4.339,-2.729 -1.609,-0.827 -1.313,-2.325 -1.309,-3.72 0.037,-10.138 -1.204,-20.142 -3.281,-30.044 -0.779,-3.718 -2.883,-7.053 -3.33,-10.886 -1.502,-0.096 -2.012,1.187 -2.661,2.091 -2.09,2.911 -4.673,5.488 -6.121,8.844 -1.367,7.387 -0.734,14.748 -0.004,20.939 -1.013,-4.951 -0.855,-11.15 -0.763,-17.346 0.015,-0.956 0.451,-1.965 -0.308,-2.843 -2.364,-0.908 -4.768,-0.142 -7.108,0.012 -3.476,0.23 -6.933,0.528 -10.416,0.261 -1.394,0.352 -1.261,1.582 -1.492,2.602 0.242,1.291 0.148,2.56 -0.296,3.8 -0.926,3.473 -1.42,7.071 -2.921,10.38 -0.542,1.194 -1.163,2.353 -2.223,3.317 4.12,-6.255 5.22,-13.243 5.553,-20.445 -6.983,-5.926 -8.716,-13.654 -7.685,-22.336 0.142,-1.2 0.329,-2.427 -1.074,-3.096 -3.828,8.311 -7.235,16.747 -9.367,25.706 -1.386,5.823 -3.655,11.43 -5.259,17.209 -1.753,6.313 -1.776,12.897 -2.566,19.361 -0.339,2.764 -0.298,5.591 -1.295,8.253 -0.142,3.356 0.494,6.658 0.678,9.989 2.272,3.169 6.025,4.118 9.141,6.028 0.351,0.215 0.927,0.191 1.202,-0.204 0.47,-0.676 0.033,-1.286 -0.423,-1.724 -1.489,-1.434 -3.157,-2.672 -4.701,-4.286 3.111,0.533 5.786,1.79 8.378,3.319 1.267,0.748 2.435,1.952 4.162,1.396 0.22,-0.222 0.439,-0.444 0.66,-0.665 -0.283,-3.542 -4.231,-3.703 -5.298,-6.197 5.784,2.601 12.214,4.751 16.275,10.654 0.46,0.67 1.012,1.702 1.983,1.403 1.197,-0.368 0.066,-1.849 0.877,-2.539 -0.144,-0.663 -1.038,-1.323 -0.007,-1.99 0.952,-2.069 -0.005,-3.755 -0.865,-5.369 2.422,1.503 4.216,3.717 5.11,6.665 0.346,1.139 0.576,2.631 2.029,2.687 1.552,0.061 1.954,-1.383 2.549,-2.607 1.082,-2.224 2.932,-4.17 2.11,-6.957 C -0.554,-7.31 -0.527,-3.616 0,0"
             style="fill:#fdf9e8;fill-opacity:1;fill-rule:nonzero;stroke:none"
             id="path34" /></g><g
           id="g36"
           transform="translate(338.7021,423.0942)"><path
             d="m 0,0 c -4.295,-8.949 -10.931,-15.259 -20.39,-18.64 -2.085,-0.745 -3.688,-2.742 -5.709,-3.783 -2.616,-1.348 -5.229,-2.871 -8.366,-3.117 5.281,4.624 9.914,9.538 10.526,17.063 -4.575,-9.073 -10.582,-16.253 -22.463,-17.304 6.531,4.052 9.902,9.473 11.72,16.184 -5.595,-7.019 -12.402,-11.965 -21.92,-13.326 2.431,2.205 4.932,3.665 6.903,5.768 2.063,2.201 3.643,4.644 4.896,7.341 0.308,0.663 1.015,1.459 0.277,2.086 -0.839,0.714 -1.299,-0.349 -1.858,-0.765 -5.086,-3.785 -10.604,-6.849 -16.332,-9.724 4.736,3.989 6.547,9.677 8.982,15.109 -6.497,-7.744 -13.915,-14.171 -23.508,-17.71 6.379,5.508 11.281,11.903 12.92,20.524 -6.393,-11.985 -18.623,-15.901 -29.446,-21.867 7.977,4.825 12.11,12.061 13.781,20.97 -7.678,-8.301 -13.096,-18.783 -24.008,-23.828 3.486,3.724 6.552,7.766 9.484,11.913 0.426,0.602 1.239,1.105 0.25,1.876 5.568,5.659 8.918,12.407 11.213,20.036 1.143,3.8 1.912,7.617 2.527,11.441 0.849,5.27 2.718,10.103 4.89,14.88 0.251,0.553 0.803,0.969 1.688,1.227 -1.953,-7.066 -3.905,-14.132 -5.857,-21.199 6.652,5.347 11.998,11.68 16.644,18.684 -1.762,-6.74 -4.814,-12.846 -8.852,-19.289 9.066,4.896 16.568,10.617 22.341,18.528 -1.833,-7.232 -5.888,-13.193 -10.48,-18.913 6.941,3.843 12.645,9.028 17.304,15.427 0.895,1.229 1.729,3.679 3.241,2.947 1.154,-0.558 -0.144,-2.908 -0.596,-4.401 -1.557,-5.146 -3.393,-10.172 -6.641,-14.604 5.639,4.81 9.564,11.083 14.52,17.531 -0.811,-7.382 -2.674,-13.566 -6.272,-19.29 6.265,3.767 9.737,10.135 14.746,15.927 -0.183,-3.183 -1.9,-5.238 -2.796,-7.512 -0.948,-2.411 -1.751,-4.941 -3.315,-7.124 -1.506,-2.102 -2.757,-4.386 -3.916,-6.804 8.275,3.936 14.304,10.432 19.831,17.58 -0.966,-4.241 -1.915,-8.431 -3.875,-12.38 3.045,2.157 6.607,3.428 9.033,6.336 1.568,1.878 2.67,1.014 3.604,-0.662 C -3.879,11.313 -1.854,5.683 0,0"
             style="fill:#fbf8e6;fill-opacity:1;fill-rule:nonzero;stroke:none"
             id="path38" /></g><g
           id="g40"
           transform="translate(131.6621,374.9561)"><path
             d="M 0,0 C 6.521,3.831 11.975,8.854 16.493,14.967 15.083,9.891 11.938,5.933 8.842,1.872 15.292,5.237 21.006,9.457 26.024,15.29 25.317,10.036 21.301,4.625 15.851,1.107 c 3.07,-0.335 5.776,0.83 15.24,6.559 -0.179,-2.776 -4.778,-7.678 -10.773,-11.08 5.397,0.875 9.315,2.872 13.195,5.251 3.829,2.348 6.457,6.052 10.293,8.39 C 41.353,4.972 36.556,1.789 32.351,-3.088 40.282,0.503 47.095,4.536 54.402,8.84 53.766,5.644 51.458,4.391 49.813,2.732 48.057,0.963 46.012,-0.521 43.975,-2.229 c 4.862,0.164 7.645,1.476 11.692,5.457 1.487,1.462 2.943,2.956 4.431,4.418 0.38,0.373 0.828,0.933 1.392,0.61 C 62.238,7.828 61.922,7.11 61.607,6.537 60.87,5.195 60.17,3.819 59.296,2.569 58.447,1.356 57.399,0.282 56.601,-1.041 61.656,0.999 65.275,5.03 69.448,8.364 67.583,2.074 62.666,-1.772 58.489,-6.252 c 5.151,1.403 9.644,4.054 15.005,7.049 -2.445,-3.904 -4.918,-6.613 -7.866,-9.219 8.113,0.735 13.973,4.984 19.146,10.619 -2.737,-4.273 -6.066,-7.913 -9.818,-11.171 -0.913,-0.792 -2.658,-1.015 -1.741,-2.887 0.371,-1.689 -1.119,-2.124 -2.007,-2.949 -1.811,-1.684 -3.75,-3.216 -5.718,-4.712 -4.483,-2.715 -8.688,-5.89 -13.435,-8.171 -1.264,-0.009 -2.155,-0.916 -3.242,-1.35 -0.202,0.155 -0.27,0.312 -0.207,0.471 0.064,0.16 0.129,0.24 0.195,0.24 0.611,1.163 2.043,1.827 2.048,3.36 1.191,1.247 2.096,2.737 3.425,4.051 -1.369,-1.122 -2.254,-2.54 -3.597,-3.487 -1.85,1.012 -2.747,-0.81 -4.016,-1.418 -2.255,-1.081 -4.499,-2.222 -6.431,-3.861 -2.476,-1.897 -4.93,-3.845 -8.335,-3.574 -0.946,1.27 0.359,1.712 0.947,2.278 2.35,2.256 4.251,4.871 6.17,7.474 1.374,1.934 2.623,3.949 4.253,6.368 -1.348,-1.751 -2.483,-2.964 -3.544,-4.242 -3.395,-2.068 -6.36,-4.83 -10.12,-6.316 -2.326,0.367 -4.281,-1.481 -6.865,-1.234 1.933,3.416 6.198,4.968 6.383,9.258 2.744,2.783 4.874,5.974 6.369,9.586 1.988,1.037 2.499,3.235 3.787,4.818 0.291,0.247 0.484,0.598 0.82,0.802 -0.254,-0.053 -0.415,-0.223 -0.547,-0.437 -1.49,-1.544 -1.953,-3.891 -3.957,-5.025 -1.281,-3.561 -4.572,-5.562 -6.615,-8.531 -1.79,0.975 -2.288,-0.815 -3.109,-1.591 -5.123,-4.837 -10.94,-8.561 -17.414,-11.357 6.782,7.61 12.454,15.898 17.089,24.918 -7.79,-8.225 -13.517,-18.6 -25.148,-22.687 2.18,2.295 4.481,4.49 6.504,6.913 2.023,2.424 3.769,5.079 5.386,7.927 -5.195,-4.804 -10.31,-9.67 -16.937,-12.588 2.899,4.67 6.02,9.143 7.017,14.678 -3.197,-4.094 -6.266,-8.255 -11.172,-10.57 C -5.131,-15.438 -1.931,-7.964 0,0"
             style="fill:#d2cfbf;fill-opacity:1;fill-rule:nonzero;stroke:none"
             id="path42" /></g><g
           id="g44"
           transform="translate(126.9644,430.0317)"><path
             d="m 0,0 c -0.971,8.024 0.149,15.766 2.12,23.369 3.238,12.496 9.401,23.389 19.18,31.908 9.783,8.523 21.382,13.573 34.018,16.196 13.14,2.728 26.384,3.251 39.789,2.18 6.415,-0.513 12.789,-1.821 19.269,-1.467 1.371,0.074 2.574,-0.429 4.405,-1.01 -3.759,-3.36 -7.239,-6.551 -10.822,-9.624 -1.058,-0.907 -2.515,-0.753 -3.811,-0.437 -8.811,2.15 -17.593,1.44 -26.344,-0.303 C 72.566,59.768 67.37,58.515 62.154,57.359 50.879,54.861 41.381,48.714 32.082,42.333 28.233,39.692 24.396,36.973 20.766,33.964 13.364,27.828 8.644,19.978 5.218,11.198 3.722,7.365 2.652,3.347 0,0"
             style="fill:#dcdbdb;fill-opacity:1;fill-rule:nonzero;stroke:none"
             id="path46" /></g><g
           id="g48"
           transform="translate(379.5156,438.1885)"><path
             d="m 0,0 7.96,-10.509 c 0.437,-2.466 0.934,-4.936 -0.552,-7.255 -0.847,-0.51 -0.346,-2.781 -2.343,-1.794 -0.756,1.185 -0.507,2.543 -0.654,3.834 -0.547,4.826 -2.904,6.995 -7.702,6.998 -4.928,0.003 -9.859,0.14 -14.782,-0.063 -3.499,-0.144 -7.02,-3.009 -7.807,-6.065 -1.145,-4.448 0.235,-8.024 3.762,-10.315 2.92,-1.896 5.647,-0.722 8.025,0.71 2.813,1.692 5.218,1.823 7.906,0.01 1.722,-1.16 3.463,-0.885 5.225,0.23 1.544,0.977 2.801,2.512 4.8,2.689 1.499,-2.492 -1.322,-3.505 -1.821,-5.313 -3.581,-4.065 -8.049,-5.868 -13.469,-5.414 -1.632,0.137 -3.288,-0.002 -4.934,-0.014 -4.624,0.708 -9.469,0.898 -12.504,5.334 -0.871,0.458 -0.236,1.41 -0.659,2.015 0.037,0.198 0.033,0.396 -0.011,0.593 0.75,3.118 -0.493,6.22 -0.056,9.342 0.907,6.489 2.217,12.752 8.618,16.337 0.274,0.561 0.918,0.321 1.317,0.609 C -13.699,3.597 -7.829,1.777 -1.913,1.39 -1.007,1.296 -0.518,0.629 0,0"
             style="fill:#b9aa9b;fill-opacity:1;fill-rule:nonzero;stroke:none"
             id="path50" /></g><g
           id="g52"
           transform="translate(183.7173,347.2627)"><path
             d="m 0,0 c 3.969,3.546 8.563,6.127 13.241,8.582 1.258,-0.45 1.624,-1.516 1.856,-2.676 -0.149,-2.931 -2.713,-3.622 -4.44,-4.784 1.842,0.325 3.239,3.088 5.809,1.42 0.672,-2.167 1.538,-4.297 1.974,-6.511 1.01,-5.129 4.33,-9.335 5.536,-14.365 0.011,-0.439 0.084,-0.874 0.09,-1.313 0.094,-5.8 -0.182,-6.145 -6.026,-6.248 -2.426,-0.042 -4.501,-0.758 -6.361,-2.282 -1.312,-1.075 -2.705,-1.979 -4.443,-0.789 0.66,1.461 -0.159,2.454 -1.043,3.47 -1.57,1.803 -2.434,3.813 -2.027,6.305 C 5.297,-12.261 2.732,-6.106 0,0"
             style="fill:#3b281c;fill-opacity:1;fill-rule:nonzero;stroke:none"
             id="path54" /></g><g
           id="g56"
           transform="translate(286.5488,353.1953)"><path
             d="M 0,0 C 0.045,0.323 -0.032,0.804 0.152,0.948 5.335,5.008 9.605,10.019 14.823,15.27 13.947,8.436 9,5.234 5.351,0.56 c 4.012,0.606 6.124,3.549 8.833,5.472 1.094,-2.124 -0.509,-4.357 0.943,-6.162 1.367,-1.235 1.164,-3.016 1.42,-4.56 0.987,-5.944 3.641,-11.154 6.745,-16.192 0.498,-0.635 1.219,-1.117 1.389,-1.982 -0.036,-0.339 -0.158,-0.644 -0.356,-0.92 -1.694,-1.539 -3.801,-2.536 -5.411,-4.208 -0.969,-1.006 -2.339,-1.347 -3.652,-0.959 -3.699,1.092 -6.554,-0.398 -9.348,-2.593 C 4.66,-32.529 3.433,-34.29 1.375,-32.939 4.5,-25.223 4.746,-17.246 3.154,-9.218 2.526,-6.054 1.732,-2.838 0,0"
             style="fill:#3b281c;fill-opacity:1;fill-rule:nonzero;stroke:none"
             id="path58" /></g><g
           id="g60"
           transform="translate(332.7783,494.9561)"><path
             d="m 0,0 c -0.104,-3.563 0.531,-7.219 -1.309,-10.567 -0.219,-0.865 -0.438,-1.729 -0.658,-2.594 -0.648,-2.475 -2.426,-3.904 -4.602,-4.961 -0.853,-0.28 -1.609,-1.06 -2.622,-0.515 0.967,2.217 -0.313,3.253 -2.015,4.356 -3.536,2.293 -5.795,5.846 -8.419,9.031 -0.628,0.502 -1.2,1.059 -1.726,1.667 -1.707,2.027 -3.643,3.779 -6.154,4.728 -2.263,0.855 -1.918,2.134 -0.529,3.372 3.098,2.759 6.207,5.493 10.894,4.939 2.15,-0.255 4.354,-0.035 6.534,-0.031 C -9.601,9.386 -8.604,9.301 -7.754,8.671 -5.925,6.465 -3.045,5.759 -0.947,3.93 -0.696,3.731 -0.489,3.493 -0.31,3.229 0.146,2.188 0.435,1.128 0,0"
             style="fill:#ece9d8;fill-opacity:1;fill-rule:nonzero;stroke:none"
             id="path62" /></g><g
           id="g64"
           transform="translate(287.9238,320.2559)"><path
             d="m 0,0 c 2.29,-0.261 3.487,1.634 4.964,2.748 2.687,2.029 5.344,3.243 8.734,2.025 1.156,-0.415 2.446,-0.369 3.31,0.708 1.609,2.007 3.824,3.123 6.009,4.301 4.228,-1.368 7.52,0.771 10.615,3.087 1.289,0.965 2.188,2.166 3.87,0.937 1.934,-2.829 4.64,-5.419 3.288,-9.364 -2.233,-6.519 -6.559,-6.787 -13.266,-4.938 -1.731,0.477 -2.428,0.454 -3.363,-0.871 C 20.952,-5.92 16.448,-7.098 11.156,-6.354 7.395,-5.827 3.715,-5.109 0.305,-3.343 -1.584,-2.364 -1.105,-1.224 0,0"
             style="fill:#1a1a1a;fill-opacity:1;fill-rule:nonzero;stroke:none"
             id="path66" /></g><g
           id="g68"
           transform="translate(163.3706,342.0693)"><path
             d="m 0,0 c 2.166,-0.5 3.535,1.262 5.308,1.877 1.094,0.38 1.93,1.394 3.214,1.323 1.212,-5.094 2.281,-10.226 4.28,-15.097 1.15,-2.802 1.908,-5.829 4.723,-7.618 1.063,-0.675 1.055,-1.826 0.984,-2.942 -0.676,-0.424 -1.292,-0.093 -1.842,0.23 -1.478,0.87 -2.622,0.691 -3.674,-0.753 -1.346,-1.847 -3.052,-1.745 -4.464,-0.19 -2.198,2.42 -4.052,1.406 -5.882,-0.333 -1.987,-1.89 -3.537,-4.167 -5.328,-6.232 -2.149,0.67 -1.795,2.472 -1.317,3.809 2.626,7.333 1.699,14.968 2.13,22.485 0.056,0.978 -0.135,2.004 0.944,2.593 C -0.8,-0.365 -0.478,-0.098 0,0"
             style="fill:#3b281c;fill-opacity:1;fill-rule:nonzero;stroke:none"
             id="path70" /></g><g
           id="g72"
           transform="translate(325.4258,334.0615)"><path
             d="m 0,0 c -1.478,0.069 -2.891,0.077 -3.284,-1.846 -0.205,-1.002 -1.04,-1.205 -1.938,-1.466 -1.665,-0.481 -3.372,-0.989 -4.871,-1.828 -1.964,-1.098 -3.282,-0.649 -4.392,1.117 l 0.079,0.097 c 0.244,1.378 -0.49,2.58 -0.713,3.877 -0.83,4.685 -1.526,9.387 -2.232,14.088 -0.188,1.257 -0.643,2.557 0.221,3.764 4.057,2.614 8.113,5.228 12.208,7.867 0.759,-0.761 0.675,-1.936 0.352,-2.402 -1.617,-2.331 -0.389,-4.205 0.661,-6.16 C -3.728,11.149 -1.978,5.549 0,0"
             style="fill:#3b281c;fill-opacity:1;fill-rule:nonzero;stroke:none"
             id="path74" /></g><g
           id="g76"
           transform="translate(200.1836,349.8047)"><path
             d="m 0,0 c -2.457,0.168 -4.27,-2.124 -6.963,-1.831 1.37,2.218 4.873,2.167 5.105,5.228 3.255,2.158 5.506,5.239 7.679,8.385 0.868,1.258 1.684,2.548 2.935,3.479 5.738,3.728 11.328,7.645 15.983,12.802 -1.341,-4.616 -4.183,-8.235 -7.417,-12.074 3.026,0.044 4.673,2.477 7.156,2.571 C 19.97,11.451 12.978,7.387 5.926,3.381 3.949,2.258 1.645,1.704 0,0"
             style="fill:#d2cfbf;fill-opacity:1;fill-rule:nonzero;stroke:none"
             id="path78" /></g><g
           id="g80"
           transform="translate(160.6899,312.334)"><path
             d="m 0,0 c 1.191,4.283 4.458,6.828 7.928,9.053 1.304,0.835 2.419,-0.551 3.318,-1.517 1.516,-1.63 2.73,-2.391 4.251,0.215 1.993,3.416 3.812,0.102 5.692,-0.473 C 22.843,1.986 19.91,-1.851 14.508,-2.214 9.44,-2.555 4.861,-0.532 0,0"
             style="fill:#1b1b1b;fill-opacity:1;fill-rule:nonzero;stroke:none"
             id="path82" /></g><g
           id="g84"
           transform="translate(190.9531,318.2969)"><path
             d="m 0,0 c 1.706,0.176 3.168,0.582 4.514,1.944 1.938,1.964 4.626,2.237 7.313,1.974 3.022,-0.295 4.95,0.415 4.11,4.08 C 15.729,8.9 15.71,9.989 16.74,10.632 21.26,7.049 20.823,3.177 17.661,-1.509 13.517,-7.646 7.485,-5.021 2.336,-6.075 -0.457,-6.646 -1.436,-3.696 0,0"
             style="fill:#1c1b1b;fill-opacity:1;fill-rule:nonzero;stroke:none"
             id="path86" /></g><g
           id="g88"
           transform="translate(332.7783,494.9561)"><path
             d="M 0,0 C -0.634,1.012 -0.735,2.132 -0.665,3.287 0.071,5.486 1.74,6.987 3.293,8.576 5.608,11.283 9.51,11.1 12.138,13.365 10.797,10.551 9.018,8.134 6.423,6.233 12.819,8.445 19.087,10.8 25.099,15.098 23.441,10.182 19.756,7.439 17.128,3.95 12.464,1.521 8.112,-1.715 1.96,-1.889 4.749,0.55 7.142,2.642 9.534,4.733 L 9.297,5.063 C 6.198,3.375 3.099,1.687 0,0"
             style="fill:#e0e1e0;fill-opacity:1;fill-rule:nonzero;stroke:none"
             id="path90" /></g><g
           id="g92"
           transform="translate(399.3457,483.0728)"><path
             d="m 0,0 c 0.393,4.519 -1.604,8.994 -0.163,13.574 0.265,0.843 -0.292,2.115 -1.131,2.917 -0.466,0.613 -0.34,1.103 0.305,1.487 0.564,-0.147 1.088,-0.03 1.584,0.268 1.245,-0.448 2.353,-0.704 3.844,-0.536 3.97,0.448 8.12,1.057 11.834,-1.306 0.99,-0.629 2.247,-1.002 2.526,-2.393 C 18.776,13.5 18.539,13.129 18.079,12.904 14.24,13.199 11.325,11.155 8.43,9.072 7.922,8.504 7.413,7.94 6.966,7.323 5.783,5.753 5.006,4.024 4.453,2.12 3.866,0.099 3.324,-2.115 0.832,-2.803 -0.026,-2.331 0.68,-1.278 0.058,-0.717 0.038,-0.479 0.019,-0.239 0,0"
             style="fill:#ece9d8;fill-opacity:1;fill-rule:nonzero;stroke:none"
             id="path94" /></g><g
           id="g96"
           transform="translate(398.6885,500.8882)"><path
             d="M 0,0 C -0.522,-0.292 -0.634,-0.783 -0.637,-1.325 -0.721,-2.278 -1.173,-2.528 -1.8,-1.768 -2.689,-0.69 -3.459,0.488 -4.396,1.784 -6.721,-0.974 -6.429,-4.51 -8.189,-8.302 c -2.565,6.953 -7.564,10.506 -13.545,12.924 0.794,1.969 0.766,3.973 -0.12,6.256 5.295,-1.471 8.734,-4.563 11.276,-8.815 0.486,-0.813 0.587,-2.264 1.652,-2.238 1.381,0.034 1.008,1.709 1.539,2.591 0.554,0.918 0.767,2.036 1.216,3.026 0.393,0.868 -0.111,2.341 1.014,2.58 1.341,0.285 1.845,-1.267 2.707,-2.02 C -1.68,5.33 -1.374,2.881 0.102,5.431 1.552,5.032 1.298,3.886 1.25,2.827 0.995,1.815 0.797,0.774 0,0"
             style="fill:#e0e1e0;fill-opacity:1;fill-rule:nonzero;stroke:none"
             id="path98" /></g><g
           id="g100"
           transform="translate(300.4517,531.1758)"><path
             d="m 0,0 c 0.004,-3.287 2.835,-5.062 4.105,-7.672 -1.89,-0.357 -3.544,0.687 -5.333,0.89 -0.446,0.01 0.201,1.403 -0.789,0.67 -1.398,-1.035 -2.787,-2.08 -4.06,-3.288 -0.786,-0.746 -1.543,-2.022 -3.003,-1.084 -1.175,2.478 -2.168,5.006 -2.149,7.813 -0.447,1.014 -0.368,2.078 -0.297,3.143 0.005,0.363 0.07,0.715 0.196,1.057 2.946,3.268 6.962,3.995 10.076,1.826 C -1.052,3.128 -0.85,2.902 -0.648,2.676 0.198,1.937 -0.708,0.772 0,0"
             style="fill:#080707;fill-opacity:1;fill-rule:nonzero;stroke:none"
             id="path102" /></g><g
           id="g104"
           transform="translate(306.8682,505.3906)"><path
             d="m 0,0 c -3.434,0.494 -6.262,2.113 -8.6,4.639 1.509,4.695 5.496,6.814 9.387,9.033 0.257,0.167 0.533,0.296 0.824,0.392 C 3.814,13.658 5.126,11.895 6.788,10.665 7.521,6.811 4.43,4.374 3.256,1.227 2.711,-0.234 1.435,-0.511 0,0"
             style="fill:#070606;fill-opacity:1;fill-rule:nonzero;stroke:none"
             id="path106" /></g><g
           id="g108"
           transform="translate(426.4453,531.8774)"><path
             d="M 0,0 C 0.011,0.216 0.021,0.433 0.033,0.649 0.567,2.346 0.326,4.097 0.242,5.803 0.138,7.938 1.041,8.889 3.064,8.719 6.114,8.463 9.132,8.029 11.119,5.257 11.731,1.832 11.12,-1.442 9.895,-4.64 9.082,-5.183 9.978,-6.681 8.619,-6.919 5.911,-4.409 2.104,-3.265 0,0"
             style="fill:#070606;fill-opacity:1;fill-rule:nonzero;stroke:none"
             id="path110" /></g><g
           id="g112"
           transform="translate(427.6494,558.2451)"><path
             d="M 0,0 C 1.331,-1.84 2.236,-3.991 4.013,-5.507 4.392,-5.958 4.4,-6.379 3.913,-6.762 3.21,-6.893 2.587,-6.632 1.96,-6.381 -0.312,-5.854 -2.93,-6.724 -4.832,-4.709 -7.266,1.392 -12.385,5.283 -17.757,10.118 -10.732,9.635 -6.211,6.365 -1.924,2.611 -1.333,1.704 -0.541,0.944 0,0"
             style="fill:#0d0c0c;fill-opacity:1;fill-rule:nonzero;stroke:none"
             id="path114" /></g><g
           id="g116"
           transform="translate(413.2432,516.6694)"><path
             d="M 0,0 C 0.669,0.442 1.337,0.884 2.005,1.326 2.669,1.857 3.408,1.827 4.133,1.538 6.72,0.504 10.579,-5.623 10.575,-8.65 8.409,-10.32 6.134,-11.752 3.305,-11.971 1.414,-8.566 -1.633,-5.907 -3.014,-2.172 -2.362,-0.96 -0.96,-0.787 0,0"
             style="fill:#0e0d0c;fill-opacity:1;fill-rule:nonzero;stroke:none"
             id="path118" /></g><g
           id="g120"
           transform="translate(322.415,503.6255)"><path
             d="m 0,0 c -2.951,-0.035 -5.909,0.045 -8.853,-0.133 -4.209,-0.255 -6.886,-3.034 -9.865,-5.922 3.968,-1.067 6.563,-3.171 8.576,-6.064 -0.658,-0.558 -1.408,-0.337 -2.156,-0.285 -3.452,0.238 -4.309,-0.554 -4.495,-4.11 -0.139,-1.53 -0.816,-1.713 -2.168,-1.084 -4.039,1.879 -4.887,5.369 -2.389,10.275 2.069,2.381 4.135,4.777 6.752,6.578 0.783,0.539 1.066,1.011 0.548,1.834 0.549,0.61 1.294,0.8 2.053,0.965 2.633,0.16 5.268,0.232 7.893,-0.113 C -3.063,1.674 -2.015,1.435 -0.977,1.15 -0.466,0.925 -0.078,0.593 0,0"
             style="fill:#d9d6c6;fill-opacity:1;fill-rule:nonzero;stroke:none"
             id="path122" /></g><g
           id="g124"
           transform="translate(364.4033,501.5625)"><path
             d="m 0,0 c -0.858,0.425 -0.422,1.413 -1.029,2.248 -4.732,-7.398 -12.113,-10.49 -20.044,-12.735 1.934,2.927 5.31,4.3 7.236,7.166 5.394,2.658 9.95,6.436 14.061,11.17 C 1.349,4.814 -0.074,2.444 0,0"
             style="fill:#e0e1e0;fill-opacity:1;fill-rule:nonzero;stroke:none"
             id="path126" /></g><g
           id="g128"
           transform="translate(376.9395,504.8267)"><path
             d="m 0,0 c 0.791,-4.848 0.379,-7.72 -1.864,-12.181 0.047,3.452 -1.273,6.168 -2.732,8.831 -0.409,0.747 -0.808,1.761 -1.836,1.559 -0.906,-0.178 -0.695,-1.219 -0.88,-1.938 -0.947,-3.659 -2.98,-6.416 -6.853,-8.05 0.587,2.358 1.104,4.441 1.622,6.525 1.912,3.788 5.439,6.523 6.853,10.659 1.96,-2.93 2.788,-6.094 2.357,-9.897 C -0.883,-3.533 -1.271,-1.165 0,0"
             style="fill:#e0e1e0;fill-opacity:1;fill-rule:nonzero;stroke:none"
             id="path130" /></g><g
           id="g132"
           transform="translate(318.8398,504.7661)"><path
             d="m 0,0 c -2.833,0.005 -5.665,0.011 -8.498,0.016 -0.668,0.772 -0.49,1.549 -0.089,2.386 0.978,2.033 1.964,4.062 3.039,6.044 0.505,0.932 1.046,1.961 2.444,1.579 0.33,-0.055 0.66,-0.111 0.99,-0.167 C -0.955,9.411 0.505,9.872 1.417,8.684 1.845,8.415 2.271,8.146 2.698,7.877 3.541,4.745 2.353,1.275 0,0"
             style="fill:#0b0a09;fill-opacity:1;fill-rule:nonzero;stroke:none"
             id="path134" /></g><g
           id="g136"
           transform="translate(322.415,503.6255)"><path
             d="m 0,0 c -0.282,0.196 -0.564,0.392 -0.846,0.588 -1.772,0.895 -1.068,2.335 -0.7,3.6 C -1.107,5.694 -0.801,7.3 0.463,8.429 2.842,8.74 5.09,7.785 7.435,7.715 9.567,7.652 7.73,5.881 8.449,5.184 9.147,4.172 8.754,3.085 8.59,2.053 7.908,-2.25 6.314,-2.948 2.485,-0.683 1.803,0.076 0.88,-0.042 0,0"
             style="fill:#1a1817;fill-opacity:1;fill-rule:nonzero;stroke:none"
             id="path138" /></g><g
           id="g140"
           transform="translate(407.2578,492.3188)"><path
             d="m 0,0 c 2.078,2.878 7.119,4.888 9.896,3.944 2.146,-0.793 2.943,-2.634 3.583,-4.601 0.275,-1.64 -1.866,-2.322 -1.578,-3.97 -1.3,-3.668 -3.865,-6.184 -7.249,-7.954 -0.214,0.202 -0.345,0.447 -0.382,0.739 0.167,0.62 0.493,1.288 -0.465,1.582 0.451,1.341 1.708,1.963 2.608,2.892 2.969,3.06 2.983,3.71 -0.103,6.591 C 5.629,-0.144 4.753,-0.074 3.896,0.046 3.605,0.081 3.318,0.133 3.031,0.18 2.004,0.4 1.043,-0.545 0,0"
             style="fill:#dad7c7;fill-opacity:1;fill-rule:nonzero;stroke:none"
             id="path142" /></g><g
           id="g144"
           transform="translate(299.1406,524.6206)"><path
             d="m 0,0 c 1.937,0.265 3.821,0.273 5.416,-1.117 l 0.005,0.003 C 6.012,-2.006 6.937,-3.003 5.461,-3.802 2.318,-5.504 -0.02,-8.048 -2.256,-10.739 -2.67,-11.236 -3.289,-11.552 -4.01,-11.238 -5.432,-9.749 -5.931,-7.81 -6.592,-5.95 -5.498,-2.744 -3.48,-0.562 0,0"
             style="fill:#040404;fill-opacity:1;fill-rule:nonzero;stroke:none"
             id="path146" /></g><g
           id="g148"
           transform="translate(338.7021,423.0942)"><path
             d="M 0,0 C -2.652,5.437 -4.669,11.07 -5.278,17.136 L -7.227,45.464 C -5.863,42.212 -5.452,38.813 -5.273,35.377 -4.876,27.759 -4.656,20.123 -3.31,12.59 -2.493,8.024 -0.979,3.717 1.778,-0.084 3.702,-2.737 5.322,-5.564 6.585,-8.593 3.892,-7.134 3.688,-3.696 1.323,-1.977 1.319,-1.025 0.873,-0.37 0,0"
             style="fill:#e6e6e5;fill-opacity:1;fill-rule:nonzero;stroke:none"
             id="path150" /></g><g
           id="g152"
           transform="translate(427.7051,510.8242)"><path
             d="m 0,0 c -0.729,-0.834 -1.06,-2.144 -2.519,-2.106 -0.462,-0.246 -0.863,-0.104 -1.051,0.332 -1.513,3.498 -3.734,6.479 -6.507,9.073 -0.223,0.209 -0.195,0.598 -0.145,0.923 0.476,1.044 1.6,1.508 2.199,2.444 l -0.064,-0.064 c 0.422,0.529 0.914,0.903 1.649,0.739 C -3.033,8.978 0.407,6.639 1.102,2.067 1.013,1.231 0.426,0.659 0,0"
             style="fill:#060606;fill-opacity:1;fill-rule:nonzero;stroke:none"
             id="path154" /></g><g
           id="g156"
           transform="translate(419.1592,487.6914)"><path
             d="m 0,0 c -1.158,1.844 0.823,2.647 1.307,3.947 0.489,2.447 -2.062,3.384 -2.635,5.304 -4.336,4.045 -11.865,4.698 -17.807,1.575 -2.274,0.211 2.806,2.442 -0.694,2.331 -0.338,0.444 -0.309,0.916 -0.109,1.403 1.378,0.661 2.891,0.579 4.351,0.792 1.637,0.084 3.296,-0.133 4.899,0.385 1.261,0.319 2.59,0.199 3.839,0.599 0.933,0.217 1.871,0.409 2.814,0.587 0.499,0.052 0.952,-0.06 1.345,-0.383 -0.473,-1.724 -2.504,-1.146 -3.501,-2.431 2.096,-1.334 4.404,-2.302 6.253,-3.977 C 4.387,6.213 4.387,3.906 0,0"
             style="fill:#cbcac1;fill-opacity:1;fill-rule:nonzero;stroke:none"
             id="path158" /></g><g
           id="g160"
           transform="translate(163.3706,342.0693)"><path
             d="M 0,0 C -0.308,-0.283 -0.616,-0.565 -0.925,-0.848 -3.098,0.815 -1.102,3.296 -2.107,5.187 0.843,7.848 3.96,10.254 7.75,11.628 8.639,10.896 8.206,10.037 7.983,9.199 5.942,5.594 3.178,2.617 0,0"
             style="fill:#3e2c20;fill-opacity:1;fill-rule:nonzero;stroke:none"
             id="path162" /></g><g
           id="g164"
           transform="translate(294.4204,555.124)"><path
             d="M 0,0 C 1.157,3.338 2.979,6.172 6.099,8.017 7.033,8.569 7.819,10.269 9.004,9.188 9.948,8.327 9.615,6.835 8.682,5.755 7.415,3.376 7.366,0.566 6.007,-1.782 3.966,-2.274 1.935,-2.503 -0.053,-1.553 -0.311,-1.025 -0.219,-0.51 0,0"
             style="fill:#171615;fill-opacity:1;fill-rule:nonzero;stroke:none"
             id="path166" /></g><g
           id="g168"
           transform="translate(431.6279,551.5957)"><path
             d="m 0,0 c 0.011,0.381 0.022,0.762 0.034,1.143 2.493,-2.214 4.435,-4.698 4.076,-8.31 -0.758,-0.489 -1.502,-0.127 -2.17,0.153 -2.966,1.248 -5.357,0.951 -6.752,-2.321 -1.822,1.208 0.196,3.404 -1.221,4.715 -0.426,1.073 -0.852,2.145 -1.277,3.218 -0.06,1.615 1.224,1.463 2.207,1.635 C -3.391,0.533 -1.706,-0.017 0,0"
             style="fill:#0e0d0d;fill-opacity:1;fill-rule:nonzero;stroke:none"
             id="path170" /></g><g
           id="g172"
           transform="translate(295.1309,513.3828)"><path
             d="M 0,0 C 3.074,2.868 5.321,6.663 9.504,8.31 10.156,8.567 9.376,9.497 9.43,10.124 11.316,9.334 12.354,7.725 13.349,6.072 L 13.238,5.944 C 9.369,3.804 5.646,1.496 3.21,-2.38 2.977,-2.75 2.494,-2.809 2.054,-2.601 0.85,-2.144 0.433,-1.065 0,0"
             style="fill:#141311;fill-opacity:1;fill-rule:nonzero;stroke:none"
             id="path174" /></g><g
           id="g176"
           transform="translate(427.0342,542.3833)"><path
             d="M 0,0 C 0.124,4.306 0.127,4.21 4.863,3.463 6.308,3.235 7.492,2.701 8.704,2.045 9.479,1.091 9.917,0.012 9.935,-1.227 10.389,-2.535 10.582,-3.824 8.552,-3.278 6.061,-2.608 3.621,-1.842 0.997,-1.797 0.04,-1.781 -0.585,-1.109 0,0"
             style="fill:#050505;fill-opacity:1;fill-rule:nonzero;stroke:none"
             id="path178" /></g><g
           id="g180"
           transform="translate(403.3027,502.335)"><path
             d="m 0,0 c -1.301,0.427 -2.571,-2.039 -3.888,-0.04 -0.458,0.352 -0.396,0.77 -0.156,1.211 0.1,0.98 0.08,1.941 -0.469,2.813 0.14,2.626 -0.228,5.191 -0.91,7.72 1.955,0.924 2.728,-0.853 3.912,-1.702 C 0.171,8.06 0.705,5.625 1.278,3.239 1.583,1.971 1.569,0.625 0,0"
             style="fill:#0d0c0c;fill-opacity:1;fill-rule:nonzero;stroke:none"
             id="path182" /></g><g
           id="g184"
           transform="translate(423.0752,525.9722)"><path
             d="m 0,0 c 0.655,0.893 1.311,1.787 1.966,2.68 2.855,-2.167 6.229,-3.695 8.288,-6.845 0.418,-0.641 0.965,-1.189 1.11,-1.976 C 11.101,-7.652 10.201,-8.802 9.228,-9.911 8.116,-10.247 7.566,-9.465 7.199,-8.706 5.778,-5.774 3.741,-3.464 0.88,-1.864 0.234,-1.503 -0.366,-0.93 0,0"
             style="fill:#151311;fill-opacity:1;fill-rule:nonzero;stroke:none"
             id="path186" /></g><g
           id="g188"
           transform="translate(283.3809,359.1777)"><path
             d="M 0,0 C -0.066,0.652 -0.106,1.256 0.507,1.756 3.446,4.148 5.808,7.105 8.574,9.802 7.167,5.002 5.979,0.129 1.925,-3.344 1.283,-2.229 0.642,-1.114 0,0"
             style="fill:#3f2d20;fill-opacity:1;fill-rule:nonzero;stroke:none"
             id="path190" /></g><g
           id="g192"
           transform="translate(428.3711,512.7432)"><path
             d="m 0,0 c -0.934,4.246 -4.672,6.29 -7.255,9.24 -0.446,0.484 -0.398,0.997 -0.087,1.524 0.208,0.173 0.417,0.345 0.626,0.517 C -2.47,12.09 -0.81,8.784 1.104,6.147 2.207,4.628 3.429,2.782 1.711,0.789 1.208,0.38 0.842,-0.326 0,0"
             style="fill:#050505;fill-opacity:1;fill-rule:nonzero;stroke:none"
             id="path194" /></g><g
           id="g196"
           transform="translate(320.2568,513.4497)"><path
             d="M 0,0 C -1.18,0.382 -2.507,0.325 -3.531,1.175 -0.57,1.054 1.604,2.828 3.902,4.283 6.363,5.841 8.571,7.827 11.886,9.052 10.112,5.112 7.16,2.867 4.544,0.373 3.222,-0.889 1.399,1.718 0,0"
             style="fill:#dededd;fill-opacity:1;fill-rule:nonzero;stroke:none"
             id="path198" /></g><g
           id="g200"
           transform="translate(294.5718,553.6753)"><path
             d="m 0,0 c 1.964,0.007 3.927,0.015 5.891,0.022 0.225,0.18 0.434,0.171 0.624,-0.054 -0.197,-4.926 -2.785,-9.507 -2.057,-14.58 0.214,-1.489 0.121,-3.021 0.168,-4.533 -3.704,1.259 -6.878,-0.043 -9.907,-2.048 -0.445,0.644 -1.012,1.244 -0.774,2.135 1.899,1.371 4.145,1.768 6.37,2.121 1.681,0.267 2.599,0.856 2.106,2.744 -0.336,1.287 -0.045,2.571 0.31,3.829 0.453,1.681 0.431,3.458 0.998,5.113 0.826,2.408 0.174,3.795 -2.55,3.852 C 0.743,-1.39 0.352,-1.153 -0.002,-0.884 -0.199,-0.588 -0.187,-0.293 0,0"
             style="fill:#41403f;fill-opacity:1;fill-rule:nonzero;stroke:none"
             id="path202" /></g><g
           id="g204"
           transform="translate(434.4395,519.8311)"><path
             d="m 0,0 c -3.01,2.26 -4.84,5.988 -8.854,7.036 -0.657,0.171 -0.475,1.143 -0.544,1.785 0.005,0.543 0.243,0.953 0.708,1.232 4.111,0.14 6.618,-2.258 8.627,-5.448 C 1.57,3.101 0.201,1.552 0.004,0.02 Z"
             style="fill:#070606;fill-opacity:1;fill-rule:nonzero;stroke:none"
             id="path206" /></g><g
           id="g208"
           transform="translate(301.0654,496.3022)"><path
             d="m 0,0 c 2.057,-0.749 0.222,-1.416 -0.148,-1.836 -1.076,-1.223 -1.848,-2.323 -0.863,-4.032 1.145,-1.986 2.465,-3.637 4.882,-4.005 0.017,-0.003 0.094,0.395 0.144,0.606 2.389,-0.786 3.214,-2.921 4.23,-4.893 -0.209,-1.74 1.585,-2.923 1.311,-4.681 -0.098,-0.117 -0.196,-0.233 -0.294,-0.349 -1.289,0.703 -2.141,1.801 -2.812,3.074 -1.299,2.466 -3.308,4.232 -5.533,5.857 C -3.333,-7.155 -3.632,-3.258 0,0"
             style="fill:#c8c5bc;fill-opacity:1;fill-rule:nonzero;stroke:none"
             id="path210" /></g><g
           id="g212"
           transform="translate(427.0342,542.3833)"><path
             d="m 0,0 c 0.114,-0.948 0.724,-1.323 1.595,-1.255 2.247,0.172 4.331,-0.451 6.372,-1.264 1.324,-0.527 2.036,-0.243 1.968,1.292 1.018,-1.219 0.795,-2.622 0.595,-4.022 -2.347,1.039 -4.583,2.365 -7.225,2.618 -2.117,0.203 -3.604,-0.031 -3.343,-2.825 0.134,-1.428 0.517,-3.043 -0.518,-4.401 -0.295,4.816 -0.59,9.633 -0.883,14.45 C 0.248,3.44 -1.301,1.274 0,0"
             style="fill:#3e3d3c;fill-opacity:1;fill-rule:nonzero;stroke:none"
             id="path214" /></g><g
           id="g216"
           transform="translate(288.7915,534.6826)"><path
             d="M 0,0 C 0.166,-0.733 0.333,-1.466 0.499,-2.2 0.471,-2.397 0.436,-2.593 0.393,-2.787 0.18,-3.132 -0.042,-3.122 -0.271,-2.804 -1.213,3.619 -1.136,9.892 2.447,15.648 2.74,15.84 3.007,15.82 3.245,15.557 2.865,13.42 3.177,11.931 5.937,12.456 6.672,12.595 7.532,12.467 8.147,11.997 9.642,10.856 9.441,10.081 7.54,9.827 2.412,10.053 1.742,9.472 0.877,4.443 0.623,2.959 0.99,1.34 0,0"
             style="fill:#4d4b4b;fill-opacity:1;fill-rule:nonzero;stroke:none"
             id="path218" /></g><g
           id="g220"
           transform="translate(324.9004,502.9429)"><path
             d="m 0,0 c 4.443,-1.202 4.434,-1.2 5.299,3.361 0.16,0.847 0.44,1.671 0.665,2.506 L 7.229,5.883 C 8.829,3.885 7.465,2.259 6.563,0.575 6.548,0.361 6.535,0.146 6.525,-0.068 6.128,-1.611 7.735,-3.142 6.555,-4.689 4.62,-2.777 1.424,-2.626 0,0"
             style="fill:#d7d7d5;fill-opacity:1;fill-rule:nonzero;stroke:none"
             id="path222" /></g><g
           id="g224"
           transform="translate(160.6377,356.4941)"><path
             d="m 0,0 c 0.814,3.9 4.527,5.56 6.578,8.504 l -0.01,0.01 C 6.647,5.365 2.519,-0.885 0.144,-1.213 Z"
             style="fill:#47362a;fill-opacity:1;fill-rule:nonzero;stroke:none"
             id="path226" /></g><g
           id="g228"
           transform="translate(429.5811,513.4292)"><path
             d="m 0,0 c 0.914,1.139 0.96,2.317 0.26,3.597 -1.846,3.375 -3.917,6.466 -8.186,6.998 0.474,0.649 0.947,1.299 1.42,1.948 C -2.463,10.14 0.218,6.468 2.722,2.632 2.288,1.182 1.274,0.192 0.104,-0.673 -0.096,-0.551 -0.178,-0.41 -0.143,-0.251 -0.104,-0.084 -0.058,0 0,0"
             style="fill:#41403f;fill-opacity:1;fill-rule:nonzero;stroke:none"
             id="path230" /></g><g
           id="g232"
           transform="translate(417.9375,519.3291)"><path
             d="m 0,0 c 2.492,-3.485 5.454,-6.65 7.249,-10.611 -0.282,-0.573 -0.821,-0.643 -1.368,-0.699 -1.248,3.19 -3.026,6.032 -5.447,8.477 -0.885,0.893 -1.795,1.594 -3.123,1.5 l 2.601,1.926 C 0.091,0.485 0.164,0.361 0.13,0.221 0.095,0.074 0.052,0 0,0"
             style="fill:#41403f;fill-opacity:1;fill-rule:nonzero;stroke:none"
             id="path234" /></g><g
           id="g236"
           transform="translate(411.8838,480.4351)"><path
             d="m 0,0 c 0.009,-0.232 0.018,-0.464 0.026,-0.696 -2.467,-3.419 -6.047,-3.758 -9.709,-3.126 -3.238,0.559 -2.971,3.28 -2.797,5.743 0.755,-0.444 0.607,-1.192 0.633,-1.88 2.194,-2.443 4.792,-2.791 7.706,-1.483 C -2.692,-1.159 -1.696,0.432 0,0"
             style="fill:#c8c6c0;fill-opacity:1;fill-rule:nonzero;stroke:none"
             id="path238" /></g><g
           id="g240"
           transform="translate(297.1846,510.7822)"><path
             d="M 0,0 C 3.21,3.526 6.072,7.508 11.185,8.544 11.133,7.977 10.999,7.413 10.408,7.206 6.271,5.753 3.784,2.378 1.084,-0.752 0.723,-0.501 0.361,-0.251 0,0"
             style="fill:#403f3e;fill-opacity:1;fill-rule:nonzero;stroke:none"
             id="path242" /></g><g
           id="g244"
           transform="translate(315.7363,514.7915)"><path
             d="m 0,0 c -3.112,-2.628 -4.43,-6.224 -5.395,-10.01 l -1.977,-0.067 c -0.498,0.225 -0.997,0.451 -1.496,0.676 0.931,0.179 1.931,0.121 2.417,1.269 1.345,3.182 3.403,6.035 4.371,9.396 C -1.032,1.427 -0.524,0.7 0,0"
             style="fill:#41403f;fill-opacity:1;fill-rule:nonzero;stroke:none"
             id="path246" /></g><g
           id="g248"
           transform="translate(299.1406,524.6206)"><path
             d="m 0,0 c -2.829,-1.283 -4.711,-3.616 -6.592,-5.95 -0.582,0.563 -1.335,1.027 -1.177,2.021 2.615,0.621 3.575,3.422 5.9,4.466 1.138,0.51 2.022,1.7 3.514,1.137 C 1.848,0.309 0.237,0.848 0,0"
             style="fill:#41403f;fill-opacity:1;fill-rule:nonzero;stroke:none"
             id="path250" /></g><g
           id="g252"
           transform="translate(331.4639,503.5176)"><path
             d="M 0,0 C 0.222,1.769 0.443,3.538 0.666,5.308 2.037,5.836 3.408,6.365 5.367,7.121 3.931,4.003 2.365,1.717 0,0"
             style="fill:#faf7e8;fill-opacity:1;fill-rule:nonzero;stroke:none"
             id="path254" /></g><g
           id="g256"
           transform="translate(331.4551,498.2534)"><path
             d="M 0,0 C -0.072,1.54 -1.527,3.071 -0.028,4.621 1.701,3.551 3.033,5.301 4.615,5.278 3.778,3.155 2.509,1.355 0.658,-0.01 0.438,-0.007 0.22,-0.004 0,0"
             style="fill:#fbf7e7;fill-opacity:1;fill-rule:nonzero;stroke:none"
             id="path258" /></g><g
           id="g260"
           transform="translate(433.6475,523.979)"><path
             d="M 0,0 C -1.409,3.605 -4.609,4.815 -7.898,5.905 -7.667,6.57 -7.435,7.234 -7.202,7.898 -4.47,5.567 -0.602,4.692 1.283,1.275 1.861,-0.163 1.391,-0.544 0,0"
             style="fill:#3d3c3b;fill-opacity:1;fill-rule:nonzero;stroke:none"
             id="path262" /></g><g
           id="g264"
           transform="translate(416.4687,504.2314)"><path
             d="m 0,0 c -0.424,-0.029 -0.848,-0.057 -1.271,-0.085 -1.667,3.738 -4.91,6.423 -6.73,10.061 0.599,0.646 1.223,1.177 2.122,0.478 0.623,-2.657 3.561,-3.64 4.423,-6.139 C -1.006,3.011 -0.437,1.749 0.079,0.467 0.16,0.293 0.134,0.138 0,0"
             style="fill:#42403f;fill-opacity:1;fill-rule:nonzero;stroke:none"
             id="path266" /></g><g
           id="g268"
           transform="translate(381.5322,411.3457)"><path
             d="M 0,0 C 0.232,1.93 2.063,3.301 1.881,5.375 1.489,6.561 1.979,7.124 3.166,7.192 4.377,7.267 4.441,8.694 5.391,9.079 5.604,4.859 2.393,2.672 0,0"
             style="fill:#c3b6aa;fill-opacity:1;fill-rule:nonzero;stroke:none"
             id="path270" /></g><g
           id="g272"
           transform="translate(320.9355,523.9292)"><path
             d="m 0,0 c -0.363,-3.411 -2.814,-4.728 -4.067,-6.797 -0.259,-0.427 -0.951,-0.562 -1.446,-0.124 -0.416,0.368 -0.252,0.847 0.085,1.124 C -3.515,-4.223 -2.587,-1.728 0,0"
             style="fill:#dedede;fill-opacity:1;fill-rule:nonzero;stroke:none"
             id="path274" /></g><g
           id="g276"
           transform="translate(182.3394,350.5479)"><path
             d="M 0,0 C 0.253,3.117 3.252,3.529 4.956,5.232 3.741,2.958 3.133,0.187 0.172,-0.563 0.19,-0.353 0.133,-0.165 0,0"
             style="fill:#433225;fill-opacity:1;fill-rule:nonzero;stroke:none"
             id="path278" /></g><g
           id="g280"
           transform="translate(401.293,512.0332)"><path
             d="M 0,0 C -1.598,-0.114 -1.648,2.404 -3.413,2.005 -3.671,3.421 -2.58,2.711 -2.163,2.69 0.072,2.578 2.303,2.355 4.535,2.17 4.868,2.36 5.169,2.32 5.44,2.049 5.491,1.195 4.88,0.952 4.235,0.738 3.499,0.567 2.732,0.602 1.994,0.439 1.312,0.377 0.779,-0.386 0,0"
             style="fill:#4d4c4b;fill-opacity:1;fill-rule:nonzero;stroke:none"
             id="path282" /></g><g
           id="g284"
           transform="translate(320.8887,474.5586)"><path
             d="m 0,0 c -4,-1.132 -7.681,-0.945 -10.562,2.553 l 0.031,0.039 c 2.29,0.958 3.934,-1.706 6.164,-1.089 1.406,-0.102 2.865,0.192 4.18,-0.569 C 0.147,0.678 0.21,0.366 0,0"
             style="fill:#c8c5bc;fill-opacity:1;fill-rule:nonzero;stroke:none"
             id="path286" /></g><g
           id="g288"
           transform="translate(322.8779,512.0542)"><path
             d="m 0,0 c -0.32,-2.632 -3.065,-4.861 -1.309,-7.84 -0.91,0.184 -1.82,0.368 -2.729,0.552 1.799,2.317 2.054,5.164 2.698,7.877 C -0.733,0.756 -0.304,0.521 0,0"
             style="fill:#474644;fill-opacity:1;fill-rule:nonzero;stroke:none"
             id="path290" /></g><g
           id="g292"
           transform="translate(431.6279,551.5957)"><path
             d="m 0,0 c -1.196,-1.153 -2.677,-0.387 -4.014,-0.586 -1.128,-0.167 -2.416,0.345 -3.296,-0.816 -0.692,0.525 -0.627,1.31 -0.703,2.047 2.236,0.679 4.481,0.538 6.729,0.074 C -0.856,0.479 -0.429,0.24 0,0"
             style="fill:#424140;fill-opacity:1;fill-rule:nonzero;stroke:none"
             id="path294" /></g><g
           id="g296"
           transform="translate(133.0479,383.5234)"><path
             d="M 0,0 C 0.827,2.04 1.784,3.994 3.616,5.393 2.279,2.996 2.387,-0.091 -0.02,-1.951 -0.013,-1.301 -0.006,-0.65 0,0"
             style="fill:#d5d3c3;fill-opacity:1;fill-rule:nonzero;stroke:none"
             id="path298" /></g><g
           id="g300"
           transform="translate(326.1621,477.1641)"><path
             d="M 0,0 C 1.795,1.297 3.314,2.871 4.649,4.631 4.763,1.78 3.012,0.341 0.654,-0.638 0.353,-0.511 0.134,-0.298 0,0"
             style="fill:#d6d6d5;fill-opacity:1;fill-rule:nonzero;stroke:none"
             id="path302" /></g><g
           id="g304"
           transform="translate(301.0869,553.6436)"><path
             d="M 0,0 C -0.208,0.021 -0.416,0.039 -0.624,0.053 -0.121,2.586 0.335,5.136 2.015,7.235 1.343,4.823 0.671,2.412 0,0"
             style="fill:#1b1a19;fill-opacity:1;fill-rule:nonzero;stroke:none"
             id="path306" /></g><g
           id="g308"
           transform="translate(326.1621,477.1641)"><path
             d="m 0,0 c 0.218,-0.212 0.437,-0.425 0.655,-0.638 -1.857,-1.015 -3.737,-1.958 -5.928,-1.967 0.005,0.202 0.008,0.403 0.008,0.605 0.065,0.435 0.309,0.747 0.665,0.984 0.623,0.315 1.281,0.436 1.975,0.339 z"
             style="fill:#cfcecb;fill-opacity:1;fill-rule:nonzero;stroke:none"
             id="path310" /></g><g
           id="g312"
           transform="translate(406.6592,513.959)"><path
             d="M 0,0 C -0.276,0.082 -0.554,0.163 -0.831,0.245 1.641,1.066 4.112,1.888 6.584,2.71 6.19,1.393 4.772,1.444 3.931,0.726 3.257,0.486 2.583,0.247 1.909,0.007 1.275,-0.5 0.639,-0.493 0,0"
             style="fill:#858585;fill-opacity:1;fill-rule:nonzero;stroke:none"
             id="path314" /></g><g
           id="g316"
           transform="translate(433.6475,523.979)"><path
             d="M 0,0 C 0.855,-0.005 1.281,0.423 1.284,1.275 1.753,1.937 2.223,2.598 2.692,3.259 2.473,0.69 2.196,-1.863 0.796,-4.128 0.333,-2.79 1.879,-1.065 0,0"
             style="fill:#151311;fill-opacity:1;fill-rule:nonzero;stroke:none"
             id="path318" /></g><g
           id="g320"
           transform="translate(349.9668,413.2661)"><path
             d="M 0,0 C 0.219,-0.672 0.438,-1.343 0.658,-2.015 -1.19,-2.67 -1.804,-1.136 -2.707,-0.115 -1.876,1.582 -0.854,-1.165 0,0"
             style="fill:#fdf9e8;fill-opacity:1;fill-rule:nonzero;stroke:none"
             id="path322" /></g><g
           id="g324"
           transform="translate(291.8911,550.3311)"><path
             d="M 0,0 -0.326,-0.002 -0.652,0 C -0.29,2.061 1.599,3.109 2.529,4.793 2.58,4.31 2.629,3.827 2.68,3.344 2.671,3.103 2.662,2.862 2.652,2.621 2.212,1.298 1.343,0.409 0,0"
             style="fill:#504e4d;fill-opacity:1;fill-rule:nonzero;stroke:none"
             id="path326" /></g><g
           id="g328"
           transform="translate(430.3437,552.3145)"><path
             d="M 0,0 C -2.243,-0.025 -4.485,-0.049 -6.729,-0.074 -6.994,0.358 -7.261,0.79 -7.526,1.222 -5.158,-0.052 -2.332,1.495 0,0"
             style="fill:#0e0d0d;fill-opacity:1;fill-rule:nonzero;stroke:none"
             id="path330" /></g><g
           id="g332"
           transform="translate(279.4287,365.1133)"><path
             d="M 0,0 C 0.008,1.6 1.379,2.228 2.208,3.272 2.426,1.647 1.645,0.5 0.671,-0.565 Z"
             style="fill:#55473b;fill-opacity:1;fill-rule:nonzero;stroke:none"
             id="path334" /></g><g
           id="g336"
           transform="translate(179.1641,407.9199)"><path
             d="m 0,0 c -0.931,-1.437 -2.137,-2.578 -3.89,-3.203 1.075,1.29 2.149,2.58 3.223,3.87 z"
             style="fill:#f8f6ef;fill-opacity:1;fill-rule:nonzero;stroke:none"
             id="path338" /></g><g
           id="g340"
           transform="translate(237.8491,350.5566)"><path
             d="M 0,0 C 0.216,-0.217 0.432,-0.435 0.648,-0.651 -0.192,-1.304 -1.031,-1.956 -1.871,-2.609 -1.795,-1.25 -1.004,-0.539 0,0"
             style="fill:#e1dfd4;fill-opacity:1;fill-rule:nonzero;stroke:none"
             id="path342" /></g><g
           id="g344"
           transform="translate(332.1016,361.1328)"><path
             d="M 0,0 C 0.686,0.783 1.371,1.566 2.419,2.764 2.411,0.959 1.523,0.519 0.757,-0.008 0.505,-0.005 0.253,-0.003 0,0"
             style="fill:#e7e4db;fill-opacity:1;fill-rule:nonzero;stroke:none"
             id="path346" /></g><g
           id="g348"
           transform="translate(300.4517,531.1758)"><path
             d="M 0,0 C -0.683,0.779 -0.743,1.708 -0.648,2.676 0.022,2.382 0.693,2.089 1.444,1.76 0.911,1.183 -0.044,0.971 0,0"
             style="fill:#d7d6d6;fill-opacity:1;fill-rule:nonzero;stroke:none"
             id="path350" /></g><g
           id="g352"
           transform="translate(427.6494,558.2451)"><path
             d="M 0,0 C -1.006,0.602 -1.879,1.301 -1.924,2.611 -0.613,2.234 -0.047,1.309 0,0"
             style="fill:#201e1c;fill-opacity:1;fill-rule:nonzero;stroke:none"
             id="path354" /></g><g
           id="g356"
           transform="translate(239.8525,370.3164)"><path
             d="M 0,0 C 0.285,0.713 0.716,1.293 1.636,1.698 1.906,0.587 1.249,-0.017 0.622,-0.632 0.415,-0.421 0.208,-0.211 0,0"
             style="fill:#f0efea;fill-opacity:1;fill-rule:nonzero;stroke:none"
             id="path358" /></g><g
           id="g360"
           transform="translate(421.0293,523.5073)"><path
             d="M 0,0 C 0.028,-0.508 0.058,-1.017 0.087,-1.524 -0.413,-1.71 -0.912,-1.896 -1.411,-2.082 -2.035,-0.646 -0.63,-0.586 0,0"
             style="fill:#242221;fill-opacity:1;fill-rule:nonzero;stroke:none"
             id="path362" /></g><g
           id="g364"
           transform="translate(254.355,363.0654)"><path
             d="M 0,0 C 0.291,0.706 0.724,1.282 1.636,1.687 1.909,0.586 1.251,-0.03 0.664,-0.672 0.443,-0.448 0.222,-0.224 0,0"
             style="fill:#f1efea;fill-opacity:1;fill-rule:nonzero;stroke:none"
             id="path366" /></g><g
           id="g368"
           transform="translate(288.5205,531.8784)"><path
             d="M 0,0 C 0.222,0.005 0.443,0.011 0.665,0.017 0.677,-1.113 0.689,-2.244 0.703,-3.374 -0.246,-2.398 -0.221,-1.219 0,0"
             style="fill:#41403f;fill-opacity:1;fill-rule:nonzero;stroke:none"
             id="path370" /></g><g
           id="g372"
           transform="translate(260.2432,351.2334)"><path
             d="M 0,0 C 0.219,-0.218 0.437,-0.435 0.656,-0.651 0.278,-1.245 -0.179,-2.287 -0.9,-1.576 -1.624,-0.864 -0.575,-0.396 0,0"
             style="fill:#e1dfd4;fill-opacity:1;fill-rule:nonzero;stroke:none"
             id="path374" /></g><g
           id="g376"
           transform="translate(429.5811,513.4292)"><path
             d="m 0,0 c 0.034,-0.224 0.068,-0.449 0.104,-0.673 -0.52,-0.788 -0.889,-1.73 -1.98,-1.932 0.222,0.64 0.444,1.279 0.666,1.919 C -0.807,-0.458 -0.403,-0.229 0,0"
             style="fill:#242221;fill-opacity:1;fill-rule:nonzero;stroke:none"
             id="path378" /></g><g
           id="g380"
           transform="translate(417.9375,519.3291)"><path
             d="M 0,0 C -0.026,0.198 -0.056,0.396 -0.088,0.593 0.408,1.25 0.901,1.91 1.744,2.16 1.638,1.057 0.776,0.562 0,0"
             style="fill:#242221;fill-opacity:1;fill-rule:nonzero;stroke:none"
             id="path382" /></g><g
           id="g384"
           transform="translate(283.9653,353.2031)"><path
             d="m 0,0 c 0.226,0.002 0.452,0.005 0.677,0.007 -0.526,-0.654 -1.141,-1.145 -2.045,-1.039 -0.028,0.003 -0.08,0.448 -0.02,0.476 C -0.939,-0.341 -0.466,-0.179 0,0"
             style="fill:#ebe9e2;fill-opacity:1;fill-rule:nonzero;stroke:none"
             id="path386" /></g><g
           id="g388"
           transform="translate(180.4629,346.624)"><path
             d="M 0,0 C 0.004,-0.236 0.008,-0.474 0.012,-0.71 -0.248,-1.332 -0.684,-1.72 -1.57,-1.911 -1.388,-0.809 -0.702,-0.397 0,0"
             style="fill:#e4e2d8;fill-opacity:1;fill-rule:nonzero;stroke:none"
             id="path390" /></g><g
           id="g392"
           transform="translate(208.9399,365.0654)"><path
             d="m 0,0 c -2.084,-4.28 -4.982,-7.952 -8.377,-11.261 -0.667,-0.65 -1.269,-1.222 -2.238,-0.602 -0.456,0.881 -0.911,1.761 -1.367,2.642 2.64,2.417 5.279,4.833 7.92,7.25 C -2.755,-1.218 -1.674,0.003 0,0"
             style="fill:#fdfdfc;fill-opacity:1;fill-rule:nonzero;stroke:none"
             id="path394" /></g><g
           id="g396"
           transform="translate(258.2729,371.001)"><path
             d="M 0,0 C -0.421,-0.872 -1.042,-1.512 -2.521,-2.085 -1.75,-0.598 -0.982,0.123 0,0.665 0,0.443 0,0.222 0,0"
             style="fill:#e0decd;fill-opacity:1;fill-rule:nonzero;stroke:none"
             id="path398" /></g><g
           id="g400"
           transform="translate(238.4312,383.5254)"><path
             d="M 0,0 C -0.347,-1.529 -0.508,-2.438 -1.629,-2.888 -1.742,-1.747 -1.208,-1.039 0,0"
             style="fill:#dbd8c7;fill-opacity:1;fill-rule:nonzero;stroke:none"
             id="path402" /></g><g
           id="g404"
           transform="translate(308.2959,351.8643)"><path
             d="m 0,0 c 0.941,-6.113 1.883,-12.227 2.825,-18.341 0.151,-1.152 0.856,-2.689 -1.472,-2.121 -4.732,6.458 -7.453,13.655 -7.973,21.663 0.771,3.13 4.285,2.802 5.991,4.753 C 0.327,4.896 0.294,3.811 -0.542,2.704 -0.586,1.186 -2.526,1.065 -2.786,-0.327 -1.75,-1.03 -0.954,0.188 0,0"
             style="fill:#fbfbfb;fill-opacity:1;fill-rule:nonzero;stroke:none"
             id="path406" /></g><g
           id="g408"
           transform="translate(307.7539,354.5693)"><path
             d="m 0,0 c -0.029,1.083 -0.058,2.166 -0.087,3.249 4.33,3.296 7.464,7.722 10.777,12.102 0.847,-1.124 0.544,-1.824 0.192,-2.506 C 8.413,8.057 5.161,3.864 1.188,0.236 0.933,0.003 0.402,0.071 0,0"
             style="fill:#3e2d20;fill-opacity:1;fill-rule:nonzero;stroke:none"
             id="path410" /></g><g
           id="g412"
           transform="translate(328.541,367.8594)"><path
             d="M 0,0 C -1.277,-4.142 -2.902,-8.072 -6.731,-11.238 -7.834,-5.072 -2.304,-3.518 0,0"
             style="fill:#f7f6f5;fill-opacity:1;fill-rule:nonzero;stroke:none"
             id="path414" /></g><g
           id="g416"
           transform="translate(307.1162,362.5205)"><path
             d="m 0,0 c -0.765,-2.758 -2.766,-4.516 -4.976,-6.475 -1.593,5.113 2.97,6.686 4.82,9.659 C 0.98,2.176 0.581,1.092 0,0"
             style="fill:#f5f4f3;fill-opacity:1;fill-rule:nonzero;stroke:none"
             id="path418" /></g><g
           id="g420"
           transform="translate(307.1162,362.5205)"><path
             d="M 0,0 C -0.052,1.062 -0.104,2.122 -0.156,3.184 1.719,5.566 3.594,7.95 5.47,10.334 4.968,6.151 3.287,2.639 0,0"
             style="fill:#423124;fill-opacity:1;fill-rule:nonzero;stroke:none"
             id="path422" /></g><g
           id="g424"
           transform="translate(379.5156,438.1885)"><path
             d="M 0,0 C -0.888,0.119 -1.586,0.499 -1.913,1.39 -3.131,9.572 -2.985,17.621 0.354,25.373 -1.172,16.921 -1.071,8.469 0,0"
             style="fill:#dcd2c1;fill-opacity:1;fill-rule:nonzero;stroke:none"
             id="path426" /></g><g
           id="g428"
           transform="translate(359.835,440.1475)"><path
             d="m 0,0 c -0.439,-0.203 -0.878,-0.406 -1.317,-0.608 -1.495,6.097 -1.558,12.599 -5.1,18.119 -0.353,0.55 -0.812,1.037 -1.117,1.609 -0.309,0.577 -1.838,0.541 -1.023,1.587 0.679,0.872 1.593,0.388 2.287,-0.26 1.907,-1.776 2.953,-4.051 3.608,-6.509 C -1.96,11.306 -1.359,8.646 -0.716,5.999 -1.455,4.906 -0.397,3.82 -0.704,2.729 -0.617,1.781 -0.972,0.719 0,0"
             style="fill:#dad0bf;fill-opacity:1;fill-rule:nonzero;stroke:none"
             id="path430" /></g><g
           id="g432"
           transform="translate(342.0068,475.4893)"><path
             d="m 0,0 c 3.332,0.048 5.996,-1.917 8.302,-4.54 0.393,-0.448 1.107,-0.975 0.352,-1.598 -0.615,-0.509 -1.208,-0.07 -1.708,0.406 -0.865,0.823 -1.636,1.811 -2.637,2.411 -2.372,1.421 -4.845,2.699 -7.505,0.493 -0.484,-0.4 -1.092,-0.973 -1.635,-0.179 -0.48,0.701 0.193,1.163 0.617,1.635 C -3.181,-0.219 -1.858,0.128 0,0"
             style="fill:#363635;fill-opacity:1;fill-rule:nonzero;stroke:none"
             id="path434" /></g><g
           id="g436"
           transform="translate(359.1309,442.8765)"><path
             d="M 0,0 C -0.956,1.087 -0.957,2.177 -0.011,3.27 -0.102,2.18 1.386,1.095 0,0"
             style="fill:#d5caba;fill-opacity:1;fill-rule:nonzero;stroke:none"
             id="path438" /></g><g
           id="g440"
           transform="translate(171.354,351.2686)"><path
             d="M 0,0 -0.233,2.429 C 0.525,5.121 2.981,6.323 4.825,8.098 3.63,5.144 1.963,2.484 0,0"
             style="fill:#f5f3f1;fill-opacity:1;fill-rule:nonzero;stroke:none"
             id="path442" /></g><g
           id="g444"
           transform="translate(167.2153,364.998)"><path
             d="M 0,0 C 1.038,2.026 2.392,3.818 4.027,5.4 4.213,5.244 4.28,5.085 4.226,4.92 4.171,4.754 4.114,4.67 4.054,4.67 3.38,3.349 2.66,2.048 2.047,0.698 1.577,-0.337 0.875,-0.358 -0.009,0.01 Z"
             style="fill:#f6f5f1;fill-opacity:1;fill-rule:nonzero;stroke:none"
             id="path446" /></g><g
           id="g448"
           transform="translate(171.269,369.668)"><path
             d="M 0,0 C -0.009,0.243 -0.018,0.486 -0.027,0.729 0.161,1.192 0.333,1.663 0.557,2.107 0.585,2.164 1.027,2.102 1.03,2.07 1.116,1.175 0.627,0.551 0,0"
             style="fill:#e8e5dc;fill-opacity:1;fill-rule:nonzero;stroke:none"
             id="path450" /></g><g
           id="g452"
           transform="translate(189.5303,358.0195)"><path
             d="m 0,0 c -0.299,-0.209 -0.609,-0.572 -0.974,-0.64 -0.401,-0.073 -0.471,0.352 -0.236,0.602 0.279,0.299 0.665,0.497 1.005,0.739 C -0.149,0.511 -0.094,0.321 0,0"
             style="fill:#e3e0d6;fill-opacity:1;fill-rule:nonzero;stroke:none"
             id="path454" /></g><g
           id="g456"
           transform="translate(384.6982,418.5376)"><path
             d="M 0,0 C -0.428,-0.606 -0.856,-1.211 -1.285,-1.817 -2.654,-2.89 -4.079,-3.9 -5.383,-5.049 c -2.382,-2.099 -4.748,-1.867 -7.131,-0.095 -1.924,1.43 -3.569,1.35 -5.602,-0.124 -4.418,-3.201 -7.576,-2.881 -11.537,0.345 -3.571,2.908 -2.693,6.727 -2.159,10.312 0.413,2.775 4.934,6.299 7.629,6.337 6.239,0.089 12.481,0.09 18.72,-0.001 C -2.906,11.688 0.012,7.722 0.166,4.256 0.229,2.842 0.062,1.419 0,0"
             style="fill:#3b281c;fill-opacity:1;fill-rule:nonzero;stroke:none"
             id="path458" /></g><g
           id="g460"
           transform="translate(309.6484,331.4023)"><path
             d="M 0,0 C 1.568,-0.04 1.174,1.281 1.473,2.121 1.905,0.978 2.727,-0.177 1.371,-1.267 0.914,-0.845 0.457,-0.422 0,0"
             style="fill:#b3a9a4;fill-opacity:1;fill-rule:nonzero;stroke:none"
             id="path462" /></g><g
           id="g464"
           transform="translate(323.5371,476.4873)"><path
             d="m 0,0 c -0.471,-0.773 -1.247,-0.631 -1.968,-0.656 -1.677,-0.875 -3.601,0.248 -5.275,-0.655 -2.391,-0.58 -3.887,1.529 -5.937,1.975 0.211,1.739 -2.774,2.643 -1.237,4.73 0.148,0.014 0.297,0.028 0.445,0.045 1.329,-0.001 2.745,-0.263 3.561,1.221 0.903,1.246 1.032,2.581 0.622,4.053 -0.28,1.007 -0.948,2.041 -0.146,3.116 C -6.67,9.788 -3.374,5.812 0.931,2.75 2.576,1.579 -0.012,1.052 0,0"
             style="fill:#d9d6c6;fill-opacity:1;fill-rule:nonzero;stroke:none"
             id="path466" /></g><g
           id="g468"
           transform="translate(313.6025,490.3164)"><path
             d="m 0,0 c 0.707,-2.57 2.669,-5.143 -0.013,-7.707 -1.314,-1.42 -2.84,-1.522 -4.508,-0.722 l 0.039,-0.006 c -1.347,1.718 -2.693,3.436 -4.04,5.154 -1.112,2.681 0.161,4.927 3.06,5.065 1.365,0.065 2.755,-0.38 4.133,-0.594 C -0.886,0.793 -0.442,0.396 0,0"
             style="fill:#3e3e3e;fill-opacity:1;fill-rule:nonzero;stroke:none"
             id="path470" /></g><g
           id="g472"
           transform="translate(407.9375,478.4629)"><path
             d="m 0,0 c -4.614,-1.912 -6.366,-1.465 -7.9,2.012 1.853,1.224 2.7,3.169 3.089,5.158 0.421,2.145 1.437,3.819 2.821,5.378 0.398,-0.361 0.539,-0.827 0.554,-1.344 C -1.463,10.327 -1.812,9.522 -2.02,8.684 -2.951,4.927 -2.594,4.071 0.706,2.107 0.352,-0.389 -1.66,1.234 -2.603,0.657 -1.856,0.516 -0.755,0.952 0,0"
             style="fill:#d6d3c3;fill-opacity:1;fill-rule:nonzero;stroke:none"
             id="path474" /></g><g
           id="g476"
           transform="translate(417.8311,496.9424)"><path
             d="M 0,0 C 0.962,-0.882 2.022,-1.68 2.855,-2.67 3.545,-3.49 4.242,-4.561 2.635,-5.304 1.531,-3.763 0.427,-2.221 -0.678,-0.68 -0.452,-0.453 -0.226,-0.227 0,0"
             style="fill:#e4e2d6;fill-opacity:1;fill-rule:nonzero;stroke:none"
             id="path478" /></g><g
           id="g480"
           transform="translate(405.9365,489.7417)"><path
             d="M 0,0 C 0.004,0.423 0.008,0.846 0.011,1.269 0.448,1.705 0.885,2.141 1.321,2.577 2.433,2.663 3.216,4.546 4.593,3.174 3.424,1.592 1.958,0.44 0,0"
             style="fill:#d5d2c1;fill-opacity:1;fill-rule:nonzero;stroke:none"
             id="path482" /></g><g
           id="g484"
           transform="translate(399.2588,503.5059)"><path
             d="M 0,0 C 0.052,-0.404 0.104,-0.808 0.155,-1.211 0.128,-1.693 0.1,-2.175 0.071,-2.657 -0.167,-3.043 -0.376,-2.964 -0.57,-2.618 -0.473,-1.725 -0.841,-0.73 0,0"
             style="fill:#fdf9e8;fill-opacity:1;fill-rule:nonzero;stroke:none"
             id="path486" /></g><g
           id="g488"
           transform="translate(405.9365,489.7417)"><path
             d="M 0,0 C 1.275,1.428 2.676,2.675 4.593,3.174 L 4.576,3.191 C 5.551,2.396 6.973,3.493 7.879,2.41 12.051,-0.345 12.186,-1.389 8.713,-4.952 7.661,-6.03 6.483,-6.985 5.363,-7.998 4.805,-9.145 3.965,-9.719 2.651,-9.325 -1.013,-8.914 -1.993,-7.792 -1.396,-4.311 -1.143,-2.837 -0.478,-1.435 0,0"
             style="fill:#3c3c3c;fill-opacity:1;fill-rule:nonzero;stroke:none"
             id="path490" /></g><g
           id="g492"
           transform="translate(408.5879,480.417)"><path
             d="M 0,0 C 0.903,0.442 1.808,0.885 2.712,1.327 3.908,1.338 3.575,0.666 3.296,0.019 2.011,-0.699 0.945,-1.857 -0.65,-1.954 c -1.427,0.019 -2.858,-0.004 -4.282,0.078 -0.668,0.039 -1.418,0.368 -1.306,1.159 0.138,0.981 0.935,0.606 1.544,0.455 C -3.102,-0.657 -1.509,-1.101 0,0"
             style="fill:#dfddd0;fill-opacity:1;fill-rule:nonzero;stroke:none"
             id="path494" /></g><g
           id="g496"
           transform="translate(413.8154,492.1519)"><path
             d="M 0,0 C -1.091,0.304 -2.37,-0.191 -3.302,0.781 -2.171,0.649 -0.838,1.373 0,0"
             style="fill:#d5d2c1;fill-opacity:1;fill-rule:nonzero;stroke:none"
             id="path498" /></g><g
           id="g500"
           transform="translate(406.6592,513.959)"><path
             d="M 0,0 C 0.637,0.002 1.272,0.005 1.909,0.008 4.917,-2.728 7.954,-5.442 8.538,-9.813 7.875,-10.448 7.032,-10.495 6.187,-10.528 3.924,-11.23 2.418,-10.583 1.771,-8.178 1.28,-6.355 0.012,-4.99 -1.127,-3.542 -1.785,-2.704 -3.053,-1.743 -1.379,-0.63 -0.919,-0.42 -0.46,-0.21 0,0"
             style="fill:#050505;fill-opacity:1;fill-rule:nonzero;stroke:none"
             id="path502" /></g><g
           id="g504"
           transform="translate(405.2803,513.3291)"><path
             d="m 0,0 c -0.85,-1.379 0.438,-1.897 1.096,-2.633 1.219,-1.365 2.591,-2.689 2.844,-4.571 0.305,-2.264 1.689,-2.777 3.624,-2.694 -1.247,-0.985 -2.702,-0.67 -4.109,-0.655 -2.555,-0.735 -4.152,-0.24 -4.407,2.847 -0.141,1.7 -0.88,3.357 -1.543,4.976 -0.351,0.857 -0.989,1.79 0.051,2.65 C -1.63,-0.053 -0.814,-0.026 0,0"
             style="fill:#12100e;fill-opacity:1;fill-rule:nonzero;stroke:none"
             id="path506" /></g><g
           id="g508"
           transform="translate(402.8359,513.2495)"><path
             d="m 0,0 c 0.832,-3.104 1.597,-6.229 2.521,-9.307 0.534,-1.779 2.31,-0.584 3.378,-1.166 -1.81,-0.148 -3.621,-0.295 -5.432,-0.442 1.612,3.707 -0.779,6.583 -2.01,9.699 C -1.028,-0.811 -0.514,-0.405 0,0"
             style="fill:#403e3d;fill-opacity:1;fill-rule:nonzero;stroke:none"
             id="path510" /></g><g
           id="g512"
           transform="translate(288.7915,534.6826)"><path
             d="m 0,0 c -0.109,2.065 -0.007,4.084 0.415,6.147 0.881,4.305 2.9,5.577 7.304,4.234 C 8.373,9.841 9.965,9.923 9.066,8.352 8.989,7.396 8.57,6.302 8.893,5.51 10.273,2.127 8.715,1.119 5.67,1.184 3.677,1.227 2.046,-0.365 0,0"
             style="fill:#121211;fill-opacity:1;fill-rule:nonzero;stroke:none"
             id="path514" /></g><g
           id="g516"
           transform="translate(297.8574,543.0342)"><path
             d="m 0,0 c 0.087,1.033 -0.922,1.337 -1.347,2.029 0.455,0.141 1.312,0.186 0.556,0.892 -0.766,0.717 -1.859,0.414 -2.817,0.419 -4.213,0.02 -4.213,0.009 -2.358,3.957 0.595,1.165 1.496,2.022 2.652,2.621 0.652,-10e-4 1.307,-0.037 1.957,0.004 2.755,0.171 3.885,-0.751 2.86,-3.67 C 0.796,4.241 0.487,2.089 0,0"
             style="fill:#1b1a19;fill-opacity:1;fill-rule:nonzero;stroke:none"
             id="path518" /></g><g
           id="g520"
           transform="translate(316.2939,475.1763)"><path
             d="M 0,0 C 1.622,1.319 3.526,0.36 5.275,0.655 5.052,0.433 4.828,0.21 4.604,-0.012 3.069,-0.008 1.535,-0.004 0,0"
             style="fill:#e1dfd3;fill-opacity:1;fill-rule:nonzero;stroke:none"
             id="path522" /></g><g
           id="g524"
           transform="translate(358.5645,424.4062)"><path
             d="M 0,0 C 1.798,0.006 5.856,-3.314 5.82,-4.894 5.771,-6.982 4.485,-8.397 2.578,-8.747 1.002,-9.035 -3.258,-4.235 -3.179,-2.654 -3.117,-1.427 -1.414,-0.005 0,0"
             style="fill:#17191a;fill-opacity:1;fill-rule:nonzero;stroke:none"
             id="path526" /></g><g
           id="g528"
           transform="translate(380.2295,423.1533)"><path
             d="M 0,0 C 1.949,-0.331 3.126,-0.931 1.892,-3.208 0.961,-4.924 -0.49,-5.984 -2.048,-6.952 -2.814,-7.428 -3.715,-8.354 -4.651,-7.418 -5.483,-6.585 -6.221,-5.53 -5.654,-4.219 -4.582,-1.741 -2.775,-0.22 0,0"
             style="fill:#18191b;fill-opacity:1;fill-rule:nonzero;stroke:none"
             id="path530" /></g><g
           id="g532"
           transform="translate(309.0811,481.8877)"><path
             d="M 0,0 C 1.653,-0.698 3.108,-0.161 4.509,0.722 3.315,-1.453 1.752,-1.313 0,0"
             style="fill:#cbc9bc;fill-opacity:1;fill-rule:nonzero;stroke:none"
             id="path534" /></g><g
           id="g536"
           transform="translate(390.2656,475.6694)"><path
             d="m 0,0 c -3.332,0.048 -5.995,-1.917 -8.301,-4.541 -0.393,-0.447 -1.108,-0.974 -0.353,-1.598 0.616,-0.508 1.208,-0.069 1.709,0.407 0.864,0.823 1.635,1.811 2.636,2.411 2.372,1.421 4.845,2.699 7.506,0.493 0.483,-0.4 1.091,-0.973 1.634,-0.179 0.48,0.701 -0.193,1.163 -0.616,1.635 C 3.181,-0.219 1.858,0.128 0,0"
             style="fill:#363635;fill-opacity:1;fill-rule:nonzero;stroke:none"
             id="path538" /></g></g></g></g></svg>
