<svg xmlns="http://www.w3.org/2000/svg" width="816" height="1056" xmlns:v="https://vecta.io/nano"><defs><clipPath id="A"><path d="M0 792h612V0H0z"/></clipPath></defs><g clip-path="url(#A)" transform="matrix(1.333333 0 0 -1.333333 0 1056)"><path d="M331.784 259.587c-70.434 0-140.868.014-211.301-.063-2.257-.002-2.7.442-2.699 2.7v422.6c-.001 2.257.441 2.7 2.699 2.7h422.601c2.257 0 2.701-.442 2.699-2.7v-422.6c.002-2.256-.44-2.702-2.698-2.7l-211.301.063" fill="#fff"/><path d="M131.662 374.956l-2.173-.523c.466 2.842 3.267 4.408 3.539 7.139 1.315 1.726 1.136 4.155 2.728 5.721-1.691-.683-.594-3.36-2.708-3.77-1.599 1.271-2.105-.492-2.783-1.165-2.559-2.537-5.299-4.796-9.042-6.946 4.11 7.122 8.111 13.565 10.308 21.695l-11.104-9.54c-.673 1.172-.087 1.751.234 2.198 3.469 4.82 3.983 10.35 3.725 15.983-.202 4.412.658 8.727.773 13.104.055 2.117 1.077 3.706 2.888 5.196 4.539 3.736 8.731 7.894 13.299 11.762-2.769-6.775-4.477-13.842-6.727-20.776 5.874 5.985 10.567 12.869 16.221 20.22l-6.658-24.717c6.147 6.565 12.013 13.203 16.255 21.143.309-7.909-2.091-15.183-4.588-22.573 7.319 6.557 11.746 15.495 18.361 22.75-1.152-9.115-3.222-17.895-7.519-26.68 8.595 5.796 14.496 12.917 17.904 22.141a53.97 53.97 0 0 0-6.099-18.731c-.366-.749-.371-1.713-1.005-2.012.436.287.895 1.025 1.673 1.345 7.271 6.232 13.126 13.539 17.227 22.735-.382-9.298-.249-18.301-7.041-25.524 9.111 6.637 15.866 15.375 22.396 24.551.451-2.359-.636-8.725-2.112-13.66-1.318-4.403-2.831-8.712-5.228-12.764 4.236 3.166 8.859 5.644 12.742 9.259 4.013 3.735 5.15 9.09 8.428 13.832.694-2.746.732-5.183.257-7.362-1.209-5.552-2.73-11.055-5.759-15.983-.477-.776-1.632-1.603-.599-2.531 1.051-.944 1.909.348 2.478.9 4.468 4.333 8.771 8.833 11.849 14.315 1.484 2.643 2.811 5.372 4.252 8.144.916-4.621.438-7.561-1.86-13.25-1.729-4.282-5.209-7.565-6.851-11.993 3.652.576 7.729 4.19 15.098 13.274 2.124-.816.556-1.913.063-2.654-2.352-3.534-4.81-7-7.152-9.077 7.414 4.373 12.421 12.511 18.198 19.947.845 1.088 1.709 2.89 3.232 2.177s.905-2.587.365-3.861c-2.702-6.373-5.189-12.944-10.729-15.43 4.468 2.31 9.933 6.033 15.59 9.428 3.461 2.077 5.771 5.336 7.893 8.709.602.955.983 2.645 2.5 2.053 1.492-.583.816-2.092.455-3.187-2.216-6.726-6.177-12.224-10.582-15.964 6.341 3.273 13.051 8.17 18.29 14.938.646.835 1.516 2.054 2.658 1.342.985-.614.278-1.841-.171-2.686-2.198-4.141-3.604-8.794-8.095-12.143 3.894 3.132 7.933 4.879 11.465 7.417 1.332.957 2.741 1.817 4.062 2.801.538.401 1.198.665 1.839.273.786-.482.756-1.285.57-2.059-.258-1.078-.796-2.046-1.321-3.009-2.177-3.995-5.238-7.159-8.799-9.489.447.164 1.153.47 1.891.688 5.728 1.691 10.574 4.641 14.156 9.561.786 1.08 2.123 2.862 3.364 2.058 1.545-1.003.162-2.82-.423-4.141-2.028-4.574-4.698-8.674-8.534-11.123 8.107 1.382 13.622 6.866 17.399 14.479.293.589.593 1.181 1.037 1.676.867.966 1.507.75 1.839-.432.346-1.227-.055-2.394-.461-3.535-1.703-4.79-4.682-8.657-8.746-11.944 3.813 1.409 7.194 3.234 10.28 5.63 1.845 1.433 4.327 1.394 6.292 2.75 5.845 4.033 11.246 8.44 14.58 14.905.306.592.688 1.128 1.374 1.344 1.143-.163 1.592-.964 1.816-1.972-3.202-11.803-7.497-23.078-17.694-30.748-7.698-5.79-15.448-11.563-23.943-16.204-1.454-.794-2.972-1.424-4.526-1.974-.811-.287-1.887-.877-2.419.001-.646 1.063.46 1.777 1.197 2.383a62.94 62.94 0 0 1 4.87 4.429c2.184 2.215 3.866 4.735 5.22 7.507a9.7 9.7 0 0 0-3.336-3.612c-5.082-3.264-9.971-6.826-15.173-9.905-.754-.446-1.548-.838-2.4-1.078-.533-.152-1.133-.289-1.543.162-.584.641-.038 1.218.283 1.761.28.473.654.892 1.069 1.249 4.104 3.524 6.683 8.082 8.822 13.09-6.007-5.415-12.686-9.733-19.389-14.019-1.479-.946-2.946-1.915-4.323-3.016-.834-.667-1.895-1.906-2.815-1.043-1.119 1.05.22 2.21.868 3.116 1.344 1.879 2.597 3.808 3.795 5.783.861 1.417 1.536 2.906 2.104 4.454-3.335-4.097-7.362-7.563-10.672-11.686-.539-.672-1.275-1.233-2.27-1.125-.247.205-.403.465-.471.78.022 1.532.952 2.631 1.853 3.899-1.335-.895-2.544-1.803-3.971-2.303-.698-.245-1.538-.786-2.133-.071-.711.854-.088 1.735.538 2.313 2.96 2.725 5.06 6.009 6.697 9.656.673 1.499 1.314 3.006 1.878 4.554-1.259-4.168-3.88-7.53-6.55-10.821-2.803-3.456-6.472-5.893-10.315-8.055-.81-.456-1.861-1.387-2.625-.357-.709.954.408 1.79.996 2.513 2.844 3.495 5.192 7.283 6.987 11.651-1.553-1.921-3.137-3.557-4.815-5.097-.697-.639-1.488-1.715-2.488-1.119-1.093.655-.278 1.775 0 2.665.228.73.611 1.406 1.018 2.059-3.522-5.422-8.275-9.639-13.304-13.584-.433-.34-.923-.599-1.445-.772-.756-.251-1.626-.426-2.127.286-.546.776.08 1.489.645 1.987 1.724 1.521 3.564 2.922 4.526 4.765-1.62-2.387-3.868-4.515-6.611-6.116-1.036.119-1.298-.92-1.982-1.327-1.592-.951-2.958-2.279-4.784-2.841-.858-.264-1.83-.601-2.403.285-.482.747.18 1.469.687 2.03 2.151 2.376 3.778 5.109 5.804 8.521-4.48-5.381-9.56-8.797-14.903-11.875-1.491-.319-2.595-1.712-4.262-1.551-1.71 1.665-.172 2.618.927 3.356 3.693 2.483 5.854 6.502 8.677 8.406-4.647-4.942-9.293-7.789-14.556-8.581-.945-.141-2.18-.681-2.704.379-.545 1.103.764 1.654 1.417 2.289 1.469 1.429 2.786 2.974 3.966 4.55-3.244-1.725-6.515-3.509-9.974-4.898-.866-.348-2.06-.955-2.699.081-.625 1.012.401 1.877 1.102 2.476 3.443 2.945 6.463 6.238 8.699 10.266-2.23-2.101-4.476-4.181-7.006-5.911-.996-.682-1.946-1.45-3.107-1.838-.615-.207-1.328-.415-1.757.307-.33.555.049 1.084.375 1.496 1.492 1.888 3.17 3.646 3.891 6.123-2.647-2.109-4.866-4.709-7.629-6.692-2.22-1.594-4.686-2.351-7.289-2.848-.65-.123-1.419-.156-1.78.488-.407.725.279 1.205.722 1.646 2.714 2.698 6.003 4.778 8.855 8.444-4.594-3.455-9.28-5.301-13.549-7.9-1.408-.857-2.892-1.578-4.398-2.245-.905-.4-2.081-.956-2.735-.045-.781 1.091.58 1.663 1.197 2.292 2.839 2.894 5.821 5.648 8.433 8.763-4.924-5.356-10.583-9.579-17.651-11.685-.631-.187-1.25-.431-1.907-.507-.77-.087-1.711-.211-2.048.608-.401.973.648 1.263 1.242 1.615 3.174 1.885 5.486 4.691 7.933 7.4-3.062-2.378-6.617-3.719-10.188-5.028-.825-.302-1.648-.627-2.537-.67-.665-.031-1.431-.039-1.734.647-.343.772.392 1.169.893 1.534a26.74 26.74 0 0 1 8.664 10.556c-3.789-4.443-8.63-7.56-13.414-10.737-.848-.562-1.992-1.613-2.891-.507-.864 1.065.356 1.996 1.003 2.825 2.065 2.645 4.097 5.309 5.449 8.053-3.384-5.186-8.149-9.292-13.799-12.426-.393-.219-.808-.323-1.232-.059" fill="#ece9d8"/><path d="M258.273 371.001l11.893 12.646c.716.776 1.267 1.674 2.695 2.358-1.505-6.094-5.081-10.52-8.145-15.316 9.071 6.636 19.304 11.601 27.376 19.879.003-3.785-2.538-7.843-10.714-18.009 8.167 4.843 16.916 8.845 23.7 17.037-1.287-4.063-2.808-7.112-5.265-9.74-2.357-2.519-4.831-4.902-7.498-7.149 5.349 1.937 10.36 4.187 14.897 7.778 3.95 3.128 8.328 5.81 12.539 8.655 6.041 4.08 10.883 9.161 13.839 15.873 2.33 5.291 5.401 10.294 6.435 16.104 1.478.299 1.705-.968 2.171-1.823.915-1.676 1.924-3.283 3.09-4.793.399-.83 1.031-1.316 1.974-1.35 1.438-.453 2.494-1.735 4.078-1.875 2.286-2.307 5.109-3.458 8.268-3.995 1.238-.21 2.588-.299 3.525-1.364-1.014-4.888.072-9.791-.108-14.678-.262-7.109-1.815-14.185-7.871-18.355-6.778-4.667-11.078-12.112-18.67-15.696-3.026-1.429-5.969-3.034-9.437-4.807 1.678 3.563 4.79 5.469 5.814 8.745.076.188.132.382.17.58-.349-.125-.621-.378-.927-.573-2.955-2.07-5.622-4.608-8.954-6.067-1.99-.871-1.284-2.525-1.631-3.896-3.006 1.518-2.914 3.825-1.623 6.684-4.224-1.651-7.392-4.948-11.496-6.54-.394-.194-.795-.374-1.225-.459-.757-.154-1.611-.337-2.036.499-.428.842.317 1.408.796 1.971.423.497.917.934 1.406 1.368 4.593 3.314 7.563 7.933 10.378 12.679-3.003-3.557-5.733-7.35-9.527-10.168-2.088-1.467-4.526-2.394-6.422-4.161-2.452.538-1.078 2.724-1.899 4.394-1.705-1.176-3.166-2.653-4.996-3.524-.892-.425-1.967-.974-2.726-.091-.875 1.019.186 1.845.821 2.479 2.942 2.931 5.669 6.001 7.31 9.795-4.571-4.281-8.487-9.283-13.729-12.901-.632.387-1.267.47-1.906.015-.224-.256-.449-.259-.678-.007.398.902 1.387 1.503 1.341 2.631 1.97 3.724 4.571 7.129 5.476 11.183-2.122-2.734-4.656-5.388-7.401-7.839-3.244.019-4.578-2.882-6.691-4.521-2.297-1.78-4.495-3.612-7.372-4.545 4.702 4.043 8.357 8.782 10.782 14.436.151.494.139 1.022.316 1.512-.439-.202-.586-.707-.987-.947-5.732-5.411-12.625-9.341-18.53-14.531-.608-.176-.842.026-.656.651 4.308 4.608 7.329 9.997 9.502 15.998-7.82-7.508-15.236-15.464-24.764-20.984 3.936 5.029 7.373 10.352 10.039 16.147.158.256.292.554.07.799-.258.286-.502.001-.735-.128-4.699-5.094-10.229-9.185-15.858-13.16-.682-.247-.828.04-.648.652 4.395 5.382 9.323 10.406 11.514 17.369-6.235-7.838-14.465-12.754-23.451-16.619 6.509 4.86 10.379 11.745 14.563 18.378.195.232.315.514.096.754-.25.271-.492.013-.718-.123-8.045-9.596-20.194-19.153-27.399-21.283 7.047 5.324 11.214 12.59 14.191 20.658 2.586 2.833 5.744 5.079 8.128 8.132-1.357-3.44-4.275-5.629-6.23-8.636 7.373 3.561 12.371 9.756 17.724 15.793l-2.61-6.79c3.454 2.683 5.771 5.499 8.388 8.108-1.052-6.154-4.81-10.823-8.912-15.955 9.925 4.526 15.982 11.875 20.088 21.139.021-3.551-1.816-6.466-3.063-9.601-1.342-3.374-4.416-5.32-6.735-8.602 3.273.752 5.34 2.461 7.626 4.557-.088-2.8-2.097-4.183-2.776-6.17-.204-.289-.463-.544-.549-.903l.549.238" fill="#d2cfbf"/><path d="M376.94 504.827l.015.683c6.386-.945 10.478-4.844 13.439-10.987.89 2.546 1.093 4.755 2.077 6.668 1.115 2.168 2.064 2.305 3.556.392.821-1.053 1.596-2.009 2.992-2.232.291-.345.612-.726.62-1.149l.379-14.037c.002-.434-.334-.796-.672-1.092-3.02-.914-2.248-3.935-3.302-5.941-1.839-.95-3.685.855-5.631-.096-.994-.485-1.968-.675-2.1-1.964-1.727-.932-3.569-1.684-4.849-3.316 2.028 2.298 4.678 3.336 7.593 3.303 1.792-.021 3.807-.379 4.339-2.729-1.609-.827-1.313-2.325-1.309-3.72.037-10.138-1.204-20.142-3.281-30.044-.779-3.718-2.883-7.053-3.33-10.886-1.502-.096-2.012 1.187-2.661 2.091-2.09 2.911-4.673 5.488-6.121 8.844-1.367 7.387-.734 14.748-.004 20.939-1.013-4.951-.855-11.15-.763-17.346.015-.956.451-1.965-.308-2.843-2.364-.908-4.768-.142-7.108.012-3.476.23-6.933.528-10.416.261-1.394.352-1.261 1.582-1.492 2.602.242 1.291.148 2.56-.296 3.8-.926 3.473-1.42 7.071-2.921 10.38-.542 1.194-1.163 2.353-2.223 3.317 4.12-6.255 5.22-13.243 5.553-20.445-6.983-5.926-8.716-13.654-7.685-22.336.142-1.2.329-2.427-1.074-3.096-3.828 8.311-7.235 16.747-9.367 25.706-1.386 5.823-3.655 11.43-5.259 17.209-1.753 6.313-1.776 12.897-2.566 19.361-.339 2.764-.298 5.591-1.295 8.253-.142 3.356.494 6.658.678 9.989 2.272 3.169 6.025 4.118 9.141 6.028.351.215.927.191 1.202-.204.47-.676.033-1.286-.423-1.724-1.489-1.434-3.157-2.672-4.701-4.286 3.111.533 5.786 1.79 8.378 3.319 1.267.748 2.435 1.952 4.162 1.396l.66-.665c-.283-3.542-4.231-3.703-5.298-6.197 5.784 2.601 12.214 4.751 16.275 10.654.46.67 1.012 1.702 1.983 1.403 1.197-.368.066-1.849.877-2.539-.144-.663-1.038-1.323-.007-1.99.952-2.069-.005-3.755-.865-5.369 2.422 1.503 4.216 3.717 5.11 6.665.346 1.139.576 2.631 2.029 2.687 1.552.061 1.954-1.383 2.549-2.607 1.082-2.224 2.932-4.17 2.11-6.957 1.056 3.525 1.083 7.219 1.61 10.835" fill="#fdf9e8"/><path d="M338.702 423.094c-4.295-8.949-10.931-15.259-20.39-18.64-2.085-.745-3.688-2.742-5.709-3.783-2.616-1.348-5.229-2.871-8.366-3.117 5.281 4.624 9.914 9.538 10.526 17.063-4.575-9.073-10.582-16.253-22.463-17.304 6.531 4.052 9.902 9.473 11.72 16.184-5.595-7.019-12.402-11.965-21.92-13.326 2.431 2.205 4.932 3.665 6.903 5.768 2.063 2.201 3.643 4.644 4.896 7.341.308.663 1.015 1.459.277 2.086-.839.714-1.299-.349-1.858-.765-5.086-3.785-10.604-6.849-16.332-9.724 4.736 3.989 6.547 9.677 8.982 15.109-6.497-7.744-13.915-14.171-23.508-17.71 6.379 5.508 11.281 11.903 12.92 20.524-6.393-11.985-18.623-15.901-29.446-21.867 7.977 4.825 12.11 12.061 13.781 20.97-7.678-8.301-13.096-18.783-24.008-23.828 3.486 3.724 6.552 7.766 9.484 11.913.426.602 1.239 1.105.25 1.876 5.568 5.659 8.918 12.407 11.213 20.036 1.143 3.8 1.912 7.617 2.527 11.441.849 5.27 2.718 10.103 4.89 14.88.251.553.803.969 1.688 1.227l-5.857-21.199c6.652 5.347 11.998 11.68 16.644 18.684-1.762-6.74-4.814-12.846-8.852-19.289 9.066 4.896 16.568 10.617 22.341 18.528-1.833-7.232-5.888-13.193-10.48-18.913 6.941 3.843 12.645 9.028 17.304 15.427.895 1.229 1.729 3.679 3.241 2.947 1.154-.558-.144-2.908-.596-4.401-1.557-5.146-3.393-10.172-6.641-14.604 5.639 4.81 9.564 11.083 14.52 17.531-.811-7.382-2.674-13.566-6.272-19.29 6.265 3.767 9.737 10.135 14.746 15.927-.183-3.183-1.9-5.238-2.796-7.512-.948-2.411-1.751-4.941-3.315-7.124-1.506-2.102-2.757-4.386-3.916-6.804 8.275 3.936 14.304 10.432 19.831 17.58-.966-4.241-1.915-8.431-3.875-12.38 3.045 2.157 6.607 3.428 9.033 6.336 1.568 1.878 2.67 1.014 3.604-.662 1.4-5.823 3.425-11.453 5.279-17.136" fill="#fbf8e6"/><path d="M131.662 374.956c6.521 3.831 11.975 8.854 16.493 14.967-1.41-5.076-4.555-9.034-7.651-13.095 6.45 3.365 12.164 7.585 17.182 13.418-.707-5.254-4.723-10.665-10.173-14.183 3.07-.335 5.776.83 15.24 6.559-.179-2.776-4.778-7.678-10.773-11.08 5.397.875 9.315 2.872 13.195 5.251 3.829 2.348 6.457 6.052 10.293 8.39-2.453-5.255-7.25-8.438-11.455-13.315 7.931 3.591 14.744 7.624 22.051 11.928-.636-3.196-2.944-4.449-4.589-6.108-1.756-1.769-3.801-3.253-5.838-4.961 4.862.164 7.645 1.476 11.692 5.457l4.431 4.418c.38.373.828.933 1.392.61.748-.428.432-1.146.117-1.719-.737-1.342-1.437-2.718-2.311-3.968-.849-1.213-1.897-2.287-2.695-3.61 5.055 2.04 8.674 6.071 12.847 9.405-1.865-6.29-6.782-10.136-10.959-14.616 5.151 1.403 9.644 4.054 15.005 7.049-2.445-3.904-4.918-6.613-7.866-9.219 8.113.735 13.973 4.984 19.146 10.619-2.737-4.273-6.066-7.913-9.818-11.171-.913-.792-2.658-1.015-1.741-2.887.371-1.689-1.119-2.124-2.007-2.949-1.811-1.684-3.75-3.216-5.718-4.712-4.483-2.715-8.688-5.89-13.435-8.171-1.264-.009-2.155-.916-3.242-1.35-.202.155-.27.312-.207.471s.129.24.195.24c.611 1.163 2.043 1.827 2.048 3.36 1.191 1.247 2.096 2.737 3.425 4.051-1.369-1.122-2.254-2.54-3.597-3.487-1.85 1.012-2.747-.81-4.016-1.418-2.255-1.081-4.499-2.222-6.431-3.861-2.476-1.897-4.93-3.845-8.335-3.574-.946 1.27.359 1.712.947 2.278 2.35 2.256 4.251 4.871 6.17 7.474 1.374 1.934 2.623 3.949 4.253 6.368-1.348-1.751-2.483-2.964-3.544-4.242-3.395-2.068-6.36-4.83-10.12-6.316-2.326.367-4.281-1.481-6.865-1.234 1.933 3.416 6.198 4.968 6.383 9.258 2.744 2.783 4.874 5.974 6.369 9.586 1.988 1.037 2.499 3.235 3.787 4.818.291.247.484.598.82.802-.254-.053-.415-.223-.547-.437-1.49-1.544-1.953-3.891-3.957-5.025-1.281-3.561-4.572-5.562-6.615-8.531-1.79.975-2.288-.815-3.109-1.591-5.123-4.837-10.94-8.561-17.414-11.357a118.98 118.98 0 0 1 17.089 24.918c-7.79-8.225-13.517-18.6-25.148-22.687 2.18 2.295 4.481 4.49 6.504 6.913s3.769 5.079 5.386 7.927c-5.195-4.804-10.31-9.67-16.937-12.588 2.899 4.67 6.02 9.143 7.017 14.678-3.197-4.094-6.266-8.255-11.172-10.57 3.677 7.381 6.877 14.855 8.808 22.819" fill="#d2cfbf"/><path d="M126.964 430.032c-.971 8.024.149 15.766 2.12 23.369 3.238 12.496 9.401 23.389 19.18 31.908s21.382 13.573 34.018 16.196c13.14 2.728 26.384 3.251 39.789 2.18 6.415-.513 12.789-1.821 19.269-1.467 1.371.074 2.574-.429 4.405-1.01l-10.822-9.624c-1.058-.907-2.515-.753-3.811-.437-8.811 2.15-17.593 1.44-26.344-.303-5.238-1.044-10.434-2.297-15.65-3.453-11.275-2.498-20.773-8.645-30.072-15.026-3.849-2.641-7.686-5.36-11.316-8.369-7.402-6.136-12.122-13.986-15.548-22.766-1.496-3.833-2.566-7.851-5.218-11.198" fill="#dcdbdb"/><path d="M379.516 438.189l7.96-10.509c.437-2.466.934-4.936-.552-7.255-.847-.51-.346-2.781-2.343-1.794-.756 1.185-.507 2.543-.654 3.834-.547 4.826-2.904 6.995-7.702 6.998-4.928.003-9.859.14-14.782-.063-3.499-.144-7.02-3.009-7.807-6.065-1.145-4.448.235-8.024 3.762-10.315 2.92-1.896 5.647-.722 8.025.71 2.813 1.692 5.218 1.823 7.906.01 1.722-1.16 3.463-.885 5.225.23 1.544.977 2.801 2.512 4.8 2.689 1.499-2.492-1.322-3.505-1.821-5.313-3.581-4.065-8.049-5.868-13.469-5.414-1.632.137-3.288-.002-4.934-.014-4.624.708-9.469.898-12.504 5.334-.871.458-.236 1.41-.659 2.015.037.198.033.396-.011.593.75 3.118-.493 6.22-.056 9.342.907 6.489 2.217 12.752 8.618 16.337.274.561.918.321 1.317.609 5.982 1.638 11.852-.182 17.768-.569.906-.094 1.395-.761 1.913-1.39" fill="#b9aa9b"/><g fill="#3b281c"><path d="M183.717 347.263c3.969 3.546 8.563 6.127 13.241 8.582 1.258-.45 1.624-1.516 1.856-2.676-.149-2.931-2.713-3.622-4.44-4.784 1.842.325 3.239 3.088 5.809 1.42.672-2.167 1.538-4.297 1.974-6.511 1.01-5.129 4.33-9.335 5.536-14.365.011-.439.084-.874.09-1.313.094-5.8-.182-6.145-6.026-6.248-2.426-.042-4.501-.758-6.361-2.282-1.312-1.075-2.705-1.979-4.443-.789.66 1.461-.159 2.454-1.043 3.47-1.57 1.803-2.434 3.813-2.027 6.305 1.131 6.93-1.434 13.085-4.166 19.191m102.832 5.932c.045.323-.032.804.152.948 5.183 4.06 9.453 9.071 14.671 14.322-.876-6.834-5.823-10.036-9.472-14.71 4.012.606 6.124 3.549 8.833 5.472 1.094-2.124-.509-4.357.943-6.162 1.367-1.235 1.164-3.016 1.42-4.56.987-5.944 3.641-11.154 6.745-16.192.498-.635 1.219-1.117 1.389-1.982a1.9 1.9 0 0 0-.356-.92c-1.694-1.539-3.801-2.536-5.411-4.208-.969-1.006-2.339-1.347-3.652-.959-3.699 1.092-6.554-.398-9.348-2.593-1.254-.985-2.481-2.746-4.539-1.395 3.125 7.716 3.371 15.693 1.779 23.721-.628 3.164-1.422 6.38-3.154 9.218"/></g><path d="M332.778 494.956c-.104-3.563.531-7.219-1.309-10.567l-.658-2.594c-.648-2.475-2.426-3.904-4.602-4.961-.853-.28-1.609-1.06-2.622-.515.967 2.217-.313 3.253-2.015 4.356-3.536 2.293-5.795 5.846-8.419 9.031-.628.502-1.2 1.059-1.726 1.667-1.707 2.027-3.643 3.779-6.154 4.728-2.263.855-1.918 2.134-.529 3.372 3.098 2.759 6.207 5.493 10.894 4.939 2.15-.255 4.354-.035 6.534-.031 1.005-.039 2.002-.124 2.852-.754 1.829-2.206 4.709-2.912 6.807-4.741a3.1 3.1 0 0 0 .637-.701c.456-1.041.745-2.101.31-3.229" fill="#ece9d8"/><path d="M287.924 320.256c2.29-.261 3.487 1.634 4.964 2.748 2.687 2.029 5.344 3.243 8.734 2.025 1.156-.415 2.446-.369 3.31.708 1.609 2.007 3.824 3.123 6.009 4.301 4.228-1.368 7.52.771 10.615 3.087 1.289.965 2.188 2.166 3.87.937 1.934-2.829 4.64-5.419 3.288-9.364-2.233-6.519-6.559-6.787-13.266-4.938-1.731.477-2.428.454-3.363-.871-3.209-4.553-7.713-5.731-13.005-4.987-3.761.527-7.441 1.245-10.851 3.011-1.889.979-1.41 2.119-.305 3.343" fill="#1a1a1a"/><g fill="#3b281c"><path d="M163.371 342.069c2.166-.5 3.535 1.262 5.308 1.877 1.094.38 1.93 1.394 3.214 1.323 1.212-5.094 2.281-10.226 4.28-15.097 1.15-2.802 1.908-5.829 4.723-7.618 1.063-.675 1.055-1.826.984-2.942-.676-.424-1.292-.093-1.842.23-1.478.87-2.622.691-3.674-.753-1.346-1.847-3.052-1.745-4.464-.19-2.198 2.42-4.052 1.406-5.882-.333-1.987-1.89-3.537-4.167-5.328-6.232-2.149.67-1.795 2.472-1.317 3.809 2.626 7.333 1.699 14.968 2.13 22.485.056.978-.135 2.004.944 2.593.124.483.446.75.924.848m162.055-8.007c-1.478.069-2.891.077-3.284-1.846-.205-1.002-1.04-1.205-1.938-1.466-1.665-.481-3.372-.989-4.871-1.828-1.964-1.098-3.282-.649-4.392 1.117l.079.097c.244 1.378-.49 2.58-.713 3.877-.83 4.685-1.526 9.387-2.232 14.088-.188 1.257-.643 2.557.221 3.764l12.208 7.867c.759-.761.675-1.936.352-2.402-1.617-2.331-.389-4.205.661-6.16.181-5.959 1.931-11.559 3.909-17.108"/></g><path d="M200.184 349.805c-2.457.168-4.27-2.124-6.963-1.831 1.37 2.218 4.873 2.167 5.105 5.228 3.255 2.158 5.506 5.239 7.679 8.385.868 1.258 1.684 2.548 2.935 3.479 5.738 3.728 11.328 7.645 15.983 12.802-1.341-4.616-4.183-8.235-7.417-12.074 3.026.044 4.673 2.477 7.156 2.571-4.508-7.109-11.5-11.173-18.552-15.179-1.977-1.123-4.281-1.677-5.926-3.381" fill="#d2cfbf"/><path d="M160.69 312.334c1.191 4.283 4.458 6.828 7.928 9.053 1.304.835 2.419-.551 3.318-1.517 1.516-1.63 2.73-2.391 4.251.215 1.993 3.416 3.812.102 5.692-.473 1.654-5.292-1.279-9.129-6.681-9.492-5.068-.341-9.647 1.682-14.508 2.214" fill="#1b1b1b"/><path d="M190.953 318.297c1.706.176 3.168.582 4.514 1.944 1.938 1.964 4.626 2.237 7.313 1.974 3.022-.295 4.95.415 4.11 4.08-.208.902-.227 1.991.803 2.634 4.52-3.583 4.083-7.455.921-12.141-4.144-6.137-10.176-3.512-15.325-4.566-2.793-.571-3.772 2.379-2.336 6.075" fill="#1c1b1b"/><path d="M332.778 494.956c-.634 1.012-.735 2.132-.665 3.287.736 2.199 2.405 3.7 3.958 5.289 2.315 2.707 6.217 2.524 8.845 4.789-1.341-2.814-3.12-5.231-5.715-7.132 6.396 2.212 12.664 4.567 18.676 8.865-1.658-4.916-5.343-7.659-7.971-11.148-4.664-2.429-9.016-5.665-15.168-5.839l7.574 6.622-.237.33-9.297-5.063" fill="#e0e1e0"/><path d="M399.346 483.073c.393 4.519-1.604 8.994-.163 13.574.265.843-.292 2.115-1.131 2.917-.466.613-.34 1.103.305 1.487.564-.147 1.088-.03 1.584.268 1.245-.448 2.353-.704 3.844-.536 3.97.448 8.12 1.057 11.834-1.306.99-.629 2.247-1.002 2.526-2.393-.023-.511-.26-.882-.72-1.107-3.839.295-6.754-1.749-9.649-3.832-.508-.568-1.017-1.132-1.464-1.749-1.183-1.57-1.96-3.299-2.513-5.203-.587-2.021-1.129-4.235-3.621-4.923-.858.472-.152 1.525-.774 2.086l-.058.717" fill="#ece9d8"/><path d="M398.689 500.888c-.522-.292-.634-.783-.637-1.325-.084-.953-.536-1.203-1.163-.443-.889 1.078-1.659 2.256-2.596 3.552-2.325-2.758-2.033-6.294-3.793-10.086-2.565 6.953-7.564 10.506-13.545 12.924.794 1.969.766 3.973-.12 6.256 5.295-1.471 8.734-4.563 11.276-8.815.486-.813.587-2.264 1.652-2.238 1.381.034 1.008 1.709 1.539 2.591.554.918.767 2.036 1.216 3.026.393.868-.111 2.341 1.014 2.58 1.341.285 1.845-1.267 2.707-2.02.77-.672 1.076-3.121 2.552-.571 1.45-.399 1.196-1.545 1.148-2.604-.255-1.012-.453-2.053-1.25-2.827" fill="#e0e1e0"/><path d="M300.452 531.176c.004-3.287 2.835-5.062 4.105-7.672-1.89-.357-3.544.687-5.333.89-.446.01.201 1.403-.789.67l-4.06-3.288c-.786-.746-1.543-2.022-3.003-1.084-1.175 2.478-2.168 5.006-2.149 7.813-.447 1.014-.368 2.078-.297 3.143a3.16 3.16 0 0 0 .196 1.057c2.946 3.268 6.962 3.995 10.076 1.826l.606-.679c.846-.739-.06-1.904.648-2.676" fill="#080707"/><g fill="#070606"><path d="M306.868 505.391c-3.434.494-6.262 2.113-8.6 4.639 1.509 4.695 5.496 6.814 9.387 9.033a3.54 3.54 0 0 0 .824.392c2.203-.406 3.515-2.169 5.177-3.399.733-3.854-2.358-6.291-3.532-9.438-.545-1.461-1.821-1.738-3.256-1.227m119.577 26.486l.033.649c.534 1.697.293 3.448.209 5.154-.104 2.135.799 3.086 2.822 2.916 3.05-.256 6.068-.69 8.055-3.462.612-3.425.001-6.699-1.224-9.897-.813-.543.083-2.041-1.276-2.279-2.708 2.51-6.515 3.654-8.619 6.919"/></g><path d="M427.649 558.245c1.331-1.84 2.236-3.991 4.013-5.507.379-.451.387-.872-.1-1.255-.703-.131-1.326.13-1.953.381-2.272.527-4.89-.343-6.792 1.672-2.434 6.101-7.553 9.992-12.925 14.827 7.025-.483 11.546-3.753 15.833-7.507.591-.907 1.383-1.667 1.924-2.611" fill="#0d0c0c"/><path d="M413.243 516.669l2.005 1.326c.664.531 1.403.501 2.128.212 2.587-1.034 6.446-7.161 6.442-10.188-2.166-1.67-4.441-3.102-7.27-3.321-1.891 3.405-4.938 6.064-6.319 9.799.652 1.212 2.054 1.385 3.014 2.172" fill="#0e0d0c"/><path d="M322.415 503.626c-2.951-.035-5.909.045-8.853-.133-4.209-.255-6.886-3.034-9.865-5.922 3.968-1.067 6.563-3.171 8.576-6.064-.658-.558-1.408-.337-2.156-.285-3.452.238-4.309-.554-4.495-4.11-.139-1.53-.816-1.713-2.168-1.084-4.039 1.879-4.887 5.369-2.389 10.275 2.069 2.381 4.135 4.777 6.752 6.578.783.539 1.066 1.011.548 1.834.549.61 1.294.8 2.053.965 2.633.16 5.268.232 7.893-.113l3.127-.791c.511-.225.899-.557.977-1.15" fill="#d9d6c6"/><g fill="#e0e1e0"><path d="M364.403 501.563c-.858.425-.422 1.413-1.029 2.248-4.732-7.398-12.113-10.49-20.044-12.735 1.934 2.927 5.31 4.3 7.236 7.166 5.394 2.658 9.95 6.436 14.061 11.17 1.125-3.035-.298-5.405-.224-7.849m12.537 3.264c.791-4.848.379-7.72-1.864-12.181.047 3.452-1.273 6.168-2.732 8.831-.409.747-.808 1.761-1.836 1.559-.906-.178-.695-1.219-.88-1.938-.947-3.659-2.98-6.416-6.853-8.05l1.622 6.525c1.912 3.788 5.439 6.523 6.853 10.659 1.96-2.93 2.788-6.094 2.357-9.897 2.45.959 2.062 3.327 3.333 4.492"/></g><path d="M318.84 504.766l-8.498.016c-.668.772-.49 1.549-.089 2.386l3.039 6.044c.505.932 1.046 1.961 2.444 1.579l.99-.167c1.159-.447 2.619.014 3.531-1.174l1.281-.807c.843-3.132-.345-6.602-2.698-7.877" fill="#0b0a09"/><path d="M322.415 503.626l-.846.588c-1.772.895-1.068 2.335-.7 3.6.439 1.506.745 3.112 2.009 4.241 2.379.311 4.627-.644 6.972-.714 2.132-.063.295-1.834 1.014-2.531.698-1.012.305-2.099.141-3.131-.682-4.303-2.276-5.001-6.105-2.736-.682.759-1.605.641-2.485.683" fill="#1a1817"/><path d="M407.258 492.319c2.078 2.878 7.119 4.888 9.896 3.944 2.146-.793 2.943-2.634 3.583-4.601.275-1.64-1.866-2.322-1.578-3.97-1.3-3.668-3.865-6.184-7.249-7.954a1.2 1.2 0 0 0-.382.739c.167.62.493 1.288-.465 1.582.451 1.341 1.708 1.963 2.608 2.892 2.969 3.06 2.983 3.71-.103 6.591-.681.633-1.557.703-2.414.823-.291.035-.578.087-.865.134-1.027.22-1.988-.725-3.031-.18" fill="#dad7c7"/><path d="M299.141 524.621c1.937.265 3.821.273 5.416-1.117l.005.003c.591-.892 1.516-1.889.04-2.688-3.143-1.702-5.481-4.246-7.717-6.937-.414-.497-1.033-.813-1.754-.499-1.422 1.489-1.921 3.428-2.582 5.288 1.094 3.206 3.112 5.388 6.592 5.95" fill="#040404"/><path d="M338.702 423.094c-2.652 5.437-4.669 11.07-5.278 17.136l-1.949 28.328c1.364-3.252 1.775-6.651 1.954-10.087.397-7.618.617-15.254 1.963-22.787.817-4.566 2.331-8.873 5.088-12.674 1.924-2.653 3.544-5.48 4.807-8.509-2.693 1.459-2.897 4.897-5.262 6.616-.004.952-.45 1.607-1.323 1.977" fill="#e6e6e5"/><path d="M427.705 510.824c-.729-.834-1.06-2.144-2.519-2.106-.462-.246-.863-.104-1.051.332-1.513 3.498-3.734 6.479-6.507 9.073-.223.209-.195.598-.145.923.476 1.044 1.6 1.508 2.199 2.444l-.064-.064c.422.529.914.903 1.649.739 3.405-2.363 6.845-4.702 7.54-9.274-.089-.836-.676-1.408-1.102-2.067" fill="#060606"/><path d="M419.159 487.691c-1.158 1.844.823 2.647 1.307 3.947.489 2.447-2.062 3.384-2.635 5.304-4.336 4.045-11.865 4.698-17.807 1.575-2.274.211 2.806 2.442-.694 2.331-.338.444-.309.916-.109 1.403 1.378.661 2.891.579 4.351.792 1.637.084 3.296-.133 4.899.385 1.261.319 2.59.199 3.839.599a68.49 68.49 0 0 0 2.814.587c.499.052.952-.06 1.345-.383-.473-1.724-2.504-1.146-3.501-2.431 2.096-1.334 4.404-2.302 6.253-3.977 4.325-3.919 4.325-6.226-.062-10.132" fill="#cbcac1"/><path d="M163.371 342.069l-.925-.848c-2.173 1.663-.177 4.144-1.182 6.035 2.95 2.661 6.067 5.067 9.857 6.441.889-.732.456-1.591.233-2.429-2.041-3.605-4.805-6.582-7.983-9.199" fill="#3e2c20"/><path d="M294.42 555.124c1.157 3.338 2.979 6.172 6.099 8.017.934.552 1.72 2.252 2.905 1.171.944-.861.611-2.353-.322-3.433-1.267-2.379-1.316-5.189-2.675-7.537-2.041-.492-4.072-.721-6.06.229-.258.528-.166 1.043.053 1.553" fill="#171615"/><path d="M431.628 551.596l.034 1.143c2.493-2.214 4.435-4.698 4.076-8.31-.758-.489-1.502-.127-2.17.153-2.966 1.248-5.357.951-6.752-2.321-1.822 1.208.196 3.404-1.221 4.715l-1.277 3.218c-.06 1.615 1.224 1.463 2.207 1.635 1.712.3 3.397-.25 5.103-.233" fill="#0e0d0d"/><path d="M295.131 513.383c3.074 2.868 5.321 6.663 9.504 8.31.652.257-.128 1.187-.074 1.814 1.886-.79 2.924-2.399 3.919-4.052l-.111-.128c-3.869-2.14-7.592-4.448-10.028-8.324-.233-.37-.716-.429-1.156-.221-1.204.457-1.621 1.536-2.054 2.601" fill="#141311"/><path d="M427.034 542.383c.124 4.306.127 4.21 4.863 3.463 1.445-.228 2.629-.762 3.841-1.418.775-.954 1.213-2.033 1.231-3.272.454-1.308.647-2.597-1.383-2.051-2.491.67-4.931 1.436-7.555 1.481-.957.016-1.582.688-.997 1.797" fill="#050505"/><path d="M403.303 502.335c-1.301.427-2.571-2.039-3.888-.04-.458.352-.396.77-.156 1.211.1.98.08 1.941-.469 2.813.14 2.626-.228 5.191-.91 7.72 1.955.924 2.728-.853 3.912-1.702 1.682-1.942 2.216-4.377 2.789-6.763.305-1.268.291-2.614-1.278-3.239" fill="#0d0c0c"/><path d="M423.075 525.972l1.966 2.68c2.855-2.167 6.229-3.695 8.288-6.845.418-.641.965-1.189 1.11-1.976-.263-1.511-1.163-2.661-2.136-3.77-1.112-.336-1.662.446-2.029 1.205-1.421 2.932-3.458 5.242-6.319 6.842-.646.361-1.246.934-.88 1.864" fill="#151311"/><path d="M283.381 359.178c-.066.652-.106 1.256.507 1.756 2.939 2.392 5.301 5.349 8.067 8.046-1.407-4.8-2.595-9.673-6.649-13.146l-1.925 3.344" fill="#3f2d20"/><path d="M428.371 512.743c-.934 4.246-4.672 6.29-7.255 9.24-.446.484-.398.997-.087 1.524l.626.517c4.246.809 5.906-2.497 7.82-5.134 1.103-1.519 2.325-3.365.607-5.358-.503-.409-.869-1.115-1.711-.789" fill="#050505"/><path d="M320.257 513.45c-1.18.382-2.507.325-3.531 1.175 2.961-.121 5.135 1.653 7.433 3.108 2.461 1.558 4.669 3.544 7.984 4.769-1.774-3.94-4.726-6.185-7.342-8.679-1.322-1.262-3.145 1.345-4.544-.373" fill="#dededd"/><path d="M294.572 553.675l5.891.022c.225.18.434.171.624-.054-.197-4.926-2.785-9.507-2.057-14.58.214-1.489.121-3.021.168-4.533-3.704 1.259-6.878-.043-9.907-2.048-.445.644-1.012 1.244-.774 2.135 1.899 1.371 4.145 1.768 6.37 2.121 1.681.267 2.599.856 2.106 2.744-.336 1.287-.045 2.571.31 3.829.453 1.681.431 3.458.998 5.113.826 2.408.174 3.795-2.55 3.852-.436.009-.827.246-1.181.515-.197.296-.185.591.002.884" fill="#41403f"/><path d="M434.44 519.831c-3.01 2.26-4.84 5.988-8.854 7.036-.657.171-.475 1.143-.544 1.785.005.543.243.953.708 1.232 4.111.14 6.618-2.258 8.627-5.448 1.633-1.504.264-3.053.067-4.585z" fill="#070606"/><path d="M301.065 496.302c2.057-.749.222-1.416-.148-1.836-1.076-1.223-1.848-2.323-.863-4.032 1.145-1.986 2.465-3.637 4.882-4.005.017-.003.094.395.144.606 2.389-.786 3.214-2.921 4.23-4.893-.209-1.74 1.585-2.923 1.311-4.681l-.294-.349c-1.289.703-2.141 1.801-2.812 3.074-1.299 2.466-3.308 4.232-5.533 5.857-4.25 3.104-4.549 7.001-.917 10.259" fill="#c8c5bc"/><path d="M427.034 542.383c.114-.948.724-1.323 1.595-1.255 2.247.172 4.331-.451 6.372-1.264 1.324-.527 2.036-.243 1.968 1.292 1.018-1.219.795-2.622.595-4.022-2.347 1.039-4.583 2.365-7.225 2.618-2.117.203-3.604-.031-3.343-2.825.134-1.428.517-3.043-.518-4.401l-.883 14.45c1.687-1.153.138-3.319 1.439-4.593" fill="#3e3d3c"/><path d="M288.792 534.683l.499-2.2-.106-.587c-.213-.345-.435-.335-.664-.017-.942 6.423-.865 12.696 2.718 18.452.293.192.56.172.798-.091-.38-2.137-.068-3.626 2.692-3.101.735.139 1.595.011 2.21-.459 1.495-1.141 1.294-1.916-.607-2.17-5.128.226-5.798-.355-6.663-5.384-.254-1.484.113-3.103-.877-4.443" fill="#4d4b4b"/><path d="M324.9 502.943c4.443-1.202 4.434-1.2 5.299 3.361.16.847.44 1.671.665 2.506l1.265.016c1.6-1.998.236-3.624-.666-5.308l-.038-.643c-.397-1.543 1.21-3.074.03-4.621-1.935 1.912-5.131 2.063-6.555 4.689" fill="#d7d7d5"/><path d="M160.638 356.494c.814 3.9 4.527 5.56 6.578 8.504l-.01.01c.079-3.149-4.049-9.399-6.424-9.727z" fill="#47362a"/><g fill="#41403f"><path d="M429.581 513.429c.914 1.139.96 2.317.26 3.597-1.846 3.375-3.917 6.466-8.186 6.998l1.42 1.948c4.043-2.403 6.724-6.075 9.228-9.911-.434-1.45-1.448-2.44-2.618-3.305-.2.122-.282.263-.247.422.039.167.085.251.143.251m-11.643 5.9c2.492-3.485 5.454-6.65 7.249-10.611-.282-.573-.821-.643-1.368-.699-1.248 3.19-3.026 6.032-5.447 8.477-.885.893-1.795 1.594-3.123 1.5l2.601 1.926c.179-.108.252-.232.218-.372-.035-.147-.078-.221-.13-.221"/></g><path d="M411.884 480.435l.026-.696c-2.467-3.419-6.047-3.758-9.709-3.126-3.238.559-2.971 3.28-2.797 5.743.755-.444.607-1.192.633-1.88 2.194-2.443 4.792-2.791 7.706-1.483 1.449.283 2.445 1.874 4.141 1.442" fill="#c8c6c0"/><path d="M297.185 510.782c3.21 3.526 6.072 7.508 11.185 8.544-.052-.567-.186-1.131-.777-1.338-4.137-1.453-6.624-4.828-9.324-7.958l-1.084.752" fill="#403f3e"/><g fill="#41403f"><path d="M315.736 514.792c-3.112-2.628-4.43-6.224-5.395-10.01l-1.977-.067-1.496.676c.931.179 1.931.121 2.417 1.269 1.345 3.182 3.403 6.035 4.371 9.396 1.048.163 1.556-.564 2.08-1.264m-16.595 9.829c-2.829-1.283-4.711-3.616-6.592-5.95-.582.563-1.335 1.027-1.177 2.021 2.615.621 3.575 3.422 5.9 4.466 1.138.51 2.022 1.7 3.514 1.137.203-1.365-1.408-.826-1.645-1.674"/></g><path d="M331.464 503.518l.666 5.308 4.701 1.813c-1.436-3.118-3.002-5.404-5.367-7.121" fill="#faf7e8"/><path d="M331.455 498.253c-.072 1.54-1.527 3.071-.028 4.621 1.729-1.07 3.061.68 4.643.657-.837-2.123-2.106-3.923-3.957-5.288l-.658.01" fill="#fbf7e7"/><path d="M433.648 523.979c-1.409 3.605-4.609 4.815-7.898 5.905l.696 1.993c2.732-2.331 6.6-3.206 8.485-6.623.578-1.438.108-1.819-1.283-1.275" fill="#3d3c3b"/><path d="M416.469 504.231l-1.271-.085c-1.667 3.738-4.91 6.423-6.73 10.061.599.646 1.223 1.177 2.122.478.623-2.657 3.561-3.64 4.423-6.139.45-1.304 1.019-2.566 1.535-3.848.081-.174.055-.329-.079-.467" fill="#42403f"/><path d="M381.532 411.346c.232 1.93 2.063 3.301 1.881 5.375-.392 1.186.098 1.749 1.285 1.817 1.211.075 1.275 1.502 2.225 1.887.213-4.22-2.998-6.407-5.391-9.079" fill="#c3b6aa"/><path d="M320.936 523.929c-.363-3.411-2.814-4.728-4.067-6.797-.259-.427-.951-.562-1.446-.124-.416.368-.252.847.085 1.124 1.913 1.574 2.841 4.069 5.428 5.797" fill="#dedede"/><path d="M182.339 350.548c.253 3.117 3.252 3.529 4.956 5.232-1.215-2.274-1.823-5.045-4.784-5.795a.76.76 0 0 1-.172.563" fill="#433225"/><path d="M401.293 512.033c-1.598-.114-1.648 2.404-3.413 2.005-.258 1.416.833.706 1.25.685l6.698-.52a.68.68 0 0 0 .905-.121c.051-.854-.56-1.097-1.205-1.311-.736-.171-1.503-.136-2.241-.299-.682-.062-1.215-.825-1.994-.439" fill="#4d4c4b"/><path d="M320.889 474.559c-4-1.132-7.681-.945-10.562 2.553l.031.039c2.29.958 3.934-1.706 6.164-1.089 1.406-.102 2.865.192 4.18-.569.334-.256.397-.568.187-.934" fill="#c8c5bc"/><path d="M322.878 512.054c-.32-2.632-3.065-4.861-1.309-7.84l-2.729.552c1.799 2.317 2.054 5.164 2.698 7.877.607.167 1.036-.068 1.34-.589" fill="#474644"/><path d="M431.628 551.596c-1.196-1.153-2.677-.387-4.014-.586-1.128-.167-2.416.345-3.296-.816-.692.525-.627 1.31-.703 2.047 2.236.679 4.481.538 6.729.074l1.284-.719" fill="#424140"/><path d="M133.048 383.523c.827 2.04 1.784 3.994 3.616 5.393-1.337-2.397-1.229-5.484-3.636-7.344l.02 1.951" fill="#d5d3c3"/><path d="M326.162 477.164c1.795 1.297 3.314 2.871 4.649 4.631.114-2.851-1.637-4.29-3.995-5.269a1.21 1.21 0 0 0-.654.638" fill="#d6d6d5"/><path d="M301.087 553.644l-.624.053c.503 2.533.959 5.083 2.639 7.182l-2.015-7.235" fill="#1b1a19"/><path d="M326.162 477.164l.655-.638c-1.857-1.015-3.737-1.958-5.928-1.967l.008.605c.065.435.309.747.665.984a3.28 3.28 0 0 0 1.975.339z" fill="#cfcecb"/><path d="M406.659 513.959l-.831.245 7.415 2.465c-.394-1.317-1.812-1.266-2.653-1.984l-2.022-.719c-.634-.507-1.27-.5-1.909-.007" fill="#858585"/><path d="M433.648 523.979c.855-.005 1.281.423 1.284 1.275l1.408 1.984c-.219-2.569-.496-5.122-1.896-7.387-.463 1.338 1.083 3.063-.796 4.128" fill="#151311"/><path d="M349.967 413.266l.658-2.015c-1.848-.655-2.462.879-3.365 1.9.831 1.697 1.853-1.05 2.707.115" fill="#fdf9e8"/><path d="M291.891 550.331l-.326-.002-.326.002c.362 2.061 2.251 3.109 3.181 4.793l.151-1.449-.028-.723c-.44-1.323-1.309-2.212-2.652-2.621" fill="#504e4d"/><path d="M430.344 552.315l-6.729-.074-.797 1.296c2.368-1.274 5.194.273 7.526-1.222" fill="#0e0d0d"/><path d="M279.429 365.113c.008 1.6 1.379 2.228 2.208 3.272.218-1.625-.563-2.772-1.537-3.837z" fill="#55473b"/><path d="M179.164 407.92c-.931-1.437-2.137-2.578-3.89-3.203l3.223 3.87z" fill="#f8f6ef"/><path d="M237.849 350.557l.648-.651-2.519-1.958c.076 1.359.867 2.07 1.871 2.609" fill="#e1dfd4"/><path d="M332.102 361.133l2.419 2.764c-.008-1.805-.896-2.245-1.662-2.772l-.757.008" fill="#e7e4db"/><path d="M300.452 531.176c-.683.779-.743 1.708-.648 2.676l2.092-.916c-.533-.577-1.488-.789-1.444-1.76" fill="#d7d6d6"/><path d="M427.649 558.245c-1.006.602-1.879 1.301-1.924 2.611 1.311-.377 1.877-1.302 1.924-2.611" fill="#201e1c"/><path d="M239.853 370.316c.285.713.716 1.293 1.636 1.698.27-1.111-.387-1.715-1.014-2.33l-.622.632" fill="#f0efea"/><path d="M421.029 523.507l.087-1.524-1.498-.558c-.624 1.436.781 1.496 1.411 2.082" fill="#242221"/><path d="M254.355 363.065c.291.706.724 1.282 1.636 1.687.273-1.101-.385-1.717-.972-2.359l-.664.672" fill="#f1efea"/><path d="M288.521 531.878l.665.017.038-3.391c-.949.976-.924 2.155-.703 3.374" fill="#41403f"/><path d="M260.243 351.233l.656-.651c-.378-.594-.835-1.636-1.556-.925s.325 1.18.9 1.576" fill="#e1dfd4"/><g fill="#242221"><path d="M429.581 513.429l.104-.673c-.52-.788-.889-1.73-1.98-1.932l.666 1.919 1.21.686m-11.643 5.9l-.088.593c.496.657.989 1.317 1.832 1.567-.106-1.103-.968-1.598-1.744-2.16"/></g><path d="M283.965 353.203l.677.007c-.526-.654-1.141-1.145-2.045-1.039-.028.003-.08.448-.02.476.449.215.922.377 1.388.556" fill="#ebe9e2"/><path d="M180.463 346.624l.012-.71c-.26-.622-.696-1.01-1.582-1.201.182 1.102.868 1.514 1.57 1.911" fill="#e4e2d8"/><path d="M208.94 365.065c-2.084-4.28-4.982-7.952-8.377-11.261-.667-.65-1.269-1.222-2.238-.602l-1.367 2.642 7.92 7.25c1.307.753 2.388 1.974 4.062 1.971" fill="#fdfdfc"/><path d="M258.273 371.001c-.421-.872-1.042-1.512-2.521-2.085.771 1.487 1.539 2.208 2.521 2.75v-.665" fill="#e0decd"/><path d="M238.431 383.525c-.347-1.529-.508-2.438-1.629-2.888-.113 1.141.421 1.849 1.629 2.888" fill="#dbd8c7"/><path d="M308.296 351.864l2.825-18.341c.151-1.152.856-2.689-1.472-2.121-4.732 6.458-7.453 13.655-7.973 21.663.771 3.13 4.285 2.802 5.991 4.753.956-1.058.923-2.143.087-3.25-.044-1.518-1.984-1.639-2.244-3.031 1.036-.703 1.832.515 2.786.327" fill="#fbfbfb"/><path d="M307.754 354.569l-.087 3.249c4.33 3.296 7.464 7.722 10.777 12.102.847-1.124.544-1.824.192-2.506-2.469-4.788-5.721-8.981-9.694-12.609-.255-.233-.786-.165-1.188-.236" fill="#3e2d20"/><path d="M328.541 367.859c-1.277-4.142-2.902-8.072-6.731-11.238-1.103 6.166 4.427 7.72 6.731 11.238" fill="#f7f6f5"/><path d="M307.116 362.521c-.765-2.758-2.766-4.516-4.976-6.475-1.593 5.113 2.97 6.686 4.82 9.659 1.136-1.008.737-2.092.156-3.184" fill="#f5f4f3"/><path d="M307.116 362.521l-.156 3.184 5.626 7.15c-.502-4.183-2.183-7.695-5.47-10.334" fill="#423124"/><path d="M379.516 438.189c-.888.119-1.586.499-1.913 1.39-1.218 8.182-1.072 16.231 2.267 23.983-1.526-8.452-1.425-16.904-.354-25.373" fill="#dcd2c1"/><path d="M359.835 440.148l-1.317-.608c-1.495 6.097-1.558 12.599-5.1 18.119-.353.55-.812 1.037-1.117 1.609s-1.838.541-1.023 1.587c.679.872 1.593.388 2.287-.26 1.907-1.776 2.953-4.051 3.608-6.509.702-2.632 1.303-5.292 1.946-7.939-.739-1.093.319-2.179.012-3.27.087-.948-.268-2.01.704-2.729" fill="#dad0bf"/><path d="M342.007 475.489c3.332.048 5.996-1.917 8.302-4.54.393-.448 1.107-.975.352-1.598-.615-.509-1.208-.07-1.708.406-.865.823-1.636 1.811-2.637 2.411-2.372 1.421-4.845 2.699-7.505.493-.484-.4-1.092-.973-1.635-.179-.48.701.193 1.163.617 1.635 1.033 1.153 2.356 1.5 4.214 1.372" fill="#363635"/><path d="M359.131 442.877c-.956 1.087-.957 2.177-.011 3.27-.091-1.09 1.397-2.175.011-3.27" fill="#d5caba"/><path d="M171.354 351.269l-.233 2.429c.758 2.692 3.214 3.894 5.058 5.669-1.195-2.954-2.862-5.614-4.825-8.098" fill="#f5f3f1"/><path d="M167.215 364.998c1.038 2.026 2.392 3.818 4.027 5.4.186-.156.253-.315.199-.48s-.112-.25-.172-.25l-2.007-3.972c-.47-1.035-1.172-1.056-2.056-.688z" fill="#f6f5f1"/><path d="M171.269 369.668l-.027.729.584 1.378c.028.057.47-.005.473-.037.086-.895-.403-1.519-1.03-2.07" fill="#e8e5dc"/><path d="M189.53 358.02c-.299-.209-.609-.572-.974-.64-.401-.073-.471.352-.236.602.279.299.665.497 1.005.739l.205-.701" fill="#e3e0d6"/><path d="M384.698 418.538l-1.285-1.817-4.098-3.232c-2.382-2.099-4.748-1.867-7.131-.095-1.924 1.43-3.569 1.35-5.602-.124-4.418-3.201-7.576-2.881-11.537.345-3.571 2.908-2.693 6.727-2.159 10.312.413 2.775 4.934 6.299 7.629 6.337l18.72-.001c2.557-.037 5.475-4.003 5.629-7.469.063-1.414-.104-2.837-.166-4.256" fill="#3b281c"/><path d="M309.648 331.402c1.568-.04 1.174 1.281 1.473 2.121.432-1.143 1.254-2.298-.102-3.388l-1.371 1.267" fill="#b3a9a4"/><path d="M323.537 476.487c-.471-.773-1.247-.631-1.968-.656-1.677-.875-3.601.248-5.275-.655-2.391-.58-3.887 1.529-5.937 1.975.211 1.739-2.774 2.643-1.237 4.73l.445.045c1.329-.001 2.745-.263 3.561 1.221.903 1.246 1.032 2.581.622 4.053-.28 1.007-.948 2.041-.146 3.116 3.265-4.041 6.561-8.017 10.866-11.079 1.645-1.171-.943-1.698-.931-2.75" fill="#d9d6c6"/><path d="M313.603 490.316c.707-2.57 2.669-5.143-.013-7.707-1.314-1.42-2.84-1.522-4.508-.722l.039-.006-4.04 5.154c-1.112 2.681.161 4.927 3.06 5.065 1.365.065 2.755-.38 4.133-.594l1.329-1.19" fill="#3e3e3e"/><path d="M407.938 478.463c-4.614-1.912-6.366-1.465-7.9 2.012 1.853 1.224 2.7 3.169 3.089 5.158.421 2.145 1.437 3.819 2.821 5.378.398-.361.539-.827.554-1.344-.027-.877-.376-1.682-.584-2.52-.931-3.757-.574-4.613 2.726-6.577-.354-2.496-2.366-.873-3.309-1.45.747-.141 1.848.295 2.603-.657" fill="#d6d3c3"/><path d="M417.831 496.942c.962-.882 2.022-1.68 2.855-2.67.69-.82 1.387-1.891-.22-2.634l-3.313 4.624.678.68" fill="#e4e2d6"/><path d="M405.937 489.742l.011 1.269 1.31 1.308c1.112.086 1.895 1.969 3.272.597-1.169-1.582-2.635-2.734-4.593-3.174" fill="#d5d2c1"/><path d="M399.259 503.506l.155-1.211-.084-1.446c-.238-.386-.447-.307-.641.039.097.893-.271 1.888.57 2.618" fill="#fdf9e8"/><path d="M405.937 489.742c1.275 1.428 2.676 2.675 4.593 3.174l-.017.017c.975-.795 2.397.302 3.303-.781 4.172-2.755 4.307-3.799.834-7.362-1.052-1.078-2.23-2.033-3.35-3.046-.558-1.147-1.398-1.721-2.712-1.327-3.664.411-4.644 1.533-4.047 5.014.253 1.474.918 2.876 1.396 4.311" fill="#3c3c3c"/><path d="M408.588 480.417l2.712 1.327c1.196.011.863-.661.584-1.308-1.285-.718-2.351-1.876-3.946-1.973-1.427.019-2.858-.004-4.282.078-.668.039-1.418.368-1.306 1.159.138.981.935.606 1.544.455 1.592-.395 3.185-.839 4.694.262" fill="#dfddd0"/><path d="M413.815 492.152c-1.091.304-2.37-.191-3.302.781 1.131-.132 2.464.592 3.302-.781" fill="#d5d2c1"/><path d="M406.659 513.959l1.909.008c3.008-2.736 6.045-5.45 6.629-9.821-.663-.635-1.506-.682-2.351-.715-2.263-.702-3.769-.055-4.416 2.35-.491 1.823-1.759 3.188-2.898 4.636-.658.838-1.926 1.799-.252 2.912l1.379.63" fill="#050505"/><path d="M405.28 513.329c-.85-1.379.438-1.897 1.096-2.633 1.219-1.365 2.591-2.689 2.844-4.571.305-2.264 1.689-2.777 3.624-2.694-1.247-.985-2.702-.67-4.109-.655-2.555-.735-4.152-.24-4.407 2.847-.141 1.7-.88 3.357-1.543 4.976-.351.857-.989 1.79.051 2.65l2.444.08" fill="#12100e"/><path d="M402.836 513.25l2.521-9.307c.534-1.779 2.31-.584 3.378-1.166l-5.432-.442c1.612 3.707-.779 6.583-2.01 9.699l1.543 1.216" fill="#403e3d"/><path d="M288.792 534.683c-.109 2.065-.007 4.084.415 6.147.881 4.305 2.9 5.577 7.304 4.234.654-.54 2.246-.458 1.347-2.029-.077-.956-.496-2.05-.173-2.842 1.38-3.383-.178-4.391-3.223-4.326-1.993.043-3.624-1.549-5.67-1.184" fill="#121211"/><path d="M297.857 543.034c.087 1.033-.922 1.337-1.347 2.029.455.141 1.312.186.556.892-.766.717-1.859.414-2.817.419-4.213.02-4.213.009-2.358 3.957.595 1.165 1.496 2.022 2.652 2.621l1.957.004c2.755.171 3.885-.751 2.86-3.67-.707-2.011-1.016-4.163-1.503-6.252" fill="#1b1a19"/><path d="M316.294 475.176c1.622 1.319 3.526.36 5.275.655l-.671-.667-4.604.012" fill="#e1dfd3"/><path d="M358.565 424.406c1.798.006 5.856-3.314 5.82-4.894-.049-2.088-1.335-3.503-3.242-3.853-1.576-.288-5.836 4.512-5.757 6.093.062 1.227 1.765 2.649 3.179 2.654" fill="#17191a"/><path d="M380.23 423.153c1.949-.331 3.126-.931 1.892-3.208-.931-1.716-2.382-2.776-3.94-3.744-.766-.476-1.667-1.402-2.603-.466-.832.833-1.57 1.888-1.003 3.199 1.072 2.478 2.879 3.999 5.654 4.219" fill="#18191b"/><path d="M309.081 481.888c1.653-.698 3.108-.161 4.509.722-1.194-2.175-2.757-2.035-4.509-.722" fill="#cbc9bc"/><path d="M390.266 475.669c-3.332.048-5.995-1.917-8.301-4.541-.393-.447-1.108-.974-.353-1.598.616-.508 1.208-.069 1.709.407.864.823 1.635 1.811 2.636 2.411 2.372 1.421 4.845 2.699 7.506.493.483-.4 1.091-.973 1.634-.179.48.701-.193 1.163-.616 1.635-1.034 1.153-2.357 1.5-4.215 1.372" fill="#363635"/></g></svg>