<svg xmlns="http://www.w3.org/2000/svg" viewBox="0 0 149.79 162.5"><defs><style>.cls-1{fill:#fdf9e8;}.cls-2{fill:#b9aa9b;}.cls-3{fill:#ece9d7;}.cls-4{fill:#e0e1e0;}.cls-5{fill:#ece9d8;}.cls-6{fill:#080807;}.cls-7{fill:#080706;}.cls-8{fill:#0e0d0d;}.cls-9{fill:#0f0e0d;}.cls-10{fill:#d9d6c6;}.cls-11{fill:#0b0a09;}.cls-12{fill:#1a1918;}.cls-13{fill:#d9d6c7;}.cls-14{fill:#050505;}.cls-15{fill:#e6e6e5;}.cls-16{fill:#070706;}.cls-17{fill:#cccac1;}.cls-18{fill:#171716;}.cls-19{fill:#0f0e0e;}.cls-20{fill:#151311;}.cls-21{fill:#161312;}.cls-22{fill:#060605;}.cls-23{fill:#41403f;}.cls-24{fill:#c8c6bc;}.cls-25{fill:#3f3d3c;}.cls-26{fill:#4d4c4b;}.cls-27{fill:#d7d6d5;}.cls-28{fill:#41403e;}.cls-29{fill:#c8c6c0;}.cls-30{fill:#413f3e;}.cls-31{fill:#42403e;}.cls-32{fill:#faf6e8;}.cls-33{fill:#fbf7e8;}.cls-34{fill:#3e3c3b;}.cls-35{fill:#42403f;}.cls-36{fill:#c3b7aa;}.cls-37{fill:#4e4c4b;}.cls-38{fill:#484544;}.cls-39{fill:#434140;}.cls-40{fill:#d6d6d6;}.cls-41{fill:#1b1a19;}.cls-42{fill:#cfceca;}.cls-43{fill:#858485;}.cls-44{fill:#504e4d;}.cls-45{fill:#201e1d;}.cls-46{fill:#242221;}.cls-47{fill:#dcd2c1;}.cls-48{fill:#dad0bf;}.cls-49{fill:#363635;}.cls-50{fill:#d5caba;}.cls-51{fill:#3b291c;}.cls-52{fill:#d9d6c5;}.cls-53{fill:#3e3e3e;}.cls-54{fill:#d6d3c3;}.cls-55{fill:#e3e1d6;}.cls-56{fill:#d4d1c1;}.cls-57{fill:#3c3c3b;}.cls-58{fill:#e0ddd1;}.cls-59{fill:#12100e;}.cls-60{fill:#403e3d;}.cls-61{fill:#131212;}.cls-62{fill:#e1dfd3;}.cls-63{fill:#17191b;}.cls-64{fill:#181a1b;}.cls-65{fill:#cbc9bc;}</style></defs><g id="Layer_2" data-name="Layer 2"><g id="Layer_1-2" data-name="Layer 1"><path class="cls-1" d="M88.93,63.54v-.69c6.39.95,10.48,4.85,13.44,11,.89-2.55,1.1-4.75,2.08-6.67,1.12-2.17,2.06-2.3,3.56-.39.82,1,1.59,2,3,2.23a2.08,2.08,0,0,1,.62,1.15c.09,4.68.36,9.36.38,14a1.63,1.63,0,0,1-.67,1.09c-3,.91-2.25,3.94-3.31,5.94-1.84,1-3.68-.85-5.63.1-1,.48-2,.67-2.1,2-1.72.93-3.57,1.69-4.85,3.32a9.66,9.66,0,0,1,7.6-3.31c1.79,0,3.8.38,4.34,2.73-1.61.83-1.32,2.33-1.31,3.72a144.5,144.5,0,0,1-3.28,30.05c-.78,3.72-2.89,7-3.34,10.88-1.5.1-2-1.18-2.66-2.09-2.09-2.91-4.67-5.48-6.12-8.84-1.36-7.39-.73-14.75,0-20.94-1,5-.86,11.15-.76,17.35,0,1,.45,2-.31,2.84-2.37.91-4.77.14-7.11,0a72.51,72.51,0,0,0-10.42-.26c-1.39-.36-1.26-1.59-1.49-2.61a7.23,7.23,0,0,0-.29-3.8c-.93-3.47-1.42-7.07-2.93-10.38a9.56,9.56,0,0,0-2.22-3.31c4.12,6.25,5.22,13.24,5.56,20.44C63.72,135,62,142.73,63,151.41c.14,1.2.33,2.42-1.07,3.09a137.4,137.4,0,0,1-9.37-25.7c-1.39-5.83-3.66-11.43-5.26-17.21-1.75-6.31-1.78-12.9-2.57-19.36-.33-2.77-.29-5.59-1.29-8.26-.14-3.35.49-6.65.68-10,2.27-3.17,6-4.12,9.14-6a.92.92,0,0,1,1.2.2c.47.68,0,1.29-.42,1.73-1.49,1.43-3.16,2.67-4.7,4.28a24.31,24.31,0,0,0,8.37-3.32c1.27-.75,2.44-1.95,4.17-1.39l.66.66c-.29,3.54-4.23,3.7-5.3,6.2,5.78-2.6,12.21-4.75,16.27-10.65.46-.68,1-1.71,2-1.41,1.19.37.06,1.85.87,2.54-.14.66-1,1.32,0,2,1,2.07,0,3.76-.87,5.37a11.61,11.61,0,0,0,5.11-6.67c.35-1.13.58-2.63,2-2.68s2,1.38,2.55,2.6c1.08,2.23,2.93,4.17,2.11,7C88.38,70.85,88.4,67.15,88.93,63.54Z"/><path class="cls-2" d="M91.51,130.17l7.95,10.51c.44,2.47.94,4.94-.55,7.26-.84.51-.34,2.78-2.34,1.79-.76-1.18-.51-2.54-.65-3.83-.55-4.83-2.91-7-7.71-7s-9.85-.14-14.78.06a9,9,0,0,0-7.8,6.07c-1.15,4.45.23,8,3.76,10.31,2.92,1.9,5.64.73,8-.71,2.81-1.69,5.22-1.82,7.91,0,1.72,1.16,3.46.89,5.22-.23,1.55-1,2.8-2.51,4.8-2.69,1.5,2.5-1.32,3.51-1.82,5.32a15.31,15.31,0,0,1-13.47,5.41c-1.63-.14-3.29,0-4.93,0-4.62-.71-9.47-.9-12.5-5.34-.88-.46-.24-1.41-.66-2a1.73,1.73,0,0,0,0-.6c.75-3.11-.5-6.22-.06-9.34.91-6.49,2.22-12.75,8.62-16.34.27-.56.92-.32,1.31-.6,6-1.64,11.86.18,17.77.56A3,3,0,0,1,91.51,130.17Z"/><path class="cls-3" d="M44.77,73.41C44.66,77,45.3,80.63,43.46,84l-.66,2.6c-.65,2.47-2.42,3.9-4.6,5-.85.28-1.61,1.06-2.62.51,1-2.21-.32-3.25-2-4.35-3.53-2.29-5.79-5.85-8.42-9A12.92,12.92,0,0,1,23.42,77a15.21,15.21,0,0,0-6.16-4.73c-2.26-.85-1.91-2.13-.53-3.37,3.1-2.76,6.21-5.49,10.9-4.94a52.67,52.67,0,0,0,6.53,0,4.86,4.86,0,0,1,2.85.76c1.83,2.2,4.71,2.91,6.81,4.74a3.05,3.05,0,0,1,.64.7A4.13,4.13,0,0,1,44.77,73.41Z"/><path class="cls-4" d="M44.77,73.41a5.34,5.34,0,0,1-.67-3.29c.74-2.2,2.41-3.7,4-5.29,2.32-2.71,6.22-2.52,8.85-4.79a18.25,18.25,0,0,1-5.72,7.13c6.4-2.21,12.66-4.56,18.68-8.86-1.66,4.92-5.35,7.66-8,11.15-4.67,2.43-9,5.66-15.17,5.84l7.57-6.63-.24-.33Z"/><path class="cls-5" d="M111.34,85.29c.39-4.52-1.61-9-.17-13.57A3.28,3.28,0,0,0,110,68.8a.89.89,0,0,1,.31-1.49,2,2,0,0,0,1.58-.27,7.84,7.84,0,0,0,3.84.54c4-.45,8.12-1.06,11.84,1.31,1,.63,2.25,1,2.52,2.39a1.22,1.22,0,0,1-.72,1.11c-3.83-.3-6.75,1.74-9.64,3.83A22.31,22.31,0,0,0,118.3,78a15.77,15.77,0,0,0-2.51,5.2c-.59,2-1.13,4.23-3.62,4.92-.86-.47-.16-1.52-.78-2.08Z"/><path class="cls-4" d="M110.68,67.48A1.35,1.35,0,0,0,110,68.8c-.08,1-.53,1.2-1.16.44-.89-1.08-1.66-2.25-2.6-3.55-2.32,2.76-2,6.3-3.79,10.09-2.57-7-7.56-10.51-13.55-12.93a8,8,0,0,0-.12-6.25,18.27,18.27,0,0,1,11.28,8.81c.49.82.59,2.27,1.65,2.24,1.38,0,1-1.71,1.54-2.59a27.77,27.77,0,0,0,1.22-3c.39-.86-.11-2.34,1-2.58,1.34-.28,1.85,1.27,2.71,2s1.07,3.12,2.55.57c1.45.4,1.2,1.55,1.15,2.61A5.55,5.55,0,0,1,110.68,67.48Z"/><path class="cls-6" d="M12.44,37.19c0,3.28,2.84,5.06,4.11,7.67-1.89.36-3.55-.69-5.34-.89-.44,0,.2-1.4-.79-.67a43.57,43.57,0,0,0-4.06,3.29c-.78.74-1.54,2-3,1.08a17.94,17.94,0,0,1-2.15-7.81,6.45,6.45,0,0,1-.29-3.14,3.16,3.16,0,0,1,.19-1.06c2.95-3.27,7-4,10.08-1.83l.6.68C12.64,35.25,11.73,36.41,12.44,37.19Z"/><path class="cls-7" d="M18.86,63a14.17,14.17,0,0,1-8.6-4.64c1.51-4.69,5.49-6.81,9.38-9a3.31,3.31,0,0,1,.83-.39c2.2.4,3.51,2.17,5.18,3.4.73,3.85-2.36,6.29-3.54,9.44C21.57,63.21,20.29,63.48,18.86,63Z"/><path class="cls-7" d="M138.43,36.49l0-.65a14.69,14.69,0,0,0,.21-5.16c-.11-2.13.8-3.08,2.82-2.91,3.05.25,6.07.69,8.05,3.46a18.25,18.25,0,0,1-1.22,9.9c-.81.54.08,2-1.28,2.28C144.35,40.89,140.54,39.75,138.43,36.49Z"/><path class="cls-8" d="M139.64,10.12c1.33,1.84,2.24,4,4,5.5a.77.77,0,0,1-.1,1.26,3.48,3.48,0,0,1-2-.38c-2.27-.53-4.89.34-6.79-1.67-2.44-6.1-7.56-10-12.93-14.83,7,.48,11.55,3.75,15.84,7.51C138.31,8.41,139.1,9.17,139.64,10.12Z"/><path class="cls-9" d="M125.23,51.69l2-1.32a2,2,0,0,1,2.13-.21c2.58,1,6.44,7.16,6.44,10.18-2.17,1.67-4.44,3.11-7.27,3.32-1.89-3.4-4.94-6.06-6.32-9.79C122.87,52.65,124.27,52.48,125.23,51.69Z"/><path class="cls-10" d="M34.4,64.74c-2.95,0-5.9,0-8.85.13-4.21.26-6.88,3-9.86,5.92a14.47,14.47,0,0,1,8.57,6.07c-.66.55-1.41.33-2.15.28-3.46-.24-4.31.56-4.5,4.11-.14,1.53-.81,1.71-2.17,1.09-4-1.88-4.88-5.37-2.39-10.28a37.27,37.27,0,0,1,6.76-6.58c.78-.54,1.06-1,.54-1.83a3.64,3.64,0,0,1,2.06-1,40.8,40.8,0,0,1,7.89.12c1,.26,2.09.5,3.13.79A1.41,1.41,0,0,1,34.4,64.74Z"/><path class="cls-4" d="M76.39,66.8c-.86-.42-.42-1.41-1-2.25C70.63,72,63.25,75,55.32,77.29c1.93-2.93,5.31-4.3,7.24-7.17A44.77,44.77,0,0,0,76.62,59C77.74,62,76.32,64.36,76.39,66.8Z"/><path class="cls-4" d="M88.93,63.54a17.1,17.1,0,0,1-1.87,12.18c0-3.45-1.27-6.17-2.73-8.83-.41-.75-.81-1.76-1.83-1.56s-.7,1.22-.88,1.94a11.21,11.21,0,0,1-6.86,8l1.63-6.53c1.91-3.79,5.43-6.52,6.85-10.66A14.13,14.13,0,0,1,85.6,68C88.05,67.07,87.66,64.7,88.93,63.54Z"/><path class="cls-11" d="M30.83,63.6l-8.5,0a2,2,0,0,1-.09-2.38c1-2,2-4.07,3-6.05.51-.93,1-2,2.45-1.58l1,.17c1.15.45,2.61,0,3.53,1.17l1.28.81C34.37,58.85,33.18,62.32,30.83,63.6Z"/><path class="cls-12" d="M34.4,64.74l-.84-.59c-1.77-.9-1.07-2.34-.7-3.6.44-1.51.74-3.11,2-4.24,2.38-.31,4.62.64,7,.71,2.13.07.3,1.84,1,2.53.7,1,.31,2.1.14,3.14-.68,4.3-2.27,5-6.1,2.73C36.21,64.66,35.28,64.78,34.4,64.74Z"/><path class="cls-13" d="M119.25,76c2.08-2.87,7.12-4.88,9.89-3.94,2.15.79,3,2.63,3.59,4.6.27,1.64-1.87,2.32-1.58,4a14.19,14.19,0,0,1-7.25,8,1.16,1.16,0,0,1-.38-.73c.16-.62.49-1.29-.47-1.59.45-1.34,1.71-2,2.61-2.89,3-3.06,3-3.71-.1-6.59a4.13,4.13,0,0,0-2.42-.82l-.86-.14C121.25,75.64,120.29,76.59,119.25,76Z"/><path class="cls-14" d="M11.13,43.74c1.94-.26,3.82-.27,5.42,1.12h0c.59.89,1.52,1.89,0,2.68a27.25,27.25,0,0,0-7.72,6.94,1.44,1.44,0,0,1-1.75.5C5.7,53.49,5.2,51.55,4.54,49.69,5.63,46.49,7.65,44.3,11.13,43.74Z"/><path class="cls-15" d="M50.69,145.27a50.62,50.62,0,0,1-5.28-17.14L43.46,99.8a29.56,29.56,0,0,1,2,10.09c.4,7.62.62,15.26,2,22.79a30.22,30.22,0,0,0,5.09,12.67,42.73,42.73,0,0,1,4.81,8.51c-2.7-1.46-2.9-4.9-5.26-6.61A2,2,0,0,0,50.69,145.27Z"/><path class="cls-16" d="M139.69,57.54c-.72.83-1.06,2.14-2.51,2.11a.7.7,0,0,1-1.06-.34,27,27,0,0,0-6.5-9.07,1,1,0,0,1-.15-.92c.48-1,1.6-1.51,2.2-2.45l-.06.07a1.56,1.56,0,0,1,1.65-.74c3.4,2.36,6.84,4.7,7.54,9.27A4.85,4.85,0,0,1,139.69,57.54Z"/><path class="cls-17" d="M131.15,80.67c-1.16-1.84.82-2.65,1.31-4,.48-2.44-2.07-3.38-2.64-5.3-4.34-4-11.86-4.7-17.81-1.57-2.27-.22,2.81-2.45-.69-2.34a1.31,1.31,0,0,1-.11-1.4c1.38-.66,2.89-.58,4.35-.79a18.31,18.31,0,0,0,4.9-.39c1.26-.31,2.59-.19,3.84-.59.93-.22,1.87-.41,2.81-.59a1.77,1.77,0,0,1,1.35.38c-.47,1.73-2.51,1.15-3.5,2.43,2.09,1.34,4.4,2.31,6.25,4C135.54,74.46,135.54,76.77,131.15,80.67Z"/><path class="cls-18" d="M6.41,13.24a14.21,14.21,0,0,1,6.1-8c.93-.55,1.72-2.25,2.9-1.17.95.86.62,2.35-.32,3.43-1.27,2.38-1.31,5.19-2.67,7.54a8.78,8.78,0,0,1-6.06-.23A1.76,1.76,0,0,1,6.41,13.24Z"/><path class="cls-19" d="M143.62,16.77l0-1.15c2.49,2.22,4.44,4.7,4.08,8.31a2.18,2.18,0,0,1-2.17-.15c-3-1.25-5.36-1-6.76,2.32-1.82-1.21.2-3.4-1.22-4.71-.42-1.08-.85-2.15-1.27-3.22-.06-1.62,1.22-1.46,2.21-1.64C140.23,16.23,141.91,16.78,143.62,16.77Z"/><path class="cls-20" d="M7.12,55c3.07-2.87,5.32-6.66,9.5-8.31.66-.26-.12-1.19-.07-1.81,1.89.79,2.92,2.4,3.92,4l-.11.13c-3.87,2.14-7.59,4.44-10,8.32a.88.88,0,0,1-1.16.22C8,57.12,7.55,56.05,7.12,55Z"/><path class="cls-14" d="M139,26c.13-4.31.13-4.21,4.87-3.46a11.64,11.64,0,0,1,3.84,1.41A5.26,5.26,0,0,1,149,27.21c.45,1.3.65,2.59-1.38,2.05A31,31,0,0,0,140,27.78C139.06,27.76,138.44,27.09,139,26Z"/><path class="cls-8" d="M115.29,66c-1.3-.43-2.57,2-3.89,0a.84.84,0,0,1-.15-1.21,4.27,4.27,0,0,0-.47-2.82,24.57,24.57,0,0,0-.91-7.72c1.95-.92,2.73.86,3.91,1.71,1.68,1.94,2.22,4.37,2.79,6.76C116.88,64.06,116.86,65.4,115.29,66Z"/><path class="cls-21" d="M135.07,42.39l2-2.68c2.86,2.17,6.23,3.7,8.29,6.85a5.58,5.58,0,0,1,1.11,2,7.76,7.76,0,0,1-2.14,3.77c-1.11.34-1.66-.44-2-1.2a15.06,15.06,0,0,0-6.32-6.84C135.3,43.89,134.7,43.32,135.07,42.39Z"/><path class="cls-22" d="M140.36,55.62c-.93-4.25-4.67-6.29-7.25-9.24a1.16,1.16,0,0,1-.09-1.52l.62-.52c4.25-.81,5.91,2.5,7.82,5.13,1.11,1.52,2.33,3.37.61,5.36C141.57,55.24,141.2,56,140.36,55.62Z"/><path class="cls-23" d="M6.56,14.69l5.89,0a.4.4,0,0,1,.63.05c-.2,4.93-2.79,9.51-2.06,14.58a42.67,42.67,0,0,1,.17,4.53c-3.71-1.26-6.88.05-9.91,2.05-.44-.64-1-1.24-.77-2.13a14.23,14.23,0,0,1,6.37-2.13c1.68-.26,2.6-.85,2.1-2.74a7.36,7.36,0,0,1,.31-3.83c.45-1.68.43-3.46,1-5.11.83-2.41.17-3.8-2.55-3.85a2.07,2.07,0,0,1-1.18-.52A.74.74,0,0,1,6.56,14.69Z"/><path class="cls-7" d="M146.43,48.53c-3-2.26-4.84-6-8.86-7-.65-.17-.47-1.15-.54-1.79a1.37,1.37,0,0,1,.71-1.23c4.11-.14,6.62,2.26,8.63,5.45,1.63,1.5.26,3,.06,4.58Z"/><path class="cls-24" d="M13.05,72.06c2.06.75.23,1.42-.14,1.84-1.08,1.22-1.85,2.32-.87,4,1.15,2,2.47,3.64,4.89,4,0,0,.09-.39.14-.6,2.39.78,3.21,2.92,4.23,4.89-.21,1.74,1.58,2.92,1.31,4.68l-.29.35a7,7,0,0,1-2.81-3.07A17.44,17.44,0,0,0,14,82.32C9.72,79.22,9.42,75.32,13.05,72.06Z"/><path class="cls-25" d="M139,26a1.34,1.34,0,0,0,1.6,1.26A14.08,14.08,0,0,1,147,28.5c1.32.53,2,.24,2-1.29,1,1.22.79,2.62.59,4-2.34-1-4.58-2.37-7.22-2.62-2.12-.2-3.6,0-3.34,2.83.13,1.42.51,3-.52,4.4q-.45-7.23-.89-14.45C139.27,22.54,137.72,24.71,139,26Z"/><path class="cls-26" d="M.78,33.68c.17.73.33,1.47.5,2.2,0,.2-.06.39-.11.59-.21.34-.43.33-.66,0C-.43,30.06-.35,23.79,3.23,18a.56.56,0,0,1,.8.09c-.38,2.14-.07,3.63,2.69,3.1a2.9,2.9,0,0,1,2.21.46c1.49,1.14,1.29,1.92-.61,2.17-5.13-.22-5.8.36-6.66,5.39C1.4,30.72,1.77,32.34.78,33.68Z"/><path class="cls-27" d="M36.89,65.42c4.44,1.2,4.43,1.2,5.3-3.36.16-.85.44-1.67.66-2.51h1.27c1.6,2,.23,3.62-.67,5.31l0,.64c-.4,1.54,1.21,3.07,0,4.62C41.51,68.2,38.31,68.05,36.89,65.42Z"/><path class="cls-23" d="M141.57,54.93a3,3,0,0,0,.26-3.59c-1.85-3.38-3.92-6.47-8.19-7l1.43-2c4,2.4,6.72,6.08,9.22,9.91a6.44,6.44,0,0,1-2.62,3.31q-.3-.2-.24-.42C141.47,55,141.51,54.93,141.57,54.93Z"/><path class="cls-28" d="M129.93,49c2.49,3.49,5.45,6.65,7.25,10.62a1.47,1.47,0,0,1-1.37.69,24.59,24.59,0,0,0-5.45-8.47,3.85,3.85,0,0,0-3.12-1.5l2.6-1.93c.18.11.25.23.22.37S130,49,129.93,49Z"/><path class="cls-29" d="M123.87,87.93l0,.69c-2.47,3.42-6.05,3.76-9.71,3.13-3.24-.56-3-3.28-2.8-5.74.76.44.61,1.19.64,1.88,2.19,2.44,4.79,2.79,7.7,1.48C121.18,89.09,122.18,87.5,123.87,87.93Z"/><path class="cls-30" d="M9.17,57.58c3.21-3.53,6.08-7.51,11.19-8.54-.05.56-.19,1.13-.78,1.34-4.14,1.45-6.62,4.82-9.32,7.95Z"/><path class="cls-31" d="M27.73,53.57c-3.12,2.63-4.43,6.23-5.4,10l-2,.07L18.86,63c.93-.18,1.93-.12,2.41-1.27,1.35-3.18,3.41-6,4.38-9.39C26.69,52.14,27.2,52.87,27.73,53.57Z"/><path class="cls-23" d="M11.13,43.74C8.3,45,6.42,47.36,4.54,49.69c-.58-.56-1.34-1-1.18-2,2.62-.62,3.58-3.42,5.9-4.46,1.14-.51,2-1.7,3.51-1.14C13,43.43,11.37,42.89,11.13,43.74Z"/><path class="cls-32" d="M43.45,64.85c.23-1.77.45-3.54.67-5.31l4.7-1.82A17,17,0,0,1,43.45,64.85Z"/><path class="cls-33" d="M43.44,70.11c-.07-1.54-1.52-3.07,0-4.62,1.73,1.07,3.06-.68,4.64-.66a11.81,11.81,0,0,1-4,5.29Z"/><path class="cls-34" d="M145.64,44.38c-1.41-3.6-4.61-4.81-7.9-5.9l.69-2c2.74,2.33,6.61,3.2,8.49,6.62C147.5,44.55,147,44.93,145.64,44.38Z"/><path class="cls-35" d="M128.46,64.13l-1.27.09c-1.67-3.74-4.91-6.43-6.73-10.06.6-.65,1.22-1.18,2.12-.48.62,2.65,3.56,3.64,4.42,6.14.45,1.3,1,2.56,1.54,3.84A.39.39,0,0,1,128.46,64.13Z"/><path class="cls-36" d="M93.52,157c.23-1.93,2.06-3.3,1.88-5.38-.39-1.18.1-1.75,1.29-1.81s1.27-1.51,2.22-1.89C99.13,152.16,95.91,154.34,93.52,157Z"/><path class="cls-37" d="M113.28,56.33c-1.59.11-1.65-2.4-3.41-2-.26-1.41.83-.7,1.25-.68,2.24.11,4.47.33,6.7.52a.68.68,0,0,1,.9.12c0,.85-.56,1.1-1.2,1.31s-1.5.14-2.24.3S114.06,56.72,113.28,56.33Z"/><path class="cls-24" d="M32.88,93.8c-4,1.14-7.68,1-10.56-2.55l0,0c2.29-1,3.93,1.71,6.16,1.09,1.41.1,2.87-.19,4.18.57A.64.64,0,0,1,32.88,93.8Z"/><path class="cls-38" d="M34.87,56.31c-.32,2.63-3.07,4.86-1.31,7.84l-2.73-.55c1.8-2.32,2.05-5.17,2.7-7.88A1.1,1.1,0,0,1,34.87,56.31Z"/><path class="cls-39" d="M143.62,16.77c-1.2,1.15-2.68.38-4,.58-1.12.17-2.41-.34-3.29.82-.69-.53-.63-1.31-.7-2.05a13.31,13.31,0,0,1,6.72-.07Z"/><path class="cls-40" d="M38.15,91.2a22,22,0,0,0,4.65-4.63c.11,2.85-1.64,4.29-4,5.27A1.22,1.22,0,0,1,38.15,91.2Z"/><path class="cls-41" d="M13.08,14.72l-.63-.05c.51-2.54,1-5.09,2.64-7.19Z"/><path class="cls-42" d="M38.15,91.2l.66.64a12.44,12.44,0,0,1-5.93,2c0-.2,0-.4,0-.6a1.41,1.41,0,0,1,.66-1,3.29,3.29,0,0,1,2-.33Z"/><path class="cls-43" d="M118.65,54.4l-.83-.24,7.41-2.47c-.39,1.32-1.81,1.27-2.65,2l-2,.72A1.4,1.4,0,0,1,118.65,54.4Z"/><path class="cls-21" d="M145.64,44.38a1.12,1.12,0,0,0,1.28-1.27l1.41-2c-.22,2.56-.5,5.12-1.9,7.38C146,47.17,147.52,45.45,145.64,44.38Z"/><path class="cls-1" d="M62,155.1c.22.67.44,1.34.65,2-1.84.66-2.46-.88-3.36-1.9C60.08,153.52,61.1,156.26,62,155.1Z"/><path class="cls-44" d="M3.88,18H3.23c.36-2.06,2.25-3.11,3.18-4.79l.15,1.45,0,.72A3.86,3.86,0,0,1,3.88,18Z"/><path class="cls-19" d="M142.33,16.05l-6.72.07-.8-1.29C137.18,16.1,140,14.55,142.33,16.05Z"/><path class="cls-45" d="M139.64,10.12a3.14,3.14,0,0,1-1.92-2.61A2.52,2.52,0,0,1,139.64,10.12Z"/><path class="cls-46" d="M133,44.86l.09,1.52-1.5.56C131,45.5,132.39,45.44,133,44.86Z"/><path class="cls-23" d="M.51,36.48h.66c0,1.13,0,2.26,0,3.39A3.55,3.55,0,0,1,.51,36.48Z"/><path class="cls-46" d="M141.57,54.93l.1.68c-.52.78-.88,1.73-2,1.93.23-.64.45-1.28.67-1.92Z"/><path class="cls-46" d="M129.93,49l-.09-.59a3.7,3.7,0,0,1,1.83-1.57C131.56,48,130.7,48.47,129.93,49Z"/><path class="cls-47" d="M91.51,130.17a2.12,2.12,0,0,1-1.92-1.39c-1.22-8.18-1.07-16.23,2.27-24A82.71,82.71,0,0,0,91.51,130.17Z"/><path class="cls-48" d="M71.82,128.22l-1.31.6c-1.5-6.09-1.56-12.6-5.1-18.12-.35-.55-.81-1-1.12-1.6s-1.84-.54-1-1.59c.68-.87,1.59-.39,2.29.26a13.19,13.19,0,0,1,3.6,6.51c.71,2.63,1.3,5.29,2,7.94-.74,1.09.32,2.18,0,3.27C71.21,126.43,70.85,127.5,71.82,128.22Z"/><path class="cls-49" d="M54,92.87c3.33,0,6,1.92,8.3,4.54.39.45,1.11,1,.35,1.6s-1.21.07-1.71-.4a15.83,15.83,0,0,0-2.64-2.42c-2.37-1.42-4.84-2.69-7.5-.49-.48.4-1.09,1-1.63.18s.19-1.16.61-1.63C50.82,93.09,52.14,92.75,54,92.87Z"/><path class="cls-50" d="M71.12,125.49a2.22,2.22,0,0,1,0-3.27C71,123.31,72.51,124.39,71.12,125.49Z"/><path class="cls-51" d="M96.69,149.83l-1.29,1.81c-1.37,1.08-2.79,2.09-4.09,3.23-2.39,2.1-4.75,1.87-7.14.1-1.92-1.43-3.56-1.35-5.6.12C74.15,158.29,71,158,67,154.75c-3.57-2.91-2.69-6.73-2.15-10.31.41-2.78,4.93-6.3,7.62-6.34q9.36-.14,18.72,0c2.56,0,5.48,4,5.63,7.47C96.92,147,96.75,148.41,96.69,149.83Z"/><path class="cls-52" d="M35.53,91.88c-.47.77-1.25.63-2,.65-1.68.88-3.6-.25-5.28.66-2.39.58-3.88-1.53-5.93-2,.21-1.74-2.78-2.64-1.24-4.73l.45,0c1.32,0,2.74.26,3.56-1.22a4.48,4.48,0,0,0,.62-4.06c-.28-1-.95-2-.15-3.11,3.27,4,6.56,8,10.87,11.08C38.1,90.3,35.52,90.82,35.53,91.88Z"/><path class="cls-53" d="M25.59,78.05c.71,2.57,2.67,5.14,0,7.7a3.52,3.52,0,0,1-4.51.73h0l-4-5.15c-1.11-2.68.16-4.93,3.06-5.07a21.11,21.11,0,0,1,4.13.6Z"/><path class="cls-54" d="M119.93,89.9c-4.62,1.91-6.37,1.47-7.9-2a7.65,7.65,0,0,0,3.09-5.16,11.11,11.11,0,0,1,2.82-5.38,1.76,1.76,0,0,1,.55,1.35,12.27,12.27,0,0,1-.58,2.52c-.93,3.75-.58,4.61,2.72,6.57-.35,2.5-2.36.88-3.31,1.45C118.07,89.38,119.17,89,119.93,89.9Z"/><path class="cls-55" d="M129.82,71.42a31.47,31.47,0,0,1,2.86,2.67c.69.82,1.38,1.89-.22,2.63l-3.32-4.62Z"/><path class="cls-56" d="M117.93,78.62c0-.42,0-.84,0-1.27L119.25,76c1.11-.08,1.89-2,3.27-.59A7.77,7.77,0,0,1,117.93,78.62Z"/><path class="cls-1" d="M111.25,64.86l.15,1.21c0,.48-.05,1-.08,1.44-.24.39-.45.31-.64,0C110.78,66.58,110.41,65.59,111.25,64.86Z"/><path class="cls-57" d="M117.93,78.62a9.35,9.35,0,0,1,4.59-3.17l0,0c1,.8,2.4-.3,3.3.78,4.18,2.76,4.31,3.8.84,7.36-1,1.08-2.23,2-3.35,3.05A2.09,2.09,0,0,1,120.58,88c-3.67-.41-4.65-1.54-4-5A30.06,30.06,0,0,1,117.93,78.62Z"/><path class="cls-58" d="M120.58,88l2.71-1.33c1.2,0,.86.66.58,1.31-1.28.72-2.35,1.87-3.94,2-1.43,0-2.86,0-4.28-.08-.67,0-1.42-.37-1.31-1.16.14-1,.93-.6,1.54-.45C117.48,88.6,119.07,89.05,120.58,88Z"/><path class="cls-56" d="M125.8,76.21c-1.09-.3-2.36.19-3.3-.78C123.63,75.56,125,74.84,125.8,76.21Z"/><path class="cls-14" d="M118.65,54.4h1.91c3,2.73,6,5.45,6.63,9.82a3.34,3.34,0,0,1-2.35.71c-2.27.7-3.77.06-4.42-2.35-.49-1.82-1.76-3.19-2.9-4.63-.66-.84-1.92-1.8-.25-2.92Z"/><path class="cls-59" d="M117.27,55c-.85,1.38.44,1.9,1.1,2.64,1.22,1.36,2.59,2.69,2.84,4.57.31,2.26,1.69,2.78,3.62,2.69-1.24,1-2.7.67-4.1.66-2.56.73-4.16.24-4.41-2.85a17.5,17.5,0,0,0-1.54-5c-.36-.85-1-1.79,0-2.65Z"/><path class="cls-60" d="M114.83,55.11c.83,3.11,1.59,6.23,2.52,9.31.53,1.78,2.31.58,3.37,1.17l-5.43.44c1.61-3.71-.78-6.58-2-9.7Z"/><path class="cls-61" d="M.78,33.68a23.61,23.61,0,0,1,.42-6.15c.88-4.3,2.9-5.57,7.3-4.23.65.54,2.25.46,1.35,2-.08,1-.5,2.05-.18,2.84,1.38,3.38-.17,4.39-3.22,4.33C4.46,32.45,2.83,34.05.78,33.68Z"/><path class="cls-41" d="M9.85,25.33c.08-1-.92-1.34-1.35-2,.46-.14,1.31-.19.56-.89S7.2,22,6.24,22C2,22,2,22,3.88,18a6,6,0,0,1,2.65-2.62c.66,0,1.31,0,2,0,2.76-.17,3.89.75,2.86,3.67A56.87,56.87,0,0,0,9.85,25.33Z"/><path class="cls-62" d="M28.28,93.19c1.63-1.32,3.53-.36,5.28-.66l-.67.67Z"/><path class="cls-63" d="M70.55,144c1.8,0,5.86,3.31,5.82,4.89a3.79,3.79,0,0,1-3.24,3.85c-1.57.29-5.83-4.51-5.75-6.09C67.44,145.38,69.14,144,70.55,144Z"/><path class="cls-64" d="M92.22,145.21c2,.33,3.13.93,1.89,3.21a10.32,10.32,0,0,1-3.94,3.74c-.77.48-1.67,1.4-2.6.47s-1.57-1.89-1-3.2A6.38,6.38,0,0,1,92.22,145.21Z"/><path class="cls-65" d="M21.07,86.48a4.65,4.65,0,0,0,4.51-.73C24.39,87.93,22.82,87.79,21.07,86.48Z"/><path class="cls-49" d="M102.26,92.69c-3.34,0-6,1.92-8.31,4.54-.39.45-1.1,1-.35,1.6s1.21.07,1.71-.4A16.23,16.23,0,0,1,98,96c2.37-1.42,4.84-2.69,7.5-.49.49.4,1.09,1,1.64.18s-.2-1.16-.62-1.63C105.44,92.91,104.11,92.57,102.26,92.69Z"/></g></g></svg>